<svg width="36" height="36" viewBox="0 0 36 36" fill="none" xmlns="http://www.w3.org/2000/svg">
<path d="M5.37524 2.25H6.37525V4.25H5.37524V2.25Z" fill="#1E5DC5"/>
<path d="M2.125 5.25H4.125V6.25H2.125V5.25Z" fill="#1E5DC5"/>
<path d="M27.25 28.25H8.75C7.645 28.25 6.75 27.355 6.75 26.25V11.25H29.25V26.25C29.25 27.355 28.355 28.25 27.25 28.25Z" fill="#1C1C1C"/>
<path d="M29.25 11.25H6.75V9.75C6.75 8.645 7.645 7.75 8.75 7.75H27.25C28.355 7.75 29.25 8.645 29.25 9.75V11.25Z" fill="#1C1C1C"/>
<path d="M11 7.75H8.75C7.645 7.75 6.75 8.645 6.75 9.75V11.25H9V9.75C9 8.645 9.895 7.75 11 7.75Z" fill="#1C1C1C"/>
<path d="M9 26.25V11.25H6.75V26.25C6.75 27.355 7.645 28.25 8.75 28.25H11C9.895 28.25 9 27.355 9 26.25Z" fill="#1C1C1C"/>
<path d="M10.5 18C9.673 18 9 17.327 9 16.5C9 15.673 9.673 15 10.5 15C11.327 15 12 15.673 12 16.5C12 17.327 11.327 18 10.5 18Z" fill="#1E5DC5"/>
<path d="M18 19C17.173 19 16.5 18.327 16.5 17.5C16.5 16.673 17.173 16 18 16C18.827 16 19.5 16.673 19.5 17.5C19.5 18.327 18.827 19 18 19Z" fill="#1E5DC5"/>
<path d="M25.5 17C24.673 17 24 16.327 24 15.5C24 14.673 24.673 14 25.5 14C26.327 14 27 14.673 27 15.5C27 16.327 26.327 17 25.5 17Z" fill="#1E5DC5"/>
<path d="M17.25 21H18.75V25.75H17.25V21Z" fill="#1E5DC5"/>
<path d="M25.25 26H10.75C10.336 26 10 25.664 10 25.25V20H11.5V24.5H24.5V19H26V25.25C26 25.664 25.664 26 25.25 26Z" fill="#1E5DC5"/>
<path d="M18.0001 18.2499C17.9671 18.2499 17.9341 18.2479 17.9011 18.2439L10.4011 17.2439L10.5981 15.7569L17.9511 16.7369L25.3061 14.7759L25.6931 16.2249L18.1931 18.2249C18.1301 18.2419 18.0651 18.2499 18.0001 18.2499V18.2499Z" fill="#1E5DC5"/>
<path d="M27.25 29H8.75C7.233 29 6 27.767 6 26.25V9.75C6 8.233 7.233 7 8.75 7H27.25C28.767 7 30 8.233 30 9.75V26.25C30 27.767 28.767 29 27.25 29ZM8.75 8.5C8.061 8.5 7.5 9.061 7.5 9.75V26.25C7.5 26.939 8.061 27.5 8.75 27.5H27.25C27.939 27.5 28.5 26.939 28.5 26.25V9.75C28.5 9.061 27.939 8.5 27.25 8.5H8.75Z" fill="#1E5DC5"/>
<path d="M6.75 10.5H29.25V12H6.75V10.5Z" fill="#1E5DC5"/>
</svg>
