<svg width="20" height="20" viewBox="0 0 20 20" fill="none" xmlns="http://www.w3.org/2000/svg">
<path d="M10.7804 15.5559L19.6805 6.65561C19.8865 6.44976 20 6.17496 20 5.88196C20 5.58895 19.8865 5.31416 19.6805 5.10831L19.0252 4.45286C18.5982 4.02636 17.9042 4.02636 17.4779 4.45286L10.0041 11.9266L2.52209 4.44457C2.31608 4.23872 2.04145 4.12506 1.7486 4.12506C1.45543 4.12506 1.1808 4.23872 0.974625 4.44457L0.319509 5.10001C0.113494 5.30603 -4.75763e-07 5.58066 -4.75763e-07 5.87367C-4.75763e-07 6.16667 0.113494 6.44147 0.319509 6.64732L9.22773 15.5559C9.43439 15.7622 9.71033 15.8755 10.0037 15.8749C10.2981 15.8755 10.5739 15.7622 10.7804 15.5559Z" fill="#1E5DC5"/>
</svg>
