<svg width="18" height="18" viewBox="0 0 18 18" fill="none" xmlns="http://www.w3.org/2000/svg">
<g clip-path="url(#clip0)">
<path d="M15.8274 14.3245C15.7745 14.2902 15.3762 14.0112 14.9775 13.1673C14.2452 11.6175 14.0915 9.43439 14.0915 7.87588C14.0915 7.86909 14.0914 7.86238 14.0911 7.85563C14.0832 5.79586 12.8498 4.02026 11.0848 3.22358V2.00517C11.0848 0.899508 10.1868 0 9.08293 0H8.91703C7.81319 0 6.91516 0.899508 6.91516 2.00517V3.22351C5.14427 4.02275 3.90842 5.80743 3.90842 7.87588C3.90842 9.43439 3.75472 11.6175 3.02245 13.1673C2.62374 14.0112 2.22553 14.2901 2.17258 14.3245C1.94962 14.4277 1.83969 14.6661 1.89098 14.9076C1.94277 15.1516 2.17079 15.3198 2.4198 15.3198H6.28512C6.30671 16.8013 7.51587 18 8.99999 18C10.4841 18 11.6933 16.8013 11.7149 15.3198H15.5802C15.8292 15.3198 16.0572 15.1516 16.109 14.9076C16.1602 14.6661 16.0503 14.4277 15.8274 14.3245ZM7.96988 2.00517C7.96988 1.48201 8.39478 1.05641 8.91706 1.05641H9.08296C9.60524 1.05641 10.0301 1.48201 10.0301 2.00517V2.88116C9.69728 2.81236 9.35272 2.77615 8.99985 2.77615C8.6471 2.77615 8.30264 2.81232 7.96992 2.88105V2.00517H7.96988ZM8.99999 16.9436C8.09743 16.9436 7.36122 16.2188 7.33981 15.3198H10.6601C10.6388 16.2187 9.90256 16.9436 8.99999 16.9436ZM11.1234 14.2633C11.1233 14.2633 3.62162 14.2633 3.62162 14.2633C3.71285 14.1211 3.80569 13.9602 3.89798 13.7782C4.60476 12.3845 4.96314 10.3987 4.96314 7.87588C4.96314 5.64637 6.77401 3.83256 8.99982 3.83256C11.2256 3.83256 13.0365 5.64637 13.0365 7.87764C13.0365 7.88414 13.0366 7.89061 13.0368 7.89708C13.0388 10.4098 13.3972 12.3885 14.102 13.7782C14.1943 13.9602 14.2872 14.1211 14.3784 14.2633H11.1234Z" fill="#1E5DC5"/>
</g>
<defs>
<clipPath id="clip0">
<rect width="18" height="18" fill="white"/>
</clipPath>
</defs>
</svg>
