<?xml version="1.0" encoding="utf-8"?>
<!-- Generator: Adobe Illustrator 22.1.0, SVG Export Plug-In . SVG Version: 6.00 Build 0)  -->
<svg version="1.1" id="Layer_1" xmlns="http://www.w3.org/2000/svg" xmlns:xlink="http://www.w3.org/1999/xlink" x="0px" y="0px"
	 viewBox="0 0 18 18" style="enable-background:new 0 0 18 18;" xml:space="preserve">
<style type="text/css">
	.st0{clip-path:url(#XMLID_9_);}
	.st1{fill:#E4EBF5;}
	.st2{fill:#FFFFFF;}
</style>
<g id="XMLID_1_">
	<g id="XMLID_6_">
		<defs>
			<rect id="XMLID_7_" width="18" height="18"/>
		</defs>
		<clipPath id="XMLID_9_">
			<use xlink:href="#XMLID_7_"  style="overflow:visible;"/>
		</clipPath>
		<g id="XMLID_2_" class="st0">
			<path id="XMLID_10_" class="st1" d="M15.8,14.3c-0.1,0-0.5-0.3-0.8-1.2c-0.7-1.5-0.9-3.7-0.9-5.3l0,0c0-2.1-1.2-3.8-3-4.6V2
				c0-1.1-0.9-2-2-2H8.9c-1.1,0-2,0.9-2,2v1.2c-1.8,0.8-3,2.6-3,4.7c0,1.6-0.2,3.7-0.9,5.3c-0.4,0.8-0.8,1.1-0.8,1.2
				C2,14.5,1.9,14.7,1.9,15c0.1,0.2,0.3,0.4,0.5,0.4h3.9C6.3,16.8,7.5,18,9,18s2.7-1.2,2.7-2.7h3.9c0.2,0,0.5-0.2,0.5-0.4
				C16.2,14.7,16.1,14.4,15.8,14.3z"/>
			<path id="XMLID_5_" class="st2" d="M11.1,14.3H3.6c0.1-0.1,0.2-0.3,0.3-0.5C4.6,12.4,5,10.4,5,7.9c0-2.2,1.8-4,4-4s4,1.8,4,4l0,0
				c0,2.5,0.4,4.5,1.1,5.9c0.1,0.2,0.2,0.3,0.3,0.5H11.1z"/>
			<path id="XMLID_4_" class="st2" d="M8,2c0-0.5,0.4-0.9,0.9-0.9h0.2C9.6,1.1,10,1.5,10,2v0.9C9.7,2.8,9.4,2.8,9,2.8s-0.7,0-1,0.1
				V2z"/>
			<path id="XMLID_3_" class="st2" d="M9,16.9c-0.9,0-1.6-0.7-1.7-1.6h3.3C10.6,16.2,9.9,16.9,9,16.9z"/>
		</g>
	</g>
</g>
</svg>
