<svg width="414" height="414" viewBox="0 0 414 414" fill="none" xmlns="http://www.w3.org/2000/svg">
<g clip-path="url(#clip0)">
<path d="M395.555 39.6211H186.319C182.971 39.6211 180.254 42.3375 180.254 45.6855C180.254 49.0368 182.971 51.75 186.319 51.75H395.558C399.039 51.75 401.872 54.5832 401.872 58.0671V242.704C401.872 246.053 404.589 248.769 407.937 248.769C411.288 248.769 414.001 246.053 414.001 242.704V58.0671C414.001 47.8965 405.729 39.6211 395.555 39.6211Z" fill="#ECEFF5"/>
<path d="M407.935 263.048C404.583 263.048 401.87 265.762 401.87 269.113V281.103H12.1289V58.0671C12.1289 54.5832 14.9621 51.75 18.4428 51.75H107.758C111.106 51.75 113.822 49.0368 113.822 45.6855C113.822 42.3375 111.106 39.6211 107.758 39.6211H18.4428C8.27228 39.6211 0 47.8965 0 58.0671V318.481C0 326.378 6.42452 332.802 14.3209 332.802H161.289V362.189H136.248C132.9 362.189 130.183 364.906 130.183 368.254C130.183 371.605 132.9 374.318 136.248 374.318H277.751C281.103 374.318 283.816 371.605 283.816 368.254C283.816 364.906 281.103 362.189 277.751 362.189H252.71V332.802H399.678C407.575 332.802 413.999 326.378 413.999 318.481V269.113C413.999 265.762 411.286 263.048 407.935 263.048V263.048ZM240.581 362.189H173.418V332.802H240.581V362.189ZM399.678 320.673H14.3209C13.1112 320.673 12.1289 319.691 12.1289 318.481V293.232H401.87V318.481C401.87 319.691 400.888 320.673 399.678 320.673Z" fill="#ECEFF5"/>
<path d="M134.166 51.75H159.908C163.256 51.75 165.973 49.0368 165.973 45.6855C165.973 42.3375 163.256 39.6211 159.908 39.6211H134.166C130.818 39.6211 128.101 42.3375 128.101 45.6855C128.101 49.0368 130.818 51.75 134.166 51.75Z" fill="#ECEFF5"/>
<path d="M37.4985 85.4265C34.1504 85.4265 31.434 88.1397 31.434 91.491V252.436C31.434 255.784 34.1504 258.5 37.4985 258.5H84.7254C88.0735 258.5 90.7899 255.784 90.7899 252.436V91.491C90.7899 88.1397 88.0735 85.4265 84.7254 85.4265H37.4985ZM78.6609 97.5554V104.877H43.5629V97.5554H78.6609ZM43.5629 246.371V117.006H78.6609V246.371H43.5629Z" fill="#ECEFF5"/>
<path d="M334.504 151.245H381.731C385.082 151.245 387.795 148.532 387.795 145.18V91.491C387.795 88.1397 385.082 85.4265 381.731 85.4265H334.504C331.156 85.4265 328.439 88.1397 328.439 91.491V145.18C328.439 148.532 331.156 151.245 334.504 151.245ZM340.568 139.116V117.003H375.666V139.116H340.568ZM375.666 97.5554V104.877H340.568V97.5554H375.666Z" fill="#ECEFF5"/>
<path d="M328.439 231.154C328.439 234.505 331.156 237.218 334.504 237.218H381.731C385.082 237.218 387.795 234.505 387.795 231.154V177.464C387.795 174.113 385.082 171.4 381.731 171.4H334.504C331.156 171.4 328.439 174.113 328.439 177.464V231.154ZM340.568 225.089V202.976H375.666V225.089H340.568ZM375.666 183.529V190.847H340.568V183.529H375.666Z" fill="#ECEFF5"/>
<path d="M118.549 201.845C118.549 211.596 126.486 219.53 136.237 219.53C140.678 219.53 144.736 217.884 147.844 215.171L189.525 238.263C189.386 239.157 189.31 240.076 189.31 241.008C189.31 250.762 197.244 258.696 206.998 258.696C216.749 258.696 224.683 250.762 224.683 241.008C224.683 240.076 224.61 239.157 224.471 238.263L266.149 215.171C269.257 217.881 273.319 219.53 277.756 219.53C287.51 219.53 295.444 211.596 295.444 201.842C295.444 194.22 290.596 187.707 283.821 185.228V147.663C290.596 145.18 295.444 138.671 295.444 131.046C295.444 121.292 287.51 113.358 277.756 113.358C273.328 113.358 269.279 114.997 266.174 117.694L224.468 94.5895C224.61 93.6956 224.683 92.7797 224.683 91.8447C224.683 82.0911 216.749 74.1567 206.995 74.1567C197.244 74.1567 189.31 82.0911 189.31 91.8447C189.31 92.7765 189.383 93.6956 189.525 94.5895L147.819 117.694C144.714 114.997 140.665 113.358 136.237 113.358C126.483 113.358 118.549 121.292 118.549 131.046C118.549 138.667 123.397 145.18 130.172 147.66V185.228C123.397 187.707 118.549 194.22 118.549 201.845V201.845ZM206.998 109.533C211.426 109.533 215.476 107.893 218.581 105.193L260.286 128.301C260.147 129.195 260.072 130.111 260.072 131.046C260.072 131.981 260.147 132.9 260.286 133.794L218.581 156.899C215.476 154.201 211.426 152.562 206.998 152.562C202.57 152.562 198.521 154.201 195.416 156.899L153.71 133.794C153.852 132.9 153.925 131.981 153.925 131.046C153.925 130.111 153.849 129.195 153.71 128.301L195.416 105.196C198.521 107.893 202.57 109.533 206.998 109.533V109.533ZM260.072 201.845C260.072 202.767 260.144 203.674 260.28 204.558L218.581 227.66C216.97 226.258 215.106 225.139 213.063 224.394V186.864C219.838 184.384 224.686 177.872 224.686 170.247C224.686 169.312 224.61 168.396 224.471 167.502L266.177 144.397C267.788 145.796 269.652 146.914 271.695 147.663V185.228C264.92 187.707 260.072 194.22 260.072 201.845ZM212.557 170.247C212.557 173.314 210.062 175.806 206.998 175.806C203.934 175.806 201.439 173.314 201.439 170.247C201.439 167.183 203.934 164.691 206.998 164.691C210.062 164.691 212.557 167.183 212.557 170.247ZM147.819 144.397L189.525 167.502C189.386 168.399 189.31 169.315 189.31 170.25C189.31 177.872 194.159 184.384 200.934 186.864V224.394C198.89 225.143 197.027 226.261 195.416 227.66L153.716 204.558C153.852 203.674 153.925 202.767 153.925 201.845C153.925 194.22 149.076 187.707 142.301 185.228V147.663C144.345 146.914 146.208 145.796 147.819 144.397ZM136.237 207.401C133.173 207.401 130.678 204.909 130.678 201.845C130.678 198.778 133.173 196.286 136.237 196.286C139.304 196.286 141.796 198.778 141.796 201.845C141.796 204.909 139.304 207.401 136.237 207.401ZM206.998 246.567C203.934 246.567 201.439 244.072 201.439 241.008C201.439 237.944 203.934 235.449 206.998 235.449C210.062 235.449 212.557 237.944 212.557 241.008C212.557 244.072 210.062 246.567 206.998 246.567ZM277.76 207.401C274.696 207.401 272.201 204.909 272.201 201.845C272.201 198.778 274.696 196.286 277.76 196.286C280.823 196.286 283.319 198.778 283.319 201.845C283.319 204.909 280.823 207.401 277.76 207.401ZM277.76 125.487C280.823 125.487 283.319 127.982 283.319 131.046C283.319 134.11 280.823 136.605 277.76 136.605C274.696 136.605 272.201 134.11 272.201 131.046C272.201 127.982 274.696 125.487 277.76 125.487ZM206.998 86.2856C210.062 86.2856 212.557 88.7809 212.557 91.8447C212.557 94.9085 210.062 97.4038 206.998 97.4038C203.934 97.4038 201.439 94.9085 201.439 91.8447C201.439 88.7809 203.934 86.2856 206.998 86.2856V86.2856ZM136.237 125.487C139.304 125.487 141.796 127.982 141.796 131.046C141.796 134.11 139.304 136.605 136.237 136.605C133.173 136.605 130.678 134.11 130.678 131.046C130.678 127.982 133.173 125.487 136.237 125.487Z" fill="#ECEFF5"/>
</g>
<defs>
<clipPath id="clip0">
<rect width="414" height="414" fill="white"/>
</clipPath>
</defs>
</svg>
