<svg width="36" height="36" viewBox="0 0 36 36" fill="none" xmlns="http://www.w3.org/2000/svg">
<path d="M26.9028 2.61646L27.6099 1.90935L29.0241 3.32356L28.317 4.03067L26.9028 2.61646Z" fill="#2780EB"/>
<path d="M30.9683 6.6825L31.6754 5.97539L33.0896 7.3896L32.3825 8.09671L30.9683 6.6825Z" fill="#2780EB"/>
<path d="M30.7925 3.32397L32.2067 1.90976L32.9138 2.61687L31.4996 4.03108L30.7925 3.32397Z" fill="#2780EB"/>
<path d="M16.746 22.9989C16.555 22.9989 16.363 22.9619 16.183 22.8879C15.808 22.7329 15.51 22.4249 15.368 22.0439L15.115 21.3699L14.456 21.1329C14.075 20.9889 13.768 20.6929 13.613 20.3179C13.458 19.9429 13.465 19.5149 13.633 19.1459L13.932 18.4889L13.634 17.8559C13.466 17.4849 13.459 17.0569 13.614 16.6819C13.77 16.3069 14.077 16.0109 14.457 15.8679L15.131 15.6149L15.369 14.9559C15.511 14.5769 15.807 14.2689 16.182 14.1139C16.559 13.9589 16.986 13.9659 17.356 14.1329L18 14.4249L18.645 14.1319C19.015 13.9639 19.443 13.9569 19.819 14.1119C20.194 14.2679 20.49 14.5749 20.633 14.9549L20.886 15.6289L21.545 15.8669C21.924 16.0089 22.232 16.3049 22.387 16.6799C22.543 17.0549 22.536 17.4829 22.368 17.8539L22.069 18.5109L22.367 19.1439C22.535 19.5139 22.542 19.9419 22.387 20.3169C22.232 20.6919 21.925 20.9889 21.545 21.1319L20.869 21.3849L20.632 22.0439C20.49 22.4239 20.193 22.7319 19.817 22.8869C19.442 23.0419 19.014 23.0349 18.643 22.8659L17.988 22.5679L17.354 22.8659C17.163 22.9549 16.954 22.9989 16.746 22.9989V22.9989ZM16.734 15.4979L16.518 16.1579C16.369 16.5559 16.055 16.8699 15.656 17.0189L14.982 17.2719L15.295 17.8909C15.47 18.2789 15.47 18.7219 15.295 19.1089L14.996 19.7659L15.655 19.9819C16.053 20.1309 16.367 20.4449 16.517 20.8429L16.77 21.5179L17.389 21.2049C17.777 21.0289 18.22 21.0299 18.606 21.2039L19.263 21.5029L19.479 20.8439C19.628 20.4459 19.942 20.1319 20.341 19.9829L21.016 19.7299L20.702 19.1109C20.527 18.7229 20.527 18.2799 20.702 17.8939L21.001 17.2359L20.341 17.0199C19.943 16.8709 19.629 16.5569 19.48 16.1579L19.227 15.4839L18.608 15.7969H18.607C18.221 15.9719 17.777 15.9719 17.391 15.7969L16.734 15.4979Z" fill="#2780EB"/>
<path d="M20.25 30C20.07 30 19.892 29.935 19.752 29.811L18 28.254L16.248 29.811C16.027 30.006 15.713 30.055 15.443 29.935C15.173 29.813 15 29.545 15 29.25V21.01H16.5V27.58L17.502 26.689C17.786 26.437 18.214 26.437 18.498 26.689L19.5 27.58V21.01H21V29.25C21 29.545 20.827 29.813 20.557 29.935C20.458 29.979 20.354 30 20.25 30V30Z" fill="#2780EB"/>
<path d="M27.25 28H23V26.5H27.25C27.939 26.5 28.5 25.939 28.5 25.25V8.75C28.5 8.061 27.939 7.5 27.25 7.5H8.75C8.061 7.5 7.5 8.061 7.5 8.75V25.25C7.5 25.939 8.061 26.5 8.75 26.5H13V28H8.75C7.233 28 6 26.767 6 25.25V8.75C6 7.233 7.233 6 8.75 6H27.25C28.767 6 30 7.233 30 8.75V25.25C30 26.767 28.767 28 27.25 28Z" fill="#2780EB"/>
<path d="M6.75 9.5H29.25V11H6.75V9.5Z" fill="#2780EB"/>
</svg>
