<svg width="36" height="36" viewBox="0 0 36 36" fill="none" xmlns="http://www.w3.org/2000/svg">
<path d="M26.9028 2.61646L27.6099 1.90935L29.0241 3.32356L28.317 4.03067L26.9028 2.61646Z" fill="#2780EB"/>
<path d="M30.9683 6.6825L31.6754 5.97539L33.0896 7.3896L32.3825 8.09671L30.9683 6.6825Z" fill="#2780EB"/>
<path d="M30.7925 3.32397L32.2067 1.90976L32.9138 2.61687L31.4996 4.03108L30.7925 3.32397Z" fill="#2780EB"/>
<path d="M18 17C15.693 17 13 16.476 13 15C13 13.524 15.693 13 18 13C20.307 13 23 13.524 23 15C23 16.476 20.307 17 18 17ZM14.742 15C15.261 15.229 16.391 15.5 18 15.5C19.609 15.5 20.74 15.229 21.258 15C20.739 14.771 19.609 14.5 18 14.5C16.391 14.5 15.26 14.771 14.742 15Z" fill="#2780EB"/>
<path d="M18 20C15.693 20 13 19.476 13 18H14.5C14.5 17.902 14.461 17.834 14.448 17.818C14.643 18.049 15.923 18.5 18 18.5C20.077 18.5 21.357 18.049 21.552 17.818C21.539 17.834 21.5 17.902 21.5 18H23C23 19.476 20.307 20 18 20Z" fill="#2780EB"/>
<path d="M18 23C15.693 23 13 22.476 13 21V15H14.5V20.866C14.813 21.105 16.059 21.5 18 21.5C19.941 21.5 21.187 21.105 21.5 20.866V15H23V21C23 22.476 20.307 23 18 23Z" fill="#2780EB"/>
<path d="M19.6629 30H16.3369C15.5369 30 14.8299 29.432 14.6559 28.649L14.2349 26.777C13.5489 26.486 12.8949 26.106 12.2809 25.642L10.4579 26.218C9.67688 26.461 8.82588 26.129 8.43388 25.429L6.77588 22.562C6.37888 21.852 6.51288 20.978 7.09688 20.428L8.50988 19.129C8.46688 18.748 8.44588 18.37 8.44588 18C8.44588 17.63 8.46688 17.252 8.50888 16.871L7.10288 15.579C6.51188 15.023 6.37688 14.149 6.76988 13.448L8.43788 10.563C8.82588 9.87 9.67688 9.54 10.4549 9.78L12.2809 10.357C12.8949 9.893 13.5489 9.513 14.2349 9.222L14.6569 7.348C14.8299 6.568 15.5369 6 16.3369 6H19.6629C20.4629 6 21.1699 6.568 21.3439 7.351L21.7649 9.223C22.4509 9.514 23.1049 9.894 23.7189 10.358L25.5419 9.782C26.3249 9.541 27.1739 9.871 27.5659 10.571L29.2239 13.438C29.6209 14.148 29.4869 15.022 28.9029 15.572L27.4899 16.871C27.5319 17.252 27.5529 17.631 27.5529 18C27.5529 18.369 27.5319 18.748 27.4899 19.129L28.8959 20.421C28.8979 20.423 28.8999 20.425 28.9029 20.427C29.4869 20.977 29.6219 21.851 29.2289 22.552L27.5609 25.437C27.1739 26.128 26.3229 26.46 25.5439 26.218L23.7179 25.641C23.1039 26.105 22.4499 26.485 21.7639 26.776L21.3419 28.65C21.1699 29.432 20.4629 30 19.6629 30V30ZM12.4339 24.059C12.6059 24.059 12.7749 24.118 12.9109 24.23C13.5979 24.795 14.3469 25.231 15.1399 25.523C15.3789 25.611 15.5559 25.814 15.6119 26.062L16.1209 28.322C16.1439 28.426 16.2349 28.5 16.3379 28.5H19.6639C19.7669 28.5 19.8579 28.426 19.8799 28.324L20.3899 26.062C20.4459 25.814 20.6229 25.611 20.8619 25.523C21.6539 25.231 22.4039 24.795 23.0909 24.23C23.2859 24.068 23.5519 24.016 23.7939 24.093L25.9949 24.788C26.0999 24.821 26.2119 24.782 26.2599 24.696L27.9279 21.811C27.9779 21.722 27.9599 21.6 27.8799 21.522L26.1919 19.97C26.0089 19.802 25.9209 19.553 25.9579 19.307C26.0239 18.864 26.0569 18.424 26.0569 17.999C26.0569 17.574 26.0239 17.134 25.9579 16.691C25.9209 16.445 26.0089 16.197 26.1919 16.028L27.8839 14.472C27.9599 14.401 27.9779 14.277 27.9229 14.178L26.2649 11.311C26.2119 11.216 26.0969 11.178 25.9929 11.211L23.7949 11.905C23.5539 11.983 23.2889 11.93 23.0919 11.768C22.4049 11.203 21.6559 10.767 20.8629 10.475C20.6239 10.387 20.4469 10.184 20.3909 9.936L19.8819 7.676C19.8569 7.574 19.7659 7.5 19.6629 7.5H16.3369C16.2339 7.5 16.1429 7.574 16.1209 7.676L15.6109 9.938C15.5549 10.186 15.3779 10.389 15.1389 10.477C14.3469 10.769 13.5969 11.205 12.9099 11.77C12.7139 11.931 12.4479 11.983 12.2069 11.907L10.0059 11.212C9.90288 11.181 9.78888 11.218 9.74088 11.304L8.07288 14.189C8.02288 14.279 8.04088 14.403 8.12388 14.481L9.80988 16.03C9.99288 16.198 10.0809 16.447 10.0439 16.693C9.97888 17.135 9.94588 17.575 9.94588 18C9.94588 18.425 9.97888 18.865 10.0449 19.308C10.0819 19.554 9.99388 19.802 9.81088 19.971L8.11888 21.527C8.04288 21.598 8.02488 21.722 8.07988 21.821L9.73788 24.688C9.79088 24.783 9.90488 24.819 10.0099 24.788L12.2079 24.094C12.2819 24.07 12.3579 24.059 12.4339 24.059V24.059Z" fill="#2780EB"/>
</svg>
