<svg width="18" height="18" viewBox="0 0 18 18" fill="none" xmlns="http://www.w3.org/2000/svg">
<g clip-path="url(#clip0)">
<path d="M17.4369 8.43784H10.3121C10.0016 8.43784 9.74963 8.18584 9.74963 7.87535C9.74963 7.56486 10.0016 7.31287 10.3121 7.31287H17.4369C17.7474 7.31287 17.9994 7.56486 17.9994 7.87535C17.9994 8.18584 17.7474 8.43784 17.4369 8.43784Z" fill="#2780EB"/>
<path d="M14.6245 11.2501C14.4804 11.2501 14.3365 11.1954 14.2269 11.0852C14.0072 10.8654 14.0072 10.5091 14.2269 10.2894L16.6419 7.87457L14.2269 5.45957C14.0072 5.23986 14.0072 4.88364 14.2269 4.66392C14.4468 4.44406 14.803 4.44406 15.0227 4.66392L17.8351 7.47632C18.0549 7.69604 18.0549 8.05226 17.8351 8.27198L15.0227 11.0844C14.9125 11.1954 14.7685 11.2501 14.6245 11.2501Z" fill="#2780EB"/>
<path d="M5.99986 17.9994C5.83933 17.9994 5.68703 17.9769 5.53488 17.9297L1.02142 16.426C0.407305 16.2115 0 15.6392 0 14.9996V1.5C0 0.672754 0.672754 0 1.5 0C1.66039 0 1.81269 0.0225213 1.96498 0.069761L6.4783 1.57347C7.09255 1.78797 7.49972 2.3602 7.49972 2.99986V16.4994C7.49972 17.3267 6.8271 17.9994 5.99986 17.9994ZM1.5 1.12496C1.29374 1.12496 1.12496 1.29374 1.12496 1.5V14.9996C1.12496 15.1593 1.23222 15.3077 1.3852 15.361L5.8775 16.858C5.90977 16.8684 5.95179 16.8745 5.99986 16.8745C6.20612 16.8745 6.37475 16.7057 6.37475 16.4994V2.99986C6.37475 2.84015 6.2675 2.6917 6.11452 2.63842L1.62222 1.14144C1.58995 1.13101 1.54793 1.12496 1.5 1.12496Z" fill="#2780EB"/>
<path d="M11.4371 6.00047C11.1266 6.00047 10.8746 5.74848 10.8746 5.43799V2.06309C10.8746 1.54634 10.454 1.12558 9.93722 1.12558H1.49998C1.18949 1.12558 0.9375 0.873584 0.9375 0.563093C0.9375 0.252601 1.18949 0.000610352 1.49998 0.000610352H9.93722C11.075 0.000610352 11.9996 0.925356 11.9996 2.06309V5.43799C11.9996 5.74848 11.7476 6.00047 11.4371 6.00047Z" fill="#2780EB"/>
<path d="M9.93717 15.7501H6.93718C6.62669 15.7501 6.37469 15.4981 6.37469 15.1876C6.37469 14.8771 6.62669 14.6251 6.93718 14.6251H9.93717C10.4539 14.6251 10.8746 14.2044 10.8746 13.6876V10.3127C10.8746 10.0022 11.1265 9.75024 11.437 9.75024C11.7475 9.75024 11.9995 10.0022 11.9995 10.3127V13.6876C11.9995 14.8253 11.0749 15.7501 9.93717 15.7501Z" fill="#2780EB"/>
</g>
<defs>
<clipPath id="clip0">
<rect width="18" height="18" fill="white"/>
</clipPath>
</defs>
</svg>
