<svg width="36" height="36" viewBox="0 0 36 36" fill="none" xmlns="http://www.w3.org/2000/svg">
<path d="M27.9028 2.61658L28.6099 1.90947L30.0242 3.32368L29.317 4.03079L27.9028 2.61658Z" fill="#2780EB"/>
<path d="M31.9683 6.6825L32.6754 5.97539L34.0896 7.3896L33.3825 8.09671L31.9683 6.6825Z" fill="#2780EB"/>
<path d="M31.7913 3.32397L33.2055 1.90976L33.9126 2.61687L32.4984 4.03108L31.7913 3.32397Z" fill="#2780EB"/>
<path d="M25.431 26H10.569C9.704 26 9 25.296 9 24.431V15.569C9 14.704 9.704 14 10.569 14H25.431C26.296 14 27 14.704 27 15.569V24.431C27 25.296 26.296 26 25.431 26V26ZM10.569 15.5L10.5 15.569V24.431L25.431 24.5L25.5 15.569L10.569 15.5Z" fill="#2780EB"/>
<path d="M10.238 24.2L9.26196 23.06L13.372 19.54C14.032 18.987 14.981 18.987 15.633 19.536L17.82 21.353C17.918 21.436 18.049 21.433 18.142 21.35L21.391 18.441C22.04 17.881 22.947 17.85 23.606 18.354L26.695 20.626L25.806 21.834L22.706 19.554C22.59 19.464 22.46 19.498 22.38 19.568L19.141 22.468C18.486 23.052 17.527 23.066 16.857 22.504L14.67 20.686C14.572 20.603 14.438 20.604 14.341 20.684L10.238 24.2Z" fill="#2780EB"/>
<path d="M27.25 29H8.75C7.233 29 6 27.767 6 26.25V9.75C6 8.233 7.233 7 8.75 7H27.25C28.767 7 30 8.233 30 9.75V26.25C30 27.767 28.767 29 27.25 29ZM8.75 8.5C8.061 8.5 7.5 9.061 7.5 9.75V26.25C7.5 26.939 8.061 27.5 8.75 27.5H27.25C27.939 27.5 28.5 26.939 28.5 26.25V9.75C28.5 9.061 27.939 8.5 27.25 8.5H8.75Z" fill="#2780EB"/>
<path d="M6.75 10.5H29.25V12H6.75V10.5Z" fill="#2780EB"/>
<path d="M2 27.5H34V29H2V27.5Z" fill="#2780EB"/>
</svg>
