<svg width="36" height="36" viewBox="0 0 36 36" fill="none" xmlns="http://www.w3.org/2000/svg">
<path d="M6.97168 4.3208L8.38589 2.90659L9.093 3.61369L7.67879 5.02791L6.97168 4.3208Z" fill="#1E5DC5"/>
<path d="M2.90552 8.38611L4.31973 6.97189L5.02684 7.679L3.61262 9.09322L2.90552 8.38611Z" fill="#1E5DC5"/>
<path d="M3.08301 3.6134L3.79011 2.9063L5.20433 4.32051L4.49722 5.02762L3.08301 3.6134Z" fill="#1E5DC5"/>
<path d="M26.25 8.75H22.75C22.198 8.75 21.75 9.198 21.75 9.75V13.25C21.75 13.802 22.198 14.25 22.75 14.25H26.25C26.802 14.25 27.25 13.802 27.25 13.25V9.75C27.25 9.198 26.802 8.75 26.25 8.75Z" fill="#1C1C1C"/>
<path d="M27.25 26.25V22.75C27.25 22.198 26.802 21.75 26.25 21.75H22.75C22.198 21.75 21.75 22.198 21.75 22.75V26.25C21.75 26.802 22.198 27.25 22.75 27.25H26.25C26.802 27.25 27.25 26.802 27.25 26.25Z" fill="#1C1C1C"/>
<path d="M9.75 27.25H13.25C13.802 27.25 14.25 26.802 14.25 26.25V22.75C14.25 22.198 13.802 21.75 13.25 21.75H9.75C9.198 21.75 8.75 22.198 8.75 22.75V26.25C8.75 26.802 9.198 27.25 9.75 27.25Z" fill="#1C1C1C"/>
<path d="M8.75 9.75V13.25C8.75 13.802 9.198 14.25 9.75 14.25H13.25C13.802 14.25 14.25 13.802 14.25 13.25V9.75C14.25 9.198 13.802 8.75 13.25 8.75H9.75C9.198 8.75 8.75 9.198 8.75 9.75Z" fill="#1C1C1C"/>
<path d="M24 26.25V22.75C24 22.198 24.448 21.75 25 21.75H22.75C22.198 21.75 21.75 22.198 21.75 22.75V26.25C21.75 26.802 22.198 27.25 22.75 27.25H25C24.448 27.25 24 26.802 24 26.25Z" fill="#1C1C1C"/>
<path d="M11 13.25V9.75C11 9.198 11.448 8.75 12 8.75H9.75C9.198 8.75 8.75 9.198 8.75 9.75V13.25C8.75 13.802 9.198 14.25 9.75 14.25H12C11.448 14.25 11 13.802 11 13.25Z" fill="#1C1C1C"/>
<path d="M24 13.25V9.75C24 9.198 24.448 8.75 25 8.75H22.75C22.198 8.75 21.75 9.198 21.75 9.75V13.25C21.75 13.802 22.198 14.25 22.75 14.25H25C24.448 14.25 24 13.802 24 13.25Z" fill="#1C1C1C"/>
<path d="M11 26.25V22.75C11 22.198 11.448 21.75 12 21.75H9.75C9.198 21.75 8.75 22.198 8.75 22.75V26.25C8.75 26.802 9.198 27.25 9.75 27.25H12C11.448 27.25 11 26.802 11 26.25Z" fill="#1C1C1C"/>
<path d="M17.25 6H18.75V30H17.25V6Z" fill="#1E5DC5"/>
<path d="M6 17.25H30V18.75H6V17.25Z" fill="#1E5DC5"/>
<path d="M26.25 15H22.75C21.785 15 21 14.215 21 13.25V9.75C21 8.785 21.785 8 22.75 8H26.25C27.215 8 28 8.785 28 9.75V13.25C28 14.215 27.215 15 26.25 15ZM22.75 9.5C22.612 9.5 22.5 9.612 22.5 9.75V13.25C22.5 13.388 22.612 13.5 22.75 13.5H26.25C26.388 13.5 26.5 13.388 26.5 13.25V9.75C26.5 9.612 26.388 9.5 26.25 9.5H22.75Z" fill="#1E5DC5"/>
<path d="M26.25 28H22.75C21.785 28 21 27.215 21 26.25V22.75C21 21.785 21.785 21 22.75 21H26.25C27.215 21 28 21.785 28 22.75V26.25C28 27.215 27.215 28 26.25 28ZM22.75 22.5C22.612 22.5 22.5 22.612 22.5 22.75V26.25C22.5 26.388 22.612 26.5 22.75 26.5H26.25C26.388 26.5 26.5 26.388 26.5 26.25V22.75C26.5 22.612 26.388 22.5 26.25 22.5H22.75Z" fill="#1E5DC5"/>
<path d="M13.25 28H9.75C8.785 28 8 27.215 8 26.25V22.75C8 21.785 8.785 21 9.75 21H13.25C14.215 21 15 21.785 15 22.75V26.25C15 27.215 14.215 28 13.25 28ZM9.75 22.5C9.612 22.5 9.5 22.612 9.5 22.75V26.25C9.5 26.388 9.612 26.5 9.75 26.5H13.25C13.388 26.5 13.5 26.388 13.5 26.25V22.75C13.5 22.612 13.388 22.5 13.25 22.5H9.75Z" fill="#1E5DC5"/>
<path d="M13.25 15H9.75C8.785 15 8 14.215 8 13.25V9.75C8 8.785 8.785 8 9.75 8H13.25C14.215 8 15 8.785 15 9.75V13.25C15 14.215 14.215 15 13.25 15ZM9.75 9.5C9.612 9.5 9.5 9.612 9.5 9.75V13.25C9.5 13.388 9.612 13.5 9.75 13.5H13.25C13.388 13.5 13.5 13.388 13.5 13.25V9.75C13.5 9.612 13.388 9.5 13.25 9.5H9.75Z" fill="#1E5DC5"/>
</svg>
