<svg width="36" height="36" viewBox="0 0 36 36" fill="none" xmlns="http://www.w3.org/2000/svg">
<path d="M32.5 12C31.673 12 31 11.327 31 10.5C31 9.673 31.673 9 32.5 9C33.327 9 34 9.673 34 10.5C34 11.327 33.327 12 32.5 12ZM32.5 10C32.224 10 32 10.224 32 10.5C32 10.776 32.224 11 32.5 11C32.776 11 33 10.776 33 10.5C33 10.224 32.776 10 32.5 10Z" fill="#2780EB"/>
<path d="M27 15.25H25.5V8.75C25.5 8.061 24.939 7.5 24.25 7.5H11.75C11.061 7.5 10.5 8.061 10.5 8.75V13.25H9V8.75C9 7.233 10.233 6 11.75 6H24.25C25.767 6 27 7.233 27 8.75V15.25Z" fill="#2780EB"/>
<path d="M27.25 30H8.75C7.233 30 6 28.767 6 27.25V15.75C6 14.233 7.233 13 8.75 13H13.586C14.054 13 14.493 13.182 14.824 13.513L16.238 14.927C16.284 14.973 16.348 15 16.414 15H27.25C28.767 15 30 16.233 30 17.75V27.25C30 28.767 28.767 30 27.25 30ZM8.75 14.5C8.061 14.5 7.5 15.061 7.5 15.75V27.25C7.5 27.939 8.061 28.5 8.75 28.5H27.25C27.939 28.5 28.5 27.939 28.5 27.25V17.75C28.5 17.061 27.939 16.5 27.25 16.5H16.414C15.947 16.5 15.507 16.318 15.177 15.987L13.763 14.573C13.716 14.526 13.653 14.5 13.586 14.5H8.75Z" fill="#2780EB"/>
<path d="M2 28.5H34V30H2V28.5Z" fill="#2780EB"/>
</svg>
