<svg width="36" height="36" viewBox="0 0 36 36" fill="none" xmlns="http://www.w3.org/2000/svg">
<path d="M2.08301 2.6123L2.79012 1.9052L4.20433 3.31941L3.49722 4.02652L2.08301 2.6123Z" fill="#1E5DC5"/>
<path d="M1.90552 7.38623L3.31973 5.97202L4.02684 6.67912L2.61262 8.09334L1.90552 7.38623Z" fill="#1E5DC5"/>
<path d="M5.97144 3.3208L7.38565 1.90659L8.09275 2.61369L6.67854 4.02791L5.97144 3.3208Z" fill="#1E5DC5"/>
<path d="M13.25 29.25H7.75C7.198 29.25 6.75 28.802 6.75 28.25V7.75C6.75 7.198 7.198 6.75 7.75 6.75H13.25C13.802 6.75 14.25 7.198 14.25 7.75V28.25C14.25 28.802 13.802 29.25 13.25 29.25Z" fill="#1C1C1C"/>
<path d="M20.75 29.25H15.25C14.698 29.25 14.25 28.802 14.25 28.25V7.75C14.25 7.198 14.698 6.75 15.25 6.75H20.75C21.302 6.75 21.75 7.198 21.75 7.75V28.25C21.75 28.802 21.302 29.25 20.75 29.25Z" fill="#1C1C1C"/>
<path d="M28.25 29.25H22.75C22.198 29.25 21.75 28.802 21.75 28.25V7.75C21.75 7.198 22.198 6.75 22.75 6.75H28.25C28.802 6.75 29.25 7.198 29.25 7.75V28.25C29.25 28.802 28.802 29.25 28.25 29.25Z" fill="#1C1C1C"/>
<path d="M16.5 28.25V7.75C16.5 7.198 16.948 6.75 17.5 6.75H15.25C14.698 6.75 14.25 7.198 14.25 7.75V28.25C14.25 28.802 14.698 29.25 15.25 29.25H17.5C16.948 29.25 16.5 28.802 16.5 28.25Z" fill="#1C1C1C"/>
<path d="M9 28.25V7.75C9 7.198 9.448 6.75 9.99999 6.75H7.75C7.198 6.75 6.75 7.198 6.75 7.75V28.25C6.75 28.802 7.198 29.25 7.75 29.25H9.99999C9.448 29.25 9 28.802 9 28.25Z" fill="#1C1C1C"/>
<path d="M24 28.25V7.75C24 7.198 24.448 6.75 25 6.75H22.75C22.198 6.75 21.75 7.198 21.75 7.75V28.25C21.75 28.802 22.198 29.25 22.75 29.25H25C24.448 29.25 24 28.802 24 28.25Z" fill="#1C1C1C"/>
<path d="M9 25.5H12V27H9V25.5Z" fill="#1E5DC5"/>
<path d="M16.5 25.5H19.5V27H16.5V25.5Z" fill="#1E5DC5"/>
<path d="M13.25 30H7.75C6.785 30 6 29.215 6 28.25V7.75C6 6.785 6.785 6 7.75 6H13.25C14.215 6 15 6.785 15 7.75V28.25C15 29.215 14.215 30 13.25 30ZM7.75 7.5C7.612 7.5 7.5 7.612 7.5 7.75V28.25C7.5 28.388 7.612 28.5 7.75 28.5H13.25C13.388 28.5 13.5 28.388 13.5 28.25V7.75C13.5 7.612 13.388 7.5 13.25 7.5H7.75Z" fill="#1E5DC5"/>
<path d="M20.75 30H15.25C14.285 30 13.5 29.215 13.5 28.25V7.75C13.5 6.785 14.285 6 15.25 6H20.75C21.715 6 22.5 6.785 22.5 7.75V28.25C22.5 29.215 21.715 30 20.75 30ZM15.25 7.5C15.112 7.5 15 7.612 15 7.75V28.25C15 28.388 15.112 28.5 15.25 28.5H20.75C20.888 28.5 21 28.388 21 28.25V7.75C21 7.612 20.888 7.5 20.75 7.5H15.25Z" fill="#1E5DC5"/>
<path d="M28.25 30H22.75C21.785 30 21 29.215 21 28.25V7.75C21 6.785 21.785 6 22.75 6H28.25C29.215 6 30 6.785 30 7.75V28.25C30 29.215 29.215 30 28.25 30ZM22.75 7.5C22.612 7.5 22.5 7.612 22.5 7.75V28.25C22.5 28.388 22.612 28.5 22.75 28.5H28.25C28.388 28.5 28.5 28.388 28.5 28.25V7.75C28.5 7.612 28.388 7.5 28.25 7.5H22.75Z" fill="#1E5DC5"/>
<path d="M9.75 9H11.25V24H9.75V9Z" fill="#1E5DC5"/>
<path d="M17.25 9H18.75V24H17.25V9Z" fill="#1E5DC5"/>
<path d="M24.75 9H26.25V24H24.75V9Z" fill="#1E5DC5"/>
<path d="M24 25.5H27V27H24V25.5Z" fill="#1E5DC5"/>
<path d="M2.00024 28.5H34.0002V30H2.00024V28.5Z" fill="#1E5DC5"/>
</svg>
