<svg width="36" height="36" viewBox="0 0 36 36" fill="none" xmlns="http://www.w3.org/2000/svg">
<path d="M31.5 7C30.673 7 30 6.327 30 5.5C30 4.673 30.673 4 31.5 4C32.327 4 33 4.673 33 5.5C33 6.327 32.327 7 31.5 7ZM31.5 5C31.224 5 31 5.225 31 5.5C31 5.775 31.224 6 31.5 6C31.776 6 32 5.775 32 5.5C32 5.225 31.776 5 31.5 5Z" fill="#2780EB"/>
<path d="M26.25 19.5H23.75C22.785 19.5 22 18.715 22 17.75V16.25C22 14.007 20.393 12.5 18 12.5C15.607 12.5 14 14.007 14 16.25V17.75C14 18.715 13.215 19.5 12.25 19.5H9.75C8.785 19.5 8 18.715 8 17.75V11.75C8 8.579 10.58 6 13.75 6H22.25C25.42 6 28 8.579 28 11.75V17.75C28 18.715 27.215 19.5 26.25 19.5ZM18 11C21.238 11 23.5 13.159 23.5 16.25V17.75C23.5 17.888 23.612 18 23.75 18H26.25C26.388 18 26.5 17.888 26.5 17.75V11.75C26.5 9.406 24.593 7.5 22.25 7.5H13.75C11.407 7.5 9.5 9.406 9.5 11.75V17.75C9.5 17.888 9.612 18 9.75 18H12.25C12.388 18 12.5 17.888 12.5 17.75V16.25C12.5 13.159 14.762 11 18 11Z" fill="#2780EB"/>
<path d="M27.25 30H8.75C7.233 30 6 28.767 6 27.25V22.75H7.5V27.25C7.5 27.939 8.061 28.5 8.75 28.5H27.25C27.939 28.5 28.5 27.939 28.5 27.25V22.75H30V27.25C30 28.767 28.767 30 27.25 30Z" fill="#2780EB"/>
<path d="M6.75 24.5H29.25V26H6.75V24.5Z" fill="#2780EB"/>
<path d="M24.25 18.75H25.75V21.25H24.25V18.75Z" fill="#2780EB"/>
<path d="M10.25 18.75H11.75V21.25H10.25V18.75Z" fill="#2780EB"/>
<path d="M2 28.5H34V30H2V28.5Z" fill="#2780EB"/>
</svg>
