<svg width="36" height="36" viewBox="0 0 36 36" fill="none" xmlns="http://www.w3.org/2000/svg">
<path d="M28 30.5C27.173 30.5 26.5 29.827 26.5 29C26.5 28.173 27.173 27.5 28 27.5C28.827 27.5 29.5 28.173 29.5 29C29.5 29.827 28.827 30.5 28 30.5ZM28 28.5C27.724 28.5 27.5 28.724 27.5 29C27.5 29.276 27.724 29.5 28 29.5C28.276 29.5 28.5 29.276 28.5 29C28.5 28.724 28.276 28.5 28 28.5Z" fill="#2780EB"/>
<path d="M8.97046 5.32085L10.3847 3.90663L11.0918 4.61374L9.67757 6.02795L8.97046 5.32085Z" fill="#2780EB"/>
<path d="M4.90454 9.38618L6.31875 7.97197L7.02586 8.67908L5.61165 10.0933L4.90454 9.38618Z" fill="#2780EB"/>
<path d="M5.08179 4.61337L5.78889 3.90627L7.20311 5.32048L6.496 6.02759L5.08179 4.61337Z" fill="#2780EB"/>
<path d="M17.8779 25.151C17.6859 25.151 17.4939 25.077 17.3479 24.931L15.9699 23.553L17.0309 22.492L17.9079 23.369L22.6509 19.135C26.0499 16.231 28.3289 11.648 28.4909 7.50899C24.3519 7.67199 19.7699 9.94999 16.8759 13.337L12.6309 18.092L15.7589 21.22L14.6979 22.281L11.0689 18.652C10.7879 18.371 10.7749 17.919 11.0399 17.622L15.7459 12.351C19.0789 8.44999 24.4889 5.89699 29.2649 6.00399C29.6649 6.01299 29.9879 6.33599 29.9969 6.73599C30.1069 11.484 27.5519 16.921 23.6379 20.265L18.3789 24.96C18.2349 25.088 18.0569 25.151 17.8779 25.151V25.151Z" fill="#2780EB"/>
<path d="M19.7489 28.727C19.6739 28.727 19.5989 28.716 19.5279 28.692C19.2579 28.602 19.0459 28.385 19.0059 28.104L18.3359 23.427L19.8199 23.214L20.2579 26.272C21.7119 24.349 22.4869 22.043 22.4869 19.618H23.987C23.987 22.972 22.6819 26.124 20.3129 28.493C20.1649 28.64 19.9559 28.727 19.7489 28.727Z" fill="#2780EB"/>
<path d="M12.574 17.665L7.89698 16.995C7.61498 16.955 7.37998 16.758 7.29098 16.487C7.20198 16.216 7.27398 15.919 7.47698 15.718C9.87698 13.318 13.029 12.013 16.383 12.013V13.513C13.946 13.513 11.631 14.295 9.72298 15.741L12.787 16.18L12.574 17.665Z" fill="#2780EB"/>
<path d="M23.133 15.366C22.492 15.366 21.852 15.122 21.365 14.635C20.391 13.66 20.391 12.074 21.365 11.099C22.34 10.124 23.926 10.124 24.901 11.099C25.875 12.074 25.875 13.66 24.901 14.635C24.413 15.123 23.773 15.366 23.133 15.366ZM23.133 11.868C22.877 11.868 22.62 11.965 22.425 12.16C22.035 12.55 22.035 13.184 22.425 13.575C22.814 13.965 23.45 13.965 23.839 13.575C24.229 13.185 24.229 12.551 23.839 12.161C23.645 11.965 23.389 11.868 23.133 11.868V11.868Z" fill="#2780EB"/>
<path d="M6.75001 30C6.55401 30 6.36201 29.923 6.22001 29.78C6.02501 29.585 5.95301 29.299 6.03201 29.034C6.28301 28.193 7.59201 23.945 8.61401 22.924C9.80701 21.732 11.885 21.733 13.076 22.924C13.672 23.521 14 24.313 14 25.156C14 25.999 13.672 26.791 13.076 27.387C12.055 28.408 7.80601 29.717 6.96601 29.969C6.89501 29.99 6.82201 30 6.75001 30ZM10.845 23.501C10.421 23.501 9.99701 23.662 9.67401 23.985C9.23801 24.421 8.48701 26.349 7.90301 28.097C9.65101 27.513 11.579 26.762 12.015 26.326C12.661 25.68 12.661 24.63 12.015 23.985C11.692 23.662 11.269 23.501 10.845 23.501V23.501Z" fill="#2780EB"/>
</svg>
