<svg width="36" height="36" viewBox="0 0 36 36" fill="none" xmlns="http://www.w3.org/2000/svg">
<path d="M27.625 3.25H28.625V5.25H27.625V3.25Z" fill="#1E5DC5"/>
<path d="M29.875 6.25H31.875V7.25H29.875V6.25Z" fill="#1E5DC5"/>
<path d="M8.75 29.25C7.65 29.25 6.75 28.35 6.75 27.25V11.75C6.75 10.65 7.65 9.75 8.75 9.75H21.25C22.35 9.75 23.25 10.65 23.25 11.75V27.25C23.25 28.355 22.355 29.25 21.25 29.25H8.75Z" fill="#1C1C1C"/>
<path d="M19.25 8.75V10.75C19.25 11.302 18.802 11.75 18.25 11.75H11.75C11.198 11.75 10.75 11.302 10.75 10.75V8.75H13C13 7.65 13.9 6.75 15 6.75C16.1 6.75 17 7.65 17 8.75H19.25Z" fill="#1C1C1C"/>
<path d="M9.75 14.75H13.25V18.25H9.75V14.75Z" fill="#1C1C1C"/>
<path d="M9.75 22.75H13.25V26.25H9.75V22.75Z" fill="#1C1C1C"/>
<path d="M23.5 29.25C26.6756 29.25 29.25 26.6756 29.25 23.5C29.25 20.3244 26.6756 17.75 23.5 17.75C20.3244 17.75 17.75 20.3244 17.75 23.5C17.75 26.6756 20.3244 29.25 23.5 29.25Z" fill="#1C1C1C"/>
<path d="M16.125 7.1C15.804 6.88 15.417 6.75 15 6.75C13.9 6.75 13 7.65 13 8.75H15.25C15.25 8.067 15.598 7.461 16.125 7.1Z" fill="#1C1C1C"/>
<path d="M13 10.75V8.75H10.75V10.75C10.75 11.302 11.198 11.75 11.75 11.75H14C13.448 11.75 13 11.302 13 10.75Z" fill="#1C1C1C"/>
<path d="M9.75 14.75H12V18.25H9.75V14.75Z" fill="#1C1C1C"/>
<path d="M9.75 22.75H12V26.25H9.75V22.75Z" fill="#1C1C1C"/>
<path d="M20 23.5C20 20.71 21.988 18.385 24.625 17.862C24.261 17.79 23.885 17.75 23.5 17.75C20.324 17.75 17.75 20.324 17.75 23.5C17.75 26.676 20.324 29.25 23.5 29.25C23.885 29.25 24.261 29.211 24.625 29.138C21.988 28.615 20 26.29 20 23.5V23.5Z" fill="#1C1C1C"/>
<path d="M9 27.25V11.75C9 10.65 9.9 9.75 11 9.75H8.75C7.65 9.75 6.75 10.65 6.75 11.75V27.25C6.75 28.35 7.65 29.25 8.75 29.25H11C9.9 29.25 9 28.35 9 27.25Z" fill="#1C1C1C"/>
<path d="M13.25 19H9.75C9.336 19 9 18.664 9 18.25V14.75C9 14.336 9.336 14 9.75 14H13.25C13.664 14 14 14.336 14 14.75V18.25C14 18.664 13.664 19 13.25 19ZM10.5 17.5H12.5V15.5H10.5V17.5Z" fill="#1E5DC5"/>
<path d="M13.25 27H9.75C9.336 27 9 26.664 9 26.25V22.75C9 22.336 9.336 22 9.75 22H13.25C13.664 22 14 22.336 14 22.75V26.25C14 26.664 13.664 27 13.25 27ZM10.5 25.5H12.5V23.5H10.5V25.5Z" fill="#1E5DC5"/>
<path d="M15.75 14.5H21.25V16H15.75V14.5Z" fill="#1E5DC5"/>
<path d="M23.5 30C19.916 30 17 27.084 17 23.5C17 19.916 19.916 17 23.5 17C27.084 17 30 19.916 30 23.5C30 27.084 27.084 30 23.5 30ZM23.5 18.5C20.743 18.5 18.5 20.743 18.5 23.5C18.5 26.257 20.743 28.5 23.5 28.5C26.257 28.5 28.5 26.257 28.5 23.5C28.5 20.743 26.257 18.5 23.5 18.5Z" fill="#1E5DC5"/>
<path d="M22.5 26.2501C22.302 26.2501 22.11 26.1711 21.97 26.0301L19.97 24.0301L21.031 22.9691L22.465 24.4021L25.437 21.0061L26.566 21.9931L23.066 25.9931C22.929 26.1491 22.734 26.2421 22.527 26.2491C22.517 26.2501 22.508 26.2501 22.5 26.2501Z" fill="#1E5DC5"/>
<path d="M24.0001 14.76H22.5001V11.75C22.5001 11.061 21.9391 10.5 21.2501 10.5H19.3701V9H21.2501C22.7671 9 24.0001 10.234 24.0001 11.75V14.76Z" fill="#1E5DC5"/>
<path d="M16.91 30H8.75C7.233 30 6 28.767 6 27.25V11.75C6 10.233 7.233 9 8.75 9H10.63V10.5H8.75C8.061 10.5 7.5 11.061 7.5 11.75V27.25C7.5 27.939 8.061 28.5 8.75 28.5H16.91V30Z" fill="#1E5DC5"/>
<path d="M18.25 12.5H11.75C10.785 12.5 10 11.715 10 10.75V8.75C10 8.336 10.336 8 10.75 8H12.354C12.682 6.847 13.744 6 15 6C16.256 6 17.318 6.847 17.646 8H19.25C19.664 8 20 8.336 20 8.75V10.75C20 11.715 19.215 12.5 18.25 12.5ZM11.5 9.5V10.75C11.5 10.888 11.612 11 11.75 11H18.25C18.388 11 18.5 10.888 18.5 10.75V9.5H17C16.586 9.5 16.25 9.164 16.25 8.75C16.25 8.061 15.689 7.5 15 7.5C14.311 7.5 13.75 8.061 13.75 8.75C13.75 9.164 13.414 9.5 13 9.5H11.5Z" fill="#1E5DC5"/>
</svg>
