<svg width="36" height="36" viewBox="0 0 36 36" fill="none" xmlns="http://www.w3.org/2000/svg">
<path d="M29.875 2H30.875V4H29.875V2Z" fill="#1E5DC5"/>
<path d="M32.125 5H34.125V6H32.125V5Z" fill="#1E5DC5"/>
<path d="M27.25 29.25H8.75C7.645 29.25 6.75 28.355 6.75 27.25V14.75H29.25V27.25C29.25 28.355 28.355 29.25 27.25 29.25Z" fill="#1C1C1C"/>
<path d="M29.25 14.75H6.75V10.75C6.75 9.645 7.645 8.75 8.75 8.75H27.25C28.355 8.75 29.25 9.645 29.25 10.75V14.75Z" fill="#1C1C1C"/>
<path d="M15.25 25.25H10.75C10.198 25.25 9.75 24.802 9.75 24.25V19.75C9.75 19.198 10.198 18.75 10.75 18.75H15.25C15.802 18.75 16.25 19.198 16.25 19.75V24.25C16.25 24.802 15.802 25.25 15.25 25.25Z" fill="#1C1C1C"/>
<path d="M11 8.75H8.75C7.645 8.75 6.75 9.645 6.75 10.75V14.75H9V10.75C9 9.645 9.895 8.75 11 8.75Z" fill="#1C1C1C"/>
<path d="M12 24.25V19.75C12 19.198 12.448 18.75 13 18.75H10.75C10.198 18.75 9.75 19.198 9.75 19.75V24.25C9.75 24.802 10.198 25.25 10.75 25.25H13C12.448 25.25 12 24.802 12 24.25Z" fill="#1C1C1C"/>
<path d="M9 27.25V14.75H6.75V27.25C6.75 28.355 7.645 29.25 8.75 29.25H11C9.895 29.25 9 28.355 9 27.25Z" fill="#1C1C1C"/>
<path d="M15.25 26H10.75C9.785 26 9 25.215 9 24.25V19.75C9 18.785 9.785 18 10.75 18H15.25C16.215 18 17 18.785 17 19.75V24.25C17 25.215 16.215 26 15.25 26ZM10.75 19.5C10.612 19.5 10.5 19.612 10.5 19.75V24.25C10.5 24.388 10.612 24.5 10.75 24.5H15.25C15.388 24.5 15.5 24.388 15.5 24.25V19.75C15.5 19.612 15.388 19.5 15.25 19.5H10.75Z" fill="#1E5DC5"/>
<path d="M22.75 25C22.536 25 22.332 24.909 22.189 24.748L20.189 22.498L21.31 21.502L22.711 23.078L25.657 19.29L26.841 20.211L23.341 24.711C23.204 24.887 22.996 24.993 22.774 25C22.767 25 22.758 25 22.75 25V25Z" fill="#1E5DC5"/>
<path d="M27.25 30H8.75C7.233 30 6 28.767 6 27.25V10.75C6 9.233 7.233 8 8.75 8H27.25C28.767 8 30 9.233 30 10.75V27.25C30 28.767 28.767 30 27.25 30ZM8.75 9.5C8.061 9.5 7.5 10.061 7.5 10.75V27.25C7.5 27.939 8.061 28.5 8.75 28.5H27.25C27.939 28.5 28.5 27.939 28.5 27.25V10.75C28.5 10.061 27.939 9.5 27.25 9.5H8.75Z" fill="#1E5DC5"/>
<path d="M6.75 14H29.25V15.5H6.75V14Z" fill="#1E5DC5"/>
<path d="M11 6H12.5V12H11V6Z" fill="#1E5DC5"/>
<path d="M23.5 6H25V12H23.5V6Z" fill="#1E5DC5"/>
</svg>
