<svg width="36" height="36" viewBox="0 0 36 36" fill="none" xmlns="http://www.w3.org/2000/svg">
<path d="M32.5 24C31.673 24 31 23.327 31 22.5C31 21.673 31.673 21 32.5 21C33.327 21 34 21.673 34 22.5C34 23.327 33.327 24 32.5 24ZM32.5 22C32.225 22 32 22.225 32 22.5C32 22.775 32.225 23 32.5 23C32.775 23 33 22.775 33 22.5C33 22.225 32.775 22 32.5 22Z" fill="#2780EB"/>
<path d="M2.75 28.5H33.25V30H2.75V28.5Z" fill="#2780EB"/>
<path d="M19.061 26.345C18.613 26.345 18.165 26.175 17.825 25.835C17.824 25.835 17.824 25.834 17.824 25.834L12.46 20.47C12.319 20.329 12.24 20.138 12.24 19.938L12.251 14.999C12.252 14.586 12.586 14.252 12.999 14.251L17.938 14.24C18.122 14.212 18.329 14.318 18.47 14.46L23.834 19.824C24.515 20.507 24.515 21.616 23.835 22.298L20.298 25.835C19.956 26.175 19.509 26.345 19.061 26.345ZM18.884 24.773C18.983 24.869 19.142 24.87 19.238 24.772L22.773 21.237C22.87 21.139 22.87 20.981 22.772 20.883L17.63 15.74L13.748 15.748L13.74 19.63L18.884 24.773Z" fill="#2780EB"/>
<path d="M16 19.75C15.035 19.75 14.25 18.965 14.25 18C14.25 17.035 15.035 16.25 16 16.25C16.965 16.25 17.75 17.035 17.75 18C17.75 18.965 16.965 19.75 16 19.75ZM16 17.75C15.862 17.75 15.75 17.862 15.75 18C15.75 18.275 16.25 18.275 16.25 18C16.25 17.862 16.138 17.75 16 17.75Z" fill="#2780EB"/>
<path d="M27.25 29H8.75C7.233 29 6 27.767 6 26.25V9.75C6 8.233 7.233 7 8.75 7H27.25C28.767 7 30 8.233 30 9.75V26.25C30 27.767 28.767 29 27.25 29ZM8.75 8.5C8.061 8.5 7.5 9.061 7.5 9.75V26.25C7.5 26.939 8.061 27.5 8.75 27.5H27.25C27.939 27.5 28.5 26.939 28.5 26.25V9.75C28.5 9.061 27.939 8.5 27.25 8.5H8.75Z" fill="#2780EB"/>
<path d="M6.75 10.5H29.25V12H6.75V10.5Z" fill="#2780EB"/>
</svg>
