<svg width="36" height="36" viewBox="0 0 36 36" fill="none" xmlns="http://www.w3.org/2000/svg">
<path d="M32.5 24C31.673 24 31 23.327 31 22.5C31 21.673 31.673 21 32.5 21C33.327 21 34 21.673 34 22.5C34 23.327 33.327 24 32.5 24ZM32.5 22C32.225 22 32 22.225 32 22.5C32 22.775 32.225 23 32.5 23C32.775 23 33 22.775 33 22.5C33 22.225 32.775 22 32.5 22Z" fill="#1E5DC5"/>
<path d="M27.25 28.25H8.75C7.645 28.25 6.75 27.355 6.75 26.25V11.25H29.25V26.25C29.25 27.355 28.355 28.25 27.25 28.25Z" fill="#1C1C1C"/>
<path d="M29.25 11.25H6.75V9.75C6.75 8.645 7.645 7.75 8.75 7.75H27.25C28.355 7.75 29.25 8.645 29.25 9.75V11.25Z" fill="#1C1C1C"/>
<path d="M18.354 25.303L12.99 19.939L13 15L17.939 14.99L23.303 20.354C23.694 20.745 23.694 21.378 23.303 21.768L19.767 25.304C19.377 25.694 18.744 25.694 18.354 25.303Z" fill="#1C1C1C"/>
<path d="M16 19C16.5523 19 17 18.5523 17 18C17 17.4477 16.5523 17 16 17C15.4477 17 15 17.4477 15 18C15 18.5523 15.4477 19 16 19Z" fill="#1C1C1C"/>
<path d="M8.75 26.25V11.25H6.75V26.25C6.75 27.355 7.645 28.25 8.75 28.25H10.75C9.645 28.25 8.75 27.355 8.75 26.25Z" fill="#1C1C1C"/>
<path d="M10.75 7.75H8.75C7.645 7.75 6.75 8.645 6.75 9.75V11.25H8.75V9.75C8.75 8.645 9.645 7.75 10.75 7.75Z" fill="#1C1C1C"/>
<path d="M14.99 19.939L15 15H13L12.99 19.939L18.354 25.303C18.745 25.694 19.378 25.694 19.768 25.303L20.061 25.01L14.99 19.939Z" fill="#1C1C1C"/>
<path d="M2.75 28.5H33.25V30H2.75V28.5Z" fill="#1E5DC5"/>
<path d="M19.061 26.3451C18.613 26.3451 18.165 26.1751 17.825 25.8351C17.824 25.8351 17.824 25.8341 17.824 25.8341L12.46 20.4701C12.319 20.3291 12.24 20.1381 12.24 19.9381L12.251 14.9991C12.252 14.5861 12.586 14.2521 12.999 14.2511L17.938 14.2401C18.122 14.2121 18.329 14.3181 18.47 14.4601L23.834 19.8241C24.515 20.5071 24.515 21.6161 23.835 22.2981L20.298 25.8351C19.956 26.1751 19.509 26.3451 19.061 26.3451ZM18.884 24.7731C18.983 24.8691 19.142 24.8701 19.238 24.7721L22.773 21.2371C22.87 21.1391 22.87 20.9811 22.772 20.8831L17.63 15.7401L13.748 15.7481L13.74 19.6301L18.884 24.7731Z" fill="#1E5DC5"/>
<path d="M16 19.75C15.035 19.75 14.25 18.965 14.25 18C14.25 17.035 15.035 16.25 16 16.25C16.965 16.25 17.75 17.035 17.75 18C17.75 18.965 16.965 19.75 16 19.75ZM16 17.75C15.862 17.75 15.75 17.862 15.75 18C15.75 18.275 16.25 18.275 16.25 18C16.25 17.862 16.138 17.75 16 17.75Z" fill="#1E5DC5"/>
<path d="M27.25 29H8.75C7.233 29 6 27.767 6 26.25V9.75C6 8.233 7.233 7 8.75 7H27.25C28.767 7 30 8.233 30 9.75V26.25C30 27.767 28.767 29 27.25 29ZM8.75 8.5C8.061 8.5 7.5 9.061 7.5 9.75V26.25C7.5 26.939 8.061 27.5 8.75 27.5H27.25C27.939 27.5 28.5 26.939 28.5 26.25V9.75C28.5 9.061 27.939 8.5 27.25 8.5H8.75Z" fill="#1E5DC5"/>
<path d="M6.75 10.5H29.25V12H6.75V10.5Z" fill="#1E5DC5"/>
</svg>
