<svg width="36" height="36" viewBox="0 0 36 36" fill="none" xmlns="http://www.w3.org/2000/svg">
<path d="M24.9912 10.3882L26.4054 8.97397L27.1125 9.68107L25.6983 11.0953L24.9912 10.3882Z" fill="#2780EB"/>
<path d="M29.0566 6.32349L30.4709 4.90927L31.178 5.61638L29.7637 7.03059L29.0566 6.32349Z" fill="#2780EB"/>
<path d="M24.8125 5.61157L25.5196 4.90447L26.9338 6.31868L26.2267 7.02578L24.8125 5.61157Z" fill="#2780EB"/>
<path d="M28.8772 9.67737L29.5843 8.97027L30.9985 10.3845L30.2914 11.0916L28.8772 9.67737Z" fill="#2780EB"/>
<path d="M19.75 30H7.75C6.785 30 6 29.215 6 28.25V7.93097C6 7.41497 6.226 6.92897 6.619 6.59497C7.012 6.26197 7.528 6.11697 8.037 6.20397L19.026 7.86897C19.885 8.01197 20.5 8.73797 20.5 9.59697V29.25C20.5 29.664 20.164 30 19.75 30ZM7.751 7.68097C7.67 7.68097 7.616 7.71597 7.589 7.73897C7.556 7.76797 7.5 7.82997 7.5 7.93097V28.25C7.5 28.388 7.612 28.5 7.75 28.5H19V9.59697C19 9.47397 18.912 9.36997 18.791 9.34997L7.802 7.68597C7.784 7.68297 7.767 7.68097 7.751 7.68097V7.68097Z" fill="#2780EB"/>
<path d="M28.25 30H19.75C19.336 30 19 29.664 19 29.25V15.75C19 15.524 19.102 15.31 19.277 15.168C19.452 15.025 19.681 14.969 19.903 15.016L28.62 16.842C29.436 17.023 30 17.725 30 18.552V28.25C30 29.215 29.215 30 28.25 30V30ZM20.5 28.5H28.25C28.388 28.5 28.5 28.388 28.5 28.25V18.552C28.5 18.434 28.42 18.334 28.305 18.308L20.5 16.673V28.5Z" fill="#2780EB"/>
<path d="M15.75 29.75H11.25C10.836 29.75 10.5 29.414 10.5 29V24.75C10.5 23.785 11.285 23 12.25 23H14.75C15.715 23 16.5 23.785 16.5 24.75V29C16.5 29.414 16.164 29.75 15.75 29.75ZM12 28.25H15V24.75C15 24.612 14.888 24.5 14.75 24.5H12.25C12.112 24.5 12 24.612 12 24.75V28.25Z" fill="#2780EB"/>
<path d="M9.5 10.5H12.5V12H9.5V10.5Z" fill="#2780EB"/>
<path d="M14.5 10.5H17.5V12H14.5V10.5Z" fill="#2780EB"/>
<path d="M9.5 13.5H12.5V15H9.5V13.5Z" fill="#2780EB"/>
<path d="M14.5 13.5H17.5V15H14.5V13.5Z" fill="#2780EB"/>
<path d="M9.5 16.5H12.5V18H9.5V16.5Z" fill="#2780EB"/>
<path d="M14.5 16.5H17.5V18H14.5V16.5Z" fill="#2780EB"/>
<path d="M9.5 19.5H12.5V21H9.5V19.5Z" fill="#2780EB"/>
<path d="M14.5 19.5H17.5V21H14.5V19.5Z" fill="#2780EB"/>
<path d="M23 19.5H26V21H23V19.5Z" fill="#2780EB"/>
<path d="M23 22.5H26V24H23V22.5Z" fill="#2780EB"/>
<path d="M23 25.5H26V27H23V25.5Z" fill="#2780EB"/>
<path d="M2 28.5H34V30H2V28.5Z" fill="#2780EB"/>
</svg>
