<svg width="22" height="22" viewBox="0 0 22 22" fill="none" xmlns="http://www.w3.org/2000/svg">
<mask id="path-1-outside-1" maskUnits="userSpaceOnUse" x="0" y="2" width="20" height="20" fill="black">
<rect fill="white" y="2" width="20" height="20"/>
<path fill-rule="evenodd" clip-rule="evenodd" d="M17.6558 3.02112C18.3708 3.06015 18.9394 3.62871 18.9784 4.3437C19.0571 5.7863 18.9806 8.60944 17.5843 11.3091C16.8725 12.6852 15.6656 14.1407 14.2731 15.3022C14.256 15.3165 14.2387 15.3304 14.2215 15.3446L14.0179 17.9805C13.9844 18.4144 13.757 18.8008 13.394 19.0408L10.674 20.8392C10.5133 20.9455 10.3289 20.9995 10.1431 20.9996C10.0109 20.9996 9.87802 20.9722 9.75248 20.9166C9.45078 20.7831 9.24048 20.5087 9.18996 20.1827L8.846 17.9618L8.83832 17.9632C8.79771 17.9706 8.75713 17.978 8.71653 17.9848C8.64094 17.9974 8.56501 18.0036 8.48949 18.0036C8.12282 18.0036 7.76498 17.8576 7.50015 17.5928L4.40677 14.4994C4.08735 14.18 3.94082 13.7253 4.01475 13.283C4.02154 13.2424 4.02892 13.2017 4.0363 13.1611L4.03767 13.1535L1.81688 12.8096C1.49081 12.7591 1.21646 12.5488 1.08294 12.247C0.949455 11.9453 0.978388 11.6008 1.16039 11.3255L2.95872 8.60547C3.19869 8.24253 3.58515 8.01511 4.01904 7.98157L6.65498 7.77795C6.66091 7.77077 6.66679 7.76359 6.67267 7.7564C6.68088 7.74637 6.68908 7.73634 6.69742 7.72634C7.85891 6.33391 9.31434 5.12707 10.6905 4.41524C13.39 3.01898 16.2131 2.94231 17.6558 3.02112ZM10.2105 19.8813L12.8124 18.161C12.902 18.1018 12.9582 18.0063 12.9664 17.8992L13.0991 16.1821C12.0627 16.8758 10.9749 17.3936 9.87528 17.717L10.2105 19.8813ZM5.15248 13.7536L8.2459 16.847C8.32482 16.926 8.4356 16.9623 8.54261 16.9446C8.98539 16.8705 9.51592 16.744 10.1082 16.5318L5.46673 11.8903C5.28983 12.3835 5.14693 12.907 5.05496 13.4569C5.03707 13.5637 5.07356 13.6747 5.15248 13.7536ZM5.81741 8.90046L4.10028 9.0331C3.9932 9.04136 3.89775 9.09751 3.83848 9.18715L2.11819 11.7891L4.28249 12.1243C4.60582 11.0246 5.12365 9.9368 5.81741 8.90046ZM11.1565 16.0887C11.9188 15.7168 12.7457 15.2028 13.5977 14.4922C14.8862 13.4174 15.9979 12.0805 16.6475 10.8245C17.929 8.34694 17.9982 5.73666 17.9254 4.40118C17.9158 4.22438 17.7752 4.0838 17.5984 4.07417C16.2629 4.00146 13.6526 4.07047 11.1751 5.35199C9.91901 6.00166 8.58216 7.11331 7.50729 8.40192C6.9924 9.01918 6.39782 9.84775 5.91064 10.8428L11.1565 16.0887ZM15.1941 10.534C14.6802 11.0479 14.0049 11.3049 13.3298 11.305C12.6545 11.305 11.9795 11.048 11.4655 10.534C10.9675 10.036 10.6933 9.37389 10.6933 8.66966C10.6933 7.96543 10.9675 7.30331 11.4655 6.80534C12.4935 5.77736 14.1661 5.77729 15.1941 6.80534C15.6921 7.30331 15.9664 7.96543 15.9664 8.66966C15.9664 9.37389 15.6922 10.036 15.1941 10.534ZM13.3298 7.08844C12.9247 7.08844 12.5196 7.24263 12.2112 7.55105C11.9124 7.84984 11.7478 8.24713 11.7478 8.66966C11.7478 9.09219 11.9124 9.48944 12.2112 9.78823C12.828 10.405 13.8316 10.405 14.4484 9.78823C14.7471 9.48944 14.9117 9.09215 14.9117 8.66962C14.9117 8.24709 14.7471 7.84984 14.4484 7.55105C14.14 7.24263 13.7349 7.08844 13.3298 7.08844Z"/>
</mask>
<path fill-rule="evenodd" clip-rule="evenodd" d="M17.6558 3.02112C18.3708 3.06015 18.9394 3.62871 18.9784 4.3437C19.0571 5.7863 18.9806 8.60944 17.5843 11.3091C16.8725 12.6852 15.6656 14.1407 14.2731 15.3022C14.256 15.3165 14.2387 15.3304 14.2215 15.3446L14.0179 17.9805C13.9844 18.4144 13.757 18.8008 13.394 19.0408L10.674 20.8392C10.5133 20.9455 10.3289 20.9995 10.1431 20.9996C10.0109 20.9996 9.87802 20.9722 9.75248 20.9166C9.45078 20.7831 9.24048 20.5087 9.18996 20.1827L8.846 17.9618L8.83832 17.9632C8.79771 17.9706 8.75713 17.978 8.71653 17.9848C8.64094 17.9974 8.56501 18.0036 8.48949 18.0036C8.12282 18.0036 7.76498 17.8576 7.50015 17.5928L4.40677 14.4994C4.08735 14.18 3.94082 13.7253 4.01475 13.283C4.02154 13.2424 4.02892 13.2017 4.0363 13.1611L4.03767 13.1535L1.81688 12.8096C1.49081 12.7591 1.21646 12.5488 1.08294 12.247C0.949455 11.9453 0.978388 11.6008 1.16039 11.3255L2.95872 8.60547C3.19869 8.24253 3.58515 8.01511 4.01904 7.98157L6.65498 7.77795C6.66091 7.77077 6.66679 7.76359 6.67267 7.7564C6.68088 7.74637 6.68908 7.73634 6.69742 7.72634C7.85891 6.33391 9.31434 5.12707 10.6905 4.41524C13.39 3.01898 16.2131 2.94231 17.6558 3.02112ZM10.2105 19.8813L12.8124 18.161C12.902 18.1018 12.9582 18.0063 12.9664 17.8992L13.0991 16.1821C12.0627 16.8758 10.9749 17.3936 9.87528 17.717L10.2105 19.8813ZM5.15248 13.7536L8.2459 16.847C8.32482 16.926 8.4356 16.9623 8.54261 16.9446C8.98539 16.8705 9.51592 16.744 10.1082 16.5318L5.46673 11.8903C5.28983 12.3835 5.14693 12.907 5.05496 13.4569C5.03707 13.5637 5.07356 13.6747 5.15248 13.7536ZM5.81741 8.90046L4.10028 9.0331C3.9932 9.04136 3.89775 9.09751 3.83848 9.18715L2.11819 11.7891L4.28249 12.1243C4.60582 11.0246 5.12365 9.9368 5.81741 8.90046ZM11.1565 16.0887C11.9188 15.7168 12.7457 15.2028 13.5977 14.4922C14.8862 13.4174 15.9979 12.0805 16.6475 10.8245C17.929 8.34694 17.9982 5.73666 17.9254 4.40118C17.9158 4.22438 17.7752 4.0838 17.5984 4.07417C16.2629 4.00146 13.6526 4.07047 11.1751 5.35199C9.91901 6.00166 8.58216 7.11331 7.50729 8.40192C6.9924 9.01918 6.39782 9.84775 5.91064 10.8428L11.1565 16.0887ZM15.1941 10.534C14.6802 11.0479 14.0049 11.3049 13.3298 11.305C12.6545 11.305 11.9795 11.048 11.4655 10.534C10.9675 10.036 10.6933 9.37389 10.6933 8.66966C10.6933 7.96543 10.9675 7.30331 11.4655 6.80534C12.4935 5.77736 14.1661 5.77729 15.1941 6.80534C15.6921 7.30331 15.9664 7.96543 15.9664 8.66966C15.9664 9.37389 15.6922 10.036 15.1941 10.534ZM13.3298 7.08844C12.9247 7.08844 12.5196 7.24263 12.2112 7.55105C11.9124 7.84984 11.7478 8.24713 11.7478 8.66966C11.7478 9.09219 11.9124 9.48944 12.2112 9.78823C12.828 10.405 13.8316 10.405 14.4484 9.78823C14.7471 9.48944 14.9117 9.09215 14.9117 8.66962C14.9117 8.24709 14.7471 7.84984 14.4484 7.55105C14.14 7.24263 13.7349 7.08844 13.3298 7.08844Z" fill="#1E5DC5"/>
<path d="M18.9784 4.3437L18.7288 4.35731L18.7288 4.35732L18.9784 4.3437ZM17.6558 3.02112L17.6422 3.27075L17.6422 3.27075L17.6558 3.02112ZM17.5843 11.3091L17.3622 11.1942L17.3622 11.1942L17.5843 11.3091ZM14.2731 15.3022L14.4333 15.4942L14.4333 15.4941L14.2731 15.3022ZM14.2215 15.3446L14.0623 15.1519L13.9804 15.2195L13.9722 15.3253L14.2215 15.3446ZM14.0179 17.9805L13.7686 17.9613L13.7686 17.9613L14.0179 17.9805ZM13.394 19.0408L13.5319 19.2494L13.5319 19.2494L13.394 19.0408ZM10.674 20.8392L10.5361 20.6307L10.5361 20.6307L10.674 20.8392ZM10.1431 20.9996V21.2496H10.1432L10.1431 20.9996ZM9.75248 20.9166L9.85364 20.688L9.85363 20.688L9.75248 20.9166ZM9.18996 20.1827L8.94291 20.2209L8.94291 20.2209L9.18996 20.1827ZM8.846 17.9618L9.09306 17.9236L9.05378 17.67L8.8013 17.7159L8.846 17.9618ZM8.83832 17.9632L8.88299 18.2092L8.88302 18.2092L8.83832 17.9632ZM8.71653 17.9848L8.67536 17.7382L8.67535 17.7382L8.71653 17.9848ZM7.50015 17.5928L7.32337 17.7696L7.32338 17.7696L7.50015 17.5928ZM4.40677 14.4994L4.58355 14.3226L4.58353 14.3226L4.40677 14.4994ZM4.01475 13.283L4.26133 13.3242L4.26134 13.3242L4.01475 13.283ZM4.0363 13.1611L4.28228 13.2058L4.28228 13.2057L4.0363 13.1611ZM4.03767 13.1535L4.28365 13.1982L4.3295 12.9458L4.07594 12.9065L4.03767 13.1535ZM1.81688 12.8096L1.7786 13.0566L1.77861 13.0566L1.81688 12.8096ZM1.08294 12.247L0.854313 12.3481L0.854318 12.3482L1.08294 12.247ZM1.16039 11.3255L1.36893 11.4634L1.36893 11.4634L1.16039 11.3255ZM2.95872 8.60547L2.75018 8.46759L2.75018 8.4676L2.95872 8.60547ZM4.01904 7.98157L3.99979 7.73231L3.99977 7.73231L4.01904 7.98157ZM6.65498 7.77795L6.67424 8.02721L6.78009 8.01903L6.84771 7.93718L6.65498 7.77795ZM6.67267 7.7564L6.86618 7.91468L6.86619 7.91468L6.67267 7.7564ZM6.69742 7.72634L6.50544 7.56621L6.50543 7.56622L6.69742 7.72634ZM10.6905 4.41524L10.5756 4.19319L10.5756 4.19319L10.6905 4.41524ZM12.8124 18.161L12.6745 17.9525L12.6745 17.9525L12.8124 18.161ZM10.2105 19.8813L9.96346 19.9196L10.0231 20.3049L10.3484 20.0898L10.2105 19.8813ZM12.9664 17.8992L12.7172 17.88L12.7172 17.88L12.9664 17.8992ZM13.0991 16.1821L13.3483 16.2013L13.388 15.6878L12.96 15.9743L13.0991 16.1821ZM9.87528 17.717L9.80476 17.4771L9.59471 17.5389L9.62822 17.7552L9.87528 17.717ZM8.2459 16.847L8.06912 17.0238H8.06912L8.2459 16.847ZM5.15248 13.7536L4.97566 13.9304L4.9757 13.9304L5.15248 13.7536ZM8.54261 16.9446L8.58361 17.1912L8.58384 17.1911L8.54261 16.9446ZM10.1082 16.5318L10.1925 16.7672L10.564 16.6341L10.285 16.355L10.1082 16.5318ZM5.46673 11.8903L5.64351 11.7135L5.3646 11.4346L5.23142 11.8059L5.46673 11.8903ZM5.05496 13.4569L5.30153 13.4982L5.30154 13.4981L5.05496 13.4569ZM4.10028 9.0331L4.11951 9.28236L4.11954 9.28236L4.10028 9.0331ZM5.81741 8.90046L6.02516 9.03953L6.31167 8.61154L5.79815 8.6512L5.81741 8.90046ZM3.83848 9.18715L3.62994 9.04927L3.62994 9.04927L3.83848 9.18715ZM2.11819 11.7891L1.90965 11.6512L1.69461 11.9764L2.07993 12.0361L2.11819 11.7891ZM4.28249 12.1243L4.24423 12.3713L4.46058 12.4048L4.52234 12.1948L4.28249 12.1243ZM13.5977 14.4922L13.7578 14.6842L13.7578 14.6842L13.5977 14.4922ZM11.1565 16.0887L10.9798 16.2655L11.1059 16.3916L11.2662 16.3134L11.1565 16.0887ZM16.6475 10.8245L16.4255 10.7097L16.4255 10.7097L16.6475 10.8245ZM17.9254 4.40118L17.6758 4.41478V4.41479L17.9254 4.40118ZM17.5984 4.07417L17.612 3.82454L17.612 3.82454L17.5984 4.07417ZM11.1751 5.35199L11.2899 5.57405L11.2899 5.57404L11.1751 5.35199ZM7.50729 8.40192L7.69927 8.56206L7.69927 8.56206L7.50729 8.40192ZM5.91064 10.8428L5.68611 10.7329L5.60757 10.8933L5.73386 11.0196L5.91064 10.8428ZM13.3298 11.305L13.3298 11.055L13.3298 11.305ZM15.1941 10.534L15.0174 10.3572L15.0174 10.3572L15.1941 10.534ZM11.4655 10.534L11.6423 10.3572V10.3572L11.4655 10.534ZM11.4655 6.80534L11.6423 6.98212L11.6423 6.98211L11.4655 6.80534ZM15.1941 6.80534L15.0174 6.98211L15.0174 6.98211L15.1941 6.80534ZM12.2112 7.55105L12.388 7.72783L12.388 7.72782L12.2112 7.55105ZM12.2112 9.78823L12.0344 9.965L12.0344 9.96501L12.2112 9.78823ZM14.4484 9.78823L14.2716 9.61145L14.2716 9.61146L14.4484 9.78823ZM14.4484 7.55105L14.2716 7.72782L14.2716 7.72783L14.4484 7.55105ZM19.2281 4.33009C19.1821 3.48772 18.5118 2.81747 17.6694 2.7715L17.6422 3.27075C18.2298 3.30283 18.6968 3.7697 18.7288 4.35731L19.2281 4.33009ZM17.8063 11.4239C19.2319 8.66778 19.3079 5.79327 19.2281 4.33008L18.7288 4.35732C18.8064 5.77933 18.7293 8.55111 17.3622 11.1942L17.8063 11.4239ZM14.4333 15.4941C15.847 14.3149 17.0769 12.8343 17.8063 11.4239L17.3622 11.1942C16.6681 12.5362 15.4842 13.9664 14.113 15.1102L14.4333 15.4941ZM14.3807 15.5373C14.3931 15.5271 14.417 15.5077 14.4333 15.4942L14.113 15.1102C14.0949 15.1252 14.0842 15.1337 14.0623 15.1519L14.3807 15.5373ZM14.2671 17.9998L14.4707 15.3639L13.9722 15.3253L13.7686 17.9613L14.2671 17.9998ZM13.5319 19.2494C13.9592 18.9668 14.2277 18.5105 14.2671 17.9997L13.7686 17.9613C13.7411 18.3182 13.5548 18.6348 13.2562 18.8323L13.5319 19.2494ZM10.8119 21.0477L13.5319 19.2494L13.2562 18.8323L10.5361 20.6307L10.8119 21.0477ZM10.1432 21.2496C10.3776 21.2495 10.61 21.1812 10.8119 21.0477L10.5361 20.6307C10.4165 20.7097 10.2801 20.7495 10.1431 20.7496L10.1432 21.2496ZM9.65133 21.1452C9.80887 21.2149 9.97619 21.2496 10.1431 21.2496V20.7496C10.0456 20.7496 9.94717 20.7294 9.85364 20.688L9.65133 21.1452ZM8.94291 20.2209C9.00646 20.6312 9.27173 20.9773 9.65133 21.1452L9.85363 20.688C9.62982 20.589 9.4745 20.3863 9.43701 20.1444L8.94291 20.2209ZM8.59895 18.0001L8.94291 20.2209L9.43702 20.1444L9.09306 17.9236L8.59895 18.0001ZM8.88302 18.2092L8.8907 18.2078L8.8013 17.7159L8.79362 17.7173L8.88302 18.2092ZM8.75769 18.2313C8.80035 18.2242 8.84269 18.2165 8.88299 18.2092L8.79364 17.7173C8.75274 17.7247 8.71392 17.7317 8.67536 17.7382L8.75769 18.2313ZM8.48949 18.2536C8.57874 18.2536 8.66845 18.2463 8.7577 18.2313L8.67535 17.7382C8.61343 17.7485 8.55127 17.7536 8.48949 17.7536V18.2536ZM7.32338 17.7696C7.63528 18.0815 8.05679 18.2536 8.48949 18.2536V17.7536C8.18885 17.7536 7.89468 17.6338 7.67693 17.416L7.32338 17.7696ZM4.22999 14.6761L7.32337 17.7696L7.67693 17.416L4.58355 14.3226L4.22999 14.6761ZM3.76817 13.2418C3.68081 13.7644 3.85395 14.3001 4.23 14.6761L4.58353 14.3226C4.32075 14.0598 4.20083 13.6861 4.26133 13.3242L3.76817 13.2418ZM3.79033 13.1164C3.783 13.1568 3.77529 13.1991 3.76816 13.2419L4.26134 13.3242C4.26778 13.2856 4.27484 13.2467 4.28228 13.2058L3.79033 13.1164ZM3.7917 13.1089L3.79033 13.1164L4.28228 13.2057L4.28365 13.1982L3.7917 13.1089ZM1.77861 13.0566L3.99941 13.4006L4.07594 12.9065L1.85514 12.5625L1.77861 13.0566ZM0.854318 12.3482C1.02229 12.7278 1.36837 12.9931 1.7786 13.0566L1.85515 12.5625C1.61326 12.5251 1.41063 12.3697 1.31156 12.1458L0.854318 12.3482ZM0.951848 11.1876C0.72287 11.5339 0.686371 11.9685 0.854313 12.3481L1.31157 12.1459C1.21254 11.922 1.23391 11.6676 1.36893 11.4634L0.951848 11.1876ZM2.75018 8.4676L0.951845 11.1876L1.36893 11.4634L3.16726 8.74335L2.75018 8.4676ZM3.99977 7.73231C3.489 7.7718 3.03269 8.04031 2.75018 8.46759L3.16726 8.74335C3.36469 8.44475 3.68131 8.25842 4.03831 8.23083L3.99977 7.73231ZM6.63573 7.52869L3.99979 7.73231L4.03829 8.23083L6.67424 8.02721L6.63573 7.52869ZM6.47916 7.59811C6.47322 7.60538 6.46773 7.61209 6.46225 7.61872L6.84771 7.93718C6.8541 7.92946 6.86036 7.92179 6.86618 7.91468L6.47916 7.59811ZM6.50543 7.56622C6.4962 7.57728 6.48724 7.58824 6.47916 7.59812L6.86619 7.91468C6.87452 7.90449 6.88196 7.89539 6.8894 7.88647L6.50543 7.56622ZM10.5756 4.19319C9.16532 4.92269 7.68468 6.1525 6.50544 7.56621L6.88939 7.88648C8.03315 6.51532 9.46337 5.33145 10.8054 4.6373L10.5756 4.19319ZM17.6695 2.7715C16.2061 2.69155 13.3317 2.7677 10.5756 4.19319L10.8053 4.6373C13.4483 3.27026 16.2201 3.19306 17.6422 3.27075L17.6695 2.7715ZM12.6745 17.9525L10.0726 19.6727L10.3484 20.0898L12.9503 18.3696L12.6745 17.9525ZM12.7172 17.88C12.7149 17.9102 12.6998 17.9358 12.6745 17.9525L12.9503 18.3696C13.1042 18.2678 13.2015 18.1025 13.2157 17.9185L12.7172 17.88ZM12.8498 16.1628L12.7172 17.88L13.2157 17.9185L13.3483 16.2013L12.8498 16.1628ZM9.9458 17.9568C11.0718 17.6257 12.1826 17.0964 13.2382 16.3898L12.96 15.9743C11.9429 16.6552 10.878 17.1615 9.80476 17.4771L9.9458 17.9568ZM10.4576 19.843L10.1223 17.6787L9.62822 17.7552L9.96346 19.9196L10.4576 19.843ZM8.42268 16.6703L5.32926 13.5768L4.9757 13.9304L8.06912 17.0238L8.42268 16.6703ZM8.50162 16.6979C8.47684 16.7021 8.44645 16.694 8.42268 16.6703L8.06912 17.0238C8.2032 17.1579 8.39436 17.2226 8.58361 17.1912L8.50162 16.6979ZM10.0239 16.2964C9.44654 16.5033 8.9305 16.6262 8.50138 16.698L8.58384 17.1911C9.04028 17.1148 9.5853 16.9847 10.1925 16.7672L10.0239 16.2964ZM5.28996 12.0671L9.93144 16.7086L10.285 16.355L5.64351 11.7135L5.28996 12.0671ZM5.30154 13.4981C5.39081 12.9643 5.52968 12.4553 5.70205 11.9747L5.23142 11.8059C5.04999 12.3117 4.90304 12.8496 4.80838 13.4157L5.30154 13.4981ZM5.3293 13.5769C5.30535 13.5529 5.29747 13.5224 5.30153 13.4982L4.8084 13.4156C4.77666 13.6051 4.84177 13.7964 4.97566 13.9304L5.3293 13.5769ZM4.11954 9.28236L5.83666 9.14972L5.79815 8.6512L4.08103 8.78384L4.11954 9.28236ZM4.04702 9.32503C4.06376 9.29972 4.08934 9.28469 4.11951 9.28236L4.08105 8.78384C3.89706 8.79804 3.73175 8.89529 3.62994 9.04927L4.04702 9.32503ZM2.32673 11.9269L4.04702 9.32503L3.62994 9.04927L1.90965 11.6512L2.32673 11.9269ZM4.32076 11.8772L2.15646 11.542L2.07993 12.0361L4.24423 12.3713L4.32076 11.8772ZM5.60966 8.76139C4.90302 9.81699 4.37372 10.9277 4.04265 12.0538L4.52234 12.1948C4.83791 11.1215 5.34429 10.0566 6.02516 9.03953L5.60966 8.76139ZM13.4375 14.3002C12.6014 14.9977 11.7914 15.5008 11.0469 15.864L11.2662 16.3134C12.0461 15.9328 12.8901 15.4079 13.7578 14.6842L13.4375 14.3002ZM16.4255 10.7097C15.7937 11.9311 14.7052 13.2428 13.4375 14.3002L13.7578 14.6842C15.0673 13.5919 16.2021 12.2299 16.8696 10.9394L16.4255 10.7097ZM17.6758 4.41479C17.7475 5.73016 17.6776 8.28886 16.4255 10.7097L16.8696 10.9394C18.1805 8.40502 18.2489 5.74315 18.175 4.38757L17.6758 4.41479ZM17.5848 4.3238C17.6342 4.32649 17.6731 4.36534 17.6758 4.41478L18.175 4.38758C18.1584 4.08343 17.9162 3.84111 17.612 3.82454L17.5848 4.3238ZM11.2899 5.57404C13.7107 4.3219 16.2694 4.25219 17.5848 4.3238L17.612 3.82454C16.2564 3.75074 13.5945 3.81905 11.0602 5.12994L11.2899 5.57404ZM7.69927 8.56206C8.75672 7.29432 10.0684 6.20584 11.2899 5.57405L11.0602 5.12993C9.7696 5.79748 8.4076 6.93229 7.31531 8.24179L7.69927 8.56206ZM6.13517 10.9527C6.61145 9.97996 7.19373 9.16811 7.69927 8.56206L7.31531 8.24178C6.79108 8.87025 6.18419 9.71555 5.68611 10.7329L6.13517 10.9527ZM11.3333 15.9119L6.08742 10.666L5.73386 11.0196L10.9798 16.2655L11.3333 15.9119ZM13.3299 11.555C14.0682 11.5549 14.8081 11.2736 15.3709 10.7108L15.0174 10.3572C14.5524 10.8222 13.9415 11.0549 13.3298 11.055L13.3299 11.555ZM11.2887 10.7108C11.8517 11.2737 12.5911 11.555 13.3299 11.555L13.3298 11.055C12.7179 11.055 12.1074 10.8223 11.6423 10.3572L11.2887 10.7108ZM10.4433 8.66966C10.4433 9.4402 10.7439 10.1659 11.2887 10.7108L11.6423 10.3572C11.1912 9.90611 10.9433 9.30758 10.9433 8.66966H10.4433ZM11.2887 6.62855C10.7438 7.17342 10.4433 7.89912 10.4433 8.66966H10.9433C10.9433 8.03173 11.1912 7.43321 11.6423 6.98212L11.2887 6.62855ZM15.3709 6.62856C14.2453 5.50288 12.4143 5.50296 11.2887 6.62856L11.6423 6.98211C12.5726 6.05177 14.087 6.0517 15.0174 6.98211L15.3709 6.62856ZM16.2164 8.66966C16.2164 7.89912 15.9158 7.17342 15.3709 6.62856L15.0174 6.98211C15.4685 7.4332 15.7164 8.03173 15.7164 8.66966H16.2164ZM15.3709 10.7108C15.9158 10.1659 16.2164 9.44018 16.2164 8.66966H15.7164C15.7164 9.30759 15.4685 9.90611 15.0174 10.3572L15.3709 10.7108ZM12.388 7.72782C12.6474 7.46833 12.988 7.33844 13.3298 7.33844V6.83844C12.8613 6.83844 12.3917 7.01694 12.0344 7.37428L12.388 7.72782ZM11.9978 8.66966C11.9978 8.31345 12.1361 7.97974 12.388 7.72783L12.0344 7.37427C11.6888 7.71993 11.4978 8.18081 11.4978 8.66966H11.9978ZM12.3879 9.61145C12.136 9.35955 11.9978 9.02588 11.9978 8.66966H11.4978C11.4978 9.1585 11.6887 9.61934 12.0344 9.965L12.3879 9.61145ZM14.2716 9.61146C13.7525 10.1306 12.9071 10.1306 12.3879 9.61145L12.0344 9.96501C12.7488 10.6794 13.9107 10.6794 14.6251 9.965L14.2716 9.61146ZM14.6617 8.66962C14.6617 9.02586 14.5235 9.35956 14.2716 9.61145L14.6251 9.965C14.9708 9.61933 15.1617 9.15844 15.1617 8.66962H14.6617ZM14.2716 7.72783C14.5235 7.97972 14.6617 8.31339 14.6617 8.66962H15.1617C15.1617 8.18079 14.9708 7.71995 14.6251 7.37427L14.2716 7.72783ZM13.3298 7.33844C13.6715 7.33844 14.0121 7.46833 14.2716 7.72782L14.6252 7.37428C14.2678 7.01693 13.7983 6.83844 13.3298 6.83844V7.33844Z" fill="#1E5DC5" mask="url(#path-1-outside-1)"/>
</svg>
