<svg width="22" height="22" viewBox="0 0 22 22" fill="none" xmlns="http://www.w3.org/2000/svg">
<g clip-path="url(#clip0)">
<path d="M1.85605 6.15762H6.69859V7.47287C6.69859 7.64072 6.74895 7.80252 6.84445 7.94083L9.17735 11.3233C9.30106 11.5034 9.50533 11.6108 9.72369 11.6108H10.3556V12.7664C10.3556 13.1224 10.6442 13.4109 11.0002 13.4109C11.3562 13.4109 11.6447 13.1224 11.6447 12.7664V11.6108H12.2797C12.4982 11.6108 12.7025 11.5034 12.8255 11.3239L15.1562 7.94049C15.2514 7.80235 15.3017 7.64072 15.3017 7.47287V6.15762H20.144C21.1673 6.15762 22 5.32494 22 4.30157C22 3.27805 21.1673 2.44536 20.144 2.44536H15.3017V1.7263C15.3017 0.774445 14.5273 0 13.5754 0H8.4249C7.47304 0 6.69859 0.774445 6.69859 1.7263V2.44536H1.85605C0.832687 2.44536 0 3.27805 0 4.30157C0 5.32494 0.832687 6.15762 1.85605 6.15762ZM11.9505 10.3217H10.0525L8.57076 8.17329H13.4306L11.9505 10.3217ZM20.144 3.73442C20.4565 3.73442 20.7109 3.98888 20.7109 4.30157C20.7109 4.61411 20.4565 4.86856 20.144 4.86856H15.3017V3.73442H20.144ZM7.98766 1.7263C7.98766 1.48528 8.18387 1.28906 8.4249 1.28906H13.5754C13.8165 1.28906 14.0127 1.48511 14.0127 1.7263V6.88423H7.98766V1.7263ZM1.85605 3.73442H6.69859V4.86856H1.85605C1.54352 4.86856 1.28906 4.61427 1.28906 4.30157C1.28906 3.98888 1.54352 3.73442 1.85605 3.73442Z" fill="#1E5DC5"/>
<path d="M20.2811 16.5884H14.5421V15.0613C14.5421 14.5983 14.1653 14.2214 13.7022 14.2214H8.27316C7.82384 14.2214 7.45827 14.587 7.45827 15.0363V16.5884H1.71892C0.771088 16.5884 0 17.3595 0 18.3073V20.2812C0 21.2289 0.771088 22 1.71892 22H20.2811C21.2289 22 22 21.2289 22 20.281V18.3073C22 17.3595 21.2289 16.5884 20.2811 16.5884ZM8.74733 15.5105H13.253V16.5169H8.74733V15.5105ZM1.71892 17.8775H20.2811C20.5181 17.8775 20.7109 18.0703 20.7109 18.3073V18.636H1.28906V18.3073C1.28906 18.0703 1.48192 17.8775 1.71892 17.8775ZM20.2811 20.7109H1.71892C1.48192 20.7109 1.28906 20.518 1.28906 20.281V19.925H20.7109V20.281C20.7109 20.518 20.5181 20.7109 20.2811 20.7109Z" fill="#1E5DC5"/>
</g>
<defs>
<clipPath id="clip0">
<rect width="22" height="22" fill="white"/>
</clipPath>
</defs>
</svg>
