<svg width="36" height="36" viewBox="0 0 36 36" fill="none" xmlns="http://www.w3.org/2000/svg">
<path d="M7.5 5C6.673 5 6 4.327 6 3.5C6 2.673 6.673 2 7.5 2C8.327 2 9 2.673 9 3.5C9 4.327 8.327 5 7.5 5ZM7.5 3C7.224 3 7 3.224 7 3.5C7 3.776 7.224 4 7.5 4C7.776 4 8 3.776 8 3.5C8 3.224 7.776 3 7.5 3Z" fill="#1E5DC5"/>
<path d="M28.25 10.75C28.8 10.75 29.25 11.2 29.25 11.75V22.75H6.75V11.75C6.75 11.2 7.2 10.75 7.75 10.75H28.25Z" fill="#1C1C1C"/>
<path d="M23.25 13.75H24.75C25.302 13.75 25.75 14.198 25.75 14.75V16.25C25.75 16.802 25.302 17.25 24.75 17.25H23.25C22.698 17.25 22.25 16.802 22.25 16.25V14.75C22.25 14.198 22.698 13.75 23.25 13.75Z" fill="#1C1C1C"/>
<path d="M11.25 13.75H12.75C13.302 13.75 13.75 14.198 13.75 14.75V16.25C13.75 16.802 13.302 17.25 12.75 17.25H11.25C10.698 17.25 10.25 16.802 10.25 16.25V14.75C10.25 14.198 10.698 13.75 11.25 13.75Z" fill="#1C1C1C"/>
<path d="M18 6.75C18.967 6.75 19.75 7.534 19.75 8.5C19.75 9.46601 18.966 10.25 18 10.25C17.034 10.25 16.25 9.46601 16.25 8.5C16.25 7.534 17.034 6.75 18 6.75Z" fill="#1C1C1C"/>
<path d="M19.75 26.25C19.75 26.25 19.995 28.015 21.23 29.25H21.25H14.75C16 28 16.23 26.25 16.23 26.25H19.75Z" fill="#1C1C1C"/>
<path d="M7.75 26.25H28.25C28.802 26.25 29.25 25.802 29.25 25.25V22.75H6.75V25.25C6.75 25.802 7.198 26.25 7.75 26.25Z" fill="#1C1C1C"/>
<path d="M24.5 16.25V14.75C24.5 14.331 24.759 13.974 25.125 13.826C25.009 13.779 24.883 13.75 24.75 13.75H23.25C22.698 13.75 22.25 14.198 22.25 14.75V16.25C22.25 16.802 22.698 17.25 23.25 17.25H24.75C24.883 17.25 25.009 17.221 25.125 17.174C24.759 17.026 24.5 16.669 24.5 16.25Z" fill="#1C1C1C"/>
<path d="M12.5 16.25V14.75C12.5 14.331 12.759 13.974 13.125 13.826C13.009 13.779 12.883 13.75 12.75 13.75H11.25C10.698 13.75 10.25 14.198 10.25 14.75V16.25C10.25 16.802 10.698 17.25 11.25 17.25H12.75C12.883 17.25 13.009 17.221 13.125 17.174C12.759 17.026 12.5 16.669 12.5 16.25Z" fill="#1C1C1C"/>
<path d="M18.5 8.5C18.5 7.964 18.746 7.491 19.125 7.17C18.82 6.912 18.431 6.75 18 6.75C17.034 6.75 16.25 7.534 16.25 8.5C16.25 9.46601 17.034 10.25 18 10.25C18.431 10.25 18.82 10.088 19.125 9.83001C18.746 9.50901 18.5 9.036 18.5 8.5Z" fill="#1C1C1C"/>
<path d="M16.23 26.25C16.23 26.25 16 28 14.75 29.25H17C18.25 28 18.48 26.25 18.48 26.25H16.23Z" fill="#1C1C1C"/>
<path d="M8.99999 25.25V22.75H6.75V25.25C6.75 25.802 7.198 26.25 7.75 26.25H9.99999C9.44799 26.25 8.99999 25.802 8.99999 25.25Z" fill="#1C1C1C"/>
<path d="M9.99999 10.75H7.75C7.2 10.75 6.75 11.2 6.75 11.75V22.75H8.99999V11.75C8.99999 11.2 9.44999 10.75 9.99999 10.75Z" fill="#1C1C1C"/>
<path d="M28.25 27H7.75C6.785 27 6 26.215 6 25.25V11.75C6 10.785 6.785 10 7.75 10H14V11.5H7.75C7.614 11.5 7.5 11.614 7.5 11.75V25.25C7.5 25.386 7.614 25.5 7.75 25.5H28.25C28.386 25.5 28.5 25.386 28.5 25.25V11.75C28.5 11.614 28.386 11.5 28.25 11.5H22V10H28.25C29.215 10 30 10.785 30 11.75V25.25C30 26.215 29.215 27 28.25 27Z" fill="#1E5DC5"/>
<path d="M6.75 22H29.25V23.5H6.75V22Z" fill="#1E5DC5"/>
<path d="M21.2501 30H14.7501C14.4471 30 14.1731 29.817 14.0571 29.537C13.9411 29.257 14.0051 28.934 14.2201 28.72C15.2611 27.679 15.4851 26.168 15.4871 26.153L16.9741 26.348C16.9661 26.407 16.8271 27.414 16.2301 28.5H19.7531C19.1621 27.419 19.0151 26.412 19.0071 26.353L20.4921 26.145C20.4941 26.16 20.7131 27.603 21.6761 28.634C21.8721 28.769 22.0001 28.994 22.0001 29.25C22.0001 29.664 21.6641 30 21.2501 30V30Z" fill="#1E5DC5"/>
<path d="M24.75 18H23.25C22.285 18 21.5 17.215 21.5 16.25V14.75C21.5 13.785 22.285 13 23.25 13H24.75C25.715 13 26.5 13.785 26.5 14.75V16.25C26.5 17.215 25.715 18 24.75 18ZM23.25 14.5C23.112 14.5 23 14.612 23 14.75V16.25C23 16.388 23.112 16.5 23.25 16.5H24.75C24.888 16.5 25 16.388 25 16.25V14.75C25 14.612 24.888 14.5 24.75 14.5H23.25Z" fill="#1E5DC5"/>
<path d="M12.75 18H11.25C10.285 18 9.5 17.215 9.5 16.25V14.75C9.5 13.785 10.285 13 11.25 13H12.75C13.715 13 14.5 13.785 14.5 14.75V16.25C14.5 17.215 13.715 18 12.75 18ZM11.25 14.5C11.112 14.5 11 14.612 11 14.75V16.25C11 16.388 11.112 16.5 11.25 16.5H12.75C12.888 16.5 13 16.388 13 16.25V14.75C13 14.612 12.888 14.5 12.75 14.5H11.25Z" fill="#1E5DC5"/>
<path d="M18 11C16.622 11 15.5 9.878 15.5 8.5C15.5 7.122 16.622 6 18 6C19.378 6 20.5 7.122 20.5 8.5C20.5 9.878 19.378 11 18 11ZM18 7.5C17.449 7.5 17 7.949 17 8.5C17 9.051 17.449 9.5 18 9.5C18.551 9.5 19 9.051 19 8.5C19 7.949 18.551 7.5 18 7.5Z" fill="#1E5DC5"/>
<path d="M14 14.75H22V16.25H14V14.75Z" fill="#1E5DC5"/>
<path d="M17.25 10.5H18.75V15.5H17.25V10.5Z" fill="#1E5DC5"/>
</svg>
