<svg width="20" height="20" viewBox="0 0 20 20" fill="none" xmlns="http://www.w3.org/2000/svg">
<g clip-path="url(#clip0)">
<path d="M18.1201 4.47037L17.6785 3.14667C17.5103 2.64252 17.0402 2.30377 16.5089 2.30377H12.7975V1.09543C12.7975 0.491486 12.3065 0 11.7027 0H8.30395C7.70031 0 7.20913 0.491486 7.20913 1.09543V2.30377H3.49789C2.96642 2.30377 2.4963 2.64252 2.32815 3.14667L1.88656 4.47037C1.786 4.77173 1.83697 5.10544 2.02267 5.36316C2.20836 5.62088 2.50881 5.77484 2.8265 5.77484H3.28808L4.30401 18.3376C4.37954 19.2697 5.17055 20 6.10515 20H14.1076C15.0421 20 15.8332 19.2697 15.9086 18.3374L16.9246 5.77484H17.1801C17.4978 5.77484 17.7983 5.62088 17.984 5.36331C18.1697 5.10559 18.2206 4.77173 18.1201 4.47037ZM8.381 1.17188H11.6256V2.30377H8.381V1.17188ZM14.7406 18.243C14.714 18.5712 14.436 18.8281 14.1076 18.8281H6.10515C5.77678 18.8281 5.49877 18.5712 5.47222 18.243L4.46377 5.77484H15.7489L14.7406 18.243ZM3.07781 4.60297L3.4399 3.51746C3.44814 3.49243 3.47149 3.47565 3.49789 3.47565H16.5089C16.5353 3.47565 16.5585 3.49243 16.5669 3.51746L16.929 4.60297H3.07781Z" fill="#F55F44"/>
<path d="M12.8716 18.2014C12.882 18.202 12.8922 18.2022 12.9026 18.2022C13.2122 18.2022 13.471 17.9596 13.4872 17.6468L14.0374 7.08431C14.0542 6.76113 13.8058 6.4854 13.4827 6.46862C13.1588 6.45138 12.884 6.70009 12.867 7.02328L12.317 17.5857C12.3002 17.9089 12.5484 18.1846 12.8716 18.2014Z" fill="#F55F44"/>
<path d="M6.54555 17.6481C6.56264 17.9605 6.82113 18.2022 7.13011 18.2022C7.1408 18.2022 7.15178 18.2019 7.16262 18.2013C7.48564 18.1837 7.73329 17.9075 7.71574 17.5844L7.13942 7.02192C7.12188 6.69874 6.84569 6.45109 6.52251 6.46879C6.19949 6.48634 5.95184 6.76252 5.96938 7.0857L6.54555 17.6481Z" fill="#F55F44"/>
<path d="M10.0099 18.2022C10.3335 18.2022 10.5958 17.9399 10.5958 17.6163V7.05383C10.5958 6.73019 10.3335 6.4679 10.0099 6.4679C9.68625 6.4679 9.42395 6.73019 9.42395 7.05383V17.6163C9.42395 17.9399 9.68625 18.2022 10.0099 18.2022Z" fill="#F55F44"/>
</g>
<defs>
<clipPath id="clip0">
<rect width="20" height="20" fill="white"/>
</clipPath>
</defs>
</svg>
