<svg width="70" height="70" viewBox="0 0 70 70" fill="none" xmlns="http://www.w3.org/2000/svg">
<g clip-path="url(#clip0)">
<path d="M51.279 19.4047C51.0248 19.1504 50.6721 19.0041 50.3125 19.0041C49.9529 19.0041 49.6002 19.1504 49.3459 19.4047C49.0916 19.659 48.9453 20.0103 48.9453 20.3713C48.9453 20.7308 49.0915 21.0836 49.3459 21.3379C49.6003 21.5922 49.9529 21.7385 50.3125 21.7385C50.6721 21.7385 51.0248 21.5922 51.279 21.3379C51.5333 21.0836 51.6797 20.7308 51.6797 20.3713C51.6797 20.0117 51.5334 19.659 51.279 19.4047Z" fill="#1E5DC5"/>
<path d="M20.5078 38.5548H9.57031C8.81535 38.5548 8.20312 39.1669 8.20312 39.922V50.8595C8.20312 51.6146 8.81535 52.2267 9.57031 52.2267H20.5078C21.2627 52.2267 21.875 51.6146 21.875 50.8595V39.922C21.875 39.1669 21.2629 38.5548 20.5078 38.5548ZM19.1406 49.4923H10.9375V41.2892H19.1406V49.4923Z" fill="#1E5DC5"/>
<path d="M69.1559 28.6782C68.645 28.4665 68.0569 28.5838 67.666 28.9745L53.7346 42.9059C53.7345 42.9061 53.7342 42.9063 53.7339 42.9066C53.7337 42.9068 53.7335 42.907 53.7334 42.9072L37.4934 59.1472C37.4932 59.1475 37.493 59.1476 37.4928 59.1479C37.4925 59.1482 37.4923 59.1483 37.4921 59.1486L28.9746 67.666C28.5838 68.057 28.4667 68.6452 28.6782 69.156C28.8899 69.6669 29.3884 70 29.9414 70H68.6327C69.3877 70 69.9999 69.3879 69.9999 68.6328V29.9414C69.9999 29.3885 69.6668 28.8899 69.1559 28.6782ZM67.2655 67.2656H33.2422L38.4595 62.0483L39.7646 63.3534C40.0316 63.6204 40.3815 63.7538 40.7313 63.7538C41.0812 63.7538 41.4311 63.6204 41.6981 63.3534C42.232 62.8195 42.232 61.9538 41.6981 61.4198L40.393 60.1146L43.8733 56.6343L45.1782 57.9393C45.4453 58.2063 45.7951 58.3398 46.145 58.3398C46.4948 58.3398 46.8447 58.2062 47.1117 57.9393C47.6456 57.4054 47.6456 56.5397 47.1117 56.0058L45.8066 54.7007L49.2869 51.2204L50.592 52.5255C50.859 52.7925 51.2089 52.926 51.5588 52.926C51.9086 52.926 52.2585 52.7925 52.5255 52.5255C53.0594 51.9916 53.0594 51.1259 52.5255 50.5919L51.2204 49.2868L54.7006 45.8066L56.0057 47.1117C56.2727 47.3788 56.6225 47.5122 56.9724 47.5122C57.3223 47.5122 57.6721 47.3788 57.9391 47.1117C58.473 46.5779 58.473 45.7122 57.9391 45.1781L56.634 43.873L60.1143 40.3927L61.4193 41.6977C61.6863 41.9647 62.0362 42.0981 62.386 42.0981C62.7359 42.0981 63.0858 41.9646 63.3528 41.6977C63.8867 41.1638 63.8867 40.2981 63.3528 39.7642L62.0477 38.4591L67.2655 33.2421V67.2656Z" fill="#1E5DC5"/>
<path d="M62.3186 45.1818C61.8077 44.97 61.2195 45.0871 60.8286 45.478L45.4767 60.8301C45.0858 61.2212 44.9686 61.8092 45.1803 62.3201C45.3919 62.831 45.8904 63.1641 46.4434 63.1641H61.7954C62.5503 63.1641 63.1626 62.552 63.1626 61.7969V46.4449C63.1626 45.892 62.8295 45.3934 62.3186 45.1818ZM60.4282 60.4297H49.7442L60.4282 49.7456V60.4297Z" fill="#1E5DC5"/>
<path d="M63.3088 20.4069C62.9325 20.0307 62.3722 19.9068 61.8719 20.0899L52.5367 23.5085C52.35 23.5769 52.1806 23.6851 52.04 23.8256L49.4151 26.4505L32.2752 9.31047C32.0188 9.05412 31.6711 8.91002 31.3085 8.91002C30.9459 8.91002 30.5981 9.05412 30.3418 9.31047L9.71055 29.9417H4.66796L31.3085 3.301L45.9277 17.9202C46.4617 18.4541 47.3271 18.4541 47.8613 17.9202C48.3952 17.3863 48.3952 16.5206 47.8613 15.9866L32.2754 0.400658C31.7414 -0.133227 30.8759 -0.133227 30.3418 0.400658L0.400428 30.342C0.00955001 30.733 -0.107481 31.3211 0.104022 31.832C0.315663 32.343 0.814138 32.6761 1.36716 32.6761H2.73435V68.633C2.73435 69.3881 3.34658 70.0002 4.10153 70.0002H25.8379C26.5928 70.0002 27.205 69.3881 27.205 68.633C27.205 67.8779 26.5928 67.2658 25.8379 67.2658H5.46872V32.6761H10.2768C10.6394 32.6761 10.9871 32.532 11.2436 32.2756L31.3085 12.2107L47.4815 28.3838L27.207 48.6585V36.3675H36.7773C37.5322 36.3675 38.1444 35.7554 38.1444 35.0003C38.1444 34.2452 37.5322 33.6331 36.7773 33.6331H25.8398C25.0848 33.6331 24.4726 34.2452 24.4726 35.0003V50.8596C24.4726 51.0192 24.5013 51.1715 24.5515 51.3138L23.3266 52.5387C21.1624 54.7029 21.1624 58.2245 23.3266 60.3888C24.4089 61.471 25.8301 62.0122 27.2517 62.012C28.673 62.012 30.0947 61.4709 31.1767 60.3889L42.7065 48.8592C43.2403 48.3253 43.2403 47.4596 42.7065 46.9257C42.1726 46.3918 41.3071 46.3918 40.7729 46.9257L32.0376 55.6609L28.0546 51.6779L53.034 26.6985L57.0171 30.6815L47.4721 40.2266C46.9382 40.7605 46.9382 41.6262 47.4721 42.1601C48.0061 42.694 48.8715 42.694 49.4057 42.1601L59.8901 31.6757C60.0305 31.5352 60.1388 31.3656 60.207 31.1791L63.6258 21.8439C63.8088 21.344 63.6852 20.7833 63.3088 20.4069ZM30.1043 57.5942L29.2432 58.4553C28.7113 58.9873 28.0042 59.2803 27.2518 59.2803C26.4994 59.2803 25.7922 58.9873 25.2604 58.4553C24.7283 57.9233 24.4354 57.2161 24.4354 56.4639C24.4354 55.7116 24.7281 55.0042 25.2602 54.4723L26.1213 53.6112L30.1043 57.5942ZM58.3905 28.1876L55.5279 25.325L60.0448 23.6708L58.3905 28.1876Z" fill="#1E5DC5"/>
<path d="M46.0309 43.5997C45.7768 43.3454 45.424 43.1991 45.0645 43.1991C44.7049 43.1991 44.3521 43.3454 44.0979 43.5997C43.8436 43.8553 43.6973 44.2067 43.6973 44.5663C43.6973 44.9272 43.8434 45.2786 44.0979 45.5343C44.3521 45.7885 44.7035 45.9335 45.0645 45.9335C45.424 45.9335 45.7768 45.7885 46.0309 45.5343C46.2852 45.2786 46.4316 44.9259 46.4316 44.5663C46.4316 44.2067 46.2854 43.8553 46.0309 43.5997Z" fill="#1E5DC5"/>
<path d="M31.3086 20.6447C28.4439 20.6447 26.1133 22.9753 26.1133 25.84C26.1133 28.7046 28.4439 31.0353 31.3086 31.0353C34.1732 31.0353 36.5039 28.7046 36.5039 25.84C36.5039 22.9753 34.1732 20.6447 31.3086 20.6447ZM31.3086 28.3009C29.9517 28.3009 28.8477 27.197 28.8477 25.84C28.8477 24.483 29.9517 23.379 31.3086 23.379C32.6655 23.379 33.7695 24.483 33.7695 25.84C33.7695 27.1969 32.6655 28.3009 31.3086 28.3009Z" fill="#1E5DC5"/>
</g>
<defs>
<clipPath id="clip0">
<rect width="70" height="70" fill="white"/>
</clipPath>
</defs>
</svg>
