<svg width="70" height="70" viewBox="0 0 70 70" fill="none" xmlns="http://www.w3.org/2000/svg">
<g clip-path="url(#clip0)">
<path d="M34.4628 34.6612C33.8218 34.2619 32.9787 34.4578 32.5796 35.0989L32.1213 35.8344C31.5753 36.7112 30.6326 37.2345 29.5998 37.2345H27.998C27.2429 37.2345 26.6309 37.8466 26.6309 38.6017C26.6309 39.3568 27.2429 39.9689 27.998 39.9689H29.5998C31.5832 39.9689 33.3935 38.9638 34.4423 37.2802L34.9006 36.5447C35.2995 35.9035 35.1036 35.0604 34.4628 34.6612Z" fill="#1E5DC5"/>
<path d="M33.9274 54.0668C33.5483 53.414 32.7116 53.1921 32.0588 53.5711L32.0526 53.5747C31.3996 53.9538 31.1808 54.7887 31.5599 55.4416C31.8134 55.878 32.2726 56.121 32.7443 56.121C32.9783 56.121 33.2154 56.0612 33.4318 55.9355C34.0845 55.5564 34.3066 54.7198 33.9274 54.0668Z" fill="#1E5DC5"/>
<path d="M51.6034 67.2655H51.5771C50.8221 67.2655 50.21 67.8776 50.21 68.6327C50.21 69.3878 50.8221 69.9999 51.5771 69.9999H51.6034C52.3585 69.9999 52.9706 69.3878 52.9706 68.6327C52.9704 67.8776 52.3584 67.2655 51.6034 67.2655Z" fill="#1E5DC5"/>
<path d="M46.1645 37.2227L47.2987 35.9979C48.3714 34.8398 48.9622 33.3329 48.9622 31.7543V28.7025C48.9622 26.6307 47.5653 24.8059 45.5652 24.265L39.8935 22.7313V20.7174C40.2466 20.3643 40.5816 19.973 40.8942 19.543C42.4057 17.4649 43.2379 14.7245 43.2379 11.8267C43.2379 7.93437 41.7836 4.15437 39.4397 1.94499C37.9537 0.344972 35.2981 -0.325907 32.3184 0.150011C30.3475 0.464737 28.0009 1.37597 26.8225 3.01687C24.6787 3.33884 23.0417 4.43956 22.2711 6.10384C21.4213 7.93942 21.7566 10.1662 23.1848 12.267C23.4336 16.2078 26.0239 17.8852 27.8881 18.3737C28.5193 19.5233 29.3011 20.4847 30.1866 21.227V22.9382L21.4758 27.0187C19.3512 28.0138 17.9784 30.1728 17.9784 32.5189V38.1936C17.9784 39.9011 19.3676 41.2901 21.0748 41.2901H23.155L24.3734 45.8928C23.6974 47.585 21.3458 53.7145 21.3458 57.1032C21.3458 59.9131 23.7061 64.5499 25.2395 67.2655H18.3975C17.6424 67.2655 17.0303 67.8776 17.0303 68.6327C17.0303 69.3878 17.6424 69.9999 18.3975 69.9999H47.5947C48.3498 69.9999 48.9619 69.3878 48.9619 68.6327C48.9619 67.8776 48.3498 67.2655 47.5947 67.2655H45.2779C46.4892 63.7911 48.6984 56.3239 47.2641 51.5172C46.5776 49.2166 44.0672 45.673 43.1321 44.4019L43.6577 38.6574C44.6119 38.4459 45.4917 37.9489 46.1645 37.2227ZM40.4342 10.4942C40.4799 10.9352 40.5035 11.3809 40.5035 11.827C40.5035 14.1514 39.857 16.3207 38.6828 17.9351C37.6041 19.4183 36.2116 20.2351 34.7616 20.2351C33.1695 20.2351 31.646 19.2368 30.558 17.5208C31.6779 16.4852 32.8046 14.8563 32.706 12.935C34.6753 12.4589 36.1457 10.8361 36.8727 8.30528C38.281 8.80444 39.6798 9.84214 40.4342 10.4942ZM29.8895 10.9029C29.6074 11.3013 29.5592 11.8205 29.763 12.2641C30.4666 13.7952 29.1816 15.1233 28.4818 15.7001C27.6432 15.4551 25.9531 14.6109 25.901 11.7804C25.8958 11.4951 25.8013 11.2185 25.631 10.9895C24.609 9.61601 24.2888 8.25401 24.7524 7.25255C25.1752 6.33927 26.2634 5.76136 27.7381 5.66675C28.2453 5.63421 28.6928 5.3229 28.8996 4.8586C29.2317 4.1128 30.6609 3.18353 32.7496 2.84993C33.2284 2.77351 33.697 2.73632 34.1446 2.73632C35.593 2.73632 36.8203 3.12501 37.4539 3.82487C37.48 3.85372 37.5075 3.88161 37.536 3.90814C38.2323 4.55618 38.8335 5.41751 39.3089 6.41118C38.2947 5.86909 37.1376 5.42079 35.9634 5.31073C35.2461 5.2447 34.6005 5.74359 34.486 6.45425C34.1825 8.33632 33.3539 10.5356 31.1309 10.3316C30.6443 10.2861 30.1715 10.5045 29.8895 10.9029ZM43.317 49.5912C43.9161 50.5921 44.4277 51.5734 44.6443 52.2991C45.9787 56.7714 43.3261 64.6709 42.3701 67.2658H31.1079C38.3897 63.5907 41.3475 58.224 42.5297 54.1043C42.996 52.4788 43.2241 50.941 43.317 49.5912ZM42.615 36.039H36.8624C36.1073 36.039 35.4952 36.651 35.4952 37.4061C35.4952 38.1612 36.1073 38.7733 36.8624 38.7733H40.9019L40.3725 44.5582C40.226 45.056 39.1243 48.3559 34.957 51.6238C34.3628 52.0897 34.2587 52.9492 34.7247 53.5432C35.1906 54.1375 36.0502 54.2413 36.6441 53.7755C38.351 52.4369 39.618 51.0846 40.5534 49.8585C40.4551 50.923 40.2581 52.1076 39.9015 53.3501C38.2623 59.0621 34.12 63.2631 27.585 65.852C26.5456 63.9986 25.292 61.5462 24.6011 59.5289C26.5213 58.9994 28.3338 58.3713 30.0006 57.6523C30.6939 57.3531 31.0136 56.5487 30.7144 55.8555C30.4153 55.1621 29.6107 54.8427 28.9176 55.1417C27.4266 55.7848 25.8062 56.3517 24.0865 56.8348C24.2144 53.9784 26.2679 48.4549 27.0747 46.5078C27.1894 46.2311 27.2101 45.924 27.1334 45.6344L24.6629 36.3013C24.5009 35.6891 23.9482 35.286 23.3435 35.2854C23.2988 35.2854 23.254 35.2876 23.2089 35.2919C23.203 35.2925 23.197 35.2932 23.1911 35.2938C23.1587 35.2974 23.1263 35.3019 23.0937 35.3079C22.4268 35.4214 21.8132 35.9705 21.8132 36.6422V38.5561H21.0748C20.8751 38.5561 20.7127 38.3937 20.7127 38.1939V32.5191C20.7127 31.2291 21.4675 30.0422 22.6356 29.4949L31.6801 25.2581C32.4338 24.905 32.921 24.139 32.921 23.3067V22.7082C33.5175 22.8795 34.1338 22.9693 34.7615 22.9693C35.5878 22.9693 36.3921 22.8155 37.159 22.5238V22.7722C37.159 23.9805 37.9737 25.0449 39.1401 25.3604L44.8512 26.9048C45.6616 27.1239 46.2275 27.8633 46.2275 28.7026V31.7545C46.2275 32.6419 45.8954 33.4892 45.2925 34.1401L44.1583 35.3647C43.7616 35.7931 43.199 36.039 42.615 36.039Z" fill="#1E5DC5"/>
</g>
<defs>
<clipPath id="clip0">
<rect width="70" height="70" fill="white"/>
</clipPath>
</defs>
</svg>
