<svg width="70" height="70" viewBox="0 0 70 70" fill="none" xmlns="http://www.w3.org/2000/svg">
<g clip-path="url(#clip0)">
<path d="M68.6328 18.0462H57.0783L23.3357 0.158595C23.3326 0.156954 23.3291 0.155724 23.326 0.154083C22.794 -0.122362 22.145 -0.0183192 21.7271 0.401407L4.08215 18.0463H1.36719C0.61209 18.0463 0 18.6584 0 19.4135V27.6166C0 28.3717 0.61209 28.9838 1.36719 28.9838H4.10156V35.8196C4.10156 36.5747 4.71365 37.1868 5.46875 37.1868C6.22385 37.1868 6.83594 36.5747 6.83594 35.8196V28.9838H17.2266V67.2651H10.9375V60.4291C10.9375 57.8856 9.19201 55.7421 6.83594 55.1335V48.1246C6.83594 47.3695 6.22385 46.7574 5.46875 46.7574C4.71365 46.7574 4.10156 47.3695 4.10156 48.1246V55.1335C1.74549 55.7421 0 57.8856 0 60.4291V68.6323C0 69.3874 0.61209 69.9994 1.36719 69.9994H35C35.7551 69.9994 36.3672 69.3874 36.3672 68.6323C36.3672 67.8772 35.7551 67.2651 35 67.2651H32.2656V33.0854H35C35.7551 33.0854 36.3672 32.4733 36.3672 31.7182V28.9838H54.5508V35.2533L47.1484 42.6557H43.2031C42.448 42.6557 41.8359 43.2678 41.8359 44.0229V52.226C41.8359 52.9811 42.448 53.5932 43.2031 53.5932H68.6328C69.3879 53.5932 70 52.9811 70 52.226V44.0229C70 43.2678 69.3879 42.6557 68.6328 42.6557H64.6875L57.2852 35.2533V28.9838H68.6328C69.3879 28.9838 70 28.3717 70 27.6166V19.4135C70 18.6583 69.3879 18.0462 68.6328 18.0462ZM8.20312 67.2649H2.73438V60.429C2.73438 58.9213 3.96102 57.6946 5.46875 57.6946C6.97648 57.6946 8.20312 58.9213 8.20312 60.429V67.2649ZM17.2266 26.2493H2.73438V20.7806H17.2266V26.2493ZM17.2266 15.3118V18.0462H7.94924L21.3281 4.66717V13.9446H18.5938C17.8387 13.9446 17.2266 14.5567 17.2266 15.3118ZM19.9609 35.0189L27.5978 42.6557H19.9609V35.0189ZM27.5978 54.9603H19.9609V47.3236L27.5978 54.9603ZM19.9609 67.2649V59.6282L27.5978 67.2651H19.9609V67.2649ZM29.5312 65.3315L21.8944 57.6946H29.5312V65.3315ZM29.5312 53.0268L21.8944 45.3899H29.5312V53.0268ZM29.5312 40.7221L21.8946 33.0854H29.5312V40.7221ZM33.6328 30.3509H19.9609V16.679H26.7969C30.5221 16.679 33.6328 19.6983 33.6328 23.5149V30.3509ZM34.6495 18.0462C32.8705 15.4983 29.9316 13.9446 26.7969 13.9446H24.0625V3.63877L51.2403 18.0462H34.6495ZM67.2656 45.3899V50.8587H44.5703V45.3899H67.2656ZM60.8204 42.6556H51.0156L55.918 37.7531L60.8204 42.6556ZM67.2656 26.2493H36.3672V23.5149C36.3672 22.585 36.2312 21.6636 35.9684 20.7806H67.2656V26.2493Z" fill="#00D2A0"/>
<path d="M68.6328 59.0621H43.2031C42.448 59.0621 41.8359 59.6742 41.8359 60.4293V68.6325C41.8359 69.3876 42.448 69.9996 43.2031 69.9996H68.6328C69.3879 69.9996 70 69.3876 70 68.6325V60.4293C70 59.6742 69.3879 59.0621 68.6328 59.0621ZM54.5508 67.2653H44.5703V61.7965H54.5508V67.2653ZM67.2656 67.2653H57.2852V61.7965H67.2656V67.2653Z" fill="#00D2A0"/>
<path d="M5.46875 43.3395C6.22383 43.3395 6.83594 42.7274 6.83594 41.9723C6.83594 41.2172 6.22383 40.6051 5.46875 40.6051C4.71367 40.6051 4.10156 41.2172 4.10156 41.9723C4.10156 42.7274 4.71367 43.3395 5.46875 43.3395Z" fill="#00D2A0"/>
</g>
<defs>
<clipPath id="clip0">
<rect width="70" height="70" fill="white"/>
</clipPath>
</defs>
</svg>
