<svg width="70" height="70" viewBox="0 0 70 70" fill="none" xmlns="http://www.w3.org/2000/svg">
<path d="M52.7676 6.4248C52.0129 6.4248 51.4004 7.0373 51.4004 7.79199C51.4004 8.54667 52.0129 9.15917 52.7676 9.15917C53.5223 9.15917 54.1348 8.54667 54.1348 7.79199C54.1348 7.0373 53.5225 6.4248 52.7676 6.4248Z" fill="#1E5DC5"/>
<path d="M54.0202 1.09358C45.446 -1.65583 38.2805 1.42088 34.9953 3.31676C31.7103 1.42047 24.5459 -1.65637 15.9697 1.09358C4.61218 4.73672 -0.712591 21.3209 8.39382 34.7024C12.7082 41.0396 13.2844 45.9277 13.8943 51.1029C14.3408 54.8912 14.8025 58.8086 16.731 63.3884C18.028 66.4673 19.8612 69.9893 22.5736 69.989C22.598 69.989 22.6231 69.9888 22.6477 69.9882C24.8287 69.9367 26.5864 67.7735 28.3462 62.974C29.2427 60.5274 29.8171 57.6405 30.3725 54.8488C31.3724 49.8239 32.4064 44.6279 35.005 44.6097C35.0096 44.6097 35.0141 44.6097 35.0188 44.6097C37.589 44.6097 38.6206 49.8075 39.6184 54.8339C40.1742 57.6345 40.7489 60.5306 41.6453 62.9743C43.4073 67.7812 45.1648 69.9477 47.3438 69.9991C47.3686 69.9997 47.393 70 47.4178 70C50.1247 70 51.9604 66.4724 53.2592 63.3883C55.1022 59.0118 55.5849 55.1041 56.0518 51.325C56.7092 46.0044 57.33 40.9789 61.6066 34.6879C70.8196 21.1336 65.1871 4.67328 54.0202 1.09358ZM59.345 33.1506C54.6971 39.9879 54.0061 45.581 53.3378 50.9898C52.8734 54.7492 52.4347 58.3 50.7389 62.3268C48.727 67.1036 47.5602 67.2655 47.4127 67.2655C47.4111 67.2655 47.4097 67.2655 47.4084 67.2655C47.3557 67.2642 46.0978 67.1759 44.2126 62.0327C43.3895 59.7889 42.8359 56.9993 42.3005 54.3015C41.6995 51.2732 41.1319 48.4127 40.1962 46.1799C38.9989 43.3232 37.2588 41.8751 35.0233 41.8751C35.0109 41.8751 34.9981 41.8751 34.9857 41.8752C32.7409 41.8909 30.9942 43.3503 29.7945 46.2129C28.8592 48.4444 28.2917 51.2962 27.6911 54.3152C27.1558 57.0047 26.6025 59.786 25.7792 62.033C23.8974 67.1651 22.6365 67.2534 22.5837 67.2547C22.4612 67.2569 21.2808 67.1447 19.2516 62.3272C17.4733 58.1041 17.0541 54.548 16.6105 50.783C15.9888 45.5085 15.346 40.0545 10.6549 33.164C2.44561 21.1012 7.394 6.71654 16.8051 3.69766C24.9891 1.07335 31.7434 4.48242 34.2674 6.07013C34.7121 6.35 35.2781 6.35013 35.7229 6.07027C38.2478 4.48297 45.0037 1.07417 53.1855 3.69779C62.783 6.7741 67.3883 21.3177 59.345 33.1506Z" fill="#1E5DC5"/>
<path d="M59.7557 14.1541C59.3116 12.8649 58.723 11.6788 58.0065 10.6284C57.5809 10.0044 56.7303 9.84374 56.1066 10.2693C55.4828 10.6948 55.3221 11.5453 55.7478 12.1692C56.327 13.0183 56.8057 13.9859 57.1704 15.0447C58.5328 18.9991 58.1774 23.6132 56.1951 27.704C55.8657 28.3835 56.1497 29.2012 56.8292 29.5305C57.5088 29.8599 58.3265 29.5759 58.6558 28.8964C60.951 24.1601 61.352 18.7866 59.7557 14.1541Z" fill="#1E5DC5"/>
<path d="M30.0263 18.7026L24.5224 16.868L22.6878 11.3641C22.5017 10.8059 21.9792 10.4293 21.3907 10.4293C20.8023 10.4293 20.2799 10.8058 20.0937 11.3641L18.2591 16.868L12.7552 18.7026C12.197 18.8887 11.8203 19.4113 11.8203 19.9997C11.8203 20.5881 12.1968 21.1105 12.7552 21.2967L18.2591 23.1314L20.0937 28.6352C20.2798 29.1935 20.8023 29.5701 21.3907 29.5701C21.9792 29.5701 22.5016 29.1936 22.6878 28.6352L24.5224 23.1314L30.0263 21.2967C30.5845 21.1107 30.9612 20.5881 30.9612 19.9997C30.9612 19.4113 30.5847 18.8889 30.0263 18.7026ZM23.0092 20.7534C22.601 20.8895 22.2805 21.2098 22.1445 21.6182L21.3907 23.8795L20.637 21.6182C20.501 21.2099 20.1806 20.8895 19.7723 20.7534L17.5109 19.9997L19.7723 19.246C20.1805 19.1099 20.501 18.7896 20.637 18.3812L21.3907 16.1199L22.1445 18.3812C22.2805 18.7895 22.6008 19.1099 23.0092 19.246L25.2705 19.9997L23.0092 20.7534Z" fill="#1E5DC5"/>
</svg>
