<svg width="70" height="70" viewBox="0 0 70 70" fill="none" xmlns="http://www.w3.org/2000/svg">
<g clip-path="url(#clip0)">
<path d="M67.1181 17.6474L36.279 0.347148C35.4533 -0.115879 34.4279 -0.115879 33.6028 0.347148L2.76374 17.6474C1.90231 18.1307 1.36719 19.0445 1.36719 20.0319C1.36719 21.0199 1.90231 21.9337 2.76374 22.417L10.7409 26.8919V41.9752C10.7409 42.8869 11.1928 43.7344 11.9484 44.2434L13.5795 45.3414C13.141 46.103 12.8895 46.9841 12.8895 47.9241V68.6327C12.8895 69.3878 13.5015 69.9998 14.2566 69.9998H21.9129C22.668 69.9998 23.2801 69.3878 23.2801 68.6327V51.8718L33.4143 58.6944C33.8779 59.0068 34.4098 59.1628 34.9412 59.1628C35.4726 59.1628 36.0045 59.0068 36.468 58.6944L57.9339 44.2434C58.6896 43.7344 59.1414 42.8863 59.1414 41.9752V26.8919L67.1186 22.417C67.98 21.9337 68.5152 21.0199 68.5152 20.0319C68.5152 19.0445 67.98 18.1307 67.1181 17.6474ZM13.4753 28.4262L16.7176 30.2447V42.912C16.3117 43.0231 15.9256 43.1817 15.5656 43.3819L13.4753 41.9752V28.4262ZM20.5457 49.2961V49.3121V51.5242H15.6233V47.9241C15.6233 46.5671 16.7277 45.4626 18.0848 45.4626C19.4418 45.4626 20.5457 46.5671 20.5457 47.9241V49.2961ZM15.6233 67.2655V54.2585H20.5457V67.2655H15.6233ZM56.4065 41.9752L36.3084 55.5056V49.8376C36.3084 49.083 35.6963 48.4704 34.9412 48.4704C34.186 48.4704 33.574 49.083 33.574 49.8376V55.5056L23.2801 48.5756V47.9236C23.2801 45.5321 21.6555 43.5139 19.4519 42.912V31.7785L33.6034 39.7172C34.0157 39.9485 34.4781 40.0644 34.9412 40.0644C35.4037 40.0644 35.8662 39.9485 36.279 39.7172L56.4065 28.4262V41.9752ZM57.2466 24.8192C57.152 24.8587 57.0639 24.9095 56.9817 24.9682L34.9412 37.3322L20.9307 29.473L31.4009 23.5834C32.3537 24.2675 33.5831 24.6809 34.9252 24.6809C37.9404 24.6809 40.3939 22.5954 40.3939 20.0325C40.3939 17.469 37.9404 15.3835 34.9252 15.3835C31.9093 15.3835 29.4559 17.469 29.4559 20.0325C29.4559 20.5094 29.5413 20.9697 29.6989 21.4034L18.1382 27.9066L12.9007 24.9682C12.8184 24.9095 12.7298 24.8593 12.6352 24.8197L4.10156 20.0325L34.9406 2.73224L65.7803 20.0319L57.2466 24.8192ZM32.1902 20.0325C32.1902 18.9948 33.4426 18.1184 34.9252 18.1184C36.4072 18.1184 37.6595 18.9948 37.6595 20.0325C37.6595 21.0701 36.4072 21.9465 34.9252 21.9465C33.4426 21.9465 32.1902 21.0701 32.1902 20.0325Z" fill="#1E5DC5"/>
<path d="M34.9414 43.0027C34.5815 43.0027 34.229 43.1475 33.9748 43.4017C33.7206 43.6575 33.5742 44.0089 33.5742 44.3683C33.5742 44.7294 33.7206 45.0808 33.9748 45.3366C34.229 45.5908 34.5815 45.7355 34.9414 45.7355C35.3008 45.7355 35.6538 45.5908 35.908 45.3366C36.1623 45.0808 36.3086 44.7294 36.3086 44.3683C36.3086 44.0089 36.1623 43.6564 35.908 43.4017C35.6538 43.1475 35.3008 43.0027 34.9414 43.0027Z" fill="#1E5DC5"/>
</g>
<defs>
<clipPath id="clip0">
<rect width="70" height="70" fill="white"/>
</clipPath>
</defs>
</svg>
