<svg width="70" height="70" viewBox="0 0 70 70" fill="none" xmlns="http://www.w3.org/2000/svg">
<path d="M53.8512 39.8188C53.8373 39.7873 53.8229 39.7563 53.8063 39.7264C53.7305 39.5667 53.6541 39.407 53.5761 39.249C52.3355 36.7239 50.885 34.4707 49.2786 32.5417C49.231 32.468 49.175 32.4007 49.1109 32.3415C46.8657 29.6952 44.322 27.6786 41.618 26.4364C41.4402 25.5381 41.3489 24.6227 41.3489 23.7074C41.3489 22.7834 41.4402 21.8574 41.6207 20.9543L42.2242 17.923C42.3347 17.3676 41.9737 16.8276 41.4183 16.7176C40.8629 16.6065 40.3235 16.9675 40.2129 17.523L39.6095 20.5532C39.4028 21.5877 39.2981 22.6488 39.2981 23.7074C39.2981 24.3407 39.336 24.9741 39.4108 25.6033C37.9987 25.183 36.5541 24.9672 35.1084 24.9522C35.1004 24.9522 35.0924 24.9517 35.0844 24.9517C35.039 24.949 34.9947 24.948 34.9503 24.948C34.906 24.948 34.8611 24.949 34.8158 24.9517C34.8072 24.9517 34.7981 24.9522 34.7896 24.9528C33.3455 24.9677 31.903 25.183 30.4926 25.6027C30.6928 23.9242 30.6261 22.2323 30.2917 20.5537L28.4412 11.2638C28.4348 11.2302 28.4514 11.1971 28.4818 11.1832L31.723 9.73694C33.0395 9.14734 33.9703 7.89391 34.1508 6.46477L34.216 5.95474H35.6841L35.7487 6.46584C35.9319 7.89497 36.8623 9.14787 38.1776 9.73694L41.4178 11.1832C41.4477 11.1965 41.4653 11.2296 41.4589 11.2622L40.9911 13.6131C40.8805 14.1691 41.241 14.709 41.7964 14.819C42.3518 14.9296 42.8918 14.5691 43.0023 14.0137L43.4702 11.6633C43.6656 10.6854 43.1657 9.71771 42.2541 9.31076L39.015 7.86453C38.348 7.56599 37.8759 6.93047 37.7835 6.20628L37.6302 5.00038C37.603 4.78996 37.524 4.59824 37.4081 4.43481V1.53809C37.4075 0.690002 36.7181 0 35.87 0H34.0302C33.1821 0 32.4926 0.690002 32.4926 1.53809V4.43375C32.3762 4.5977 32.2966 4.78996 32.2699 5.00038L32.1161 6.20682C32.0248 6.93047 31.5527 7.56599 30.8856 7.86453L27.645 9.31076C26.7365 9.71718 26.2366 10.6833 26.4294 11.6622L28.28 20.9543C28.6436 22.7786 28.6442 24.6195 28.2842 26.4353C25.5798 27.677 23.036 29.6936 20.7914 32.3393C20.7257 32.3997 20.6675 32.4686 20.6194 32.5439C19.0141 34.4724 17.5652 36.7239 16.3245 39.2468C13.1581 45.6892 11.4844 53.4122 11.4844 61.58C11.4844 62.1467 11.9437 62.6054 12.5098 62.6054H33.9244V64.0474H32.4039C29.7561 64.0474 27.6028 66.2012 27.6028 68.8486V68.9746C27.6028 69.5412 28.0615 70 28.6282 70H41.272C41.8386 70 42.2974 69.5412 42.2974 68.9746V68.8486C42.2974 66.2012 40.1435 64.0474 37.4962 64.0474H35.9752V62.6054H57.3914C57.9575 62.6054 58.4168 62.1467 58.4168 61.58C58.4168 53.653 56.8392 46.1447 53.8512 39.8188ZM34.5434 2.05078H35.3568V3.90396H34.5434V2.05078ZM40.096 67.9492H29.8042C30.178 66.8731 31.2023 66.0982 32.4039 66.0982H34.9391C34.9429 66.0982 34.9461 66.0987 34.9498 66.0987C34.9535 66.0987 34.9567 66.0982 34.9605 66.0982H37.4962C38.6983 66.0982 39.7221 66.8731 40.096 67.9492ZM47.6443 60.5547H41.1748C41.1678 58.8409 41.1433 57.1474 41.1016 55.4838H47.4483C47.5594 57.1463 47.6257 58.8398 47.6443 60.5547ZM22.4518 55.4838H23.1947C23.7613 55.4838 24.22 55.025 24.22 54.4584C24.22 53.8923 23.7613 53.433 23.1947 53.433H22.6141C22.7717 51.6994 22.9789 50.0049 23.2347 48.3632H29.0907C28.9951 50.0076 28.9176 51.701 28.8594 53.433H27.057C26.4909 53.433 26.0316 53.8923 26.0316 54.4584C26.0316 55.025 26.4909 55.4838 27.057 55.4838H28.7985C28.7574 57.1474 28.7328 58.8409 28.7259 60.5547H22.2563C22.275 58.8398 22.3407 57.1463 22.4518 55.4838ZM15.1576 48.3632H21.162C20.9121 50.0086 20.7092 51.7021 20.5559 53.433H14.1317C14.3907 51.7005 14.733 50.007 15.1576 48.3632ZM17.6506 41.2421H22.6205C22.1933 42.8581 21.8195 44.5532 21.5022 46.3124H15.7371C16.2791 44.5527 16.9168 42.8576 17.6506 41.2421ZM21.9765 34.1193H25.0847C24.8107 34.7292 24.5448 35.3674 24.2884 36.0334C23.9007 37.039 23.5391 38.0943 23.2037 39.1913H18.6562C19.6507 37.3119 20.7663 35.612 21.9765 34.1193ZM39.124 60.5547H30.7761C30.7831 58.8425 30.8087 57.149 30.8504 55.4838H39.0498C39.0919 57.149 39.1171 58.8425 39.124 60.5547ZM30.9113 53.433C30.9711 51.7016 31.0496 50.0076 31.1457 48.3632H38.7544C38.8506 50.0076 38.9291 51.7016 38.9889 53.433H30.9113ZM31.2776 46.3124C31.4005 44.549 31.5452 42.8528 31.7107 41.2421H38.1894C38.3549 42.8528 38.4997 44.549 38.6225 46.3124H31.2776ZM27.3491 34.1193H30.5967C30.4819 34.7826 30.3687 35.4929 30.2576 36.254C30.1203 37.1912 29.9921 38.1728 29.8725 39.1913H25.3517C25.6187 38.356 25.9023 37.548 26.2019 36.7709C26.5667 35.8241 26.9501 34.9397 27.3491 34.1193ZM43.6982 36.7709C43.9978 37.548 44.2814 38.356 44.549 39.1913H40.0276C39.908 38.1728 39.7798 37.1912 39.6431 36.254C39.5315 35.4929 39.4183 34.7826 39.3034 34.1193H42.551C42.95 34.9397 43.3334 35.8241 43.6982 36.7709ZM32.6795 34.1193H37.2206C37.3915 35.0716 37.5624 36.1493 37.7296 37.3707C37.8107 37.9613 37.8882 38.5686 37.9624 39.1913H31.9377C32.0119 38.5686 32.0899 37.9613 32.1706 37.3707C32.3377 36.1493 32.5086 35.0716 32.6795 34.1193ZM33.0875 32.0686C33.9367 28.2319 34.7121 27.2615 34.9503 27.0431C35.1885 27.2615 35.9634 28.2319 36.8131 32.0686H33.0875ZM38.913 32.0686C38.5371 30.2821 38.1483 28.9342 37.7563 27.9205C39.0412 28.7622 40.2882 30.1662 41.4402 32.0686H38.913ZM30.9876 32.0686H28.4599C29.6119 30.1662 30.8589 28.7622 32.1439 27.9205C31.7519 28.9342 31.3631 30.2821 30.9876 32.0686ZM29.6487 41.2421C29.4853 42.8565 29.3417 44.5511 29.2204 46.3124H23.5856C23.9135 44.5468 24.2996 42.8512 24.7424 41.2421H29.6487ZM40.2514 41.2421H45.1583C45.6005 42.8512 45.9866 44.5468 46.3151 46.3124H40.6797C40.5585 44.5511 40.4148 42.8565 40.2514 41.2421ZM47.2801 41.2421H52.2501C52.9833 42.8576 53.6215 44.5527 54.1631 46.3124H48.3979C48.0807 44.5532 47.7068 42.8587 47.2801 41.2421ZM46.6964 39.1913C46.361 38.0943 45.9995 37.039 45.6117 36.0334C45.3554 35.3669 45.0894 34.7292 44.8154 34.1193H47.9237C49.1338 35.612 50.2495 37.3114 51.2439 39.1913H46.6964ZM43.8023 32.0686C43.1043 30.7804 42.3631 29.6573 41.5849 28.7077C43.154 29.5414 44.66 30.6747 46.0705 32.0686H43.8023ZM26.0978 32.0686H23.8297C25.2406 30.6747 26.7467 29.5409 28.3157 28.7067C27.5376 29.6568 26.7958 30.7799 26.0978 32.0686ZM41.0413 53.433C40.9825 51.701 40.9051 50.0076 40.8095 48.3632H46.6654C46.9218 50.0049 47.129 51.6994 47.2865 53.433H41.0413ZM48.7381 48.3632H54.743C55.1676 50.007 55.5099 51.7005 55.7695 53.433H49.3448C49.191 51.7021 48.988 50.0086 48.7381 48.3632ZM13.8657 55.4838H20.3973C20.2883 57.1479 20.2242 58.8414 20.2055 60.5547H13.5442C13.5747 58.8382 13.6836 57.1458 13.8657 55.4838ZM49.6946 60.5547C49.6764 58.8414 49.6118 57.1479 49.5029 55.4838H56.0349C56.2176 57.1458 56.326 58.8382 56.357 60.5547H49.6946Z" fill="#1E5DC5"/>
</svg>
