<svg width="70" height="70" viewBox="0 0 70 70" fill="none" xmlns="http://www.w3.org/2000/svg">
<path d="M9.02344 1.36719C9.02344 6.64426 13.3167 10.9375 18.5938 10.9375H30.8984C32.4062 10.9375 33.6328 12.1641 33.6328 13.6719C33.6328 14.427 34.245 15.0391 35 15.0391C35.755 15.0391 36.3672 14.427 36.3672 13.6719C36.3672 10.6564 33.9139 8.20312 30.8984 8.20312H18.5938C14.8244 8.20312 11.7578 5.13652 11.7578 1.36719C11.7578 0.61209 11.1457 0 10.3906 0C9.63553 0 9.02344 0.61209 9.02344 1.36719Z" fill="#1E5DC5"/>
<path d="M69.4773 29.8233C69.1473 29.5641 68.7163 29.471 68.3089 29.5702L51.4925 33.6718C50.88 33.8211 50.4492 34.3697 50.4492 35V42.6562H44.4304L42.2547 22.5482C42.1795 21.8541 41.5935 21.3281 40.8955 21.3281H32.9492C32.2447 21.3281 31.6556 21.8634 31.5883 22.5646L29.6589 42.6562H26.7969C26.0418 42.6562 25.4297 43.2683 25.4297 44.0234V50.8594H19.4322L17.2374 26.6733C17.1735 25.969 16.583 25.4297 15.8758 25.4297H8.0582C7.34836 25.4297 6.75664 25.9729 6.69607 26.6801L4.62383 50.8594H1.36719C0.61209 50.8594 0 51.4715 0 52.2266V68.6328C0 69.3879 0.61209 70 1.36719 70H12.0312C12.7863 70 13.3984 69.3879 13.3984 68.6328C13.3984 67.8777 12.7863 67.2656 12.0312 67.2656H2.73438V53.5938H67.2656V67.2656H61.3867V60.4297C61.3867 59.6746 60.7745 59.0625 60.0195 59.0625H51.8164C51.0614 59.0625 50.4492 59.6746 50.4492 60.4297V67.2656H44.5703V60.4297C44.5703 59.6746 43.9581 59.0625 43.2031 59.0625H35C34.245 59.0625 33.6328 59.6746 33.6328 60.4297V67.2656H24.3359C23.5808 67.2656 22.9688 67.8777 22.9688 68.6328C22.9688 69.3879 23.5808 70 24.3359 70H68.6328C69.3878 70 70 69.3879 70 68.6328C70 67.2622 70 32.1517 70 30.8984C70 30.4788 69.8074 30.0825 69.4773 29.8233ZM7.36832 50.8594L9.31328 28.1641H14.6271L16.6868 50.8594H7.36832ZM41.8359 67.2656H36.3672V61.7969H41.8359V67.2656ZM58.6523 67.2656H53.1836V61.7969H58.6523V67.2656ZM34.1914 24.0625H39.6681L41.6801 42.6562H32.406L34.1914 24.0625ZM67.2656 50.8594H28.1641V45.3906H51.8164C52.5714 45.3906 53.1836 44.7785 53.1836 44.0234V36.0738L67.2656 32.6391V50.8594Z" fill="#1E5DC5"/>
<path d="M26.3867 61.7969C27.1418 61.7969 27.7539 61.1848 27.7539 60.4297C27.7539 59.6746 27.1418 59.0625 26.3867 59.0625H22.2852C21.5301 59.0625 20.918 59.6746 20.918 60.4297C20.918 61.1848 21.5301 61.7969 22.2852 61.7969H26.3867Z" fill="#1E5DC5"/>
<path d="M15.4492 60.4297C15.4492 59.6746 14.8371 59.0625 14.082 59.0625H9.98047C9.22537 59.0625 8.61328 59.6746 8.61328 60.4297C8.61328 61.1848 9.22537 61.7969 9.98047 61.7969H14.082C14.8371 61.7969 15.4492 61.1848 15.4492 60.4297Z" fill="#1E5DC5"/>
<path d="M18.1836 70C18.9387 70 19.5508 69.3879 19.5508 68.6328C19.5508 67.8777 18.9387 67.2656 18.1836 67.2656C17.4285 67.2656 16.8164 67.8777 16.8164 68.6328C16.8164 69.3879 17.4285 70 18.1836 70Z" fill="#1E5DC5"/>
</svg>
