<svg width="70" height="70" viewBox="0 0 70 70" fill="none" xmlns="http://www.w3.org/2000/svg">
<g clip-path="url(#clip0)">
<path d="M69.776 29.4726L58.5665 12.3793C58.3137 11.9941 57.8841 11.7619 57.4234 11.7619H12.6298C12.17 11.7619 11.7411 11.993 11.4882 12.377L0.260567 29.4193C0.20711 29.493 0.160762 29.5725 0.122071 29.6576C-0.0995503 30.1462 -0.0147846 30.7192 0.33877 31.1228L6.02969 37.6206C6.52721 38.1887 7.39072 38.2458 7.95865 37.7484C8.52658 37.2509 8.58373 36.3873 8.08635 35.8195L4.38168 31.5893H22.7705L32.0109 63.1367L21.569 51.2141C21.0716 50.6461 20.2078 50.5889 19.64 51.0863C19.0721 51.5838 19.015 52.4475 19.5123 53.0153L33.9758 69.5297C34.2353 69.8261 34.6103 69.9962 35.0042 69.9962C35.3982 69.9962 35.773 69.8261 36.0325 69.5295L51.4311 51.9431C51.9286 51.3751 51.8713 50.5114 51.3031 50.0142C50.7349 49.5166 49.8713 49.5739 49.3742 50.1421L37.9978 63.1349L47.2378 31.5891H65.619L57.1174 41.2989C56.6199 41.867 56.6772 42.7306 57.2454 43.2279C57.5047 43.4551 57.8257 43.5665 58.1454 43.5665C58.5257 43.5665 58.9042 43.4086 59.1743 43.0999L69.6615 31.1226C70.0659 30.6608 70.1128 29.986 69.776 29.4726ZM3.90645 28.8552L12.6271 15.6179L21.308 28.8552H3.90645ZM15.161 14.4961H32.4727L23.8169 27.6951L15.161 14.4961ZM35.0041 15.6219L43.6823 28.8552H26.3259L35.0041 15.6219ZM35.0041 63.6293L25.6194 31.5893H44.3887L35.0041 63.6293ZM46.2136 27.7294L37.5354 14.4961H54.8921L46.2136 27.7294ZM48.745 28.8552L57.4234 15.6219L66.1014 28.8552H48.745Z" fill="#1E5DC5"/>
<path d="M21.4906 44.7094C17.9643 44.7094 15.0952 41.8403 15.0952 38.314C15.0952 37.559 14.4831 36.9469 13.7282 36.9469C12.9732 36.9469 12.3611 37.559 12.3611 38.314C12.3611 41.8403 9.49207 44.7094 5.96568 44.7094C5.21086 44.7094 4.59863 45.3215 4.59863 46.0764C4.59863 46.8314 5.21086 47.4435 5.96568 47.4435C9.49207 47.4435 12.3611 50.3125 12.3611 53.8389C12.3611 54.5939 12.9733 55.206 13.7282 55.206C14.483 55.206 15.0952 54.5939 15.0952 53.8389C15.0952 50.3125 17.9643 47.4435 21.4906 47.4435C22.2456 47.4435 22.8577 46.8314 22.8577 46.0764C22.8577 45.3215 22.2456 44.7094 21.4906 44.7094ZM13.7282 49.0379C12.9829 47.8372 11.9674 46.8218 10.7668 46.0764C11.9674 45.3312 12.9828 44.3158 13.7282 43.115C14.4734 44.3156 15.489 45.331 16.6895 46.0764C15.489 46.8218 14.4736 47.8371 13.7282 49.0379Z" fill="#1E5DC5"/>
<path d="M68.6335 5.47193C66.3722 5.47193 64.5324 3.6321 64.5324 1.37077C64.5324 0.615813 63.9202 0.00372314 63.1653 0.00372314C62.4105 0.00372314 61.7983 0.615813 61.7983 1.37077C61.7983 3.6321 59.9585 5.47193 57.6971 5.47193C56.9423 5.47193 56.3301 6.08402 56.3301 6.83898C56.3301 7.59394 56.9423 8.20603 57.6971 8.20603C59.9585 8.20603 61.7983 10.0459 61.7983 12.3072C61.7983 13.0621 62.4105 13.6742 63.1653 13.6742C63.9202 13.6742 64.5324 13.0621 64.5324 12.3072C64.5324 10.0459 66.3722 8.20603 68.6335 8.20603C69.3884 8.20603 70.0006 7.59394 70.0006 6.83898C70.0006 6.08402 69.3884 5.47193 68.6335 5.47193ZM63.1653 8.21027C62.7753 7.69101 62.3133 7.22904 61.794 6.83898C62.3133 6.44892 62.7753 5.98695 63.1653 5.46769C63.5554 5.98695 64.0174 6.44892 64.5366 6.83898C64.0174 7.2289 63.5553 7.69101 63.1653 8.21027Z" fill="#1E5DC5"/>
<path d="M55.0677 45.8515C54.8136 45.5958 54.4609 45.4509 54.1014 45.4509C53.7417 45.4509 53.3906 45.5958 53.135 45.8515C52.8807 46.1058 52.7344 46.4585 52.7344 46.818C52.7344 47.1774 52.8805 47.5301 53.135 47.7844C53.3893 48.0387 53.7417 48.185 54.1014 48.185C54.461 48.185 54.8136 48.0387 55.0677 47.7844C55.322 47.5301 55.4685 47.1774 55.4685 46.818C55.4685 46.4585 55.3222 46.1058 55.0677 45.8515Z" fill="#1E5DC5"/>
</g>
<defs>
<clipPath id="clip0">
<rect width="70" height="70" fill="white"/>
</clipPath>
</defs>
</svg>
