<svg width="70" height="70" viewBox="0 0 70 70" fill="none" xmlns="http://www.w3.org/2000/svg">
<g clip-path="url(#clip0)">
<path d="M17.1846 17.2258C16.4299 17.2258 15.8174 17.8383 15.8174 18.593C15.8174 19.3476 16.4299 19.9601 17.1846 19.9601C17.9393 19.9601 18.5518 19.3476 18.5518 18.593C18.5518 17.8383 17.9393 17.2258 17.1846 17.2258Z" fill="#00D2A0"/>
<path d="M29.4886 42.7908H25.3873V38.6895C25.3873 37.9346 24.7751 37.3223 24.0201 37.3223C23.2651 37.3223 22.653 37.9346 22.653 38.6895V42.7908H18.5518C17.7968 42.7908 17.1846 43.403 17.1846 44.1579C17.1846 44.9127 17.7968 45.525 18.5518 45.525H22.653V49.6263C22.653 50.3813 23.2653 50.9935 24.0201 50.9935C24.7749 50.9935 25.3873 50.3813 25.3873 49.6263V45.525H29.4886C30.2435 45.525 30.8558 44.9128 30.8558 44.1579C30.8558 43.4029 30.2437 42.7908 29.4886 42.7908Z" fill="#00D2A0"/>
<path d="M66.3875 44.0213C63.3653 38.7868 56.6831 36.9954 51.4477 40.0183L45.8944 43.2243V31.3522C45.8944 29.8845 45.4091 28.4281 44.5274 27.2509L37.6919 18.1371V14.2562C39.283 13.6918 40.4261 12.1723 40.4261 10.3899V4.10129C40.4258 1.83982 38.586 0 36.3245 0H11.7164C9.45492 0 7.61496 1.83982 7.61496 4.10129V10.3901C7.61496 12.1722 8.75807 13.692 10.3492 14.2563V18.1372L3.51313 27.2516C2.63184 28.4282 2.14648 29.8845 2.14648 31.3522V57.8292C2.14648 61.5984 5.21295 64.6647 8.98201 64.6647H30.953C34.0184 69.803 40.6282 71.5226 45.8094 68.531L62.3846 58.9611C67.5738 55.9645 69.4248 49.2842 66.3875 44.0213ZM10.3492 4.10129C10.3492 3.34742 10.9625 2.7341 11.7163 2.7341H36.3244C37.0783 2.7341 37.6916 3.34742 37.6916 4.10129V10.3901C37.6916 11.1439 37.0783 11.7571 36.3244 11.7571H11.7164C10.9625 11.7571 10.3493 11.1438 10.3493 10.3901V4.10129H10.3492ZM5.70117 28.8913L12.81 19.4131C12.9875 19.1766 13.0834 18.8887 13.0834 18.5928V14.4915H34.9573V17.2257H22.6533C21.8984 17.2257 21.2862 17.838 21.2862 18.5929C21.2862 19.3479 21.8984 19.9601 22.6533 19.9601H35.6409L42.3392 28.8909C42.777 29.4753 43.0489 30.1746 43.1311 30.8971H4.90984C4.99188 30.1745 5.26381 29.4752 5.70117 28.8913ZM8.98215 61.9304C6.72068 61.9304 4.88086 60.0906 4.88086 57.8292V56.4484H29.7192C29.2857 58.221 29.2886 60.1143 29.785 61.9306H8.98215V61.9304ZM30.7915 53.7277H4.88072V33.631H43.1601V44.8027L34.8723 49.5882C33.1443 50.5863 31.7476 52.0073 30.7915 53.7277ZM44.4425 66.163C40.5191 68.4286 35.5056 67.0887 33.2385 63.1626C30.9607 59.1985 32.3411 54.2078 36.2398 51.9559L43.6605 47.6714L51.8632 61.8785L44.4425 66.163ZM61.0175 56.5932L54.2311 60.5114L46.0283 46.304L52.8147 42.3862C56.7408 40.1197 61.7525 41.4619 64.0195 45.3882C66.2966 49.3341 64.9119 54.3443 61.0175 56.5932Z" fill="#00D2A0"/>
</g>
<defs>
<clipPath id="clip0">
<rect width="70" height="70" fill="white"/>
</clipPath>
</defs>
</svg>
