<svg width="70" height="70" viewBox="0 0 70 70" fill="none" xmlns="http://www.w3.org/2000/svg">
<path d="M34.9666 52.7841C30.2188 52.7841 25.7557 50.9352 22.3986 47.5781C15.4687 40.6482 15.4687 29.3726 22.3986 22.4427C24.7869 20.0544 27.7841 18.4036 31.0653 17.6682C34.2574 16.9536 37.5797 17.1283 40.673 18.1745C41.3881 18.4164 41.7721 19.1924 41.5302 19.9075C41.2882 20.6226 40.5122 21.0066 39.7971 20.7647C34.3332 18.9168 28.4073 20.3011 24.3319 24.3765C18.4685 30.2405 18.4685 39.7814 24.3319 45.6448C27.1726 48.4855 30.9494 50.0497 34.9666 50.0497C38.9832 50.0497 42.7601 48.4855 45.6007 45.6448C49.7194 41.5262 51.0919 35.3274 49.0972 29.8517C48.8387 29.1424 49.2046 28.3574 49.9138 28.0994C50.6236 27.8409 51.4081 28.2062 51.6666 28.916C54.0234 35.3856 52.4014 42.7112 47.534 47.5781C44.177 50.9352 39.7138 52.7841 34.9666 52.7841Z" fill="#00D2A0"/>
<path d="M41.0156 70H28.9844C28.2292 70 27.6172 69.388 27.6172 68.6328V62.7908C25.1456 62.1376 22.7829 61.1592 20.5687 59.8721L16.4383 64.0025C16.1819 64.2589 15.8343 64.4031 15.4716 64.4031C15.109 64.4031 14.7614 64.2589 14.505 64.0025L5.99747 55.495C5.74112 55.2386 5.59692 54.891 5.59692 54.5284C5.59692 54.1657 5.74112 53.8181 5.99747 53.5617L10.1279 49.4313C8.84079 47.2171 7.8624 44.8544 7.20924 42.3828H1.36719C0.61203 42.3828 0 41.7708 0 41.0156V28.9844C0 28.2292 0.61203 27.6172 1.36719 27.6172H7.21832C7.87361 25.1498 8.85361 22.7914 10.1407 20.5815L5.99747 16.4383C5.74112 16.1819 5.59692 15.8343 5.59692 15.4716C5.59692 15.109 5.74112 14.7614 5.99747 14.505L14.505 5.99747C14.7614 5.74112 15.109 5.59692 15.4716 5.59692C15.8343 5.59692 16.1819 5.74112 16.4383 5.99747L20.5911 10.1503C22.7989 8.86909 25.1541 7.89497 27.6172 7.24396V1.36719C27.6172 0.61203 28.2292 0 28.9844 0H41.0156C41.7708 0 42.3828 0.61203 42.3828 1.36719V7.25304C44.8411 7.90619 47.1925 8.88191 49.3961 10.1631L53.5612 5.99747C53.8175 5.74112 54.1657 5.59692 54.5284 5.59692C54.8904 5.59692 55.2386 5.74112 55.495 5.99747L64.0025 14.505C64.2589 14.7614 64.4025 15.109 64.4025 15.4716C64.4025 15.8343 64.2589 16.1819 64.0025 16.4383L59.8369 20.6034C61.1181 22.8075 62.0938 25.1584 62.747 27.6172H68.6328C69.388 27.6172 70 28.2292 70 28.9844V41.0156C70 41.7708 69.388 42.3828 68.6328 42.3828H62.756C62.105 44.8459 61.1309 47.2011 59.8497 49.4089L64.0025 53.5617C64.2589 53.8181 64.4031 54.1657 64.4031 54.5284C64.4031 54.891 64.2589 55.2386 64.0025 55.495L55.495 64.0025C54.9615 64.5361 54.0958 64.5361 53.5617 64.0025L49.4185 59.8593C47.2086 61.1464 44.8496 62.1264 42.3828 62.7817V68.6328C42.3828 69.388 41.7708 70 41.0156 70ZM30.3516 67.2656H39.6484V61.7098C39.6484 61.07 40.0917 60.5162 40.7155 60.3757C43.6208 59.7221 46.3722 58.5792 48.893 56.9791C49.4334 56.6357 50.14 56.7137 50.5929 57.1666L54.5284 61.1021L61.1026 54.5284L57.1586 50.5843C56.7062 50.1325 56.6277 49.4276 56.9695 48.8871C58.5626 46.3674 59.6991 43.6186 60.3485 40.7171C60.4879 40.0928 61.0423 39.6484 61.6826 39.6484H67.2656V30.3516H61.6751C61.0353 30.3516 60.4815 29.9083 60.341 29.2845C59.6889 26.3878 58.5503 23.6433 56.9567 21.1273C56.6144 20.5869 56.6924 19.8814 57.1447 19.429L61.1021 15.4716L54.5284 8.89793L50.571 12.8553C50.1186 13.3076 49.4131 13.3856 48.8727 13.0433C46.3573 11.4497 43.6127 10.3111 40.7155 9.65897C40.0917 9.51851 39.6484 8.96469 39.6484 8.32542V2.73438H30.3516V8.31741C30.3516 8.95775 29.9078 9.5121 29.2829 9.65149C26.3814 10.3009 23.6326 11.4374 21.1129 13.0305C20.5724 13.3723 19.8675 13.2938 19.4157 12.8414L15.4716 8.8974L8.89793 15.4716L12.8339 19.4071C13.2868 19.86 13.3643 20.5666 13.0214 21.107C11.4208 23.6278 10.2785 26.3792 9.62425 29.2845C9.4838 29.9083 8.92998 30.3516 8.29071 30.3516H2.73438V39.6484H8.2827C8.92303 39.6484 9.47739 40.0922 9.61731 40.7171C10.2678 43.6272 11.4091 46.3824 13.0086 48.9074C13.3509 49.4479 13.2729 50.1534 12.8206 50.6057L8.89793 54.5284L15.4716 61.1021L19.3943 57.1799C19.8466 56.7271 20.5521 56.6491 21.0926 56.9914C23.6176 58.5909 26.3734 59.7322 29.2829 60.3832C29.9078 60.5226 30.3521 61.077 30.3521 61.7173V67.2656H30.3516Z" fill="#00D2A0"/>
<path d="M34.9824 44.588C29.7054 44.588 25.4121 40.2947 25.4121 35.0176C25.4121 29.7401 29.7054 25.4473 34.9824 25.4473C40.26 25.4473 44.5527 29.7401 44.5527 35.0176C44.5527 40.2947 40.26 44.588 34.9824 44.588ZM34.9824 28.1817C31.2136 28.1817 28.1465 31.2483 28.1465 35.0176C28.1465 38.7865 31.2136 41.8536 34.9824 41.8536C38.7518 41.8536 41.8184 38.7865 41.8184 35.0176C41.8184 31.2483 38.7518 28.1817 34.9824 28.1817Z" fill="#00D2A0"/>
<path d="M46.532 24.8097C46.1828 24.8097 45.8329 24.6762 45.5659 24.4097C45.0319 23.8761 45.0313 23.0104 45.5648 22.4764L45.6311 22.4101C46.1646 21.8761 47.0303 21.8756 47.5644 22.4096C48.0984 22.9431 48.099 23.8088 47.5654 24.3429L47.4997 24.4086C47.2327 24.6762 46.8824 24.8097 46.532 24.8097Z" fill="#00D2A0"/>
</svg>
