<svg width="70" height="70" viewBox="0 0 70 70" fill="none" xmlns="http://www.w3.org/2000/svg">
<g clip-path="url(#clip0)">
<path d="M5.83486 40.8328C6.47893 40.8328 7.00123 40.3105 7.00123 39.6659V13.9996C7.00123 13.3555 6.47893 12.8332 5.83486 12.8332C5.19027 12.8332 4.66797 13.3555 4.66797 13.9996V39.6659C4.66797 40.3105 5.19027 40.8328 5.83486 40.8328Z" fill="#00D2A0"/>
<path d="M5.83488 10.5C6.47896 10.5 7.00127 9.97772 7.00127 9.33311V6.99982C7.00127 6.35574 6.47896 5.83344 5.83488 5.83344C5.19028 5.83344 4.66797 6.35574 4.66797 6.99982V9.33311C4.66797 9.97772 5.19028 10.5 5.83488 10.5Z" fill="#00D2A0"/>
<path d="M35.0005 23.3331C32.4232 23.3331 30.334 25.4223 30.334 27.9996C30.334 30.577 32.4232 32.6662 35.0005 32.6662C37.5778 32.6662 39.667 30.577 39.667 27.9996C39.6643 25.4234 37.5767 23.3358 35.0005 23.3331ZM35.0005 30.3329C33.7118 30.3329 32.6672 29.2883 32.6672 27.9996C32.6672 26.711 33.7118 25.6664 35.0005 25.6664C36.2892 25.6664 37.3338 26.711 37.3338 27.9996C37.3327 29.2878 36.2886 30.3318 35.0005 30.3329Z" fill="#00D2A0"/>
<path d="M47.8507 23.3288H47.8358L45.6915 23.3278C45.3417 22.532 44.906 21.7769 44.3911 21.0762L45.4694 19.2055C46.0942 18.0872 45.707 16.6741 44.5994 16.0305L40.5711 13.708C40.0397 13.3934 39.4042 13.3053 38.8071 13.4634C38.2063 13.6209 37.6926 14.0108 37.3785 14.547L36.2987 16.4097C35.4346 16.3125 34.5614 16.3131 33.6974 16.4119L32.6244 14.5523C31.9788 13.4377 30.5529 13.0559 29.4367 13.6984L25.3961 16.0316C24.2815 16.6767 23.8992 18.1026 24.5411 19.2188L25.6151 21.0778C25.0981 21.7774 24.6612 22.5331 24.313 23.3299L22.1576 23.3331C21.5371 23.3374 20.9432 23.5879 20.5064 24.029C20.0732 24.4632 19.8318 25.0528 19.8367 25.6664L19.834 30.3243C19.8367 31.6125 20.8748 32.6581 22.163 32.6699L24.3077 32.6715C24.4823 33.0694 24.6789 33.4571 24.8962 33.8336C25.1131 34.2096 25.3507 34.5732 25.6076 34.923L24.5283 36.7949C23.9045 37.9137 24.2928 39.3252 25.3998 39.9682L29.4266 42.2897C29.9579 42.6048 30.594 42.6934 31.1916 42.5354C31.7924 42.3778 32.3067 41.988 32.6207 41.4518L33.7 39.5885C34.5646 39.6862 35.4373 39.6857 36.3019 39.5869L37.3743 41.4464C37.683 41.9832 38.1935 42.3741 38.7916 42.5322C38.9903 42.5856 39.1954 42.6128 39.401 42.6128C39.809 42.6128 40.2095 42.5049 40.562 42.3004L44.6026 39.9671C45.7172 39.3215 46.0996 37.8961 45.4576 36.7799L44.3847 34.9209C44.9012 34.2213 45.338 33.4662 45.6857 32.6688L47.8411 32.6662C48.4622 32.6619 49.0561 32.4114 49.4924 31.9698C49.9255 31.5356 50.1669 30.946 50.1626 30.3329L50.1647 25.6749C50.1637 24.3921 49.1335 23.3475 47.8507 23.3288ZM44.8878 30.3366C44.3917 30.3377 43.95 30.6528 43.7877 31.1217C43.409 32.1973 42.8339 33.1933 42.091 34.0579C41.769 34.4339 41.7193 34.9716 41.9666 35.4005L43.4363 37.9463L39.3951 40.2801L37.9254 37.7337C37.7166 37.3727 37.3316 37.1506 36.915 37.1506C36.8429 37.1506 36.7713 37.157 36.7003 37.1703C35.5793 37.3802 34.4295 37.3807 33.308 37.1714C32.821 37.0769 32.327 37.3022 32.0792 37.7321L30.6036 40.2758L26.5566 37.9463L28.0247 35.4015C28.2725 34.9722 28.2218 34.4333 27.8987 34.0579C27.1595 33.1895 26.5849 32.1941 26.203 31.1195C26.0391 30.6523 25.598 30.3388 25.1024 30.3388L22.1683 30.3302L22.163 25.6664L25.1109 25.6621C25.6076 25.6616 26.0492 25.3465 26.2116 24.8771C26.5897 23.8015 27.1649 22.806 27.9077 21.9414C28.2298 21.5654 28.28 21.0271 28.0327 20.5988L26.5625 18.053L30.6036 15.7192L32.0738 18.2655C32.32 18.6949 32.8119 18.9213 33.2984 18.829C34.4194 18.6175 35.5697 18.6169 36.6907 18.8274C37.1783 18.9213 37.6712 18.6965 37.9201 18.2671L39.3957 15.7224L43.4416 18.053L41.9735 20.5977C41.7262 21.0266 41.7764 21.5654 42.0995 21.9414C42.8392 22.8092 43.4144 23.8052 43.7967 24.8797C43.9607 25.347 44.4018 25.66 44.8974 25.6605L47.8315 25.6621L47.8358 30.3329L44.8878 30.3366Z" fill="#00D2A0"/>
<path d="M69.9965 12.5795C69.8694 8.81076 66.7725 5.82329 63.001 5.83344H16.3353V2.33328C16.3337 1.04516 15.2902 0.00109149 14.0021 2.33966e-05H7.00175C5.1438 -0.00478303 3.36061 0.731136 2.04685 2.0449C0.733089 3.35865 -0.00282992 5.14184 0.00197652 6.9998V57.1699C0.136023 60.9392 3.14058 63.9742 6.90883 64.1462C6.94087 64.1489 6.96917 64.1654 7.00175 64.1654H7.8071L9.53368 67.9502C9.62073 68.1377 9.72486 68.3171 9.84342 68.4859C9.88081 68.5404 9.92246 68.59 9.96252 68.6423C10.0496 68.754 10.143 68.8608 10.2434 68.9612C10.2926 69.0108 10.3396 69.0605 10.3919 69.107C10.5356 69.2362 10.6894 69.3542 10.8528 69.4584C10.8886 69.4813 10.9286 69.4974 10.966 69.5187C11.1064 69.6004 11.2528 69.672 11.4034 69.7329C11.4344 69.7457 11.4616 69.7649 11.4926 69.7767C11.5316 69.7911 11.5716 69.7964 11.6106 69.8092C11.7238 69.8466 11.8386 69.8781 11.9551 69.9038C12.0271 69.9203 12.0976 69.939 12.1697 69.9508C12.3182 69.9737 12.4672 69.9871 12.6173 69.9908C12.6515 69.9919 12.6856 69.9999 12.7198 69.9999C13.2202 69.9994 13.7147 69.8915 14.1698 69.6827L26.266 64.1654H53.668V67.6656C53.6691 68.9537 54.7131 69.9978 56.0012 69.9988H63.001C66.8654 69.9946 69.9965 66.8629 70.0008 62.9991V12.8332C70.0008 12.8193 69.9933 12.8081 69.9928 12.7942C69.9928 12.7227 69.9987 12.6516 69.9965 12.5795ZM3.69225 3.69938C4.5713 2.82354 5.76116 2.33221 7.00175 2.33328H14.0021V50.1659H7.00175C5.27944 50.1664 3.61802 50.8025 2.33523 51.9517V6.9998C2.33363 5.76348 2.82122 4.57682 3.69225 3.69938ZM42.705 53.5277L40.2345 48.1114L47.7032 47.619L47.9392 48.2444L42.705 53.5277ZM37.8949 48.6038L38.8631 50.7272L31.4329 54.1162C31.0473 54.285 30.7824 54.6487 30.7402 55.0674C30.698 55.4861 30.8849 55.8951 31.2289 56.1381C31.5728 56.3806 32.0209 56.419 32.4011 56.2385L39.8313 52.8489L40.7996 54.9723L25.5631 61.9219L25.5418 61.9315L19.5706 64.6557L18.6018 62.5323L27.0943 58.6588C27.67 58.3859 27.9204 57.7008 27.6555 57.1208C27.3912 56.5408 26.7097 56.2807 26.126 56.5365L17.6341 60.4095L16.6659 58.2866L37.8949 48.6038ZM13.2021 67.5598C12.6162 67.8269 11.9246 67.5689 11.6571 66.9831L9.72006 62.7368C9.45357 62.1505 9.71098 61.4589 10.2968 61.1908L14.5436 59.2538L15.9951 62.4372V62.4383L15.9962 62.4399L17.4477 65.6228L13.2021 67.5598ZM31.3816 61.8322L42.8295 56.6108C42.8882 56.5761 42.9438 56.536 42.9945 56.4911C43.058 56.457 43.1184 56.4164 43.1745 56.3704L49.5638 49.9197C50.3003 49.2361 50.515 48.1573 50.0973 47.2436L49.8271 46.6518C49.4218 45.7498 48.4883 45.2046 47.5035 45.2943L38.3958 45.894C38.2698 45.9047 38.1459 45.9362 38.0294 45.9875C38.0161 45.9928 38.0017 45.9912 37.9889 45.9971L9.3286 59.0685C8.22259 59.5763 7.46157 60.6236 7.31951 61.8322H7.28213C4.64446 61.8653 2.45593 59.8006 2.33523 57.1656V56.9958C2.42015 54.4821 4.48692 52.4906 7.00175 52.4991H14.0021C15.2902 52.4981 16.3337 51.454 16.3353 50.1659V8.16669H63.001C65.5159 8.15708 67.5826 10.1491 67.6654 12.6628C67.6985 13.8874 67.2285 15.0719 66.3655 15.9414C65.4101 16.931 64.0953 17.4933 62.7196 17.4997H56.0012C54.7131 17.5008 53.6691 18.5449 53.668 19.833V61.8322H31.3816ZM63.001 67.6656H56.0012V19.833H62.7196C64.5487 19.8239 66.3105 19.1403 67.6675 17.9136V62.9991C67.6649 65.5753 65.5773 67.6629 63.001 67.6656Z" fill="#00D2A0"/>
</g>
<defs>
<clipPath id="clip0">
<rect width="70" height="70" fill="white"/>
</clipPath>
</defs>
</svg>
