<svg width="70" height="70" viewBox="0 0 70 70" fill="none" xmlns="http://www.w3.org/2000/svg">
<g clip-path="url(#clip0)">
<path d="M47.4873 21.2117C46.7327 21.2117 46.1201 21.8227 46.1201 22.5784C46.1201 23.3335 46.7327 23.9456 47.4873 23.9456C48.2435 23.9456 48.8545 23.3335 48.8545 22.5784C48.8545 21.8227 48.2435 21.2117 47.4873 21.2117Z" fill="#1E5DC5"/>
<path d="M22.6475 46.0524C21.8912 46.0524 21.2803 46.6649 21.2803 47.4196C21.2803 48.1758 21.8912 48.7867 22.6475 48.7867C23.4021 48.7867 24.0147 48.1758 24.0147 47.4196C24.0147 46.6649 23.4021 46.0524 22.6475 46.0524Z" fill="#1E5DC5"/>
<path d="M68.3674 8.41089C67.906 8.30354 67.4211 8.44293 67.0878 8.77939L61.4199 14.4922H58.7026L55.7113 11.3931V8.63786L61.2981 2.96777C61.6287 2.63238 61.7633 2.15013 61.6538 1.69137C61.5448 1.23315 61.2073 0.863579 60.7608 0.712975C59.3573 0.2398 57.8887 7.63718e-06 56.3949 7.63718e-06C51.9419 7.63718e-06 47.8965 2.07643 45.2956 5.6968C42.8614 9.08594 42.111 13.2393 43.1861 17.2143L33.1153 27.285L16.3374 10.4686V7.16813C16.3374 6.68802 16.0853 6.24261 15.6735 5.99588L6.00655 0.194939C5.46822 -0.128166 4.77982 -0.043251 4.33655 0.400551L0.469971 4.2666C0.0267028 4.7104 -0.0582123 5.3988 0.264359 5.93713L6.06423 15.6041C6.31096 16.0159 6.75583 16.2674 7.23595 16.2679L10.5354 16.269L27.3149 33.0854L17.2826 43.1177C13.3077 42.0432 9.15215 42.7946 5.76142 45.2304C2.14317 47.8297 0.0683594 51.8741 0.0683594 56.3271C0.0683594 57.8203 0.308151 59.2895 0.781327 60.6925C0.932465 61.1416 1.30577 61.4808 1.7672 61.5876C2.22916 61.6949 2.71355 61.5555 3.04733 61.2191L8.71476 55.5068H11.447L14.56 58.6198V61.3521L8.84774 67.0195C8.51128 67.3533 8.37189 67.8377 8.47924 68.2996C8.58605 68.761 8.92518 69.1343 9.37432 69.2855C10.7773 69.7587 12.2465 69.9985 13.7397 69.9985C18.1927 69.9985 22.2366 67.9231 24.8364 64.3049C27.2722 60.9141 28.0236 56.7592 26.9491 52.7842L35.0064 44.7268L36.8521 46.7317L36.0051 47.5782C35.4711 48.1122 35.4711 48.9779 36.0051 49.512C36.5392 50.0455 37.4044 50.0455 37.9389 49.512L38.7059 48.7451L56.0232 67.5557C56.036 67.5696 56.0494 67.5829 56.0627 67.5963C59.2671 70.8006 64.4587 70.8017 67.6646 67.5957C70.8615 64.3972 70.8615 59.1929 67.6646 55.9944C67.6507 55.9805 67.6363 55.9671 67.6219 55.9538L48.7819 38.6695L49.5403 37.9112C50.0743 37.3777 50.0743 36.5119 49.5403 35.9779C49.0062 35.4438 48.1411 35.4438 47.6065 35.9779L46.7653 36.8196L44.7567 34.976L52.853 26.8797C54.0039 27.1873 55.1917 27.3432 56.3949 27.3432C63.9337 27.3432 70.0663 21.2101 70.0663 13.6719C70.0663 12.1781 69.8265 10.7095 69.3533 9.30597C69.2022 8.85682 68.8289 8.5177 68.3674 8.41089ZM12.0702 13.9362C11.8139 13.6794 11.4662 13.5485 11.1031 13.5485L8.01087 13.5475L3.15842 5.4458L5.51522 3.089L13.603 7.94252V11.0347C13.603 11.3968 13.7467 11.7439 14.0025 12.0003L31.182 29.2189L29.2482 31.1521L12.0702 13.9362ZM46.8465 40.605L65.7505 57.9474C67.8622 60.0815 67.8558 63.5369 65.7308 65.663C63.601 67.7928 60.1531 67.7992 58.0147 65.6817L40.6407 46.8097L46.8465 40.605ZM44.8299 38.7545L38.787 44.7963L36.9413 42.7914L42.8213 36.9109L44.8299 38.7545ZM56.3949 24.6089C55.1992 24.6089 54.0232 24.4171 52.9006 24.039C52.4087 23.874 51.865 24.0011 51.4976 24.368C44.6435 31.2221 29.8747 45.9904 24.4364 51.4293C24.0689 51.7967 23.9413 52.3404 24.1074 52.8328C25.2439 56.2075 24.7002 59.807 22.6152 62.7096C20.5361 65.6037 17.3008 67.2641 13.7397 67.2641C13.3397 67.2641 12.9418 67.2422 12.5477 67.2L16.8901 62.8912C17.1486 62.6349 17.2944 62.2856 17.2944 61.9208V58.0532C17.2944 57.6906 17.1502 57.3429 16.8939 57.0865L12.9797 53.1724C12.7234 52.9161 12.3757 52.7719 12.0131 52.7719H8.14545C7.78069 52.7719 7.43142 52.9177 7.17453 53.1762L2.86629 57.5186C2.82356 57.1245 2.8022 56.7266 2.8022 56.3266C2.8022 52.7649 4.46205 49.5301 7.35665 47.4511C10.2587 45.3661 13.8588 44.8219 17.2341 45.9589C17.7259 46.125 18.2696 45.9974 18.637 45.6299C18.7123 45.5552 45.679 18.5879 45.6983 18.5687C46.0657 18.2012 46.1928 17.6581 46.0273 17.1657C44.8902 13.791 45.4328 10.1925 47.5162 7.29204C49.5969 4.3953 52.8328 2.73438 56.3944 2.73438C56.8067 2.73438 57.2163 2.75735 57.6222 2.80221L53.37 7.11793C53.1179 7.37375 52.9769 7.71821 52.9769 8.0771V11.9447C52.9769 12.2994 53.1142 12.6396 53.3604 12.8943L57.1378 16.8084C57.3952 17.0754 57.7504 17.226 58.1215 17.226H61.9892C62.3534 17.226 62.7027 17.0808 62.9596 16.8218L67.2678 12.4799C67.3105 12.874 67.3319 13.2719 67.3319 13.6719C67.3319 19.7025 62.4255 24.6089 56.3949 24.6089Z" fill="#1E5DC5"/>
<path d="M42.6542 25.4783L25.5457 42.5868C25.0121 43.1204 25.0121 43.9861 25.5457 44.5201C26.0797 45.0542 26.9454 45.0542 27.4795 44.5201L44.588 27.4116C45.1221 26.8781 45.1221 26.0124 44.588 25.4783C44.054 24.9442 43.1883 24.9442 42.6542 25.4783Z" fill="#1E5DC5"/>
<path d="M59.9313 61.7969C60.4654 62.3293 61.3311 62.3293 61.8651 61.7937C62.3981 61.2591 62.3965 60.3934 61.8619 59.8604L49.5386 47.5765C49.004 47.0435 48.1377 47.0452 47.6053 47.5797C47.0717 48.1149 47.0733 48.98 47.6079 49.513L59.9313 61.7969Z" fill="#1E5DC5"/>
</g>
<defs>
<clipPath id="clip0">
<rect width="69.8633" height="70" fill="white"/>
</clipPath>
</defs>
</svg>
