<svg width="70" height="70" viewBox="0 0 70 70" fill="none" xmlns="http://www.w3.org/2000/svg">
<g clip-path="url(#clip0)">
<path d="M53.8688 59.7467H41.1529V59.7146C44.8881 58.6871 48.3168 56.7324 51.1211 54.0135C54.185 51.0431 56.3661 47.3015 57.4278 43.1925C57.6168 42.4613 57.1773 41.7158 56.4462 41.5267C55.7145 41.3377 54.969 41.7772 54.7805 42.5083C53.0287 49.2871 47.772 54.7607 41.1529 56.8622V55.5084C41.1529 54.5166 40.8303 53.5991 40.2861 52.8541C46.7151 50.6517 51.3497 44.5479 51.3497 37.3814C51.3497 32.216 48.979 27.4751 44.9324 24.392L47.835 21.4894C51.2386 24.242 53.6872 28.0242 54.7805 32.2544C54.9396 32.8707 55.4945 33.2798 56.1028 33.2798C56.216 33.2798 56.3314 33.2659 56.4462 33.2366C57.1773 33.0475 57.6168 32.3014 57.4278 31.5703C56.2117 26.8652 53.5195 22.6499 49.7785 19.546L51.2081 18.1163C51.9825 17.3419 52.4092 16.3117 52.4092 15.2164C52.4092 14.2123 52.0504 13.2644 51.3945 12.5167L54.6886 9.22265L55.1393 9.67339C55.4064 9.94042 55.7562 10.0739 56.1065 10.0739C56.4563 10.0739 56.8061 9.94042 57.0732 9.67339C57.6067 9.13987 57.6067 8.27416 57.0732 7.7401L49.5969 0.263825C49.0628 -0.270233 48.1971 -0.270233 47.6631 0.263825C47.129 0.797348 47.129 1.66306 47.6631 2.19711L48.1143 2.64839L44.8203 5.94246C43.2106 4.53308 40.7545 4.5945 39.2201 6.12885L23.9974 21.3516C23.2224 22.126 22.7957 23.1562 22.7957 24.2516C22.7957 25.0687 23.0334 25.8489 23.475 26.5138L18.9703 31.0192C18.7139 31.2755 18.5697 31.6232 18.5697 31.9858C18.5697 32.3484 18.7139 32.6961 18.9703 32.9524L24.384 38.3662C24.651 38.6332 25.0009 38.7667 25.3507 38.7667C25.701 38.7667 26.0508 38.6332 26.3178 38.3662L30.8226 33.8614C31.4881 34.3031 32.2683 34.5407 33.0849 34.5407C34.1808 34.5407 35.2104 34.114 35.9854 33.3391L42.9772 26.3472C46.5261 28.9064 48.6153 32.9567 48.6153 37.3814C48.6153 44.8886 42.5078 50.9967 35.0006 50.9967C32.4248 50.9967 29.9259 50.2671 27.7726 48.917C28.7088 48.1143 29.3038 46.9239 29.3038 45.5968C29.3038 43.1845 27.3411 41.2218 24.9288 41.2218H11.7578C9.34548 41.2218 7.38281 43.1845 7.38281 45.5968C7.38281 48.0091 9.34548 49.9718 11.7578 49.9718H15.5576C18.6445 54.7271 23.4094 58.2177 28.8477 59.7162V59.7467H16.1323C11.3076 59.7467 7.38281 63.672 7.38281 68.4961C7.38281 69.2513 7.99484 69.8633 8.75 69.8633H61.2506C62.0057 69.8633 62.6178 69.2513 62.6178 68.4961C62.6178 63.672 58.693 59.7467 53.8688 59.7467ZM52.7548 7.28882L49.4676 10.5759L46.761 7.86881L50.0482 4.58222L52.7548 7.28882ZM25.3507 35.4663L21.8707 31.9858L25.3507 28.5053L28.8311 31.9858L25.3507 35.4663ZM34.0515 31.4058C33.7936 31.6638 33.4502 31.8064 33.0849 31.8064C32.7196 31.8064 32.3762 31.6638 32.1182 31.4058L26.3178 25.6054C26.3173 25.6049 26.3173 25.6049 26.3168 25.6049L25.9306 25.2187C25.6727 24.9603 25.5306 24.6174 25.5306 24.2521C25.5306 23.8868 25.6727 23.5434 25.9306 23.2849L41.154 8.06214C41.4199 7.79564 41.7703 7.66266 42.1206 7.66266C42.4704 7.66266 42.8208 7.79564 43.0873 8.06214L49.2743 14.2497C49.5328 14.5077 49.6749 14.8511 49.6749 15.2164C49.6749 15.5817 49.5328 15.9245 49.2743 16.183L34.0515 31.4058ZM36.6412 53.731C37.6212 53.731 38.4185 54.5284 38.4185 55.5084V59.7467H31.582V58.7319C31.5858 58.6705 31.5869 58.6091 31.582 58.5488V55.5084C31.582 54.5284 32.3799 53.731 33.3599 53.731H36.6412ZM10.1172 45.5968C10.1172 44.6926 10.8531 43.9562 11.7578 43.9562H24.9288C25.8334 43.9562 26.5694 44.6926 26.5694 45.5968C26.5694 46.5015 25.8334 47.238 24.9288 47.238H11.7578C10.8531 47.238 10.1172 46.5015 10.1172 45.5968ZM18.9147 49.9723H24.5715C26.108 51.2461 27.8522 52.2175 29.715 52.8536C29.1702 53.5991 28.8482 54.5166 28.8482 55.5084V56.8649C24.9341 55.6259 21.4552 53.2077 18.9147 49.9723ZM10.2742 67.1289C10.8948 64.4688 13.2858 62.481 16.1323 62.481H53.8688C56.7153 62.481 59.1063 64.4688 59.7269 67.1289H10.2742Z" fill="#1E5DC5"/>
<path d="M35 58.106C35.3594 58.106 35.7119 57.9596 35.9666 57.7054C36.2208 57.4512 36.3671 57.0982 36.3671 56.7388C36.3671 56.3794 36.2208 56.0264 35.9666 55.7722C35.7119 55.518 35.3594 55.3716 35 55.3716C34.64 55.3716 34.2876 55.518 34.0333 55.7722C33.7786 56.0264 33.6328 56.3794 33.6328 56.7388C33.6328 57.0982 33.7786 57.4512 34.0333 57.7054C34.2876 57.9596 34.64 58.106 35 58.106Z" fill="#1E5DC5"/>
<path d="M55.8302 36.4153C55.5744 36.6701 55.4297 37.0209 55.4297 37.382C55.4297 37.7419 55.5744 38.0944 55.8302 38.3486C56.0844 38.6028 56.4358 38.7492 56.7969 38.7492C57.1563 38.7492 57.5087 38.6028 57.7635 38.3486C58.0177 38.0944 58.164 37.7419 58.164 37.382C58.164 37.0209 58.0177 36.6701 57.7635 36.4153C57.5087 36.16 57.1563 36.0148 56.7969 36.0148C56.4358 36.0148 56.0844 36.16 55.8302 36.4153Z" fill="#1E5DC5"/>
</g>
<defs>
<clipPath id="clip0">
<rect width="70" height="70" fill="white"/>
</clipPath>
</defs>
</svg>
