<svg width="70" height="70" viewBox="0 0 70 70" fill="none" xmlns="http://www.w3.org/2000/svg">
<g clip-path="url(#clip0)">
<path d="M14.1573 22.2237C14.5082 22.2237 14.8596 22.0897 15.1277 21.8216C15.6639 21.2854 15.6639 20.4165 15.1277 19.8803C12.7859 17.5379 11.4956 14.4244 11.4956 11.1116C11.4956 7.79938 12.7859 4.68582 15.1277 2.34344C15.6639 1.80725 15.6639 0.938339 15.1277 0.402145C14.5915 -0.134048 13.7221 -0.134048 13.1864 0.402145C10.3255 3.26309 8.75 7.06612 8.75 11.1121C8.75 15.1576 10.3255 18.9612 13.1864 21.8221C13.4545 22.0897 13.8054 22.2237 14.1573 22.2237Z" fill="#00D2A0"/>
<path d="M20.1857 19.5785C20.5371 19.5785 20.8885 19.4445 21.1566 19.1764C21.6928 18.6402 21.6928 17.7707 21.1566 17.2346C19.5214 15.5993 18.6204 13.4246 18.6204 11.1121C18.6204 8.79911 19.5214 6.62443 21.1566 4.98915C21.6928 4.45295 21.6928 3.58351 21.1566 3.04731C20.6204 2.51165 19.751 2.51165 19.2148 3.04731C14.7682 7.49441 14.7682 14.7293 19.2148 19.1759C19.4829 19.4445 19.8343 19.5785 20.1857 19.5785Z" fill="#00D2A0"/>
<path d="M26.2149 16.9328C26.5663 16.9328 26.9177 16.7988 27.1858 16.5307C27.7215 15.9945 27.7215 15.125 27.1858 14.5888C25.268 12.6716 25.268 9.55214 27.1858 7.63434C27.7215 7.09868 27.7215 6.22923 27.1858 5.69304C26.6496 5.15685 25.7802 5.15685 25.244 5.69304C22.2559 8.68109 22.2559 13.5426 25.244 16.5307C25.5121 16.7988 25.8635 16.9328 26.2149 16.9328Z" fill="#00D2A0"/>
<path d="M36.8767 16.4004C39.0444 15.6207 40.5985 13.5448 40.5985 11.1122C40.5985 8.01409 38.0783 5.49335 34.9803 5.49335C31.8817 5.49335 29.3615 8.01409 29.3615 11.1122C29.3615 13.5448 30.9156 15.6207 33.0833 16.4004L12.3577 68.1162C12.0757 68.8196 12.4175 69.6191 13.1214 69.901C13.8247 70.1836 14.6242 69.8412 14.9062 69.1373L18.4544 60.2838H32.9888C33.7471 60.2838 34.3618 59.6691 34.3618 58.9107C34.3618 58.1529 33.7471 57.5382 32.9888 57.5382H23.528L45.8003 46.0474L50.4054 57.5382H44.0037C43.2453 57.5382 42.6312 58.1529 42.6312 58.9107C42.6312 59.6691 43.2453 60.2838 44.0037 60.2838H51.5056L55.0538 69.1373C55.2685 69.6735 55.7839 69.9998 56.3286 69.9998C56.4985 69.9998 56.6715 69.9683 56.8387 69.901C57.5425 69.6185 57.8843 68.8196 57.6024 68.1157L36.8767 16.4004ZM30.3121 30.6965C30.4098 30.719 30.5118 30.7318 30.6165 30.7318H35.8567L26.9844 38.999L30.3121 30.6965ZM31.3984 27.9857L34.9803 19.0482L38.5622 27.9857H31.3984ZM32.1071 11.1122C32.1071 9.52814 33.3963 8.23893 34.9803 8.23893C36.5643 8.23893 37.853 9.52814 37.853 11.1122C37.853 12.6962 36.5643 13.9848 34.9803 13.9848C33.3963 13.9848 32.1071 12.6962 32.1071 11.1122ZM20.0801 56.2276L24.3761 45.5075H40.8576L20.0801 56.2276ZM26.9737 42.7619L39.7227 30.8824L44.4838 42.7619H26.9737Z" fill="#00D2A0"/>
<path d="M54.8318 21.8221C55.0999 22.0897 55.4513 22.2243 55.8027 22.2243C56.1542 22.2243 56.5056 22.0897 56.7737 21.8221C59.6341 18.9612 61.2095 15.1576 61.2095 11.1121C61.2095 7.06612 59.6341 3.26309 56.7737 0.402145C56.2375 -0.134048 55.368 -0.134048 54.8318 0.402145C54.2956 0.938339 54.2956 1.80725 54.8318 2.34398C57.1742 4.68582 58.464 7.79991 58.464 11.1121C58.464 14.4244 57.1742 17.5385 54.8318 19.8803C54.2956 20.4165 54.2956 21.2854 54.8318 21.8221Z" fill="#00D2A0"/>
<path d="M48.8036 19.1764C49.0717 19.4445 49.4232 19.5786 49.774 19.5786C50.1254 19.5786 50.4768 19.4445 50.7449 19.1764C55.1915 14.7293 55.1915 7.49446 50.7449 3.0479C50.2088 2.5117 49.3393 2.5117 48.8031 3.0479C48.2675 3.58409 48.2675 4.453 48.8031 4.9892C50.4389 6.62502 51.3393 8.79916 51.3393 11.1122C51.3393 13.4252 50.4389 15.5993 48.8031 17.2351C48.2675 17.7708 48.2675 18.6402 48.8036 19.1764Z" fill="#00D2A0"/>
<path d="M42.7743 16.5307C43.0424 16.7988 43.3939 16.9328 43.7447 16.9328C44.0961 16.9328 44.4476 16.7988 44.7156 16.5307C47.7037 13.5426 47.7037 8.68112 44.7156 5.69307C44.1795 5.15741 43.3105 5.15741 42.7738 5.69307C42.2382 6.22926 42.2382 7.09871 42.7738 7.6349C44.6916 9.55217 44.6916 12.6721 42.7738 14.5894C42.2382 15.1251 42.2382 15.9945 42.7743 16.5307Z" fill="#00D2A0"/>
<path d="M39.7658 58.3851C39.5426 57.8447 38.9834 57.4997 38.3997 57.5419C37.8309 57.5825 37.3359 57.9862 37.1788 58.5336C37.0208 59.0837 37.2322 59.6947 37.6995 60.0263C38.162 60.3553 38.7869 60.3644 39.2606 60.0514C39.8021 59.6941 40.012 58.9812 39.7658 58.3851Z" fill="#00D2A0"/>
</g>
<defs>
<clipPath id="clip0">
<rect width="70" height="70" fill="white"/>
</clipPath>
</defs>
</svg>
