<svg width="40" height="40" viewBox="0 0 40 40" fill="none" xmlns="http://www.w3.org/2000/svg">
<path d="M38.8281 21.1719H34.804C35.0378 20.0198 35.1562 18.8427 35.1562 17.6562C35.1562 7.92055 27.2707 0 17.5781 0C7.88555 0 0 7.92055 0 17.6562C0 27.3716 7.86188 35.2344 17.5781 35.2344C21.4393 35.2344 25.1007 34.0027 28.125 31.7237V38.8281C28.125 39.4753 28.6497 40 29.2969 40H38.8281C39.4753 40 40 39.4753 40 38.8281V22.3438C40 21.6966 39.4753 21.1719 38.8281 21.1719ZM30.4688 28.2031H37.6562V32.8906H30.4688V28.2031ZM37.6562 25.8594H30.4688V23.5156C30.5794 23.5156 37.4502 23.5156 37.6562 23.5156V25.8594ZM17.5781 32.8906C9.17789 32.8906 2.34375 26.0565 2.34375 17.6562C2.34375 9.21289 9.17789 2.34375 17.5781 2.34375C25.9784 2.34375 32.8125 9.21289 32.8125 17.6562C32.8125 18.8466 32.6754 20.0255 32.4048 21.1719H29.2969C28.6497 21.1719 28.125 21.6966 28.125 22.3438V28.6485C25.2752 31.3874 21.5487 32.8906 17.5781 32.8906ZM30.4688 37.6562V35.2344H37.6562V37.6562H30.4688Z" fill="#00D2A0"/>
<path d="M26.953 14.1407H18.7499V5.93758C18.7499 5.42117 18.4119 4.96563 17.9177 4.81602C17.4236 4.66633 16.8895 4.85789 16.603 5.28758L7.22804 19.3501C6.98835 19.7097 6.96601 20.172 7.16984 20.553C7.37374 20.9341 7.77085 21.172 8.20304 21.172H16.4062V29.3751C16.4062 29.8915 16.7442 30.347 17.2384 30.4966C17.3507 30.5306 17.4649 30.547 17.578 30.547C17.9625 30.547 18.3316 30.3572 18.553 30.0251L27.928 15.9626C28.1677 15.603 28.1901 15.1406 27.9862 14.7596C27.7823 14.3786 27.3852 14.1407 26.953 14.1407ZM18.7499 25.5046V20.0001C18.7499 19.3529 18.2252 18.8282 17.578 18.8282H10.3926L16.4062 9.80805V15.3126C16.4062 15.9598 16.9309 16.4845 17.578 16.4845H24.7634L18.7499 25.5046Z" fill="#00D2A0"/>
</svg>
