<svg width="40" height="40" viewBox="0 0 40 40" fill="none" xmlns="http://www.w3.org/2000/svg">
<g clip-path="url(#clip0)">
<path d="M34.8514 15.4359L30.2076 14.2905C29.4702 14.1087 28.7749 13.7521 28.1968 13.2595L19.7221 6.03734C19.4394 5.79641 19.0801 5.66406 18.7087 5.66406C17.8291 5.66406 17.0378 6.00094 16.4204 6.6382C15.1025 7.99867 14.839 10.4777 14.8494 12.9297H8.45367C7.52477 12.8901 6.25055 12.4055 4.6007 9.10594C4.3268 8.55813 3.75836 8.22086 3.14609 8.24328C2.53406 8.26562 1.99148 8.64352 1.75828 9.20984C1.68648 9.38414 0 13.5762 0 21.9465V29.6484C0 32.2331 2.10281 34.3359 4.6875 34.3359H25.8594C26.7223 34.3359 27.4219 33.6364 27.4219 32.7734C27.4219 31.9105 26.7223 31.2109 25.8594 31.2109H4.6875C3.82594 31.2109 3.125 30.51 3.125 29.6484V27.9297H36.875V29.6484C36.875 30.51 36.1741 31.2109 35.3125 31.2109H33.6719C32.8089 31.2109 32.1094 31.9105 32.1094 32.7734C32.1094 33.6364 32.8089 34.3359 33.6719 34.3359H35.3125C37.8972 34.3359 40 32.2331 40 29.6484V22.0086C40 18.8864 37.8828 16.1836 34.8514 15.4359ZM18.0792 10.7126C18.1828 9.88336 18.3481 9.37562 18.4859 9.08961L26.1698 15.638C26.4598 15.8851 26.768 16.1111 27.0906 16.3145L25.411 19.2483L17.9717 12.9771C17.9654 12.2934 17.9827 11.4852 18.0792 10.7126ZM3.81328 13.665C4.01039 13.8946 4.21109 14.1067 4.41664 14.3033C5.57867 15.4141 6.90859 16.003 8.36961 16.0538C8.38766 16.0544 8.4057 16.0547 8.42375 16.0547H9.0625V16.9141C9.0625 17.9048 8.25641 18.7109 7.26562 18.7109H4.92188C4.31695 18.7109 3.7375 18.8212 3.20172 19.0218C3.32039 16.8105 3.56133 15.0249 3.81328 13.665ZM3.125 23.6328C3.125 22.642 3.93109 21.8359 4.92188 21.8359H7.26562C9.97953 21.8359 12.1875 19.628 12.1875 16.9141V16.0547H16.4444C16.5455 16.0547 16.6441 16.0442 16.7399 16.0259L23.8327 22.0049L22.2298 24.8047H3.125V23.6328ZM25.8308 24.8047L30.0323 17.4659L34.1031 18.4699C35.7352 18.8724 36.875 20.3276 36.875 22.0086V24.8047H25.8308Z" fill="#1E5DC5"/>
</g>
<defs>
<clipPath id="clip0">
<rect width="40" height="40" fill="white"/>
</clipPath>
</defs>
</svg>
