<svg width="40" height="40" viewBox="0 0 40 40" fill="none" xmlns="http://www.w3.org/2000/svg">
<path d="M38.4375 25.4312C39.3005 25.4312 40 24.7316 40 23.8687V14.4937C40 11.0474 37.1963 8.24365 33.75 8.24365H27.0255V6.68115C27.0255 4.09646 24.9227 1.99365 22.338 1.99365H17.662C15.0773 1.99365 12.9745 4.09646 12.9745 6.68115V8.24365H6.25C2.80375 8.24365 0 11.0474 0 14.4937V31.7564C0 35.2026 2.80375 38.0064 6.25 38.0064H33.75C37.1963 38.0064 40 35.2026 40 31.7564C40 30.8934 39.3005 30.1939 38.4375 30.1939C37.5745 30.1939 36.875 30.8934 36.875 31.7564C36.875 33.4795 35.4731 34.8814 33.75 34.8814H6.25C4.52688 34.8814 3.125 33.4795 3.125 31.7564V14.4937C3.125 12.7705 4.52688 11.3687 6.25 11.3687H33.75C35.4731 11.3687 36.875 12.7705 36.875 14.4937V23.8687C36.875 24.7315 37.5745 25.4312 38.4375 25.4312ZM23.9005 8.24365H16.0995V6.68115C16.0995 5.81959 16.8005 5.11865 17.662 5.11865H22.338C23.1995 5.11865 23.9005 5.81959 23.9005 6.68115V8.24365Z" fill="#00D2A0"/>
<path d="M20 30.8218C20.863 30.8218 21.5625 30.1222 21.5625 29.2593V25.1187H25.8594C26.7223 25.1187 27.4219 24.4191 27.4219 23.5562C27.4219 22.6932 26.7223 21.9937 25.8594 21.9937H21.5625V17.5405C21.5625 16.6776 20.863 15.978 20 15.978C19.137 15.978 18.4375 16.6776 18.4375 17.5405V21.9937H14.1406C13.2777 21.9937 12.5781 22.6932 12.5781 23.5562C12.5781 24.4191 13.2777 25.1187 14.1406 25.1187H18.4375V29.2593C18.4375 30.1222 19.137 30.8218 20 30.8218Z" fill="#00D2A0"/>
</svg>
