<svg width="40" height="40" viewBox="0 0 40 40" fill="none" xmlns="http://www.w3.org/2000/svg">
<g clip-path="url(#clip0)">
<path d="M35.8527 18.1677L30.5981 16.214L22.0743 8.35999C22.0377 8.32611 21.9995 8.29437 21.9598 8.26416C21.1111 7.62024 20.105 7.26562 19.1266 7.26562H7.34375C5.80109 7.26562 3.96301 8.0423 3.41614 9.52728L0.963745 15.8234C0.324097 17.2681 0 18.8016 0 20.3821V24.9219C0 27.5064 2.10266 29.6091 4.6875 29.6091H6.12793C6.77307 31.4279 8.50983 32.7341 10.5469 32.7341C12.5836 32.7341 14.3204 31.4279 14.9655 29.6091H18.9062C19.769 29.6091 20.4684 28.9096 20.4684 28.0469C20.4684 27.1838 19.769 26.4844 18.9062 26.4844H14.9655C14.3204 24.6655 12.5836 23.3594 10.5469 23.3594C8.50983 23.3594 6.77307 24.6655 6.12793 26.4844H4.6875C3.82599 26.4844 3.125 25.7834 3.125 24.9219V20.3821C3.125 20.0409 3.14636 19.7028 3.18817 19.3683H12.3438C12.37 19.3683 12.3956 19.3655 12.4219 19.3643C12.4478 19.3655 12.4734 19.3683 12.5 19.3683H29.8825C29.949 19.3683 30.014 19.3628 30.0781 19.3546L34.7678 21.0983C34.7702 21.0992 34.7726 21.1002 34.7751 21.1011C36.0272 21.5594 36.8909 22.7988 36.8747 24.115V24.1339V25.7031C36.8747 26.1337 36.5244 26.4844 36.0934 26.4844H33.4811C32.836 24.6655 31.0992 23.3594 29.0622 23.3594C26.4777 23.3594 24.3747 25.462 24.3747 28.0469C24.3747 30.6314 26.4777 32.7341 29.0622 32.7341C31.0992 32.7341 32.836 31.4279 33.4811 29.6091H36.0934C38.2474 29.6091 39.9997 27.8568 39.9997 25.7031V24.1425C40.0275 21.4877 38.3621 19.0878 35.8527 18.1677ZM10.5469 26.4844C11.4084 26.4844 12.1094 27.1851 12.1094 28.0469C12.1094 28.9084 11.4084 29.6091 10.5469 29.6091C9.68536 29.6091 8.98438 28.9084 8.98438 28.0469C8.98438 27.1851 9.68536 26.4844 10.5469 26.4844ZM20.0189 10.7153L26.0184 16.2433H13.9062V10.3906H19.1266C19.4101 10.3906 19.725 10.5054 20.0189 10.7153ZM7.34375 10.3906H10.7812V16.2433H4.15375L6.09558 11.2576C6.29486 10.7465 6.78131 10.3952 7.33002 10.3906H7.34375ZM29.0622 29.6091C28.2007 29.6091 27.4997 28.9084 27.4997 28.0469C27.4997 27.1851 28.2007 26.4844 29.0622 26.4844C29.9237 26.4844 30.6247 27.1851 30.6247 28.0469C30.6247 28.9084 29.9237 29.6091 29.0622 29.6091Z" fill="#1E5DC5"/>
</g>
<defs>
<clipPath id="clip0">
<rect width="40" height="40" fill="white"/>
</clipPath>
</defs>
</svg>
