<svg width="69" height="69" viewBox="0 0 69 69" fill="none" xmlns="http://www.w3.org/2000/svg">
<g clip-path="url(#clip0)">
<path d="M69.0232 13.7313C68.8058 13.0922 68.2551 12.6411 67.5861 12.5542L62.5013 11.8909C63.2867 10.4348 63.0661 8.57444 61.8385 7.3468C61.1126 6.62033 60.1476 6.22077 59.1211 6.22077C59.12 6.22077 59.119 6.22077 59.1185 6.22077C58.5167 6.2213 57.9371 6.35975 57.4133 6.61981L56.75 1.5324C56.6627 0.862786 56.2115 0.312142 55.573 0.0947267C54.9339 -0.122162 54.2406 0.0389252 53.7631 0.516396L46.5142 7.76531C46.1162 8.16329 45.9319 8.73236 46.0214 9.28775L47.1943 16.5861L46.859 16.9225C41.81 13.0301 35.655 10.9202 29.1747 10.9202C23.0844 10.9202 17.2542 12.7848 12.3147 16.3129C11.8599 16.6377 11.7546 17.2695 12.0794 17.7243C12.4042 18.1791 13.0359 18.2844 13.4908 17.9596C18.0849 14.6778 23.5087 12.9433 29.1747 12.9433C35.2623 12.9433 40.8851 14.9684 45.4071 18.3786L41.3004 22.499C37.8586 20.1011 33.6783 18.6924 29.1747 18.6924C17.4479 18.6924 7.90748 28.2328 7.90748 39.9601C7.90748 51.6868 17.4479 61.2273 29.1747 61.2273C40.9014 61.2273 50.4419 51.6868 50.4419 39.9601C50.4419 35.5076 49.0652 31.3719 46.7174 27.9528L50.8298 23.8261C54.1953 28.3318 56.191 33.9167 56.191 39.9601C56.191 54.857 44.0715 66.9764 29.1747 66.9764C14.2778 66.9764 2.15836 54.857 2.15836 39.9601C2.15836 33.2981 4.60362 26.8994 9.04404 21.942C9.41675 21.5262 9.38148 20.886 8.9656 20.5133C8.5492 20.1406 7.90959 20.1759 7.53688 20.5917C2.76322 25.9208 0.134766 32.7991 0.134766 39.9601C0.134766 47.717 3.15541 55.0096 8.64027 60.4945C14.1251 65.9793 21.4177 69 29.1747 69C36.9316 69 44.2242 65.9793 49.7091 60.4945C55.1939 55.0096 58.2146 47.717 58.2146 39.9601C58.2146 33.5192 56.1294 27.4 52.2828 22.369L52.5397 22.111L59.8302 23.2828C59.9228 23.2976 60.0155 23.305 60.1081 23.305C60.5703 23.305 61.0215 23.1218 61.3531 22.7901L62.9093 21.234C63.3046 20.8386 63.3046 20.1985 62.9093 19.8032C62.5139 19.4083 61.8738 19.4083 61.4784 19.8032L60.0181 21.2635L54.3295 20.3491L60.9494 13.7292L66.7906 14.491L65.9131 15.3685C65.5182 15.7639 65.5182 16.404 65.9131 16.7994C66.3084 17.1942 66.9491 17.1942 67.3439 16.7994L68.6021 15.5412C69.079 15.0637 69.2406 14.3704 69.0232 13.7313ZM54.8128 2.32784L55.5751 8.16909L48.9547 14.7889L48.0403 9.10034L54.8128 2.32784ZM48.4183 39.9601C48.4183 50.5708 39.7859 59.2037 29.1747 59.2037C18.5634 59.2037 9.93107 50.5708 9.93107 39.9601C9.93107 29.3489 18.5634 20.7165 29.1747 20.7165C33.1208 20.7165 36.7921 21.9104 39.8485 23.9556L35.6487 28.1697C33.7267 27.1095 31.5204 26.5041 29.1747 26.5041C21.7552 26.5041 15.7192 32.5406 15.7192 39.9601C15.7192 47.3791 21.7552 53.4156 29.1747 53.4156C36.5942 53.4156 42.6302 47.3791 42.6302 39.9601C42.6302 37.6764 42.0564 35.5255 41.0488 33.6398L45.2629 29.4115C47.257 32.4432 48.4183 36.0682 48.4183 39.9601ZM27.2937 41.9874C28.0197 42.7133 28.9852 43.1129 30.0117 43.1129H30.0143C31.0419 43.1123 32.0074 42.7112 32.7333 41.9832L34.1673 40.5444C33.8767 43.0423 31.7489 44.9875 29.1747 44.9875C26.4025 44.9875 24.1473 42.7323 24.1473 39.9601C24.1473 37.2795 26.2551 35.0827 28.9004 34.9401L27.2901 36.5557C25.796 38.0544 25.7976 40.4907 27.2937 41.9874ZM22.1237 39.9601C22.1237 43.8478 25.287 47.0111 29.1747 47.0111C33.0623 47.0111 36.2257 43.8483 36.2257 39.9601C36.2257 39.4984 36.1793 39.0483 36.094 38.6114L39.5432 35.1506C40.2249 36.6136 40.6071 38.2429 40.6071 39.9601C40.6071 46.2635 35.4786 51.392 29.1747 51.392C22.8707 51.392 17.7427 46.2635 17.7427 39.9601C17.7427 33.6561 22.8707 28.5277 29.1747 28.5277C30.9582 28.5277 32.6465 28.9398 34.1521 29.6716L30.7466 33.0881C30.2412 32.9718 29.7153 32.9091 29.1747 32.9091C25.287 32.9091 22.1237 36.0719 22.1237 39.9601ZM31.3004 40.5544C30.9566 40.8992 30.4992 41.0893 30.0127 41.0893C30.0122 41.0893 30.0117 41.0893 30.0117 41.0893C29.5253 41.0893 29.0683 40.9003 28.7246 40.5565C28.0165 39.848 28.0155 38.6946 28.723 37.9849L57.8324 8.77922C58.1761 8.43441 58.6331 8.24436 59.1195 8.24384H59.1211C59.607 8.24384 60.0639 8.43335 60.4077 8.77711C61.1162 9.48568 61.1173 10.6391 60.4093 11.3487L31.3004 40.5544Z" fill="#1E5DC5"/>
</g>
<defs>
<clipPath id="clip0">
<rect width="69" height="69" fill="white"/>
</clipPath>
</defs>
</svg>
