<svg width="70" height="70" viewBox="0 0 70 70" fill="none" xmlns="http://www.w3.org/2000/svg">
<path d="M68.1447 0H50.6352C49.8803 0 49.268 0.61209 49.268 1.36719V18.5024L29.5803 38.5074C29.0506 39.0455 29.0576 39.9112 29.5957 40.4409C29.862 40.7029 30.2084 40.8337 30.5547 40.8337C30.9082 40.8337 31.2616 40.6973 31.5292 40.4254L49.268 22.4005V67.2656H45.9393V65.8077C45.9393 65.0526 45.3271 64.4405 44.5722 64.4405C43.8172 64.4405 43.205 65.0526 43.205 65.8077V67.2656H38.552V64.2536C38.552 63.4985 37.9398 62.8864 37.1848 62.8864C36.4299 62.8864 35.8176 63.4985 35.8176 64.2536V67.2656H31.1684V65.8077C31.1684 65.0526 30.5563 64.4405 29.8012 64.4405C29.0461 64.4405 28.434 65.0526 28.434 65.8077V67.2656H23.7848V64.2536C23.7848 63.4985 23.1727 62.8864 22.4176 62.8864C21.6625 62.8864 21.0504 63.4985 21.0504 64.2536V67.2656H16.4013V65.8077C16.4013 65.0526 15.7892 64.4405 15.0341 64.4405C14.279 64.4405 13.6669 65.0526 13.6669 65.8077V67.2656H5.11882L22.9066 49.1876C23.4363 48.6493 23.4292 47.7838 22.891 47.2541C22.3526 46.7245 21.4871 46.7314 20.9576 47.2697L0.880953 67.6739C0.494449 68.0667 0.381656 68.6529 0.594528 69.1611C0.807399 69.6693 1.30464 70 1.85548 70H50.6352H68.1445C68.8995 70 69.5117 69.3879 69.5117 68.6328V1.36719C69.5118 0.61209 68.8996 0 68.1447 0ZM66.7775 67.2656H52.0024V60.5594H58.0539C58.8088 60.5594 59.421 59.9473 59.421 59.1922C59.421 58.4371 58.8088 57.8251 58.0539 57.8251H52.0024V51.1461H61.4368C62.1918 51.1461 62.804 50.534 62.804 49.7789C62.804 49.0238 62.1918 48.4117 61.4368 48.4117H52.0024V41.7289H58.0539C58.8088 41.7289 59.421 41.1168 59.421 40.3617C59.421 39.6066 58.8088 38.9945 58.0539 38.9945H52.0024V32.3116H58.0539C58.8088 32.3116 59.421 31.6995 59.421 30.9444C59.421 30.1893 58.8088 29.5772 58.0539 29.5772H52.0024V22.8982H58.0539C58.8088 22.8982 59.421 22.2861 59.421 21.531C59.421 20.7759 58.8088 20.1638 58.0539 20.1638H52.0024V13.4809H61.4368C62.1918 13.4809 62.804 12.8688 62.804 12.1137C62.804 11.3586 62.1918 10.7465 61.4368 10.7465H52.0024V2.73438H66.7773V67.2656H66.7775Z" fill="#1E5DC5"/>
<path d="M25.3116 59.823H40.4477C41.2027 59.823 41.8149 59.211 41.8149 58.4559V43.0745C41.8149 42.5195 41.4794 42.0195 40.9659 41.8093C40.4525 41.599 39.8627 41.7199 39.4732 42.1155L24.337 57.4971C23.9507 57.8898 23.8376 58.4761 24.0506 58.9843C24.2635 59.4925 24.7606 59.823 25.3116 59.823ZM39.0805 46.413V57.0887H28.575L39.0805 46.413Z" fill="#1E5DC5"/>
<path d="M26.2403 45.2139C26.5913 45.2139 26.9425 45.0799 27.2099 44.8125C27.7438 44.2786 27.7438 43.4129 27.2099 42.8788C26.6761 42.345 25.8104 42.345 25.2763 42.8788L25.2725 42.8827C24.7386 43.4166 24.7405 44.2803 25.2744 44.8142C25.541 45.0808 25.8905 45.2139 26.2403 45.2139Z" fill="#1E5DC5"/>
</svg>
