<svg width="70" height="70" viewBox="0 0 70 70" fill="none" xmlns="http://www.w3.org/2000/svg">
<path d="M0 35C0 35.7551 0.612227 36.3672 1.36719 36.3672H11.1914L5.32219 42.2364C4.7883 42.7703 4.7883 43.636 5.32219 44.17C5.85621 44.7039 6.72164 44.7039 7.2558 44.17L15.0586 36.3672H22.1236L24.8828 39.1647V43.1837L19.9415 48.125H8.90723C8.15227 48.125 7.54004 48.7371 7.54004 49.4922C7.54004 50.2473 8.15227 50.8594 8.90723 50.8594H17.2071L10.8307 57.2358C10.2968 57.7697 10.2968 58.6354 10.8307 59.1694C11.3647 59.7033 12.2302 59.7033 12.7643 59.1694L19.1406 52.793V61.0929C19.1406 61.848 19.7529 62.4601 20.5078 62.4601C21.2628 62.4601 21.875 61.848 21.875 61.0929V50.0586L26.8164 45.1172H30.8354L33.6328 47.8766V54.9415L25.8301 62.7442C25.2962 63.2781 25.2962 64.1438 25.8301 64.6778C26.3642 65.2117 27.2296 65.2117 27.7638 64.6778L33.6328 58.8085V68.6328C33.6328 69.3878 34.245 70 35 70C35.755 70 36.3672 69.3878 36.3672 68.6328V58.8085L42.2364 64.6777C42.7704 65.2116 43.6358 65.2116 44.17 64.6777C44.7039 64.1438 44.7039 63.2781 44.17 62.7441L36.3672 54.9414V47.8764L39.1647 45.1172H43.1837L48.125 50.0586V61.0929C48.125 61.848 48.7372 62.4601 49.4922 62.4601C50.2471 62.4601 50.8594 61.848 50.8594 61.0929V52.793L57.2358 59.1694C57.7698 59.7033 58.6353 59.7033 59.1694 59.1694C59.7033 58.6355 59.7033 57.7698 59.1694 57.2358L52.793 50.8594H61.0928C61.8477 50.8594 62.46 50.2473 62.46 49.4922C62.46 48.7371 61.8477 48.125 61.0928 48.125H50.0586L45.1172 43.1837V39.1647L47.8764 36.3672H54.9414L62.7441 44.1699C63.2781 44.7038 64.1435 44.7038 64.6777 44.1699C65.2116 43.636 65.2116 42.7703 64.6777 42.2363L58.8086 36.3672H62.4805C63.2354 36.3672 63.8477 35.7551 63.8477 35C63.8477 34.2449 63.2354 33.6328 62.4805 33.6328H58.8086L64.6778 27.7636C65.2117 27.2297 65.2117 26.364 64.6778 25.83C64.1438 25.2961 63.2784 25.2961 62.7442 25.83L54.9414 33.6328H47.8764L45.1172 30.8353V26.8163L50.0585 21.875H61.0928C61.8477 21.875 62.46 21.2629 62.46 20.5078C62.46 19.7527 61.8477 19.1406 61.0928 19.1406H52.7929L59.1693 12.7642C59.7032 12.2303 59.7032 11.3646 59.1693 10.8306C58.6353 10.2967 57.7698 10.2967 57.2357 10.8306L50.8594 17.207V8.90723C50.8594 8.15213 50.2471 7.54004 49.4922 7.54004C48.7372 7.54004 48.125 8.15213 48.125 8.90723V19.9415L43.1836 24.8828H39.1646L36.3672 22.1234V15.0585L44.1699 7.2558C44.7038 6.72191 44.7038 5.85621 44.1699 5.32219C43.6358 4.7883 42.7704 4.7883 42.2363 5.32219L36.3672 11.1915V1.36719C36.3672 0.61209 35.755 0 35 0C34.245 0 33.6328 0.61209 33.6328 1.36719V11.1915L27.7636 5.32232C27.2296 4.78844 26.3642 4.78844 25.83 5.32232C25.2961 5.85621 25.2961 6.72191 25.83 7.25594L33.6328 15.0586V22.1236L30.8353 24.8828H26.8163L21.875 19.9414V8.90723C21.875 8.15213 21.2628 7.54004 20.5078 7.54004C19.7529 7.54004 19.1406 8.15213 19.1406 8.90723V17.2071L12.7642 10.8307C12.2302 10.2968 11.3647 10.2968 10.8306 10.8307C10.2967 11.3646 10.2967 12.2303 10.8306 12.7643L17.207 19.1406H8.90723C8.15227 19.1406 7.54004 19.7527 7.54004 20.5078C7.54004 21.2629 8.15227 21.875 8.90723 21.875H19.9414L24.8828 26.8163V30.8353L22.1236 33.6328H15.0586L7.25594 25.8301C6.72191 25.2962 5.85648 25.2962 5.32232 25.8301C4.78844 26.364 4.78844 27.2297 5.32232 27.7638L11.1914 33.6328H1.36719C0.612227 33.6328 0 34.2449 0 35H0ZM27.2233 32.3563C27.4757 32.1003 27.6172 31.7555 27.6172 31.3962V27.6172H31.3961C31.7554 27.6172 32.1003 27.4757 32.3561 27.2234L35 24.6157L37.6439 27.2234C37.8997 27.4758 38.2447 27.6172 38.6039 27.6172H42.3828V31.3961C42.3828 31.7554 42.5243 32.1003 42.7767 32.3561L45.3843 35L42.7767 37.6437C42.5243 37.8997 42.3828 38.2445 42.3828 38.6038V42.3828H38.6039C38.2446 42.3828 37.8997 42.5243 37.6439 42.7766L35 45.3843L32.3561 42.7766C32.1003 42.5242 31.7553 42.3828 31.3961 42.3828H27.6172V38.6039C27.6172 38.2446 27.4757 37.8997 27.2233 37.6439L24.6157 35L27.2233 32.3563Z" fill="#1E5DC5"/>
<path d="M68.6328 36.3672C69.3879 36.3672 70 35.7551 70 35C70 34.2449 69.3879 33.6328 68.6328 33.6328C67.8777 33.6328 67.2656 34.2449 67.2656 35C67.2656 35.7551 67.8777 36.3672 68.6328 36.3672Z" fill="#1E5DC5"/>
</svg>
