<svg width="70" height="70" viewBox="0 0 70 70" fill="none" xmlns="http://www.w3.org/2000/svg">
<path d="M50.3686 63.3106C49.9564 62.6779 49.1094 62.4989 48.4767 62.9111C44.1036 65.7597 39.0202 67.2654 33.7767 67.2654C18.9054 67.2654 6.80664 55.1667 6.80664 40.2954C6.80664 34.8952 8.39653 29.6851 11.4048 25.2278C11.8272 24.6019 11.6622 23.7522 11.0363 23.3298C10.4105 22.9073 9.56056 23.0723 9.1381 23.6982C5.82418 28.6089 4.07227 34.3483 4.07227 40.2956C4.07227 48.2299 7.1621 55.6893 12.7725 61.2998C18.3829 66.9103 25.8424 70 33.7767 70C39.5515 70 45.1507 68.3411 49.9692 65.2025C50.6021 64.7905 50.7809 63.9434 50.3686 63.3106Z" fill="#1E5DC5"/>
<path d="M54.9616 59.1648C54.4224 58.6361 53.5568 58.6447 53.028 59.1838L52.9826 59.2299C52.4508 59.7658 52.4542 60.6315 52.9901 61.1635C53.2569 61.428 53.6049 61.5601 53.9532 61.5601C54.3047 61.5601 54.6565 61.4253 54.9237 61.1558L54.9803 61.0984C55.5092 60.5592 55.5008 59.6936 54.9616 59.1648Z" fill="#1E5DC5"/>
<path d="M60.4999 22.4067C60.767 22.6737 61.1168 22.8071 61.4667 22.8071C61.8165 22.8071 62.1664 22.6735 62.4334 22.4067L64.7109 20.1292C66.3336 18.5062 66.3336 15.8655 64.7109 14.2425L59.83 9.36166C59.0438 8.57553 57.9984 8.14254 56.8868 8.14254C55.7748 8.14254 54.7296 8.57553 53.9435 9.36166L51.666 11.639C51.4097 11.8953 51.2656 12.2431 51.2656 12.6057C51.2656 12.9683 51.4097 13.3161 51.666 13.5725L52.3126 14.219L50.6744 15.8572C47.2005 13.4444 43.2721 11.8171 39.1097 11.067V8.75039H42.1176C42.8726 8.75039 43.4848 8.1383 43.4848 7.38321V1.36718C43.4848 0.612089 42.8726 0 42.1176 0H25.4373C24.6823 0 24.0701 0.612089 24.0701 1.36718V7.38307C24.0701 8.13817 24.6823 8.75026 25.4373 8.75026H28.4452V11.0697C24.532 11.7793 20.7979 13.2695 17.4448 15.4805C16.8144 15.8963 16.6404 16.7442 17.056 17.3747C17.4719 18.0051 18.32 18.1792 18.9502 17.7634C23.3528 14.8602 28.4801 13.3257 33.7775 13.3257C48.6488 13.3257 60.7475 25.4243 60.7475 40.2957C60.7475 45.3389 59.3473 50.2566 56.6981 54.5168C56.2994 55.158 56.4959 56.001 57.1372 56.3999C57.362 56.5397 57.6114 56.6062 57.8579 56.6062C58.3148 56.6062 58.7612 56.3774 59.0202 55.9608C61.9393 51.2667 63.4821 45.8498 63.4821 40.2957C63.4821 34.169 61.6381 28.3264 58.2155 23.3987L59.8537 21.7605L60.4999 22.4067ZM36.375 10.7046C35.5159 10.6307 34.6498 10.5912 33.7772 10.5912C32.9065 10.591 32.0399 10.6296 31.1794 10.7044V8.75039H36.3749V10.7046H36.375ZM29.8124 6.01589H26.8044V2.73451H40.7503V6.01589H37.7423H29.8124ZM56.538 21.2085C55.9828 20.5488 55.3983 19.9083 54.7813 19.2913C54.1644 18.6744 53.5239 18.0899 52.8641 17.5346L54.2459 16.1527L57.9197 19.8265L56.538 21.2085ZM55.2129 13.2525C55.2126 13.2523 55.2124 13.2521 55.2121 13.2519L54.5664 12.6061L55.8771 11.2955C56.1468 11.0258 56.5053 10.8773 56.8868 10.8773C57.2681 10.8773 57.6267 11.0258 57.8964 11.2957L62.7773 16.1764C63.334 16.7331 63.334 17.6391 62.7773 18.196L61.4667 19.5064L60.8222 18.862C60.8215 18.8613 60.821 18.8606 60.8203 18.8599L55.2129 13.2525Z" fill="#1E5DC5"/>
<path d="M33.7773 20.9168C33.0224 20.9168 32.4102 21.5289 32.4102 22.284V25.292C32.4102 26.0471 33.0222 26.6592 33.7773 26.6592C34.5323 26.6592 35.1445 26.0471 35.1445 25.292V22.284C35.1445 21.5289 34.5323 20.9168 33.7773 20.9168Z" fill="#1E5DC5"/>
<path d="M47.4793 26.5928C47.225 26.3385 46.8724 26.1923 46.5127 26.1923C46.1531 26.1923 45.8004 26.3385 45.5462 26.5928C45.2919 26.8471 45.1455 27.1999 45.1455 27.5594C45.1455 27.9204 45.2918 28.2717 45.5462 28.526C45.8004 28.7803 46.1531 28.9266 46.5127 28.9266C46.8724 28.9266 47.225 28.7803 47.4793 28.526C47.7336 28.2717 47.8799 27.919 47.8799 27.5594C47.8799 27.1999 47.7337 26.8471 47.4793 26.5928Z" fill="#1E5DC5"/>
<path d="M51.7882 38.9283H48.7803C48.0253 38.9283 47.4131 39.5403 47.4131 40.2954C47.4131 41.0505 48.0253 41.6626 48.7803 41.6626H51.7882C52.5432 41.6626 53.1554 41.0505 53.1554 40.2954C53.1554 39.5403 52.5432 38.9283 51.7882 38.9283Z" fill="#1E5DC5"/>
<path d="M47.4793 52.0645C47.225 51.8102 46.8724 51.6639 46.5127 51.6639C46.1531 51.6639 45.8004 51.8102 45.5462 52.0645C45.2919 52.3188 45.1455 52.6715 45.1455 53.0311C45.1455 53.392 45.2918 53.7447 45.5462 53.9977C45.8004 54.2533 46.1531 54.3983 46.5127 54.3983C46.8724 54.3983 47.225 54.2533 47.4793 53.9977C47.7336 53.7434 47.8799 53.392 47.8799 53.0311C47.8799 52.6715 47.7337 52.3201 47.4793 52.0645Z" fill="#1E5DC5"/>
<path d="M33.7773 53.9318C33.0224 53.9318 32.4102 54.5439 32.4102 55.2989V58.3069C32.4102 59.062 33.0224 59.6741 33.7773 59.6741C34.5323 59.6741 35.1445 59.062 35.1445 58.3069V55.2989C35.1445 54.544 34.5323 53.9318 33.7773 53.9318Z" fill="#1E5DC5"/>
<path d="M22.0076 52.0645C21.7532 51.8102 21.4006 51.6639 21.041 51.6639C20.6814 51.6639 20.3287 51.8102 20.0745 52.0645C19.8203 52.3188 19.6738 52.6715 19.6738 53.0311C19.6738 53.392 19.8201 53.7434 20.0745 53.9977C20.3287 54.2533 20.6814 54.3983 21.041 54.3983C21.4006 54.3983 21.7533 54.2533 22.0076 53.9977C22.2619 53.7434 22.4082 53.392 22.4082 53.0311C22.4083 52.6715 22.262 52.3188 22.0076 52.0645Z" fill="#1E5DC5"/>
<path d="M18.7736 38.9283H15.7656C15.0107 38.9283 14.3984 39.5403 14.3984 40.2954C14.3984 41.0505 15.0107 41.6626 15.7656 41.6626H18.7736C19.5285 41.6626 20.1407 41.0505 20.1407 40.2954C20.1409 39.5403 19.5287 38.9283 18.7736 38.9283Z" fill="#1E5DC5"/>
<path d="M22.0076 26.5928C21.7533 26.3385 21.4006 26.1923 21.041 26.1923C20.6814 26.1923 20.3287 26.3385 20.0745 26.5928C19.8203 26.8471 19.6738 27.1999 19.6738 27.5594C19.6738 27.919 19.8201 28.2717 20.0745 28.526C20.3287 28.7803 20.6814 28.9266 21.041 28.9266C21.4006 28.9266 21.7533 28.7803 22.0076 28.526C22.2619 28.2717 22.4082 27.919 22.4082 27.5594C22.4082 27.1999 22.262 26.8471 22.0076 26.5928Z" fill="#1E5DC5"/>
<path d="M44.4522 29.6206C44.007 29.1756 43.3158 29.0919 42.7774 29.4179L31.4915 36.2502C31.3694 36.3195 31.1985 36.42 31.0829 36.5111C29.9015 37.3548 29.1289 38.7362 29.1289 40.2953C29.1289 42.8588 31.2143 44.944 33.7775 44.944C35.3306 44.944 36.7075 44.1776 37.552 43.0037C37.653 42.8786 37.7472 42.7144 37.8239 42.5792L44.6549 31.2954C44.9809 30.7571 44.897 30.0658 44.4522 29.6206ZM35.4683 41.1901L35.3553 41.3766C35.01 41.8791 34.4318 42.2096 33.7773 42.2096C32.722 42.2096 31.8633 41.3511 31.8633 40.2956C31.8633 39.641 32.194 39.0625 32.6967 38.7172L32.8821 38.6049C33.1494 38.4627 33.4539 38.3815 33.7772 38.3815C34.8327 38.3815 35.6914 39.2401 35.6914 40.2957C35.6914 40.6186 35.6102 40.923 35.4683 41.1901ZM37.6048 37.6613C37.2828 37.1949 36.8781 36.7903 36.4116 36.4683L39.4352 34.6379L37.6048 37.6613Z" fill="#1E5DC5"/>
<path d="M33.7765 16.6111C20.7167 16.6111 10.0918 27.2358 10.0918 40.2956C10.0918 53.3553 20.7166 63.9801 33.7765 63.9801C46.8364 63.9801 57.4611 53.3553 57.4611 40.2956C57.4611 27.2358 46.8363 16.6111 33.7765 16.6111ZM33.7765 61.2456C22.2246 61.2456 12.8263 51.8475 12.8263 40.2956C12.8263 28.7437 22.2245 19.3455 33.7765 19.3455C45.3284 19.3455 54.7266 28.7437 54.7266 40.2956C54.7266 51.8475 45.3284 61.2456 33.7765 61.2456Z" fill="#1E5DC5"/>
<path d="M14.7898 19.2083C14.5354 18.954 14.1828 18.8077 13.8232 18.8077C13.4637 18.8077 13.1109 18.954 12.8568 19.2083C12.6025 19.4626 12.4561 19.8153 12.4561 20.1749C12.4561 20.5358 12.6023 20.8872 12.8568 21.1415C13.1109 21.3958 13.4637 21.542 13.8232 21.542C14.1828 21.542 14.5355 21.3958 14.7898 21.1415C15.0441 20.8872 15.1904 20.5344 15.1904 20.1749C15.1904 19.8154 15.0443 19.4627 14.7898 19.2083Z" fill="#1E5DC5"/>
</svg>
