<svg width="70" height="70" viewBox="0 0 70 70" fill="none" xmlns="http://www.w3.org/2000/svg">
<g clip-path="url(#clip0)">
<path d="M33.5223 1.37795C33.5223 0.618701 34.141 0 34.9016 0C35.6608 0 36.2782 0.618701 36.2782 1.37795C36.2782 2.1372 35.6608 2.75591 34.9016 2.75591C34.141 2.75591 33.5223 2.1372 33.5223 1.37795ZM48.09 0H41.151C40.4184 0 39.7775 0.551043 39.7277 1.28205C39.673 2.08429 40.3099 2.75591 41.1024 2.75591H48.09C49.304 2.75866 50.2919 3.74665 50.2947 4.96063V65.0394C50.2919 66.2533 49.304 67.2413 48.09 67.2441H21.9089C20.6949 67.2413 19.7069 66.2533 19.7041 65.0394V4.96063C19.7069 3.74665 20.6949 2.75866 21.9089 2.75591H28.7008C29.4917 2.75591 30.1302 2.08457 30.0754 1.28232C30.0257 0.551181 29.3843 0 28.6515 0H21.9089C19.1692 0 16.9482 2.22098 16.9482 4.96063V65.0394C16.9482 67.779 19.1692 70 21.9089 70H48.09C50.8296 70 53.0506 67.779 53.0506 65.0394V4.96063C53.0506 2.22098 50.8296 0 48.09 0ZM30.8656 29.9016V9.64567C30.8656 7.36626 32.72 5.51181 34.9994 5.51181C36.349 5.51181 37.5496 6.16193 38.3044 7.16535H43.2671C44.0282 7.16535 44.6451 7.78226 44.6451 8.54331C44.6451 9.30435 44.0282 9.92126 43.2671 9.92126H39.1333V14.7441H43.2671C44.0282 14.7441 44.6451 15.361 44.6451 16.122C44.6451 16.8831 44.0282 17.5 43.2671 17.5H39.1333V22.3228H43.2671C44.0282 22.3228 44.6451 22.9397 44.6451 23.7008C44.6451 24.4618 44.0282 25.0787 43.2671 25.0787H39.1333V29.9016H43.2671C44.0282 29.9016 44.6451 30.5185 44.6451 31.2795C44.6451 32.0406 44.0282 32.6575 43.2671 32.6575H39.1333V53.3445C40.5258 54.5417 41.338 56.288 41.338 58.1496C41.338 61.6446 38.4945 64.4882 34.9994 64.4882C31.5044 64.4882 28.6608 61.6446 28.6608 58.1496C28.6608 57.1792 28.8816 56.24 29.2903 55.3937H26.7317C25.9707 55.3937 25.3538 54.7768 25.3538 54.0157C25.3538 53.2547 25.9707 52.6378 26.7317 52.6378H30.8656V47.815H26.7317C25.9707 47.815 25.3538 47.198 25.3538 46.437C25.3538 45.676 25.9707 45.0591 26.7317 45.0591H30.8656V40.2362H26.7317C25.9707 40.2362 25.3538 39.6193 25.3538 38.8583C25.3538 38.0972 25.9707 37.4803 26.7317 37.4803H30.8656V32.6575H26.7317C25.9707 32.6575 25.3538 32.0406 25.3538 31.2795C25.3538 30.5185 25.9707 29.9016 26.7317 29.9016H30.8656ZM36.3774 54.0248V32.6575H33.6215V54.0248C33.6215 54.4845 33.3922 54.9142 33.0101 55.1699C32.0124 55.8378 31.4167 56.9517 31.4167 58.1496C31.4167 60.125 33.024 61.7323 34.9994 61.7323C36.9749 61.7323 38.5821 60.125 38.5821 58.1496C38.5821 56.9517 37.9864 55.8378 36.9888 55.1699C36.6068 54.9142 36.3774 54.4847 36.3774 54.0248ZM33.6215 29.9016H36.3774V9.64567C36.3774 8.88587 35.7592 8.26772 34.9994 8.26772C34.2396 8.26772 33.6215 8.88587 33.6215 9.64567V29.9016Z" fill="#1E5DC5"/>
</g>
<defs>
<clipPath id="clip0">
<rect width="70" height="70" fill="white"/>
</clipPath>
</defs>
</svg>
