<svg width="403" height="354" viewBox="0 0 403 354" fill="none" xmlns="http://www.w3.org/2000/svg">
<g opacity="0.5">
<path d="M132.934 346.877V1" stroke="#C6E3FD" stroke-miterlimit="10" stroke-linecap="round"/>
<path d="M46.5054 256.802V71.7616" stroke="#C6E3FD" stroke-miterlimit="10" stroke-linecap="round"/>
<path d="M152.342 300.653V26.1279" stroke="#C6E3FD" stroke-miterlimit="10" stroke-linecap="round"/>
<path d="M234.925 300.654V29.0685" stroke="#C6E3FD" stroke-miterlimit="10" stroke-linecap="round"/>
<path d="M315.245 353.315V35.5065" stroke="#C6E3FD" stroke-miterlimit="10" stroke-linecap="round"/>
<path d="M49.448 68.821C49.448 69.4026 49.2754 69.9711 48.952 70.4547C48.6287 70.9382 48.169 71.3151 47.6313 71.5377C47.0935 71.7602 46.5018 71.8185 45.9309 71.705C45.36 71.5916 44.8356 71.3115 44.424 70.9003C44.0124 70.489 43.7321 69.9651 43.6186 69.3947C43.505 68.8243 43.5633 68.233 43.786 67.6957C44.0088 67.1584 44.386 66.6992 44.87 66.3761C45.3539 66.0529 45.9229 65.8805 46.505 65.8805C47.2856 65.8805 48.0341 66.1903 48.586 66.7417C49.138 67.2932 49.448 68.0411 49.448 68.821V68.821Z" stroke="#C6E3FD" stroke-miterlimit="10" stroke-linecap="round"/>
<path d="M154.371 22.7865C154.371 21.1625 153.053 19.846 151.428 19.846C149.802 19.846 148.485 21.1625 148.485 22.7865C148.485 24.4105 149.802 25.7271 151.428 25.7271C153.053 25.7271 154.371 24.4105 154.371 22.7865Z" stroke="#C6E3FD" stroke-miterlimit="10" stroke-linecap="round"/>
<path d="M318.187 32.009C318.187 32.5906 318.014 33.1591 317.691 33.6427C317.367 34.1263 316.908 34.5032 316.37 34.7257C315.832 34.9483 315.241 35.0065 314.67 34.8931C314.099 34.7796 313.574 34.4995 313.163 34.0883C312.751 33.6771 312.471 33.1531 312.357 32.5827C312.244 32.0123 312.302 31.4211 312.525 30.8838C312.748 30.3465 313.125 29.8872 313.609 29.5641C314.093 29.241 314.662 29.0685 315.244 29.0685C316.024 29.0685 316.773 29.3783 317.325 29.9298C317.877 30.4812 318.187 31.2292 318.187 32.009Z" stroke="#C6E3FD" stroke-miterlimit="10" stroke-linecap="round"/>
<path d="M353.169 176.35V56.7248" stroke="#C6E3FD" stroke-miterlimit="10" stroke-linecap="round"/>
<path d="M356.112 53.3277C356.112 53.9093 355.939 54.4778 355.616 54.9613C355.293 55.4449 354.833 55.8218 354.295 56.0444C353.758 56.2669 353.166 56.3251 352.595 56.2117C352.024 56.0982 351.5 55.8182 351.088 55.4069C350.676 54.9957 350.396 54.4718 350.283 53.9013C350.169 53.3309 350.227 52.7397 350.45 52.2024C350.673 51.6651 351.05 51.2058 351.534 50.8827C352.018 50.5596 352.587 50.3872 353.169 50.3872C353.949 50.3901 354.696 50.7009 355.247 51.2517C355.798 51.8025 356.109 52.5487 356.112 53.3277V53.3277Z" stroke="#C6E3FD" stroke-miterlimit="10" stroke-linecap="round"/>
<path d="M399.188 300.542V134.47" stroke="#C6E3FD" stroke-miterlimit="10" stroke-linecap="round"/>
<path d="M402.141 131.073C402.141 131.655 401.969 132.223 401.645 132.707C401.322 133.19 400.862 133.567 400.325 133.79C399.787 134.012 399.195 134.07 398.624 133.957C398.053 133.844 397.529 133.563 397.117 133.152C396.706 132.741 396.425 132.217 396.312 131.647C396.198 131.076 396.257 130.485 396.479 129.948C396.702 129.41 397.079 128.951 397.563 128.628C398.047 128.305 398.616 128.133 399.198 128.133C399.979 128.133 400.728 128.442 401.279 128.994C401.831 129.545 402.141 130.293 402.141 131.073V131.073Z" stroke="#C6E3FD" stroke-miterlimit="10" stroke-linecap="round"/>
<path d="M3.93164 292.656V126.584" stroke="#C6E3FD" stroke-miterlimit="10" stroke-linecap="round"/>
<path d="M6.88602 123.209C6.88602 123.791 6.71342 124.359 6.39004 124.843C6.06666 125.327 5.60702 125.703 5.06925 125.926C4.53149 126.149 3.93975 126.207 3.36886 126.093C2.79797 125.98 2.27358 125.7 1.86199 125.289C1.4504 124.877 1.17011 124.353 1.05655 123.783C0.942994 123.213 1.00127 122.621 1.22402 122.084C1.44677 121.547 1.82399 121.087 2.30796 120.764C2.79194 120.441 3.36094 120.269 3.94301 120.269C4.72355 120.269 5.47211 120.579 6.02403 121.13C6.57595 121.682 6.88602 122.429 6.88602 123.209V123.209Z" stroke="#C6E3FD" stroke-miterlimit="10" stroke-linecap="round"/>
<path d="M237.867 26.1279C237.867 26.7095 237.695 27.278 237.371 27.7616C237.048 28.2452 236.588 28.6221 236.051 28.8446C235.513 29.0672 234.921 29.1254 234.35 29.012C233.779 28.8985 233.255 28.6184 232.843 28.2072C232.432 27.796 232.152 27.272 232.038 26.7016C231.924 26.1312 231.983 25.54 232.205 25.0027C232.428 24.4654 232.805 24.0061 233.289 23.683C233.773 23.3599 234.342 23.1874 234.924 23.1874C235.705 23.1874 236.454 23.4972 237.005 24.0487C237.557 24.6001 237.867 25.3481 237.867 26.1279V26.1279Z" stroke="#C6E3FD" stroke-miterlimit="10" stroke-linecap="round"/>
<path d="M381.619 187.321V153.416C381.619 151.943 381.058 150.524 380.05 149.448C379.041 148.373 377.661 147.721 376.19 147.624L361.151 146.6C359.144 139.198 356.192 132.085 352.367 125.437L362.322 114.109C363.295 113.002 363.81 111.566 363.762 110.093C363.714 108.621 363.108 107.221 362.065 106.179L338.064 82.1981C337.021 81.1565 335.62 80.5505 334.146 80.5029C332.672 80.4553 331.235 80.9698 330.127 81.942L318.79 91.8773C312.132 88.0655 305.014 85.1196 297.609 83.1115L296.628 68.0748C296.529 66.6052 295.876 65.2278 294.8 64.2209C293.724 63.2141 292.305 62.6528 290.831 62.6505H256.908C255.434 62.6501 254.014 63.2105 252.937 64.2179C251.861 65.2253 251.208 66.6042 251.112 68.0748L250.131 83.1115C242.725 85.1176 235.606 88.0635 228.95 91.8773L217.613 81.9977C216.504 81.0255 215.067 80.511 213.593 80.5586C212.119 80.6062 210.719 81.2122 209.675 82.2538L185.685 106.235C184.643 107.277 184.036 108.676 183.989 110.149C183.941 111.622 184.456 113.058 185.429 114.165L195.373 125.493C191.552 132.143 188.6 139.255 186.588 146.655L171.55 147.636C170.078 147.732 168.698 148.384 167.69 149.46C166.682 150.535 166.121 151.954 166.121 153.428V187.332C166.121 188.806 166.682 190.225 167.69 191.3C168.698 192.376 170.078 193.028 171.55 193.124L186.588 194.105C188.6 201.505 191.552 208.617 195.373 215.267L185.429 226.595C184.456 227.702 183.941 229.138 183.989 230.611C184.036 232.084 184.643 233.483 185.685 234.525L209.675 258.506C210.719 259.548 212.119 260.154 213.593 260.201C215.067 260.249 216.504 259.735 217.613 258.762L228.961 248.827C235.618 252.641 242.736 255.587 250.142 257.593L251.123 272.63C251.222 274.098 251.876 275.474 252.952 276.479C254.028 277.484 255.446 278.043 256.92 278.043H290.842C292.315 278.043 293.734 277.484 294.81 276.479C295.886 275.474 296.54 274.098 296.639 272.63L297.62 257.593C305.025 255.585 312.143 252.639 318.801 248.827L330.138 258.762C331.246 259.735 332.683 260.249 334.157 260.201C335.631 260.154 337.032 259.548 338.075 258.506L362.076 234.525C363.119 233.483 363.726 232.084 363.773 230.611C363.821 229.138 363.306 227.702 362.333 226.595L352.378 215.267C356.203 208.619 359.156 201.506 361.162 194.105L376.201 193.124C377.672 193.025 379.051 192.371 380.058 191.293C381.064 190.215 381.622 188.795 381.619 187.321V187.321ZM279.338 223.554C268.346 224.681 257.274 222.38 247.644 216.968C238.013 211.556 230.296 203.297 225.551 193.327C220.806 183.356 219.267 172.163 221.145 161.283C223.023 150.403 228.226 140.372 236.039 132.565C243.853 124.758 253.893 119.56 264.782 117.684C275.671 115.807 286.874 117.345 296.853 122.086C306.832 126.826 315.097 134.537 320.514 144.16C325.931 153.782 328.234 164.844 327.106 175.827C325.85 188.057 320.414 199.481 311.713 208.174C303.012 216.868 291.578 222.299 279.338 223.554V223.554Z" stroke="#96B5CB" stroke-miterlimit="10"/>
<path d="M162.007 229.658V206.49C162.004 205.484 161.619 204.517 160.93 203.783C160.241 203.049 159.3 202.604 158.295 202.536L148.028 201.868C146.654 196.806 144.639 191.94 142.03 187.388L148.819 179.591C149.485 178.836 149.836 177.855 149.803 176.849C149.77 175.844 149.355 174.888 148.641 174.178L132.254 157.805C131.54 157.097 130.585 156.685 129.58 156.652C128.575 156.619 127.594 156.967 126.836 157.627L119.088 164.421C114.537 161.806 109.666 159.791 104.596 158.429L103.927 148.159C103.859 147.156 103.413 146.217 102.678 145.53C101.944 144.844 100.976 144.462 99.9698 144.461H76.8047C75.7981 144.459 74.8285 144.84 74.0933 145.527C73.3581 146.214 72.9125 147.155 72.8473 148.159L72.1784 158.429C67.1097 159.794 62.2387 161.808 57.6863 164.421L50.0501 157.738C49.2916 157.078 48.3112 156.73 47.3061 156.763C46.301 156.796 45.3457 157.208 44.6323 157.916L28.2451 174.29C27.5315 175 27.1158 175.955 27.0827 176.961C27.0495 177.967 27.4014 178.947 28.0667 179.703L34.8557 187.5C32.2475 192.051 30.232 196.917 28.8582 201.979L18.5911 202.648C17.5865 202.715 16.6449 203.161 15.956 203.895C15.2672 204.628 14.8823 205.596 14.8789 206.602V229.769C14.8823 230.775 15.2672 231.743 15.956 232.476C16.6449 233.21 17.5865 233.656 18.5911 233.723L28.8582 234.392C30.234 239.453 32.2494 244.319 34.8557 248.872L28.0667 256.613C27.4014 257.368 27.0495 258.349 27.0827 259.355C27.1158 260.36 27.5315 261.316 28.2451 262.026L44.6323 278.399C45.3457 279.107 46.301 279.519 47.3061 279.552C48.3112 279.585 49.2916 279.237 50.0501 278.577L57.7867 271.783C62.339 274.396 67.21 276.41 72.2787 277.775L72.9476 288.045C73.0128 289.049 73.4584 289.99 74.1936 290.677C74.9288 291.364 75.8984 291.745 76.9051 291.743H100.081C101.087 291.742 102.055 291.36 102.79 290.674C103.525 289.987 103.971 289.048 104.039 288.045L104.708 277.775C109.777 276.413 114.649 274.398 119.2 271.783L126.947 278.577C127.706 279.237 128.686 279.585 129.691 279.552C130.696 279.519 131.652 279.107 132.365 278.399L148.752 262.026C149.466 261.316 149.882 260.36 149.915 259.355C149.948 258.349 149.596 257.368 148.931 256.613L142.142 248.872C144.748 244.319 146.763 239.453 148.139 234.392L158.406 233.723C159.41 233.628 160.341 233.155 161.009 232.4C161.678 231.645 162.034 230.665 162.007 229.658ZM92.1441 254.396C84.6374 255.171 77.0747 253.605 70.4947 249.913C63.9146 246.221 58.64 240.584 55.3953 233.777C52.1506 226.969 51.0949 219.325 52.3733 211.893C53.6517 204.462 57.2014 197.609 62.5349 192.274C67.8684 186.94 74.7241 183.386 82.1604 182.101C89.5966 180.816 97.2486 181.863 104.065 185.098C110.882 188.333 116.529 193.597 120.231 200.168C123.933 206.739 125.508 214.293 124.74 221.794C123.883 230.143 120.174 237.943 114.238 243.88C108.301 249.818 100.499 253.531 92.1441 254.396Z" stroke="#96B5CB" stroke-miterlimit="10"/>
<path d="M365.922 300.531C365.924 301.115 365.753 301.687 365.43 302.174C365.106 302.661 364.646 303.041 364.106 303.266C363.566 303.491 362.972 303.551 362.398 303.438C361.825 303.326 361.297 303.045 360.883 302.633C360.469 302.221 360.186 301.695 360.071 301.122C359.956 300.549 360.014 299.955 360.237 299.415C360.461 298.875 360.839 298.413 361.325 298.089C361.811 297.764 362.383 297.59 362.968 297.59C363.749 297.59 364.499 297.9 365.053 298.451C365.607 299.002 365.919 299.75 365.922 300.531V300.531Z" stroke="#A1BFE7" stroke-width="1.33" stroke-miterlimit="10"/>
<path d="M323.393 109.676C323.395 110.26 323.224 110.832 322.901 111.319C322.578 111.806 322.117 112.186 321.577 112.411C321.038 112.636 320.443 112.696 319.87 112.584C319.296 112.471 318.768 112.191 318.354 111.778C317.94 111.366 317.657 110.84 317.542 110.267C317.428 109.694 317.485 109.1 317.709 108.56C317.932 108.02 318.311 107.559 318.797 107.234C319.283 106.909 319.854 106.736 320.439 106.736C321.221 106.736 321.97 107.045 322.524 107.596C323.078 108.147 323.39 108.895 323.393 109.676V109.676Z" stroke="#A1BFE7" stroke-width="1.33" stroke-miterlimit="10"/>
<path d="M346.302 181.307C346.302 181.683 346.19 182.052 345.981 182.365C345.771 182.678 345.473 182.922 345.125 183.066C344.777 183.211 344.393 183.248 344.024 183.175C343.654 183.101 343.314 182.92 343.048 182.654C342.781 182.387 342.599 182.048 342.526 181.678C342.452 181.309 342.49 180.926 342.634 180.578C342.779 180.23 343.023 179.932 343.336 179.723C343.65 179.514 344.019 179.402 344.396 179.402C344.9 179.405 345.383 179.607 345.74 179.963C346.097 180.32 346.299 180.803 346.302 181.307Z" fill="#DD8A5A"/>
<path d="M54.6431 291.598C54.6431 291.975 54.5313 292.343 54.3218 292.656C54.1124 292.969 53.8147 293.213 53.4663 293.358C53.118 293.502 52.7347 293.54 52.3649 293.466C51.9952 293.393 51.6555 293.211 51.3889 292.945C51.1223 292.678 50.9407 292.339 50.8672 291.97C50.7936 291.6 50.8314 291.217 50.9757 290.869C51.12 290.521 51.3643 290.224 51.6778 290.014C51.9913 289.805 52.3598 289.693 52.7368 289.693C52.9876 289.692 53.2361 289.74 53.4681 289.835C53.7 289.931 53.9108 290.071 54.0881 290.248C54.2654 290.425 54.4057 290.636 54.501 290.867C54.5963 291.099 54.6446 291.347 54.6431 291.598Z" fill="#DD8A5A"/>
<path d="M78.4437 109.676C78.4437 110.056 78.331 110.427 78.1198 110.742C77.9086 111.057 77.6085 111.303 77.2575 111.447C76.9064 111.592 76.5204 111.629 76.1481 111.554C75.7759 111.48 75.4342 111.296 75.1665 111.027C74.8988 110.758 74.7171 110.416 74.6444 110.043C74.5717 109.671 74.6112 109.285 74.7581 108.935C74.9049 108.586 75.1524 108.287 75.4692 108.078C75.7859 107.869 76.1577 107.758 76.5374 107.761C77.044 107.764 77.5289 107.967 77.886 108.326C78.2432 108.685 78.4437 109.17 78.4437 109.676Z" fill="#DD8A5A"/>
<path d="M333.583 307.158C333.583 307.537 333.47 307.908 333.26 308.223C333.049 308.538 332.75 308.783 332.399 308.928C332.049 309.073 331.663 309.111 331.291 309.037C330.919 308.963 330.578 308.781 330.31 308.513C330.041 308.245 329.859 307.904 329.785 307.532C329.711 307.16 329.749 306.775 329.894 306.425C330.039 306.075 330.285 305.776 330.6 305.565C330.916 305.355 331.286 305.242 331.665 305.242C332.174 305.242 332.662 305.444 333.021 305.804C333.381 306.163 333.583 306.65 333.583 307.158Z" fill="#DD8A5A"/>
<path d="M128.207 141.61C128.207 142.191 128.035 142.76 127.711 143.243C127.388 143.727 126.928 144.104 126.391 144.326C125.853 144.549 125.261 144.607 124.69 144.494C124.119 144.38 123.595 144.1 123.183 143.689C122.772 143.278 122.491 142.754 122.378 142.183C122.264 141.613 122.323 141.022 122.545 140.485C122.768 139.947 123.145 139.488 123.629 139.165C124.113 138.842 124.682 138.669 125.264 138.669C126.045 138.669 126.793 138.979 127.345 139.531C127.897 140.082 128.207 140.83 128.207 141.61V141.61Z" stroke="#A1BFE7" stroke-width="1.33" stroke-miterlimit="10"/>
<path d="M24.7781 299.428C24.7781 300.01 24.6055 300.578 24.2821 301.062C23.9587 301.546 23.4991 301.923 22.9613 302.145C22.4236 302.368 21.8318 302.426 21.261 302.312C20.6901 302.199 20.1657 301.919 19.7541 301.508C19.3425 301.096 19.0622 300.572 18.9486 300.002C18.8351 299.432 18.8934 298.84 19.1161 298.303C19.3389 297.766 19.7161 297.307 20.2001 296.983C20.684 296.66 21.253 296.488 21.8351 296.488C22.6156 296.488 23.3642 296.798 23.9161 297.349C24.4681 297.901 24.7781 298.648 24.7781 299.428V299.428Z" stroke="#A1BFE7" stroke-width="1.33" stroke-miterlimit="10"/>
<path d="M58.6228 109.676C58.6228 110.258 58.4502 110.826 58.1269 111.31C57.8035 111.793 57.3438 112.17 56.8061 112.393C56.2683 112.615 55.6766 112.674 55.1057 112.56C54.5348 112.447 54.0104 112.167 53.5988 111.755C53.1872 111.344 52.9069 110.82 52.7934 110.25C52.6798 109.679 52.7381 109.088 52.9608 108.551C53.1836 108.014 53.5608 107.554 54.0448 107.231C54.5288 106.908 55.0978 106.736 55.6798 106.736C56.4604 106.736 57.2089 107.046 57.7608 107.597C58.3128 108.148 58.6228 108.896 58.6228 109.676Z" stroke="#A1BFE7" stroke-width="1.33" stroke-miterlimit="10"/>
</g>
<g clip-path="url(#clip0)">
<path d="M326.425 253.046C326.425 202.107 353 167.127 353 142.582C353 118.037 338.789 66.4872 225.065 66.4872C111.341 66.4872 94.6455 135.836 94.6455 162.834C94.6455 289.256 326.425 343.258 326.425 253.046Z" fill="#F4F8FF"/>
<path d="M177.852 102H299.148C301.828 102 304 104.501 304 107.586V258.414C304 261.499 301.828 264 299.148 264H177.852C175.172 264 173 261.499 173 258.414V107.586C173 104.501 175.173 102 177.852 102Z" fill="#BCCFEE"/>
<path d="M147.468 102.097H287.342C290.432 102.097 292.937 104.595 292.937 107.677V258.323C292.937 261.405 290.432 263.903 287.342 263.903H147.468C144.378 263.903 141.873 261.405 141.873 258.323V107.677C141.873 104.595 144.378 102.097 147.468 102.097Z" fill="white"/>
<path d="M147.808 103H287.192C290.4 103 293 105.47 293 108.517V257.483C293 260.53 290.4 263 287.192 263H147.808C144.6 263 142 260.53 142 257.483V108.517C142 105.47 144.6 103 147.808 103Z" fill="#D0DFF9"/>
<path d="M217.405 169.051V152.313H228.595V169.051C228.595 172.133 226.09 174.631 223 174.631C219.91 174.631 217.405 172.133 217.405 169.051Z" fill="white"/>
<path d="M239.059 141.154H206.94C205.711 141.081 204.652 140.265 204.271 139.098L200.62 129.995H245.379L241.728 139.098C241.347 140.265 240.288 141.081 239.059 141.154Z" fill="white"/>
<path d="M209.013 141.154H236.987V146.733C236.987 149.815 234.482 152.313 231.392 152.313H214.607C211.517 152.313 209.012 149.815 209.012 146.733V141.154H209.013Z" fill="white"/>
<path d="M217.404 169.051V152.313H228.594V169.051C228.594 172.133 226.089 174.631 222.999 174.631C219.909 174.631 217.404 172.133 217.404 169.051Z" fill="#BCCFEE"/>
<path d="M239.059 141.154H206.94C205.711 141.081 204.652 140.265 204.271 139.098L200.62 129.995H245.379L241.728 139.098C241.347 140.265 240.288 141.081 239.059 141.154Z" fill="#BCCFEE"/>
<path d="M209.012 141.154H236.987V146.733C236.987 149.815 234.482 152.313 231.392 152.313H214.607C211.517 152.313 209.012 149.815 209.012 146.733V141.154H209.012Z" fill="#BCCFEE"/>
<path d="M223 185.79V252.743L175.443 245.295V193.238L223 185.79Z" fill="#00D2A0"/>
<path d="M270.557 193.238V245.295L252.401 248.14L242.974 249.619L232.456 251.265L223.028 252.743H223V185.79L237.631 188.077L244.485 189.165L252.149 190.365L259.031 191.425L266.668 192.625L270.557 193.238Z" fill="#00B58A"/>
<path d="M223 177.42C218.367 177.416 214.613 173.671 214.608 169.051V152.313C214.608 151.573 214.902 150.863 215.427 150.34C215.952 149.817 216.663 149.523 217.406 149.523H228.595C229.337 149.522 230.049 149.816 230.574 150.34C231.098 150.863 231.393 151.573 231.393 152.313V169.051C231.388 173.671 227.633 177.416 223 177.42ZM220.203 155.103V169.052C220.203 170.592 221.456 171.841 223 171.841C224.545 171.841 225.798 170.592 225.798 169.052V155.103H220.203Z" fill="#1E5DC5"/>
<path d="M304.127 132.785H141.874C141.132 132.785 140.42 132.491 139.895 131.968C139.37 131.444 139.076 130.735 139.076 129.995V113.256C139.076 112.517 139.371 111.807 139.895 111.283C140.42 110.76 141.132 110.466 141.874 110.466H304.127C304.869 110.466 305.581 110.76 306.105 111.283C306.63 111.807 306.925 112.516 306.925 113.256V129.995C306.925 130.735 306.63 131.444 306.105 131.968C305.581 132.491 304.869 132.785 304.127 132.785ZM144.671 127.205H301.33V116.046H144.671V127.205Z" fill="#1E5DC5"/>
<path d="M239.062 143.943H206.94C204.568 143.871 202.481 142.361 201.676 140.135L198.023 131.031C197.679 130.172 197.784 129.198 198.304 128.431C198.825 127.664 199.693 127.205 200.621 127.205H245.38C246.309 127.205 247.176 127.664 247.697 128.431C248.218 129.198 248.323 130.171 247.978 131.031L244.326 140.135C243.52 142.361 241.433 143.871 239.062 143.943ZM204.754 132.785L206.871 138.062C206.912 138.191 206.988 138.307 207.09 138.397L238.947 138.364C239.029 138.278 239.091 138.174 239.13 138.062L241.247 132.785H204.754Z" fill="#1E5DC5"/>
<path d="M231.393 155.103H214.608C209.975 155.098 206.221 151.353 206.216 146.733V141.154C206.215 140.414 206.51 139.704 207.035 139.181C207.56 138.658 208.271 138.364 209.014 138.364H236.988C237.73 138.363 238.442 138.657 238.966 139.181C239.491 139.704 239.786 140.414 239.786 141.154V146.733C239.78 151.353 236.026 155.097 231.393 155.103ZM211.811 143.943V146.733C211.813 148.273 213.064 149.521 214.608 149.523H231.393C232.937 149.521 234.189 148.273 234.19 146.733V143.943H211.811Z" fill="#1E5DC5"/>
<path d="M304.127 241.585H270.557C269.012 241.585 267.76 240.336 267.76 238.795C267.76 237.254 269.012 236.005 270.557 236.005H304.127C305.672 236.005 306.924 237.254 306.924 238.795C306.924 240.336 305.672 241.585 304.127 241.585Z" fill="#1E5DC5"/>
<path d="M175.443 241.585H141.874C140.329 241.585 139.076 240.336 139.076 238.795C139.076 237.254 140.329 236.005 141.874 236.005H175.443C176.988 236.005 178.241 237.254 178.241 238.795C178.241 240.336 176.988 241.585 175.443 241.585Z" fill="#1E5DC5"/>
<path d="M223.003 255.533C222.857 255.533 222.711 255.522 222.566 255.499L175.009 248.061C173.648 247.848 172.646 246.679 172.646 245.305V193.228C172.646 191.688 173.899 190.439 175.443 190.439C176.988 190.439 178.241 191.688 178.241 193.228V242.918L223.434 249.987C224.877 250.213 225.904 251.507 225.791 252.959C225.678 254.412 224.464 255.533 223.003 255.533Z" fill="#1E5DC5"/>
<path d="M175.441 196.018C173.981 196.017 172.767 194.897 172.654 193.445C172.54 191.993 173.567 190.699 175.009 190.473L222.566 183.034C223.554 182.878 224.55 183.26 225.179 184.035C225.809 184.811 225.974 185.862 225.614 186.793C225.254 187.724 224.423 188.392 223.435 188.546L175.878 195.984C175.733 196.007 175.587 196.018 175.441 196.018Z" fill="#1E5DC5"/>
<path d="M223 255.533C222.258 255.534 221.547 255.24 221.022 254.716C220.497 254.193 220.203 253.484 220.203 252.743V185.79C220.202 184.974 220.56 184.199 221.182 183.669C221.803 183.139 222.627 182.907 223.435 183.034L270.992 190.473C272.353 190.686 273.355 191.855 273.355 193.228V245.305C273.355 246.678 272.353 247.848 270.992 248.06L223.435 255.499C223.291 255.522 223.146 255.533 223 255.533ZM225.798 189.051V249.483L267.76 242.918V195.615L225.798 189.051Z" fill="#1E5DC5"/>
<path d="M223 209.503C221.869 209.502 220.849 208.823 220.417 207.78C219.984 206.738 220.223 205.538 221.023 204.741L239.152 186.663C239.858 185.958 240.888 185.683 241.854 185.941C242.819 186.199 243.573 186.951 243.831 187.914C244.09 188.876 243.814 189.903 243.108 190.608L224.978 208.686C224.454 209.209 223.743 209.503 223 209.503Z" fill="#1E5DC5"/>
<path d="M223 226.241C221.869 226.241 220.849 225.561 220.417 224.519C219.984 223.477 220.223 222.277 221.023 221.479L253.669 188.923C254.761 187.833 256.532 187.833 257.625 188.923C258.717 190.012 258.717 191.778 257.625 192.868L224.978 225.424C224.454 225.947 223.743 226.242 223 226.241Z" fill="#1E5DC5"/>
<path d="M223 242.98C221.869 242.979 220.849 242.3 220.417 241.257C219.984 240.215 220.223 239.015 221.023 238.218L268.159 191.21C269.251 190.121 271.022 190.121 272.115 191.21C273.207 192.299 273.207 194.066 272.115 195.155L224.978 242.162C224.454 242.686 223.743 242.98 223 242.98Z" fill="#1E5DC5"/>
<path d="M227.98 254.753C226.849 254.752 225.829 254.073 225.397 253.03C224.964 251.988 225.203 250.788 226.003 249.991L268.579 207.53C269.675 206.458 271.432 206.466 272.517 207.548C273.603 208.63 273.611 210.383 272.535 211.475L229.958 253.935C229.434 254.459 228.722 254.754 227.98 254.753Z" fill="#1E5DC5"/>
<path d="M247.899 251.628C246.768 251.628 245.748 250.948 245.315 249.906C244.882 248.864 245.121 247.664 245.921 246.866L268.58 224.269C269.675 223.196 271.432 223.204 272.518 224.286C273.603 225.369 273.611 227.121 272.535 228.213L249.877 250.811C249.353 251.335 248.641 251.629 247.899 251.628Z" fill="#1E5DC5"/>
<path d="M298.532 266.692H147.469C142.836 266.687 139.081 262.943 139.076 258.323V230.426C139.076 228.885 140.329 227.636 141.874 227.636C143.418 227.636 144.671 228.885 144.671 230.426V258.323C144.673 259.863 145.924 261.111 147.468 261.113H298.532C300.076 261.111 301.328 259.863 301.329 258.323V107.677C301.327 106.137 300.076 104.889 298.532 104.887H147.469C145.924 104.889 144.673 106.137 144.671 107.677V208.108C144.671 209.648 143.419 210.897 141.874 210.897C140.329 210.897 139.076 209.648 139.076 208.108V107.677C139.081 103.057 142.836 99.3126 147.469 99.3077H298.532C303.165 99.3126 306.919 103.057 306.924 107.677V258.323C306.919 262.943 303.165 266.687 298.532 266.692Z" fill="#1E5DC5"/>
<path d="M141.874 222.056C143.418 222.056 144.671 220.807 144.671 219.267C144.671 217.726 143.418 216.477 141.874 216.477C140.329 216.477 139.076 217.726 139.076 219.267C139.076 220.807 140.329 222.056 141.874 222.056Z" fill="#1E5DC5"/>
</g>
<defs>
<clipPath id="clip0">
<rect x="93" y="55" width="260" height="256" fill="white"/>
</clipPath>
</defs>
</svg>
