<?xml version="1.0" encoding="utf-8"?>
<!-- Generator: Adobe Illustrator 22.1.0, SVG Export Plug-In . SVG Version: 6.00 Build 0)  -->
<svg version="1.1" id="Layer_1" xmlns="http://www.w3.org/2000/svg" xmlns:xlink="http://www.w3.org/1999/xlink" x="0px" y="0px"
	 viewBox="0 0 403 354" style="enable-background:new 0 0 403 354;" xml:space="preserve">
<style type="text/css">
	.st0{opacity:0.5;}
	.st1{fill:none;stroke:#C6E3FD;stroke-linecap:round;stroke-miterlimit:10;}
	.st2{fill:none;stroke:#96B5CB;stroke-miterlimit:10;}
	.st3{fill:none;stroke:#A1BFE7;stroke-width:1.33;stroke-miterlimit:10;}
	.st4{fill:#DD8A5A;}
	.st5{clip-path:url(#XMLID_74_);}
	.st6{fill:#F4F8FF;}
	.st7{fill:#BCCFEE;}
	.st8{fill:#FFFFFF;}
	.st9{fill:#D0DFF9;}
	.st10{fill:#00D2A0;}
	.st11{fill:#00B58A;}
	.st12{fill:#1E5DC5;}
</style>
<g id="XMLID_42_" class="st0">
	<path id="XMLID_72_" class="st1" d="M132.9,346.9V1"/>
	<path id="XMLID_71_" class="st1" d="M46.5,256.8v-185"/>
	<path id="XMLID_70_" class="st1" d="M152.3,300.7V26.1"/>
	<path id="XMLID_69_" class="st1" d="M234.9,300.7V29.1"/>
	<path id="XMLID_68_" class="st1" d="M315.2,353.3V35.5"/>
	<path id="XMLID_67_" class="st1" d="M49.4,68.8c0,0.6-0.2,1.2-0.5,1.6c-0.3,0.5-0.8,0.9-1.3,1.1c-0.5,0.2-1.1,0.3-1.7,0.2
		c-0.6-0.1-1.1-0.4-1.5-0.8c-0.4-0.4-0.7-0.9-0.8-1.5c-0.1-0.6-0.1-1.2,0.2-1.7c0.2-0.5,0.6-1,1.1-1.3c0.5-0.3,1.1-0.5,1.6-0.5
		c0.8,0,1.5,0.3,2.1,0.9C49.1,67.3,49.4,68,49.4,68.8L49.4,68.8z"/>
	<path id="XMLID_66_" class="st1" d="M154.4,22.8c0-1.6-1.3-2.9-2.9-2.9c-1.6,0-2.9,1.3-2.9,2.9c0,1.6,1.3,2.9,2.9,2.9
		C153.1,25.7,154.4,24.4,154.4,22.8z"/>
	<path id="XMLID_65_" class="st1" d="M318.2,32c0,0.6-0.2,1.2-0.5,1.6c-0.3,0.5-0.8,0.9-1.3,1.1c-0.5,0.2-1.1,0.3-1.7,0.2
		c-0.6-0.1-1.1-0.4-1.5-0.8c-0.4-0.4-0.7-0.9-0.8-1.5c-0.1-0.6-0.1-1.2,0.2-1.7s0.6-1,1.1-1.3c0.5-0.3,1.1-0.5,1.6-0.5
		c0.8,0,1.5,0.3,2.1,0.9C317.9,30.5,318.2,31.2,318.2,32z"/>
	<path id="XMLID_64_" class="st1" d="M353.2,176.4V56.7"/>
	<path id="XMLID_63_" class="st1" d="M356.1,53.3c0,0.6-0.2,1.2-0.5,1.6c-0.3,0.5-0.8,0.9-1.3,1.1c-0.5,0.2-1.1,0.3-1.7,0.2
		c-0.6-0.1-1.1-0.4-1.5-0.8c-0.4-0.4-0.7-0.9-0.8-1.5c-0.1-0.6-0.1-1.2,0.2-1.7c0.2-0.5,0.6-1,1.1-1.3c0.5-0.3,1.1-0.5,1.6-0.5
		c0.8,0,1.5,0.3,2.1,0.9S356.1,52.5,356.1,53.3L356.1,53.3z"/>
	<path id="XMLID_62_" class="st1" d="M399.2,300.5V134.5"/>
	<path id="XMLID_61_" class="st1" d="M402.1,131.1c0,0.6-0.2,1.2-0.5,1.6c-0.3,0.5-0.8,0.9-1.3,1.1c-0.5,0.2-1.1,0.3-1.7,0.2
		c-0.6-0.1-1.1-0.4-1.5-0.8c-0.4-0.4-0.7-0.9-0.8-1.5c-0.1-0.6-0.1-1.2,0.2-1.7c0.2-0.5,0.6-1,1.1-1.3c0.5-0.3,1.1-0.5,1.6-0.5
		c0.8,0,1.5,0.3,2.1,0.9C401.8,129.5,402.1,130.3,402.1,131.1L402.1,131.1z"/>
	<path id="XMLID_60_" class="st1" d="M3.9,292.7V126.6"/>
	<path id="XMLID_59_" class="st1" d="M6.9,123.2c0,0.6-0.2,1.2-0.5,1.6s-0.8,0.9-1.3,1.1c-0.5,0.2-1.1,0.3-1.7,0.2
		c-0.6-0.1-1.1-0.4-1.5-0.8c-0.4-0.4-0.7-0.9-0.8-1.5c-0.1-0.6-0.1-1.2,0.2-1.7s0.6-1,1.1-1.3c0.5-0.3,1.1-0.5,1.6-0.5
		c0.8,0,1.5,0.3,2.1,0.9C6.6,121.7,6.9,122.4,6.9,123.2L6.9,123.2z"/>
	<path id="XMLID_58_" class="st1" d="M237.9,26.1c0,0.6-0.2,1.2-0.5,1.6c-0.3,0.5-0.8,0.9-1.3,1.1c-0.5,0.2-1.1,0.3-1.7,0.2
		c-0.6-0.1-1.1-0.4-1.5-0.8c-0.4-0.4-0.7-0.9-0.8-1.5c-0.1-0.6-0.1-1.2,0.2-1.7c0.2-0.5,0.6-1,1.1-1.3c0.5-0.3,1.1-0.5,1.6-0.5
		c0.8,0,1.5,0.3,2.1,0.9C237.6,24.6,237.9,25.3,237.9,26.1L237.9,26.1z"/>
	<path id="XMLID_55_" class="st2" d="M381.6,187.3v-33.9c0-1.5-0.6-2.9-1.6-4c-1-1.1-2.4-1.7-3.9-1.8l-15-1c-2-7.4-5-14.5-8.8-21.2
		l10-11.3c1-1.1,1.5-2.5,1.4-4c0-1.5-0.7-2.9-1.7-3.9l-24-24c-1-1-2.4-1.6-3.9-1.7s-2.9,0.5-4,1.4l-11.3,9.9
		c-6.7-3.8-13.8-6.8-21.2-8.8l-1-15c-0.1-1.5-0.8-2.8-1.8-3.9c-1.1-1-2.5-1.6-4-1.6h-33.9c-1.5,0-2.9,0.6-4,1.6
		c-1.1,1-1.7,2.4-1.8,3.9l-1,15c-7.4,2-14.5,5-21.2,8.8L217.6,82c-1.1-1-2.5-1.5-4-1.4s-2.9,0.7-3.9,1.7l-24,24
		c-1,1-1.6,2.4-1.7,3.9c0,1.5,0.5,2.9,1.4,4l9.9,11.3c-3.8,6.7-6.8,13.8-8.8,21.2l-15,1c-1.5,0.1-2.9,0.7-3.9,1.8
		c-1,1.1-1.6,2.5-1.6,4v33.9c0,1.5,0.6,2.9,1.6,4c1,1.1,2.4,1.7,3.9,1.8l15,1c2,7.4,5,14.5,8.8,21.2l-9.9,11.3c-1,1.1-1.5,2.5-1.4,4
		c0,1.5,0.7,2.9,1.7,3.9l24,24c1,1,2.4,1.6,3.9,1.7c1.5,0,2.9-0.5,4-1.4l11.3-9.9c6.7,3.8,13.8,6.8,21.2,8.8l1,15
		c0.1,1.5,0.8,2.8,1.8,3.8c1.1,1,2.5,1.6,4,1.6h33.9c1.5,0,2.9-0.6,4-1.6s1.7-2.4,1.8-3.8l1-15c7.4-2,14.5-5,21.2-8.8l11.3,9.9
		c1.1,1,2.5,1.5,4,1.4c1.5,0,2.9-0.7,3.9-1.7l24-24c1-1,1.7-2.4,1.7-3.9c0-1.5-0.5-2.9-1.4-4l-10-11.3c3.8-6.6,6.8-13.8,8.8-21.2
		l15-1c1.5-0.1,2.9-0.8,3.9-1.8C381.1,190.2,381.6,188.8,381.6,187.3L381.6,187.3z M279.3,223.6c-11,1.1-22.1-1.2-31.7-6.6
		c-9.6-5.4-17.3-13.7-22.1-23.6c-4.7-10-6.3-21.2-4.4-32c1.9-10.9,7.1-20.9,14.9-28.7c7.8-7.8,17.9-13,28.7-14.9
		c10.9-1.9,22.1-0.3,32.1,4.4c10,4.7,18.2,12.5,23.7,22.1c5.4,9.6,7.7,20.7,6.6,31.7c-1.3,12.2-6.7,23.7-15.4,32.3
		C303,216.9,291.6,222.3,279.3,223.6L279.3,223.6z"/>
	<path id="XMLID_52_" class="st2" d="M162,229.7v-23.2c0-1-0.4-2-1.1-2.7c-0.7-0.7-1.6-1.2-2.6-1.2l-10.3-0.7
		c-1.4-5.1-3.4-9.9-6-14.5l6.8-7.8c0.7-0.8,1-1.7,1-2.7c0-1-0.4-2-1.2-2.7l-16.4-16.4c-0.7-0.7-1.7-1.1-2.7-1.2c-1,0-2,0.3-2.7,1
		l-7.7,6.8c-4.6-2.6-9.4-4.6-14.5-6l-0.7-10.3c-0.1-1-0.5-1.9-1.2-2.6c-0.7-0.7-1.7-1.1-2.7-1.1H76.8c-1,0-2,0.4-2.7,1.1
		c-0.7,0.7-1.2,1.6-1.2,2.6l-0.7,10.3c-5.1,1.4-9.9,3.4-14.5,6l-7.6-6.7c-0.8-0.7-1.7-1-2.7-1s-2,0.4-2.7,1.2l-16.4,16.4
		c-0.7,0.7-1.1,1.7-1.2,2.7c0,1,0.3,2,1,2.7l6.8,7.8c-2.6,4.6-4.6,9.4-6,14.5l-10.3,0.7c-1,0.1-1.9,0.5-2.6,1.2
		c-0.7,0.7-1.1,1.7-1.1,2.7v23.2c0,1,0.4,2,1.1,2.7c0.7,0.7,1.6,1.2,2.6,1.2l10.3,0.7c1.4,5.1,3.4,9.9,6,14.5l-6.8,7.7
		c-0.7,0.8-1,1.7-1,2.7c0,1,0.4,2,1.2,2.7l16.4,16.4c0.7,0.7,1.7,1.1,2.7,1.2s2-0.3,2.7-1l7.7-6.8c4.6,2.6,9.4,4.6,14.5,6l0.7,10.3
		c0.1,1,0.5,1.9,1.2,2.6c0.7,0.7,1.7,1.1,2.7,1.1h23.2c1,0,2-0.4,2.7-1.1c0.7-0.7,1.2-1.6,1.2-2.6l0.7-10.3c5.1-1.4,9.9-3.4,14.5-6
		l7.7,6.8c0.8,0.7,1.7,1,2.7,1c1,0,2-0.4,2.7-1.2l16.4-16.4c0.7-0.7,1.1-1.7,1.2-2.7c0-1-0.3-2-1-2.7l-6.8-7.7
		c2.6-4.6,4.6-9.4,6-14.5l10.3-0.7c1-0.1,1.9-0.6,2.6-1.3C161.7,231.6,162,230.7,162,229.7z M92.1,254.4c-7.5,0.8-15.1-0.8-21.6-4.5
		c-6.6-3.7-11.9-9.3-15.1-16.1c-3.2-6.8-4.3-14.5-3-21.9c1.3-7.4,4.8-14.3,10.2-19.6c5.3-5.3,12.2-8.9,19.6-10.2
		c7.4-1.3,15.1-0.2,21.9,3c6.8,3.2,12.5,8.5,16.2,15.1c3.7,6.6,5.3,14.1,4.5,21.6c-0.9,8.3-4.6,16.1-10.5,22.1
		C108.3,249.8,100.5,253.5,92.1,254.4z"/>
	<path id="XMLID_51_" class="st3" d="M365.9,300.5c0,0.6-0.2,1.2-0.5,1.6c-0.3,0.5-0.8,0.9-1.3,1.1c-0.5,0.2-1.1,0.3-1.7,0.2
		c-0.6-0.1-1.1-0.4-1.5-0.8c-0.4-0.4-0.7-0.9-0.8-1.5c-0.1-0.6-0.1-1.2,0.2-1.7c0.2-0.5,0.6-1,1.1-1.3c0.5-0.3,1.1-0.5,1.6-0.5
		c0.8,0,1.5,0.3,2.1,0.9C365.6,299,365.9,299.8,365.9,300.5L365.9,300.5z"/>
	<path id="XMLID_50_" class="st3" d="M323.4,109.7c0,0.6-0.2,1.2-0.5,1.6s-0.8,0.9-1.3,1.1c-0.5,0.2-1.1,0.3-1.7,0.2
		c-0.6-0.1-1.1-0.4-1.5-0.8c-0.4-0.4-0.7-0.9-0.8-1.5c-0.1-0.6-0.1-1.2,0.2-1.7c0.2-0.5,0.6-1,1.1-1.3c0.5-0.3,1.1-0.5,1.6-0.5
		c0.8,0,1.5,0.3,2.1,0.9C323.1,108.1,323.4,108.9,323.4,109.7L323.4,109.7z"/>
	<path id="XMLID_49_" class="st4" d="M346.3,181.3c0,0.4-0.1,0.7-0.3,1.1c-0.2,0.3-0.5,0.6-0.9,0.7c-0.3,0.1-0.7,0.2-1.1,0.1
		c-0.4-0.1-0.7-0.3-1-0.5c-0.3-0.3-0.4-0.6-0.5-1c-0.1-0.4,0-0.8,0.1-1.1c0.1-0.3,0.4-0.6,0.7-0.9c0.3-0.2,0.7-0.3,1.1-0.3
		c0.5,0,1,0.2,1.3,0.6C346.1,180.3,346.3,180.8,346.3,181.3z"/>
	<path id="XMLID_48_" class="st4" d="M54.6,291.6c0,0.4-0.1,0.7-0.3,1.1c-0.2,0.3-0.5,0.6-0.9,0.7c-0.3,0.1-0.7,0.2-1.1,0.1
		c-0.4-0.1-0.7-0.3-1-0.5c-0.3-0.3-0.4-0.6-0.5-1c-0.1-0.4,0-0.8,0.1-1.1c0.1-0.3,0.4-0.6,0.7-0.9c0.3-0.2,0.7-0.3,1.1-0.3
		c0.3,0,0.5,0,0.7,0.1c0.2,0.1,0.4,0.2,0.6,0.4c0.2,0.2,0.3,0.4,0.4,0.6C54.6,291.1,54.6,291.3,54.6,291.6z"/>
	<path id="XMLID_47_" class="st4" d="M78.4,109.7c0,0.4-0.1,0.8-0.3,1.1c-0.2,0.3-0.5,0.6-0.9,0.7c-0.4,0.1-0.7,0.2-1.1,0.1
		c-0.4-0.1-0.7-0.3-1-0.5c-0.3-0.3-0.4-0.6-0.5-1c-0.1-0.4,0-0.8,0.1-1.1c0.1-0.3,0.4-0.6,0.7-0.9c0.3-0.2,0.7-0.3,1.1-0.3
		c0.5,0,1,0.2,1.3,0.6C78.2,108.7,78.4,109.2,78.4,109.7z"/>
	<path id="XMLID_46_" class="st4" d="M333.6,307.2c0,0.4-0.1,0.8-0.3,1.1c-0.2,0.3-0.5,0.6-0.9,0.7c-0.3,0.1-0.7,0.2-1.1,0.1
		c-0.4-0.1-0.7-0.3-1-0.5c-0.3-0.3-0.5-0.6-0.5-1c-0.1-0.4,0-0.8,0.1-1.1c0.1-0.3,0.4-0.6,0.7-0.9c0.3-0.2,0.7-0.3,1.1-0.3
		c0.5,0,1,0.2,1.4,0.6C333.4,306.2,333.6,306.6,333.6,307.2z"/>
	<path id="XMLID_45_" class="st3" d="M128.2,141.6c0,0.6-0.2,1.1-0.5,1.6c-0.3,0.5-0.8,0.9-1.3,1.1c-0.5,0.2-1.1,0.3-1.7,0.2
		c-0.6-0.1-1.1-0.4-1.5-0.8c-0.4-0.4-0.7-0.9-0.8-1.5c-0.1-0.6-0.1-1.2,0.2-1.7c0.2-0.5,0.6-1,1.1-1.3c0.5-0.3,1.1-0.5,1.6-0.5
		c0.8,0,1.5,0.3,2.1,0.9C127.9,140.1,128.2,140.8,128.2,141.6L128.2,141.6z"/>
	<path id="XMLID_44_" class="st3" d="M24.8,299.4c0,0.6-0.2,1.1-0.5,1.6c-0.3,0.5-0.8,0.9-1.3,1.1c-0.5,0.2-1.1,0.3-1.7,0.2
		c-0.6-0.1-1.1-0.4-1.5-0.8c-0.4-0.4-0.7-0.9-0.8-1.5c-0.1-0.6-0.1-1.2,0.2-1.7c0.2-0.5,0.6-1,1.1-1.3c0.5-0.3,1.1-0.5,1.6-0.5
		c0.8,0,1.5,0.3,2.1,0.9C24.5,297.9,24.8,298.6,24.8,299.4L24.8,299.4z"/>
	<path id="XMLID_43_" class="st3" d="M58.6,109.7c0,0.6-0.2,1.1-0.5,1.6c-0.3,0.5-0.8,0.9-1.3,1.1c-0.5,0.2-1.1,0.3-1.7,0.2
		c-0.6-0.1-1.1-0.4-1.5-0.8c-0.4-0.4-0.7-0.9-0.8-1.5c-0.1-0.6-0.1-1.2,0.2-1.7c0.2-0.5,0.6-1,1.1-1.3c0.5-0.3,1.1-0.5,1.6-0.5
		c0.8,0,1.5,0.3,2.1,0.9C58.3,108.1,58.6,108.9,58.6,109.7z"/>
</g>
<g id="XMLID_1_">
	<defs>
		<rect id="XMLID_41_" x="71.5" y="55" width="260" height="256"/>
	</defs>
	<clipPath id="XMLID_74_">
		<use xlink:href="#XMLID_41_"  style="overflow:visible;"/>
	</clipPath>
	<g id="XMLID_2_" class="st5">
		<path id="XMLID_40_" class="st6" d="M304.9,253c0-50.9,26.6-85.9,26.6-110.5s-14.2-76.1-127.9-76.1S73.1,135.8,73.1,162.8
			C73.1,289.3,304.9,343.3,304.9,253z"/>
		<path id="XMLID_39_" class="st7" d="M156.4,102h121.3c2.7,0,4.9,2.5,4.9,5.6v150.8c0,3.1-2.2,5.6-4.9,5.6H156.4
			c-2.7,0-4.9-2.5-4.9-5.6V107.6C151.5,104.5,153.7,102,156.4,102z"/>
		<path id="XMLID_38_" class="st8" d="M126,102.1h139.9c3.1,0,5.6,2.5,5.6,5.6v150.6c0,3.1-2.5,5.6-5.6,5.6H126
			c-3.1,0-5.6-2.5-5.6-5.6V107.7C120.4,104.6,122.9,102.1,126,102.1z"/>
		<path id="XMLID_37_" class="st9" d="M126.3,103h139.4c3.2,0,5.8,2.5,5.8,5.5v149c0,3-2.6,5.5-5.8,5.5H126.3
			c-3.2,0-5.8-2.5-5.8-5.5v-149C120.5,105.5,123.1,103,126.3,103z"/>
		<path id="XMLID_36_" class="st8" d="M195.9,169.1v-16.7h11.2v16.7c0,3.1-2.5,5.6-5.6,5.6S195.9,172.1,195.9,169.1z"/>
		<path id="XMLID_35_" class="st8" d="M217.6,141.2h-32.1c-1.2-0.1-2.3-0.9-2.7-2.1l-3.7-9.1h44.8l-3.7,9.1
			C219.8,140.3,218.8,141.1,217.6,141.2z"/>
		<path id="XMLID_34_" class="st8" d="M187.5,141.2h28v5.6c0,3.1-2.5,5.6-5.6,5.6h-16.8c-3.1,0-5.6-2.5-5.6-5.6L187.5,141.2
			L187.5,141.2z"/>
		<path id="XMLID_33_" class="st7" d="M195.9,169.1v-16.7h11.2v16.7c0,3.1-2.5,5.6-5.6,5.6C198.4,174.6,195.9,172.1,195.9,169.1z"/>
		<path id="XMLID_32_" class="st7" d="M217.6,141.2h-32.1c-1.2-0.1-2.3-0.9-2.7-2.1l-3.7-9.1h44.8l-3.7,9.1
			C219.8,140.3,218.8,141.1,217.6,141.2z"/>
		<path id="XMLID_31_" class="st7" d="M187.5,141.2h28v5.6c0,3.1-2.5,5.6-5.6,5.6h-16.8c-3.1,0-5.6-2.5-5.6-5.6V141.2L187.5,141.2z"
			/>
		<path id="XMLID_30_" class="st10" d="M201.5,185.8v67l-47.6-7.4v-52.1L201.5,185.8z"/>
		<path id="XMLID_29_" class="st11" d="M249.1,193.2v52.1l-18.2,2.8l-9.4,1.5l-10.5,1.6l-9.4,1.5h0v-67l14.6,2.3l6.9,1.1l7.7,1.2
			l6.9,1.1l7.6,1.2L249.1,193.2z"/>
		<path id="XMLID_26_" class="st12" d="M201.5,177.4c-4.6,0-8.4-3.7-8.4-8.4v-16.7c0-0.7,0.3-1.4,0.8-2c0.5-0.5,1.2-0.8,2-0.8h11.2
			c0.7,0,1.5,0.3,2,0.8c0.5,0.5,0.8,1.2,0.8,2v16.7C209.9,173.7,206.1,177.4,201.5,177.4z M198.7,155.1v13.9c0,1.5,1.3,2.8,2.8,2.8
			c1.5,0,2.8-1.2,2.8-2.8v-13.9H198.7z"/>
		<path id="XMLID_23_" class="st12" d="M282.6,132.8H120.4c-0.7,0-1.5-0.3-2-0.8c-0.5-0.5-0.8-1.2-0.8-2v-16.7c0-0.7,0.3-1.4,0.8-2
			c0.5-0.5,1.2-0.8,2-0.8h162.3c0.7,0,1.5,0.3,2,0.8c0.5,0.5,0.8,1.2,0.8,2V130c0,0.7-0.3,1.4-0.8,2
			C284.1,132.5,283.4,132.8,282.6,132.8z M123.2,127.2h156.7V116H123.2V127.2z"/>
		<path id="XMLID_20_" class="st12" d="M217.6,143.9h-32.1c-2.4-0.1-4.5-1.6-5.3-3.8l-3.7-9.1c-0.3-0.9-0.2-1.8,0.3-2.6
			c0.5-0.8,1.4-1.2,2.3-1.2h44.8c0.9,0,1.8,0.5,2.3,1.2c0.5,0.8,0.6,1.7,0.3,2.6l-3.7,9.1C222,142.4,219.9,143.9,217.6,143.9z
			 M183.3,132.8l2.1,5.3c0,0.1,0.1,0.2,0.2,0.3l31.9,0c0.1-0.1,0.1-0.2,0.2-0.3l2.1-5.3H183.3z"/>
		<path id="XMLID_17_" class="st12" d="M209.9,155.1h-16.8c-4.6,0-8.4-3.8-8.4-8.4v-5.6c0-0.7,0.3-1.5,0.8-2c0.5-0.5,1.2-0.8,2-0.8
			h28c0.7,0,1.5,0.3,2,0.8c0.5,0.5,0.8,1.2,0.8,2v5.6C218.3,151.4,214.5,155.1,209.9,155.1z M190.3,143.9v2.8c0,1.5,1.3,2.8,2.8,2.8
			h16.8c1.5,0,2.8-1.2,2.8-2.8v-2.8H190.3z"/>
		<path id="XMLID_16_" class="st12" d="M282.6,241.6h-33.6c-1.5,0-2.8-1.2-2.8-2.8s1.3-2.8,2.8-2.8h33.6c1.5,0,2.8,1.2,2.8,2.8
			S284.2,241.6,282.6,241.6z"/>
		<path id="XMLID_15_" class="st12" d="M153.9,241.6h-33.6c-1.5,0-2.8-1.2-2.8-2.8s1.3-2.8,2.8-2.8h33.6c1.5,0,2.8,1.2,2.8,2.8
			S155.5,241.6,153.9,241.6z"/>
		<path id="XMLID_14_" class="st12" d="M201.5,255.5c-0.1,0-0.3,0-0.4,0l-47.6-7.4c-1.4-0.2-2.4-1.4-2.4-2.8v-52.1
			c0-1.5,1.3-2.8,2.8-2.8c1.5,0,2.8,1.2,2.8,2.8v49.7l45.2,7.1c1.4,0.2,2.5,1.5,2.4,3C204.2,254.4,203,255.5,201.5,255.5z"/>
		<path id="XMLID_13_" class="st12" d="M153.9,196c-1.5,0-2.7-1.1-2.8-2.6c-0.1-1.5,0.9-2.7,2.4-3l47.6-7.4c1-0.2,2,0.2,2.6,1
			c0.6,0.8,0.8,1.8,0.4,2.8s-1.2,1.6-2.2,1.8l-47.6,7.4C154.2,196,154.1,196,153.9,196z"/>
		<path id="XMLID_10_" class="st12" d="M201.5,255.5c-0.7,0-1.5-0.3-2-0.8c-0.5-0.5-0.8-1.2-0.8-2v-67c0-0.8,0.4-1.6,1-2.1
			c0.6-0.5,1.4-0.8,2.3-0.6l47.6,7.4c1.4,0.2,2.4,1.4,2.4,2.8v52.1c0,1.4-1,2.5-2.4,2.8l-47.6,7.4
			C201.8,255.5,201.6,255.5,201.5,255.5z M204.3,189.1v60.4l42-6.6v-47.3L204.3,189.1z"/>
		<path id="XMLID_9_" class="st12" d="M201.5,209.5c-1.1,0-2.2-0.7-2.6-1.7c-0.4-1-0.2-2.2,0.6-3l18.1-18.1c0.7-0.7,1.7-1,2.7-0.7
			c1,0.3,1.7,1,2,2c0.3,1,0,2-0.7,2.7l-18.1,18.1C203,209.2,202.2,209.5,201.5,209.5z"/>
		<path id="XMLID_8_" class="st12" d="M201.5,226.2c-1.1,0-2.2-0.7-2.6-1.7c-0.4-1-0.2-2.2,0.6-3l32.6-32.6c1.1-1.1,2.9-1.1,4,0
			c1.1,1.1,1.1,2.9,0,3.9l-32.6,32.6C203,225.9,202.2,226.2,201.5,226.2z"/>
		<path id="XMLID_7_" class="st12" d="M201.5,243c-1.1,0-2.2-0.7-2.6-1.7c-0.4-1-0.2-2.2,0.6-3l47.1-47c1.1-1.1,2.9-1.1,4,0
			c1.1,1.1,1.1,2.9,0,3.9l-47.1,47C203,242.7,202.2,243,201.5,243z"/>
		<path id="XMLID_6_" class="st12" d="M206.5,254.8c-1.1,0-2.2-0.7-2.6-1.7c-0.4-1-0.2-2.2,0.6-3l42.6-42.5c1.1-1.1,2.9-1.1,3.9,0
			c1.1,1.1,1.1,2.8,0,3.9l-42.6,42.5C207.9,254.5,207.2,254.8,206.5,254.8z"/>
		<path id="XMLID_5_" class="st12" d="M226.4,251.6c-1.1,0-2.2-0.7-2.6-1.7c-0.4-1-0.2-2.2,0.6-3l22.7-22.6c1.1-1.1,2.9-1.1,3.9,0
			c1.1,1.1,1.1,2.8,0,3.9l-22.7,22.6C227.9,251.3,227.1,251.6,226.4,251.6z"/>
		<path id="XMLID_4_" class="st12" d="M277,266.7H126c-4.6,0-8.4-3.7-8.4-8.4v-27.9c0-1.5,1.3-2.8,2.8-2.8c1.5,0,2.8,1.2,2.8,2.8
			v27.9c0,1.5,1.3,2.8,2.8,2.8H277c1.5,0,2.8-1.2,2.8-2.8V107.7c0-1.5-1.3-2.8-2.8-2.8H126c-1.5,0-2.8,1.2-2.8,2.8v100.4
			c0,1.5-1.3,2.8-2.8,2.8c-1.5,0-2.8-1.2-2.8-2.8V107.7c0-4.6,3.8-8.4,8.4-8.4H277c4.6,0,8.4,3.7,8.4,8.4v150.6
			C285.4,262.9,281.7,266.7,277,266.7z"/>
		<path id="XMLID_3_" class="st12" d="M120.4,222.1c1.5,0,2.8-1.2,2.8-2.8c0-1.5-1.3-2.8-2.8-2.8c-1.5,0-2.8,1.2-2.8,2.8
			C117.6,220.8,118.8,222.1,120.4,222.1z"/>
	</g>
</g>
</svg>
