<svg width="70" height="70" viewBox="0 0 70 70" fill="none" xmlns="http://www.w3.org/2000/svg">
<g clip-path="url(#clip0)">
<path d="M42.3823 64.5311H8.29721C7.1303 64.5311 6.42588 63.8796 6.11025 63.4913C5.56498 62.8205 5.35349 61.9479 5.5308 61.0961C8.37038 47.4568 20.4069 37.4961 34.3026 37.173C34.5338 37.1815 34.7661 37.1874 34.9995 37.1874C45.2523 37.1874 53.5932 28.846 53.5932 18.5937C53.5932 8.34143 45.2523 0 34.9995 0C24.7472 0 16.4058 8.34143 16.4058 18.5937C16.4058 24.6787 19.3442 30.0909 23.8767 33.4848C19.7244 34.8515 15.8279 36.9775 12.418 39.7824C6.16526 44.9254 1.81804 52.0988 0.176885 59.9815C-0.337412 62.4515 0.27889 64.9883 1.86717 66.9413C3.44798 68.8853 5.79142 69.9998 8.29721 69.9998H42.3823C43.8926 69.9998 45.1167 68.7758 45.1167 67.2655C45.1167 65.7552 43.8926 64.5311 42.3823 64.5311ZM21.8745 18.5937C21.8745 11.3567 27.7625 5.46874 34.9995 5.46874C42.2365 5.46874 48.1245 11.3567 48.1245 18.5937C48.1245 25.7271 42.4047 31.5489 35.3103 31.7149C35.2083 31.7032 35.1047 31.6957 34.9995 31.6957C34.7859 31.6957 34.5723 31.6989 34.3586 31.7027C27.418 31.3673 21.8745 25.616 21.8745 18.5937ZM69.1514 67.682L69.1209 67.7162C67.562 69.2746 65.3937 70.0121 62.9387 69.9998L62.9237 69.9849C58.5519 69.963 53.2706 67.5646 48.8983 63.1954C44.5292 58.8236 42.1308 53.5418 42.1089 49.17C42.0971 46.715 42.8341 44.5467 44.393 42.9883L44.4272 42.9579C45.7554 41.7654 47.7891 41.8391 49.0281 43.124C51.5104 45.6981 53.0042 48.2723 50.5053 50.831L48.3114 53.0414C48.3114 53.0414 49.5846 55.9002 52.8188 59.1345L52.9748 59.2904C56.2085 62.5241 59.0684 63.7979 59.0684 63.7979L61.2783 61.6039C63.837 59.1051 66.4111 60.5989 68.9858 63.0811C70.2702 64.3196 70.3434 66.3538 69.1514 67.682Z" fill="#00D2A0"/>
</g>
<defs>
<clipPath id="clip0">
<rect width="70" height="70" fill="white"/>
</clipPath>
</defs>
</svg>
