<svg width="70" height="70" viewBox="0 0 70 70" fill="none" xmlns="http://www.w3.org/2000/svg">
<g clip-path="url(#clip0)">
<path d="M37.5282 20.723C34.3298 23.9215 34.3298 29.1255 37.5282 32.3241C39.1274 33.9231 41.228 34.7228 43.3286 34.7228C45.4291 34.7228 47.5299 33.9231 49.1291 32.3239C52.3275 29.1255 52.3275 23.9215 49.1291 20.723C45.9307 17.5247 40.7264 17.5246 37.5282 20.723ZM45.262 28.4568C44.1959 29.5231 42.4611 29.5231 41.395 28.4568C40.3288 27.3907 40.3288 25.6562 41.395 24.5901C41.928 24.0569 42.6282 23.7904 43.3286 23.7904C44.0287 23.7904 44.729 24.0569 45.262 24.5899C46.3282 25.6562 46.3282 27.3907 45.262 28.4568Z" fill="#00D2A0"/>
<path d="M67.7593 2.35105C66.0923 0.644676 63.7765 -0.198463 61.4076 0.0396997C58.0051 0.380401 52.8131 1.18717 47.4001 3.09507C41.2352 5.2682 36.0417 8.39604 31.9643 12.3922C31.9552 12.4009 31.9462 12.4099 31.9373 12.419L31.3822 12.9783L1.89287 22.5234C0.987112 22.8166 0.298873 23.56 0.0762966 24.4858C-0.14628 25.4117 0.128796 26.3865 0.802406 27.0594L14.1499 40.3936C11.3486 40.8059 8.65166 42.0872 6.50026 44.2387C4.30348 46.4355 2.60886 50.8775 1.31947 57.8184C0.42397 62.6396 0.0691873 66.8631 0.0545585 67.0405C-0.011613 67.8413 0.277956 68.6308 0.846155 69.1992C1.36104 69.714 2.05734 69.9999 2.77948 69.9999C2.85427 69.9999 2.9296 69.9969 3.0048 69.9906C3.18226 69.9761 7.40575 69.6214 12.227 68.7257C19.168 67.4363 23.6098 65.7418 25.8066 63.5449C27.9614 61.3901 29.2437 58.6882 29.6537 55.882L42.9851 69.2001C43.5041 69.7186 44.2017 70.0002 44.9177 70.0001C45.1374 70.0001 45.3591 69.9737 45.5774 69.9193C46.5079 69.6879 47.2492 68.9862 47.5311 68.0699L56.6176 38.5388C57.0617 37.0953 56.2517 35.5653 54.8083 35.1213C54.7625 35.1072 54.7164 35.0979 54.6705 35.0863C53.668 34.6571 52.4629 34.8529 51.6497 35.6752L34.5128 53.0059L16.862 35.3727L34.595 17.5043C34.7729 17.3638 34.9324 17.2044 35.0683 17.0273L35.8049 16.2849C43.9103 8.35215 55.6651 6.11093 61.9527 5.48107C62.9187 5.38401 63.555 5.87291 63.848 6.17287C64.3611 6.69814 64.6032 7.42192 64.512 8.1587C63.9832 12.4365 62.7251 18.815 59.7341 24.9086C59.0687 26.2641 59.6283 27.9025 60.9839 28.5681C62.3397 29.2332 63.9779 28.6736 64.6433 27.3182C67.9693 20.5422 69.3592 13.5239 69.9394 8.82957C70.2356 6.43345 69.441 4.07206 67.7593 2.35105ZM48.3602 46.7799L43.6391 62.1232L38.3819 56.8712L48.3602 46.7799ZM18.9665 48.0962C19.3638 47.7038 19.8895 47.4879 20.4484 47.4879C20.8578 47.4879 21.2488 47.6052 21.5853 47.8215L22.223 48.4585C22.4399 48.7952 22.5575 49.1868 22.5575 49.5971C22.5575 50.1553 22.342 50.6804 21.9505 51.0776C21.4546 51.4897 19.7277 51.9783 17.6806 52.3407C18.0551 50.3034 18.5529 48.5872 18.9665 48.0962ZM18.9646 57.6639C21.385 57.2219 22.9525 56.6981 24.0048 56.1891C23.6332 57.4673 22.9452 58.672 21.9394 59.6779C19.8729 61.7448 12.1612 63.3993 5.85249 64.1927C6.64587 57.8837 8.30043 50.1723 10.3672 48.1056C11.3544 47.1184 12.55 46.4161 13.8542 46.0363C13.344 47.083 12.8155 48.6403 12.3619 51.0417C11.9448 53.2496 11.7753 55.1921 11.7683 55.2739C11.6995 56.0745 11.9865 56.865 12.5529 57.4351C13.0682 57.9537 13.7672 58.2422 14.4924 58.2422C14.5643 58.2422 14.6366 58.2393 14.7089 58.2336C14.791 58.227 16.745 58.0692 18.9646 57.6639ZM12.9931 31.5077L7.82998 26.3497L22.9779 21.4466L12.9931 31.5077Z" fill="#00D2A0"/>
<path d="M54.0039 18.7306C55.514 18.7306 56.7383 17.5063 56.7383 15.9962C56.7383 14.4861 55.514 13.2618 54.0039 13.2618C52.4937 13.2618 51.2695 14.4861 51.2695 15.9962C51.2695 17.5063 52.4937 18.7306 54.0039 18.7306Z" fill="#00D2A0"/>
</g>
<defs>
<clipPath id="clip0">
<rect width="70" height="70" fill="white"/>
</clipPath>
</defs>
</svg>
