<svg width="70" height="70" viewBox="0 0 70 70" fill="none" xmlns="http://www.w3.org/2000/svg">
<g clip-path="url(#clip0)">
<path d="M68.6275 0.00100708H1.37293C0.614824 0.00100708 0.000410247 0.615558 0.000410247 1.37353V34.991C0.000410247 34.9942 9.1151e-08 34.9972 9.1151e-08 35.0003V36.5787C9.1151e-08 36.5819 0.000410247 36.5849 0.000410247 36.588V41.8918C0.000410247 41.8949 9.1151e-08 41.8979 9.1151e-08 41.9011V44.9614C9.1151e-08 44.9645 0.000410247 44.9675 0.000410247 44.9707V50.2744C0.000410247 50.2775 9.1151e-08 50.2805 9.1151e-08 50.2837V53.344C9.1151e-08 53.3472 0.000410247 53.3502 0.000410247 53.3533V58.657C0.000410247 58.6602 9.1151e-08 58.6632 9.1151e-08 58.6663V61.7266C9.1151e-08 61.7298 0.000410247 61.7328 0.000410247 61.7359V67.0397C0.000410247 67.0428 9.1151e-08 67.0458 9.1151e-08 67.049V68.6274C-0.000136628 69.0061 0.153535 69.3493 0.402227 69.5977C0.650645 69.8462 0.993809 70 1.37307 70H68.6276C69.3856 70 70.0001 69.3855 70.0001 68.6275V1.37366C70 0.615558 69.3853 0.00100708 68.6275 0.00100708ZM67.2548 67.2556H36.3722V67.0492C36.3722 66.2911 35.7577 65.6767 34.9997 65.6767C34.2416 65.6767 33.6272 66.2913 33.6272 67.0492V67.2551H33.4213C33.4182 67.2551 33.4152 67.2556 33.412 67.2556H28.1084C28.1053 67.2556 28.1023 67.2551 28.0991 67.2551H25.0388C25.0357 67.2551 25.0327 67.2556 25.0295 67.2556H19.7258C19.7226 67.2556 19.7196 67.2551 19.7165 67.2551H16.6562C16.653 67.2551 16.65 67.2556 16.6469 67.2556H11.3429C11.3397 67.2556 11.3367 67.2551 11.3336 67.2551H8.27326C8.27012 67.2551 8.26711 67.2556 8.26396 67.2556H2.9601C2.95695 67.2556 2.95395 67.2551 2.9508 67.2551H2.74531V36.373H2.9508C3.70891 36.373 4.32332 35.7584 4.32332 35.0005C4.32332 34.2423 3.70877 33.6279 2.9508 33.6279H2.74531V2.74618H67.2547V67.2556H67.2548Z" fill="#00D2A0"/>
<path d="M11.3332 33.6269H8.27291C7.5148 33.6269 6.90039 34.2415 6.90039 34.9995C6.90039 35.7576 7.51494 36.372 8.27291 36.372H11.3332C12.0913 36.372 12.7057 35.7574 12.7057 34.9995C12.7059 34.2414 12.0913 33.6269 11.3332 33.6269Z" fill="#00D2A0"/>
<path d="M28.0988 33.6269H25.0385C24.2804 33.6269 23.666 34.2415 23.666 34.9995C23.666 35.7576 24.2806 36.372 25.0385 36.372H28.0988C28.857 36.372 29.4714 35.7574 29.4714 34.9995C29.4714 34.2414 28.8568 33.6269 28.0988 33.6269Z" fill="#00D2A0"/>
<path d="M19.716 33.6269H16.6557C15.8976 33.6269 15.2832 34.2415 15.2832 34.9995C15.2832 35.7576 15.8978 36.372 16.6557 36.372H19.716C20.4741 36.372 21.0886 35.7574 21.0886 34.9995C21.0887 34.2414 20.4741 33.6269 19.716 33.6269Z" fill="#00D2A0"/>
<path d="M34.9998 33.6269H33.4213C32.6632 33.6269 32.0488 34.2415 32.0488 34.9995C32.0488 35.7576 32.6634 36.372 33.4213 36.372H33.6272V36.5779C33.6272 37.336 34.2418 37.9504 34.9998 37.9504C35.7579 37.9504 36.3723 37.3358 36.3723 36.5779V34.9995C36.3724 34.2414 35.7579 33.6269 34.9998 33.6269Z" fill="#00D2A0"/>
<path d="M34.9995 40.5277C34.2414 40.5277 33.627 41.1422 33.627 41.9002V44.9605C33.627 45.7186 34.2415 46.333 34.9995 46.333C35.7576 46.333 36.372 45.7185 36.372 44.9605V41.9002C36.3721 41.1421 35.7576 40.5277 34.9995 40.5277Z" fill="#00D2A0"/>
<path d="M34.9995 48.9103C34.2414 48.9103 33.627 49.5249 33.627 50.2828V53.3431C33.627 54.1012 34.2415 54.7157 34.9995 54.7157C35.7576 54.7157 36.372 54.1011 36.372 53.3431V50.2828C36.3721 49.5247 35.7576 48.9103 34.9995 48.9103Z" fill="#00D2A0"/>
<path d="M34.9995 57.2931C34.2414 57.2931 33.627 57.9076 33.627 58.6656V61.7259C33.627 62.484 34.2415 63.0984 34.9995 63.0984C35.7576 63.0984 36.372 62.4839 36.372 61.7259V58.6656C36.3721 57.9076 35.7576 57.2931 34.9995 57.2931Z" fill="#00D2A0"/>
<path d="M62.1753 12.7654C61.4173 12.7654 60.8027 13.38 60.8027 14.1379V26.2384C60.8027 26.9965 61.4173 27.6109 62.1753 27.6109C62.9332 27.6109 63.5478 26.9963 63.5478 26.2384V14.1379C63.5478 13.3798 62.9331 12.7654 62.1753 12.7654Z" fill="#00D2A0"/>
<path d="M62.1442 8.23648C60.3779 8.23648 60.3749 10.9815 62.1442 10.9815C63.9105 10.9817 63.9133 8.23648 62.1442 8.23648Z" fill="#00D2A0"/>
</g>
<defs>
<clipPath id="clip0">
<rect width="70" height="70" fill="white"/>
</clipPath>
</defs>
</svg>
