<svg width="86" height="86" viewBox="0 0 86 86" fill="none" xmlns="http://www.w3.org/2000/svg">
<path d="M81.9688 65.8438C81.6124 65.8438 81.2706 65.9853 81.0186 66.2373C80.7666 66.4893 80.625 66.8311 80.625 67.1875V80.625H22.8438V75.25C22.8438 74.8936 22.7022 74.5518 22.4502 74.2998C22.1982 74.0478 21.8564 73.9062 21.5 73.9062C21.1436 73.9062 20.8018 74.0478 20.5498 74.2998C20.2978 74.5518 20.1562 74.8936 20.1562 75.25V81.9688C20.1562 82.3251 20.2978 82.6669 20.5498 82.9189C20.8018 83.1709 21.1436 83.3125 21.5 83.3125H81.9688C82.3251 83.3125 82.6669 83.1709 82.9189 82.9189C83.1709 82.6669 83.3125 82.3251 83.3125 81.9688V67.1875C83.3125 66.8311 83.1709 66.4893 82.9189 66.2373C82.6669 65.9853 82.3251 65.8438 81.9688 65.8438Z" fill="#1E5DC5"/>
<path d="M81.9688 2.6875H21.5C21.1436 2.6875 20.8018 2.82907 20.5498 3.08108C20.2978 3.33308 20.1562 3.67487 20.1562 4.03125V8.0625C20.1562 8.41888 20.2978 8.76067 20.5498 9.01267C20.8018 9.26468 21.1436 9.40625 21.5 9.40625C21.8564 9.40625 22.1982 9.26468 22.4502 9.01267C22.7022 8.76067 22.8438 8.41888 22.8438 8.0625V5.375H80.625V61.8125C80.625 62.1689 80.7666 62.5107 81.0186 62.7627C81.2706 63.0147 81.6124 63.1562 81.9688 63.1562C82.3251 63.1562 82.6669 63.0147 82.9189 62.7627C83.1709 62.5107 83.3125 62.1689 83.3125 61.8125V4.03125C83.3125 3.67487 83.1709 3.33308 82.9189 3.08108C82.6669 2.82907 82.3251 2.6875 81.9688 2.6875Z" fill="#1E5DC5"/>
<path d="M21.5039 71.219C23.4916 71.2178 25.4483 70.7267 27.201 69.7892C28.9537 68.8517 30.4482 67.4967 31.5525 65.844H44.3477C44.7041 65.844 45.0459 65.7024 45.2979 65.4504C45.5499 65.1984 45.6914 64.8566 45.6914 64.5002C45.6914 64.1438 45.5499 63.8021 45.2979 63.5501C45.0459 63.2981 44.7041 63.1565 44.3477 63.1565H32.8922C33.2035 62.2877 33.4136 61.3859 33.5184 60.469H33.5977C34.3774 60.4724 35.1412 60.2487 35.7958 59.8252C36.4504 59.4017 36.9675 58.7966 37.2839 58.084C37.6003 57.3714 37.7023 56.5821 37.5774 55.8125C37.4526 55.0429 37.1063 54.3263 36.5808 53.7502C37.1063 53.1742 37.4526 52.4576 37.5774 51.688C37.7023 50.9184 37.6003 50.129 37.2839 49.4164C36.9675 48.7038 36.4504 48.0988 35.7958 47.6753C35.1412 47.2517 34.3774 47.028 33.5977 47.0315V45.2967C35.6665 43.5636 37.3379 41.4055 38.4983 38.969H56.4414V43.0002C56.4414 43.3566 56.583 43.6984 56.835 43.9504C57.087 44.2024 57.4288 44.344 57.7852 44.344C58.1416 44.344 58.4834 44.2024 58.7354 43.9504C58.9874 43.6984 59.1289 43.3566 59.1289 43.0002V37.6252C59.1289 37.2688 58.9874 36.9271 58.7354 36.6751C58.4834 36.4231 58.1416 36.2815 57.7852 36.2815H39.5102C39.9012 34.9687 40.1464 33.6168 40.2412 32.2502H52.4102C52.7666 32.2502 53.1084 32.1087 53.3604 31.8567C53.6124 31.6047 53.7539 31.2629 53.7539 30.9065V25.5315C53.7539 25.1751 53.6124 24.8333 53.3604 24.5813C53.1084 24.3293 52.7666 24.1877 52.4102 24.1877C52.0538 24.1877 51.712 24.3293 51.46 24.5813C51.208 24.8333 51.0664 25.1751 51.0664 25.5315V29.5627H40.264C40.0152 26.0417 38.7725 22.6635 36.6802 19.8205C36.5772 19.675 36.4463 19.5513 36.295 19.4569C36.1437 19.3624 35.9752 19.299 35.7991 19.2704C35.6231 19.2417 35.4431 19.2484 35.2697 19.29C35.0963 19.3316 34.9329 19.4074 34.789 19.5128C34.6452 19.6182 34.5237 19.7512 34.4318 19.904C34.3399 20.0568 34.2793 20.2264 34.2536 20.4029C34.2279 20.5794 34.2375 20.7592 34.282 20.932C34.3265 21.1047 34.405 21.2668 34.5128 21.4089C36.063 23.5213 37.0735 25.9805 37.4564 28.5726C37.8393 31.1647 37.583 33.8111 36.7098 36.2815H32.2539C31.8975 36.2815 31.5558 36.4231 31.3038 36.6751C31.0518 36.9271 30.9102 37.2688 30.9102 37.6252C30.9102 37.9816 31.0518 38.3234 31.3038 38.5754C31.5558 38.8274 31.8975 38.969 32.2539 38.969H35.4413C34.4089 40.7533 33.0463 42.3248 31.4262 43.5995C31.2656 43.7251 31.1357 43.8856 31.0463 44.0688C30.9569 44.252 30.9103 44.4532 30.9102 44.6571V47.0315H26.8789V41.041C26.8753 40.1344 27.0516 39.2361 27.3976 38.3981C27.7435 37.5602 28.2524 36.7991 28.8946 36.1592C30.1237 34.93 30.9955 33.3898 31.4168 31.7033L32.2069 28.5455C32.2695 28.2962 32.2593 28.0341 32.1774 27.7904C32.0955 27.5467 31.9455 27.3316 31.745 27.1706C31.5446 27.0096 31.3021 26.9095 31.0465 26.8822C30.7909 26.8548 30.5328 26.9014 30.3028 27.0163L25.8039 29.2711L22.458 25.9252C22.206 25.6733 21.8643 25.5318 21.508 25.5318C21.1516 25.5318 20.8099 25.6733 20.5579 25.9252L17.212 29.2711L12.6983 27.0163C12.4684 26.9014 12.2103 26.8548 11.9546 26.8822C11.699 26.9095 11.4566 27.0096 11.2561 27.1706C11.0557 27.3316 10.9056 27.5467 10.8237 27.7904C10.7419 28.0341 10.7316 28.2962 10.7942 28.5455L11.5911 31.7342C12.0204 33.4345 12.9027 34.9865 14.1442 36.225C15.4219 37.5161 16.1356 39.261 16.1289 41.0773V47.0315H12.0977V44.6571C12.0975 44.4532 12.051 44.252 11.9616 44.0688C11.8722 43.8856 11.7423 43.7251 11.5817 43.5995C8.24952 40.9973 6.07394 37.1895 5.52435 32.9975C4.97476 28.8055 6.09521 24.5655 8.64395 21.1923C11.1927 17.819 14.9654 15.583 19.1481 14.9667C23.3308 14.3503 27.5881 15.403 31.0016 17.8976C31.2892 18.1083 31.6486 18.196 32.0009 18.1416C32.3532 18.0871 32.6695 17.895 32.8801 17.6074C33.0907 17.3198 33.1785 16.9603 33.1241 16.608C33.0696 16.2557 32.8775 15.9394 32.5899 15.7288C28.6544 12.8427 23.7507 11.6005 18.9159 12.2649C14.081 12.9294 9.69417 15.4484 6.68322 19.2891C3.67226 23.1299 2.27329 27.9912 2.78222 32.8449C3.29114 37.6986 5.66804 42.164 9.41018 45.2967V47.0315C8.34102 47.0315 7.31566 47.4562 6.55965 48.2122C5.80364 48.9682 5.37893 49.9936 5.37893 51.0627C5.37893 52.1319 5.80364 53.1572 6.55965 53.9133C7.31566 54.6693 8.34102 55.094 9.41018 55.094H33.5977C33.9541 55.094 34.2959 55.2355 34.5479 55.4876C34.7999 55.7396 34.9414 56.0813 34.9414 56.4377C34.9414 56.7941 34.7999 57.1359 34.5479 57.3879C34.2959 57.6399 33.9541 57.7815 33.5977 57.7815H9.41018C9.05379 57.7815 8.712 57.923 8.46 58.1751C8.208 58.4271 8.06643 58.7688 8.06643 59.1252C8.06643 59.4816 8.208 59.8234 8.46 60.0754C8.712 60.3274 9.05379 60.469 9.41018 60.469H9.48946C9.82274 63.4234 11.2315 66.152 13.4472 68.1345C15.663 70.117 18.5307 71.215 21.5039 71.219ZM15.9798 34.2551C15.1133 33.3756 14.498 32.2801 14.198 31.0825L14.1106 30.7278L16.872 32.1159C17.1243 32.2418 17.4098 32.2851 17.6881 32.2398C17.9664 32.1944 18.2234 32.0627 18.4227 31.8632L21.5039 28.7753L24.5851 31.8565C24.7844 32.056 25.0414 32.1877 25.3197 32.2331C25.598 32.2784 25.8835 32.2351 26.1358 32.1091L28.8946 30.7278L28.8139 31.0516C28.5124 32.2676 27.8858 33.3787 27.0012 34.2659C26.1083 35.1534 25.4003 36.2092 24.918 37.3721C24.4357 38.5351 24.1887 39.7821 24.1914 41.041V47.0315H18.8164V41.0787C18.8177 39.8103 18.5677 38.5543 18.0808 37.3831C17.5939 36.2119 16.8798 35.1488 15.9798 34.2551ZM8.06643 51.0627C8.06643 50.7063 8.208 50.3646 8.46 50.1126C8.712 49.8606 9.05379 49.719 9.41018 49.719H33.5977C33.9541 49.719 34.2959 49.8606 34.5479 50.1126C34.7999 50.3646 34.9414 50.7063 34.9414 51.0627C34.9414 51.4191 34.7999 51.7609 34.5479 52.0129C34.2959 52.2649 33.9541 52.4065 33.5977 52.4065H9.41018C9.05379 52.4065 8.712 52.2649 8.46 52.0129C8.208 51.7609 8.06643 51.4191 8.06643 51.0627ZM30.8148 60.469C30.6778 61.4012 30.4006 62.3073 29.9924 63.1565H24.1914C23.835 63.1565 23.4933 63.2981 23.2413 63.5501C22.9892 63.8021 22.8477 64.1438 22.8477 64.5002C22.8477 64.8566 22.9892 65.1984 23.2413 65.4504C23.4933 65.7024 23.835 65.844 24.1914 65.844H28.0695C26.8299 67.0602 25.2773 67.909 23.5843 68.296C21.8913 68.683 20.1242 68.593 18.4793 68.0361C16.8343 67.4792 15.376 66.4772 14.2663 65.1413C13.1566 63.8055 12.4389 62.1881 12.1931 60.469H30.8148Z" fill="#1E5DC5"/>
<path d="M54.1437 47.4252L48.7687 52.8002C48.5808 52.9881 48.4529 53.2275 48.4011 53.4882C48.3493 53.7488 48.3759 54.0189 48.4776 54.2644C48.5792 54.5099 48.7514 54.7198 48.9724 54.8674C49.1933 55.0151 49.453 55.0939 49.7188 55.094H61.8125V65.844H51.0625V59.1252C51.0625 58.7689 50.9209 58.4271 50.6689 58.1751C50.4169 57.9231 50.0751 57.7815 49.7188 57.7815C49.3624 57.7815 49.0206 57.9231 48.7686 58.1751C48.5166 58.4271 48.375 58.7689 48.375 59.1252V67.1877C48.375 67.5441 48.5166 67.8859 48.7686 68.1379C49.0206 68.3899 49.3624 68.5315 49.7188 68.5315H63.1563C63.3331 68.5319 63.5082 68.4972 63.6716 68.4294C63.8349 68.3615 63.9831 68.262 64.1076 68.1364L69.4826 62.7614C69.7338 62.5096 69.8749 62.1684 69.875 61.8127V48.3752H69.8629C69.8679 48.1985 69.8369 48.0225 69.7719 47.858C69.7068 47.6936 69.6091 47.544 69.4846 47.4184C69.3602 47.2928 69.2115 47.1937 69.0476 47.1272C68.8837 47.0607 68.7081 47.0281 68.5313 47.0315H55.0938C54.7374 47.0316 54.3957 47.1732 54.1437 47.4252ZM64.5 63.9439V54.3066L67.1875 51.619V61.2564L64.5 63.9439ZM65.2874 49.719L62.5999 52.4065H52.9626L55.6501 49.719H65.2874Z" fill="#1E5DC5"/>
<path d="M64.5 43C64.5 43.3564 64.6416 43.6982 64.8936 43.9502C65.1456 44.2022 65.4874 44.3438 65.8438 44.3438C66.2001 44.3438 66.5419 44.2022 66.7939 43.9502C67.0459 43.6982 67.1875 43.3564 67.1875 43V26.875C67.1875 26.5186 67.0459 26.1768 66.7939 25.9248C66.5419 25.6728 66.2001 25.5312 65.8438 25.5312C65.4874 25.5312 65.1456 25.6728 64.8936 25.9248C64.6416 26.1768 64.5 26.5186 64.5 26.875V43Z" fill="#1E5DC5"/>
<path d="M64.5 16.125V21.5C64.5 21.8564 64.6416 22.1982 64.8936 22.4502C65.1456 22.7022 65.4874 22.8438 65.8438 22.8438H76.5938C76.9501 22.8438 77.2919 22.7022 77.5439 22.4502C77.7959 22.1982 77.9375 21.8564 77.9375 21.5V16.125C77.9375 15.7686 77.7959 15.4268 77.5439 15.1748C77.2919 14.9228 76.9501 14.7812 76.5938 14.7812H65.8438C65.4874 14.7812 65.1456 14.9228 64.8936 15.1748C64.6416 15.4268 64.5 15.7686 64.5 16.125ZM67.1875 17.4688H75.25V20.1562H67.1875V17.4688Z" fill="#1E5DC5"/>
<path d="M59.1251 14.7813C59.1251 13.4524 58.731 12.1534 57.9927 11.0485C57.2545 9.94362 56.2051 9.08246 54.9774 8.57394C53.7498 8.06541 52.3988 7.93236 51.0955 8.1916C49.7922 8.45085 48.595 9.09075 47.6554 10.0304C46.7157 10.97 46.0758 12.1672 45.8166 13.4705C45.5574 14.7738 45.6904 16.1247 46.1989 17.3524C46.7075 18.5801 47.5686 19.6294 48.6735 20.3677C49.7784 21.106 51.0774 21.5 52.4063 21.5C54.1876 21.4979 55.8953 20.7893 57.1548 19.5298C58.4144 18.2702 59.1229 16.5625 59.1251 14.7813ZM56.1903 13.4375H53.75V10.9973C54.3121 11.198 54.8225 11.521 55.2445 11.943C55.6665 12.365 55.9895 12.8755 56.1903 13.4375ZM48.375 14.7813C48.3785 13.9505 48.6385 13.141 49.1196 12.4637C49.6006 11.7863 50.2792 11.2742 51.0625 10.9973V14.7813C51.0625 15.1376 51.2041 15.4794 51.4561 15.7314C51.7081 15.9834 52.0499 16.125 52.4063 16.125H56.1903C55.8748 17.0209 55.2523 17.7761 54.4333 18.257C53.6142 18.738 52.6514 18.9135 51.7154 18.7526C50.7793 18.5916 49.9304 18.1046 49.319 17.3777C48.7076 16.6508 48.3732 15.7311 48.375 14.7813Z" fill="#1E5DC5"/>
<path d="M37.625 73.9062C37.2686 73.9062 36.9268 74.0478 36.6748 74.2998C36.4228 74.5518 36.2812 74.8936 36.2812 75.25C36.2812 75.6064 36.4228 75.9482 36.6748 76.2002C36.9268 76.4522 37.2686 76.5938 37.625 76.5938H69.875C70.2314 76.5938 70.5732 76.4522 70.8252 76.2002C71.0772 75.9482 71.2188 75.6064 71.2188 75.25C71.2188 74.8936 71.0772 74.5518 70.8252 74.2998C70.5732 74.0478 70.2314 73.9062 69.875 73.9062H37.625Z" fill="#1E5DC5"/>
</svg>
