<svg width="86" height="86" viewBox="0 0 86 86" fill="none" xmlns="http://www.w3.org/2000/svg">
<path d="M71.1801 52.4349C71.4429 52.6978 71.7876 52.8294 72.1319 52.8294C72.4762 52.8294 72.8208 52.6978 73.0837 52.4349C73.6094 51.9092 73.6094 51.057 73.0837 50.5313L72.1319 49.5795L73.0837 48.6276C73.6094 48.1019 73.6094 47.2497 73.0837 46.724C72.558 46.1983 71.7058 46.1983 71.1801 46.724L70.2283 47.6758L69.2764 46.724C68.7507 46.1983 67.8985 46.1983 67.3728 46.724C66.8471 47.2497 66.8471 48.1019 67.3728 48.6276L68.3246 49.5795L67.3728 50.5313C66.8471 51.057 66.8471 51.9092 67.3728 52.4349C67.6357 52.6978 67.9803 52.8294 68.3246 52.8294C68.6689 52.8294 69.0136 52.6978 69.2764 52.4349L70.2283 51.4831L71.1801 52.4349Z" fill="#1E5DC5"/>
<path d="M33.7168 33.5873C33.9797 33.8501 34.3243 33.9817 34.6686 33.9817C35.0129 33.9817 35.3576 33.8501 35.6204 33.5873L36.5723 32.6354L37.5241 33.5873C37.7869 33.8501 38.1316 33.9817 38.4759 33.9817C38.8202 33.9817 39.1649 33.8501 39.4277 33.5873C39.9534 33.0615 39.9534 32.2093 39.4277 31.6836L38.4759 30.7318L39.4277 29.78C39.9534 29.2543 39.9534 28.4021 39.4277 27.8763C38.902 27.3506 38.0498 27.3506 37.5241 27.8763L36.5723 28.8282L35.6204 27.8763C35.0947 27.3506 34.2425 27.3506 33.7168 27.8763C33.1911 28.4021 33.1911 29.2543 33.7168 29.78L34.6686 30.7318L33.7168 31.6836C33.1908 32.2093 33.1908 33.0615 33.7168 33.5873Z" fill="#1E5DC5"/>
<path d="M67.139 14.7392C67.4019 15.0021 67.7466 15.1337 68.0909 15.1337C68.4352 15.1337 68.7798 15.0021 69.0427 14.7392C69.5684 14.2135 69.5684 13.3613 69.0427 12.8356L68.0909 11.8838L69.0427 10.932C69.5684 10.4062 69.5684 9.55404 69.0427 9.02832C68.517 8.5026 67.6648 8.5026 67.139 9.02832L66.1872 9.98014L65.2354 9.02832C64.7097 8.5026 63.8575 8.5026 63.3318 9.02832C62.8061 9.55404 62.8061 10.4062 63.3318 10.932L64.2836 11.8838L63.3318 12.8356C62.8061 13.3613 62.8061 14.2135 63.3318 14.7392C63.5946 15.0021 63.9393 15.1337 64.2836 15.1337C64.6279 15.1337 64.9726 15.0021 65.2354 14.7392L66.1872 13.7874L67.139 14.7392Z" fill="#1E5DC5"/>
<path d="M44.651 13.23C45.3951 13.23 45.9973 12.6272 45.9973 11.8838V7.84493C45.9973 7.10145 45.3951 6.49866 44.651 6.49866C43.9068 6.49866 43.3047 7.10145 43.3047 7.84493V11.8838C43.3047 12.6272 43.9068 13.23 44.651 13.23Z" fill="#1E5DC5"/>
<path d="M44.651 15.9225C43.9068 15.9225 43.3047 16.5253 43.3047 17.2688V21.3076C43.3047 22.0511 43.9068 22.6539 44.651 22.6539C45.3951 22.6539 45.9973 22.0511 45.9973 21.3076V17.2688C45.9973 16.5253 45.3951 15.9225 44.651 15.9225Z" fill="#1E5DC5"/>
<path d="M37.9185 15.9227H41.9574C42.7015 15.9227 43.3037 15.3199 43.3037 14.5764C43.3037 13.8329 42.7015 13.2301 41.9574 13.2301H37.9185C37.1744 13.2301 36.5723 13.8329 36.5723 14.5764C36.5723 15.3199 37.1744 15.9227 37.9185 15.9227Z" fill="#1E5DC5"/>
<path d="M47.3404 15.9227H51.3792C52.1234 15.9227 52.7255 15.3199 52.7255 14.5764C52.7255 13.8329 52.1234 13.2301 51.3792 13.2301H47.3404C46.5963 13.2301 45.9941 13.8329 45.9941 14.5764C45.9941 15.3199 46.5963 15.9227 47.3404 15.9227Z" fill="#1E5DC5"/>
<path d="M19.0684 36.1167C19.0684 38.3438 20.8801 40.1555 23.1072 40.1555C25.3343 40.1555 27.146 38.3438 27.146 36.1167C27.146 33.8896 25.3343 32.0779 23.1072 32.0779C20.8801 32.0779 19.0684 33.8896 19.0684 36.1167ZM24.4535 36.1167C24.4535 36.8588 23.85 37.463 23.1072 37.463C22.3644 37.463 21.7609 36.8588 21.7609 36.1167C21.7609 35.3746 22.3644 34.7704 23.1072 34.7704C23.85 34.7704 24.4535 35.3746 24.4535 36.1167Z" fill="#1E5DC5"/>
<path d="M59.4548 49.5795C57.2278 49.5795 55.416 51.3912 55.416 53.6183C55.416 55.8454 57.2278 57.6571 59.4548 57.6571C61.6819 57.6571 63.4937 55.8454 63.4937 53.6183C63.4937 51.3912 61.6819 49.5795 59.4548 49.5795ZM59.4548 54.9646C58.712 54.9646 58.1086 54.3604 58.1086 53.6183C58.1086 52.8762 58.712 52.272 59.4548 52.272C60.1977 52.272 60.8011 52.8762 60.8011 53.6183C60.8011 54.3604 60.1977 54.9646 59.4548 54.9646Z" fill="#1E5DC5"/>
<path d="M74.2673 61.696C72.0403 61.696 70.2285 63.5078 70.2285 65.7349C70.2285 67.962 72.0403 69.7737 74.2673 69.7737C76.4944 69.7737 78.3062 67.962 78.3062 65.7349C78.3062 63.5078 76.4944 61.696 74.2673 61.696ZM74.2673 67.0812C73.5245 67.0812 72.9211 66.477 72.9211 65.7349C72.9211 64.9927 73.5245 64.3886 74.2673 64.3886C75.0102 64.3886 75.6136 64.9927 75.6136 65.7349C75.6136 66.477 75.0102 67.0812 74.2673 67.0812Z" fill="#1E5DC5"/>
<path d="M20.4177 21.3078C22.6448 21.3078 24.4566 19.496 24.4566 17.2689C24.4566 15.0419 22.6448 13.2301 20.4177 13.2301C18.1907 13.2301 16.3789 15.0419 16.3789 17.2689C16.3789 19.496 18.1907 21.3078 20.4177 21.3078ZM20.4177 15.9227C21.1605 15.9227 21.764 16.5268 21.764 17.2689C21.764 18.0111 21.1605 18.6152 20.4177 18.6152C19.6749 18.6152 19.0715 18.0111 19.0715 17.2689C19.0715 16.5268 19.6749 15.9227 20.4177 15.9227Z" fill="#1E5DC5"/>
<path d="M63.3021 30.2951C63.3021 29.4985 62.9918 28.7496 62.429 28.1862L59.9835 25.74C58.858 24.6132 56.8911 24.6132 55.766 25.74L45.5322 35.9751L6.17856 72.7648C5.39637 73.4958 4.96758 74.5284 5.00191 75.598C5.03725 76.6683 5.53167 77.6713 6.35997 78.3498L10.0346 81.3604C10.7169 81.9191 11.5505 82.1941 12.3829 82.1941C13.3623 82.1941 14.338 81.8141 15.0583 81.0686L52.1623 42.6708L62.429 32.4041C62.9931 31.8407 63.3021 31.0918 63.3021 30.2951ZM13.123 79.197C12.7484 79.5827 12.154 79.6156 11.7414 79.2777L8.06671 76.2671C7.75505 76.0113 7.69851 75.6835 7.69346 75.5105C7.68807 75.3382 7.7224 75.0077 8.0169 74.7324L46.4194 38.8309L49.3237 41.7355L13.123 79.197ZM60.5254 30.5001L51.2108 39.8153L48.3547 36.9589L57.6696 27.644C57.7261 27.5874 57.8012 27.5592 57.8746 27.5592C57.9479 27.5592 58.023 27.5874 58.0795 27.644L60.525 30.0908V30.0915C60.5947 30.1612 60.6092 30.2406 60.6092 30.2951C60.6092 30.3497 60.5951 30.4298 60.5254 30.5001Z" fill="#1E5DC5"/>
<path d="M74.2662 29.3853C75.0104 29.3853 75.6125 28.7825 75.6125 28.0391V25.3465C75.6125 24.603 75.0104 24.0002 74.2662 24.0002C73.522 24.0002 72.9199 24.603 72.9199 25.3465V28.0391C72.9199 28.7825 73.522 29.3853 74.2662 29.3853Z" fill="#1E5DC5"/>
<path d="M74.2662 32.0779C73.522 32.0779 72.9199 32.6807 72.9199 33.4242V36.1167C72.9199 36.8602 73.522 37.463 74.2662 37.463C75.0104 37.463 75.6125 36.8602 75.6125 36.1167V33.4242C75.6125 32.6807 75.0104 32.0779 74.2662 32.0779Z" fill="#1E5DC5"/>
<path d="M67.5352 30.7318C67.5352 31.4753 68.1373 32.078 68.8814 32.078H71.574C72.3181 32.078 72.9203 31.4753 72.9203 30.7318C72.9203 29.9883 72.3181 29.3855 71.574 29.3855H68.8814C68.1373 29.3855 67.5352 29.9883 67.5352 30.7318Z" fill="#1E5DC5"/>
<path d="M79.6541 29.3855H76.9615C76.2174 29.3855 75.6152 29.9883 75.6152 30.7318C75.6152 31.4753 76.2174 32.078 76.9615 32.078H79.6541C80.3982 32.078 81.0003 31.4753 81.0003 30.7318C81.0003 29.9883 80.3982 29.3855 79.6541 29.3855Z" fill="#1E5DC5"/>
</svg>
