<svg width="86" height="86" viewBox="0 0 86 86" fill="none" xmlns="http://www.w3.org/2000/svg">
<g clip-path="url(#clip0)">
<path d="M82.1677 8.23047H38.7031C38.0076 8.23047 37.4434 8.79474 37.4434 9.49023C37.4434 10.1864 38.0076 10.75 38.7031 10.75H82.1683C82.8914 10.75 83.4799 11.3385 83.4799 12.0623V50.4169C83.4799 51.1124 84.0442 51.6766 84.7397 51.6766C85.4358 51.6766 85.9995 51.1124 85.9995 50.4169V12.0623C85.9995 9.94952 84.2811 8.23047 82.1677 8.23047Z" fill="#00D2A0"/>
<path d="M84.7401 54.6429C84.0439 54.6429 83.4803 55.2065 83.4803 55.9026V58.3933H2.51953V12.0622C2.51953 11.3385 3.10807 10.75 3.83112 10.75H22.3844C23.0799 10.75 23.6442 10.1864 23.6442 9.49023C23.6442 8.79474 23.0799 8.23047 22.3844 8.23047H3.83112C1.7184 8.23047 0 9.94952 0 12.0622V66.1579C0 67.7982 1.33456 69.1328 2.97488 69.1328H33.5044V75.2374H28.3027C27.6072 75.2374 27.0429 75.8017 27.0429 76.4971C27.0429 77.1933 27.6072 77.7569 28.3027 77.7569H57.6971C58.3933 77.7569 58.9569 77.1933 58.9569 76.4971C58.9569 75.8017 58.3933 75.2374 57.6971 75.2374H52.4954V69.1328H83.0249C84.6653 69.1328 85.9998 67.7982 85.9998 66.1579V55.9026C85.9998 55.2065 85.4362 54.6429 84.7401 54.6429ZM49.9758 75.2374H36.024V69.1328H49.9758V75.2374ZM83.0249 66.6133H2.97488C2.72358 66.6133 2.51953 66.4092 2.51953 66.1579V60.9128H83.4803V66.1579C83.4803 66.4092 83.2762 66.6133 83.0249 66.6133Z" fill="#00D2A0"/>
<path d="M27.8711 10.75H33.2185C33.914 10.75 34.4783 10.1864 34.4783 9.49023C34.4783 8.79474 33.914 8.23047 33.2185 8.23047H27.8711C27.1756 8.23047 26.6113 8.79474 26.6113 9.49023C26.6113 10.1864 27.1756 10.75 27.8711 10.75Z" fill="#00D2A0"/>
<path d="M7.78906 17.7456C7.09357 17.7456 6.5293 18.3092 6.5293 19.0054V52.4384C6.5293 53.1339 7.09357 53.6981 7.78906 53.6981H17.5995C18.295 53.6981 18.8593 53.1339 18.8593 52.4384V19.0054C18.8593 18.3092 18.295 17.7456 17.5995 17.7456H7.78906ZM16.3397 20.2651V21.786H9.04883V20.2651H16.3397ZM9.04883 51.1786V24.3056H16.3397V51.1786H9.04883Z" fill="#00D2A0"/>
<path d="M69.4863 31.418H79.2967C79.9929 31.418 80.5565 30.8544 80.5565 30.1582V19.0054C80.5565 18.3092 79.9929 17.7456 79.2967 17.7456H69.4863C68.7908 17.7456 68.2266 18.3092 68.2266 19.0054V30.1582C68.2266 30.8544 68.7908 31.418 69.4863 31.418ZM70.7461 28.8985V24.3049H78.037V28.8985H70.7461ZM78.037 20.2651V21.786H70.7461V20.2651H78.037Z" fill="#00D2A0"/>
<path d="M68.2266 48.0174C68.2266 48.7135 68.7908 49.2771 69.4863 49.2771H79.2967C79.9929 49.2771 80.5565 48.7135 80.5565 48.0174V36.8645C80.5565 36.1684 79.9929 35.6047 79.2967 35.6047H69.4863C68.7908 35.6047 68.2266 36.1684 68.2266 36.8645V48.0174ZM70.7461 46.7576V42.164H78.037V46.7576H70.7461ZM78.037 38.1243V39.6445H70.7461V38.1243H78.037Z" fill="#00D2A0"/>
<path d="M24.627 41.9292C24.627 43.9546 26.2758 45.6028 28.3013 45.6028C29.2238 45.6028 30.0669 45.261 30.7125 44.6974L39.3708 49.4943C39.3419 49.68 39.3262 49.8709 39.3262 50.0645C39.3262 52.0906 40.9744 53.7388 43.0005 53.7388C45.026 53.7388 46.6742 52.0906 46.6742 50.0645C46.6742 49.8709 46.6591 49.68 46.6302 49.4943L55.2878 44.6974C55.9334 45.2603 56.7772 45.6028 57.6991 45.6028C59.7252 45.6028 61.3734 43.9546 61.3734 41.9285C61.3734 40.3453 60.3662 38.9923 58.9588 38.4773V30.674C60.3662 30.1582 61.3734 28.806 61.3734 27.2221C61.3734 25.1959 59.7252 23.5477 57.6991 23.5477C56.7792 23.5477 55.938 23.8883 55.2931 24.4486L46.6295 19.649C46.6591 19.4633 46.6742 19.2731 46.6742 19.0789C46.6742 17.0527 45.026 15.4045 42.9998 15.4045C40.9744 15.4045 39.3262 17.0527 39.3262 19.0789C39.3262 19.2724 39.3413 19.4633 39.3708 19.649L30.7073 24.4486C30.0623 23.8883 29.2212 23.5477 28.3013 23.5477C26.2751 23.5477 24.627 25.1959 24.627 27.2221C24.627 28.8053 25.6341 30.1582 27.0415 30.6733V38.4773C25.6341 38.9923 24.627 40.3453 24.627 41.9292ZM43.0005 22.7532C43.9204 22.7532 44.7616 22.4126 45.4065 21.8517L54.07 26.6519C54.0412 26.8376 54.0254 27.0278 54.0254 27.2221C54.0254 27.4163 54.0412 27.6072 54.07 27.7929L45.4065 32.5925C44.7616 32.0321 43.9204 31.6916 43.0005 31.6916C42.0806 31.6916 41.2395 32.0321 40.5945 32.5925L31.931 27.7929C31.9605 27.6072 31.9756 27.4163 31.9756 27.2221C31.9756 27.0278 31.9598 26.8376 31.931 26.6519L40.5945 21.8523C41.2395 22.4126 42.0806 22.7532 43.0005 22.7532ZM54.0254 41.9292C54.0254 42.1208 54.0405 42.3091 54.0687 42.4928L45.4065 47.2917C45.0719 47.0004 44.6848 46.7681 44.2603 46.6133V38.8172C45.6677 38.3021 46.6748 36.9492 46.6748 35.3653C46.6748 35.1711 46.6591 34.9808 46.6302 34.7951L55.2937 29.9955C55.6283 30.2862 56.0155 30.5184 56.44 30.674V38.4773C55.0326 38.9923 54.0254 40.3453 54.0254 41.9292ZM44.1553 35.3653C44.1553 36.0024 43.6369 36.5201 43.0005 36.5201C42.3641 36.5201 41.8457 36.0024 41.8457 35.3653C41.8457 34.7288 42.3641 34.2111 43.0005 34.2111C43.6369 34.2111 44.1553 34.7288 44.1553 35.3653ZM30.7073 29.9955L39.3708 34.7951C39.3419 34.9814 39.3262 35.1717 39.3262 35.3659C39.3262 36.9492 40.3333 38.3021 41.7407 38.8172V46.6133C41.3162 46.7688 40.9291 47.001 40.5945 47.2917L31.9323 42.4928C31.9605 42.3091 31.9756 42.1208 31.9756 41.9292C31.9756 40.3453 30.9684 38.9923 29.561 38.4773V30.674C29.9855 30.5184 30.3727 30.2862 30.7073 29.9955ZM28.3013 43.0833C27.6648 43.0833 27.1465 42.5656 27.1465 41.9292C27.1465 41.2921 27.6648 40.7744 28.3013 40.7744C28.9384 40.7744 29.4561 41.2921 29.4561 41.9292C29.4561 42.5656 28.9384 43.0833 28.3013 43.0833ZM43.0005 51.2193C42.3641 51.2193 41.8457 50.7009 41.8457 50.0645C41.8457 49.4281 42.3641 48.9097 43.0005 48.9097C43.6369 48.9097 44.1553 49.4281 44.1553 50.0645C44.1553 50.7009 43.6369 51.2193 43.0005 51.2193ZM57.6997 43.0833C57.0633 43.0833 56.545 42.5656 56.545 41.9292C56.545 41.2921 57.0633 40.7744 57.6997 40.7744C58.3362 40.7744 58.8545 41.2921 58.8545 41.9292C58.8545 42.5656 58.3362 43.0833 57.6997 43.0833ZM57.6997 26.0673C58.3362 26.0673 58.8545 26.5856 58.8545 27.2221C58.8545 27.8585 58.3362 28.3768 57.6997 28.3768C57.0633 28.3768 56.545 27.8585 56.545 27.2221C56.545 26.5856 57.0633 26.0673 57.6997 26.0673ZM43.0005 17.9241C43.6369 17.9241 44.1553 18.4424 44.1553 19.0789C44.1553 19.7153 43.6369 20.2336 43.0005 20.2336C42.3641 20.2336 41.8457 19.7153 41.8457 19.0789C41.8457 18.4424 42.3641 17.9241 43.0005 17.9241ZM28.3013 26.0673C28.9384 26.0673 29.4561 26.5856 29.4561 27.2221C29.4561 27.8585 28.9384 28.3768 28.3013 28.3768C27.6648 28.3768 27.1465 27.8585 27.1465 27.2221C27.1465 26.5856 27.6648 26.0673 28.3013 26.0673Z" fill="#00D2A0"/>
</g>
<defs>
<clipPath id="clip0">
<rect width="86" height="86" fill="white"/>
</clipPath>
</defs>
</svg>
