<svg width="31" height="31" viewBox="0 0 31 31" fill="none" xmlns="http://www.w3.org/2000/svg">
<path d="M29.7891 17.6494C30.4579 17.6494 31 17.1073 31 16.4385V8.50684C31 5.83599 28.8271 3.66309 26.1562 3.66309H4.84375C2.17291 3.66309 0 5.83599 0 8.50684V22.4932C0 25.164 2.17291 27.3369 4.84375 27.3369H26.1562C28.8271 27.3369 31 25.164 31 22.4932C31 21.8244 30.4579 21.2822 29.7891 21.2822C29.1203 21.2822 28.5781 21.8244 28.5781 22.4932C28.5781 23.8286 27.4917 24.915 26.1562 24.915H4.84375C3.50833 24.915 2.42188 23.8286 2.42188 22.4932V8.76343L12.9422 15.3052C13.7311 15.7957 14.6155 16.041 15.5 16.041C16.3845 16.041 17.2689 15.7957 18.0578 15.3052L28.5781 8.76343V16.4385C28.5781 17.1073 29.1203 17.6494 29.7891 17.6494ZM16.7789 13.2485C15.9901 13.739 15.0099 13.7391 14.2211 13.2485L3.43234 6.53979C3.83001 6.25364 4.31754 6.08496 4.84375 6.08496H26.1562C26.6825 6.08496 27.17 6.25371 27.5677 6.53985L16.7789 13.2485Z" fill="white"/>
</svg>
