<svg width="20" height="20" viewBox="0 0 20 20" fill="none" xmlns="http://www.w3.org/2000/svg">
<path d="M14.05 9.7V7.5C14.05 7.366 14.0773 7.30734 14.0945 7.28261C14.1095 7.26107 14.1365 7.23652 14.2049 7.21535C14.2789 7.19247 14.3812 7.17992 14.523 7.17548C14.6184 7.17249 14.7166 7.17326 14.8255 7.17411C14.8806 7.17455 14.9384 7.175 15 7.175H16.25H16.55V6.875V3.75V3.45H16.25H13.75C11.5131 3.45 9.7 5.26306 9.7 7.5V9.7H7.5H7.2V10V13.125V13.425H7.5H9.7V19.7H2.5C1.28694 19.7 0.3 18.7131 0.3 17.5V2.5C0.3 1.28694 1.28694 0.3 2.5 0.3H17.5C18.7131 0.3 19.7 1.28694 19.7 2.5V17.5C19.7 18.7131 18.7131 19.7 17.5 19.7H14.05V13.425H15.625H15.8281L15.9035 13.2364L17.1535 10.1114L17.3181 9.7H16.875H14.05Z" stroke="#217BFF" stroke-width="0.6"/>
</svg>
