<svg width="36" height="36" viewBox="0 0 36 36" fill="none" xmlns="http://www.w3.org/2000/svg">
<g clip-path="url(#clip0)">
<path d="M30.124 19.1571L35.0211 15.6154C35.8643 15.0056 36.2021 13.9718 35.8816 12.9817C35.5611 11.9916 34.6816 11.3519 33.6409 11.3519H23.3841L20.2418 1.63092C19.9215 0.640227 19.0421 0 18.0008 0C16.9599 0 16.0802 0.640227 15.7599 1.63092L12.6176 11.3519H10.1267C9.73832 11.3519 9.42356 11.6666 9.42356 12.055C9.42356 12.4434 9.73832 12.7581 10.1267 12.7581H13.1292C13.4341 12.7581 13.7044 12.5615 13.7983 12.2712L17.0978 2.06323C17.2546 1.57873 17.6671 1.40625 18.0008 1.40625C18.3348 1.40625 18.7474 1.57873 18.9039 2.06323L22.2037 12.2712C22.2973 12.5615 22.5676 12.7581 22.8724 12.7581H33.6409C34.1499 12.7581 34.441 13.0973 34.5437 13.4148C34.6467 13.7323 34.6094 14.1778 34.1971 14.4758L28.2848 18.7517C27.9781 18.7187 27.6669 18.7014 27.3516 18.7014C22.7876 18.7014 19.0385 22.2555 18.7257 26.7415L18.4156 26.5152C18.1687 26.335 17.8336 26.335 17.5867 26.5152L8.90391 32.8526C8.49247 33.1528 8.05714 33.0501 7.7866 32.8537C7.51634 32.6573 7.28398 32.275 7.44246 31.7908L10.7867 21.5749C10.8817 21.2843 10.7782 20.9654 10.5304 20.7864L1.80484 14.4761C1.3923 14.1778 1.35522 13.7323 1.45795 13.4148C1.56067 13.0973 1.8518 12.7581 2.36075 12.7581H4.50225C4.89034 12.7581 5.2051 12.4434 5.2051 12.055C5.2051 11.6666 4.89034 11.3519 4.50225 11.3519H2.36075C1.32034 11.3519 0.440889 11.9916 0.120364 12.9817C-0.200162 13.9718 0.137392 15.0056 0.980591 15.6154L9.29035 21.6252L6.10625 31.3533C5.78215 32.3434 6.11724 33.3789 6.96016 33.9913C7.38066 34.297 7.86268 34.4498 8.34443 34.4498C8.82783 34.4498 9.3115 34.2959 9.73283 33.9883L18.0008 27.9536L18.7842 28.5254C19.3598 32.7392 22.9823 35.9966 27.3516 35.9966C32.1199 35.9966 35.9992 32.1174 35.9992 27.349C35.9992 23.55 33.5366 20.315 30.124 19.1571ZM27.3516 34.5904C23.3586 34.5904 20.1099 31.342 20.1099 27.349C20.1099 23.3561 23.3586 20.1074 27.3516 20.1074C31.3445 20.1074 34.5929 23.3561 34.5929 27.349C34.5929 31.342 31.3445 34.5904 27.3516 34.5904Z" fill="#00D2A0"/>
<path d="M31.5695 25.24H23.1325C22.7444 25.24 22.4297 25.5547 22.4297 25.9428V28.7551C22.4297 29.1434 22.7444 29.4582 23.1325 29.4582H31.5695C31.9576 29.4582 32.2723 29.1434 32.2723 28.7551V25.9428C32.2723 25.5547 31.9576 25.24 31.5695 25.24ZM30.8664 28.0522H23.8357V26.646H30.8664V28.0522Z" fill="#00D2A0"/>
<path d="M7.31348 12.7606C7.49832 12.7606 7.6796 12.6859 7.81061 12.5546C7.94135 12.4239 8.0166 12.2423 8.0166 12.0575C8.0166 11.8727 7.94135 11.6919 7.81061 11.5604C7.6796 11.4296 7.49832 11.3544 7.31348 11.3544C7.12863 11.3544 6.94708 11.4296 6.81635 11.5604C6.68561 11.6911 6.61035 11.8727 6.61035 12.0575C6.61035 12.2423 6.68561 12.4239 6.81635 12.5546C6.94708 12.6859 7.12863 12.7606 7.31348 12.7606Z" fill="#00D2A0"/>
</g>
<defs>
<clipPath id="clip0">
<rect width="36" height="36" fill="white"/>
</clipPath>
</defs>
</svg>
