<svg height="512pt" viewBox="0 -16 512.00054 512" width="512pt" xmlns="http://www.w3.org/2000/svg">
<defs>
      <style>
      @keyframes myAnime {
        0% {
          transform-origin: 70% 20%;
          transform: rotate(0deg);
        }
        50% {
          transform-origin: 70% 20%;
          transform: rotate(-40deg) translate(-50px);
        }
        100% {
          transform-origin: 70% 20%;
          transform: rotate(0deg) translate(0);
        }
      }
    
      #hammer.addAnimation #hammer-group {
        animation: myAnime .22s ease-out;
      }
      </style>
    </defs>
<g fill='red'>
  <path d="m205.714844 264.605469-73.589844-73.589844c-6.933594-6.933594-6.9375-18.21875 0-25.15625l59.164062-59.164063c2.929688-2.929687 7.679688-2.925781 10.605469 0 2.929688 2.929688 2.929688 7.675782 0 10.605469l-59.164062 59.164063c-1.089844 1.085937-1.089844 2.855468 0 3.945312l73.589843 73.589844c1.085938 1.089844 2.859376 1.085938 3.945313 0 121.128906-121.875 120.167969-117.640625 116.929687-120.875l-73.589843-73.589844c-1.085938-1.089844-2.859375-1.089844-3.945313 0l-37.96875 37.96875c-2.929687 2.929688-7.675781 2.929688-10.605468 0-2.929688-2.929687-2.929688-7.675781 0-10.605468l37.96875-37.972657c6.953124-6.949219 18.203124-6.949219 25.15625 0l73.589843 73.589844c6.949219 6.953125 6.953125 18.207031 0 25.15625l-116.929687 116.933594c-6.9375 6.9375-18.21875 6.933593-25.15625 0zm0 0"/>
  <path d="m178.667969 308.320312-90.257813-90.257812c-6.933594-6.9375-6.933594-18.222656 0-25.15625l20.832032-20.832031c6.9375-6.933594 18.21875-6.933594 25.15625 0l90.257812 90.261719c6.933594 6.933593 6.933594 18.21875 0 25.15625l-20.832031 20.828124c-6.9375 6.9375-18.21875 6.933594-25.15625 0zm-58.820313-125.640624-20.832031 20.832031c-1.085937 1.085937-1.085937 2.855469 0 3.945312l90.257813 90.257813c1.085937 1.085937 2.859374 1.085937 3.945312 0l20.828125-20.832032c1.089844-1.085937 1.089844-2.855468 0-3.941406l-90.257813-90.261718c-1.085937-1.085938-2.855468-1.085938-3.941406 0zm0 0"/>
  <path d="m345.53125 141.457031-90.261719-90.257812c-6.933593-6.933594-6.933593-18.21875 0-25.152344l20.835938-20.832031c6.945312-6.953125 18.203125-6.953125 25.152343 0l90.261719 90.257812c6.933594 6.9375 6.933594 18.21875 0 25.15625-13.28125 13.277344-8.140625 8.136719-20.835937 20.832032-6.945313 6.949218-18.203125 6.949218-25.152344-.003907zm-58.820312-125.640625-20.835938 20.832032c-1.085938 1.089843-1.085938 2.859374.003906 3.945312l90.257813 90.257812c1.089843 1.09375 2.859375 1.089844 3.945312 0l20.828125-20.828124c1.089844-1.089844 1.089844-2.859376 0-3.945313l-90.257812-90.257813c-1.089844-1.09375-2.855469-1.085937-3.941406-.003906zm99.503906 99.507813h.011718zm0 0"/>
  <path d="m259.085938 258.425781c-14.777344-15.671875-18.515626-16.351562-18.515626-21.625 0-5.699219.847657-2.847656 74.125-77.230469 2.929688-2.929687 7.679688-2.929687 10.605469 0l16.320313 16.316407c6.359375 6.363281 6.359375 16.652343 0 23.011719l-59.527344 59.527343c-6.34375 6.339844-16.664062 6.339844-23.007812 0zm-.414063-21.625 11.019531 11.015625c1.757813 1.757813-.265625 1.246094 61.324219-59.523437.496094-.496094.496094-1.300781 0-1.796875l-11.015625-11.019532zm77.644531-43.203125h.011719zm0 0"/>
  <path d="m446.433594 418.4375-161.917969-173.398438c-2.757813-2.957031-2.679687-7.566406.175781-10.421874l31.453125-31.453126c2.855469-2.855468 7.464844-2.9375 10.421875-.179687l173.398438 161.921875c15.644531 14.609375 16.121094 39.269531.933594 54.460938-15.136719 15.132812-39.796876 14.773437-54.464844-.929688zm-146.011719-178.339844 156.972656 168.101563c4.273438 4.574219 10.070313 7.152343 16.328125 7.261719 21.300782.253906 31.027344-25.5625 16.003906-39.59375l-168.101562-156.972657zm0 0"/>
</g> 
  <path d="m265.644531 479.03125h-250.324219c-8.445312 0-15.320312-6.875-15.320312-15.324219 0-28.210937 22.949219-51.160156 51.160156-51.160156h178.648438c28.210937 0 51.160156 22.949219 51.160156 51.160156 0 8.449219-6.875 15.324219-15.324219 15.324219zm-214.484375-51.484375c-19.9375 0-36.160156 16.222656-36.160156 36.160156 0 .390625 250.96875.550781 250.96875 0 0-19.9375-16.222656-36.160156-36.160156-36.160156zm0 0"/>
  <path d="m22 8.140625 427.546875h-175.3125c-4.144531 0-7.5-3.359375-7.5-7.5v-7.078125c0-28.621094 23.285156-51.90625 51.90625-51.90625h20.015625c4.144531 0 7.5 3.355469 7.5 7.5 0 4.140625-3.355469 7.496094-7.5 7.496094h-20.015625c-20.210937 0-36.679687 16.332031-36.90625 36.488281h160.3125c-.226563-20.15625-16.695313-36.488281-36.90625-36.488281h-38.484375c-4.144531 0-7.5-3.355469-7.5-7.496094 0-4.144531 3.355469-7.5 7.5-7.5h38.484375c28.621094 0 51.90625 23.285156 51.90625 51.90625v7.078125c0 4.140625-3.355469 7.5-7.5 7.5zm0 0"/>
</svg>









