<svg width="30" height="30" viewBox="0 0 20 20" fill="none" xmlns="http://www.w3.org/2000/svg">
<path d="M0.3 6.55H4.1725V19.7H0.3V6.55Z" stroke="#8282" stroke-width="0.6"/>
<path d="M16.5647 6.69733L16.5719 6.69961L16.5793 6.70153C18.3736 7.16966 19.7 8.7855 19.7 10.7212V19.7H15.8288V19.6952V19.6869V19.6785V19.6699V19.6613V19.6526V19.6437V19.6348V19.6258V19.6166V19.6074V19.598V19.5886V19.579V19.5694V19.5597V19.5498V19.5399V19.5299V19.5197V19.5095V19.4992V19.4888V19.4783V19.4677V19.457V19.4462V19.4353V19.4243V19.4132V19.4021V19.3908V19.3795V19.368V19.3565V19.3449V19.3331V19.3213V19.3094V19.2974V19.2854V19.2732V19.261V19.2486V19.2362V19.2237V19.2111V19.1984V19.1856V19.1727V19.1598V19.1468V19.1337V19.1205V19.1072V19.0938V19.0803V19.0668V19.0532V19.0395V19.0257V19.0119V18.9979V18.9839V18.9698V18.9556V18.9413V18.927V18.9126V18.8981V18.8835V18.8689V18.8541V18.8393V18.8244V18.8095V18.7944V18.7793V18.7641V18.7489V18.7335V18.7181V18.7026V18.6871V18.6714V18.6557V18.64V18.6241V18.6082V18.5922V18.5761V18.56V18.5438V18.5275V18.5112V18.4948V18.4783V18.4618V18.4452V18.4285V18.4117V18.3949V18.378V18.3611V18.3441V18.327V18.3099V18.2926V18.2754V18.258V18.2406V18.2232V18.2057V18.1881V18.1704V18.1527V18.135V18.1171V18.0992V18.0813V18.0633V18.0452V18.0271V18.0089V17.9906V17.9723V17.954V17.9356V17.9171V17.8986V17.88V17.8613V17.8426V17.8239V17.8051V17.7862V17.7673V17.7483V17.7293V17.7102V17.6911V17.6719V17.6527V17.6334V17.6141V17.5947V17.5753V17.5558V17.5363V17.5167V17.4971V17.4774V17.4577V17.4379V17.4181V17.3982V17.3783V17.3583V17.3383V17.3183V17.2982V17.2781V17.2579V17.2376V17.2174V17.1971V17.1767V17.1563V17.1359V17.1154V17.0949V17.0743V17.0537V17.0331V17.0124V16.9917V16.9709V16.9501V16.9293V16.9084V16.8875V16.8665V16.8455V16.8245V16.8034V16.7823V16.7612V16.74V16.7188V16.6976V16.6763V16.655V16.6337V16.6123V16.5909V16.5695V16.548V16.5265V16.505V16.4835V16.4619V16.4403V16.4186V16.3969V16.3752V16.3535V16.3317V16.3099V16.2881V16.2663V16.2444V16.2225V16.2006V16.1787V16.1567V16.1347V16.1127V16.0906V16.0686V16.0465V16.0244V16.0022V15.9801V15.9579V15.9357V15.9135V15.8912V15.869V15.8467V15.8244V15.8021V15.7797V15.7574V15.735V15.7126V15.6902V15.6677V15.6453V15.6228V15.6004V15.5779V15.5554V15.5328V15.5103V15.4878V15.4652V15.4426V15.42V15.3974V15.3748V15.3522V15.3296V15.3069V15.2842V15.2616V15.2389V15.2162V15.1935V15.1708V15.1481V15.1254V15.1026V15.0799V15.0572V15.0344V15.0116V14.9889V14.9661V14.9433V14.9206V14.8978V14.875V14.8522V14.8294V14.8066V14.7838V14.761V14.7382V14.7154V14.6926V14.6698V14.647V14.6242V14.6014V14.5786V14.5558V14.533V14.5102V14.4874V14.4646V14.4418V14.419V14.3962V14.3734V14.3506V14.3279V14.3051V14.2823V14.2596V14.2368V14.2141V14.1913V14.1686V14.1459V14.1232V14.1005V14.0778V14.0551V14.0324V14.0098V13.9871V13.9645V13.9418V13.9192V13.8966V13.874V13.8514V13.8288V13.8063V13.7837V13.7612V13.7387V13.7162V13.6937V13.6712V13.6488V13.6263V13.6039V13.5815V13.5591V13.5367V13.5144V13.492V13.4697V13.4474V13.4251V13.4029V13.3807V13.3584V13.3362V13.3141V13.2919V13.2698V13.2477V13.2256V13.2035V13.1815V13.1595V13.1375V13.1155V13.0936V13.0717V13.0498V13.0279V13.0061V12.9843V12.9625V12.9408V12.919V12.8973V12.8757V12.854V12.8324V12.8108V12.7893V12.7678V12.7463V12.7248V12.7034V12.682V12.6606V12.6393V12.618V12.5968V12.5755V12.5543V12.5332V12.5121V12.491V12.4699V12.4489V12.4279V12.407V12.3861V12.3652V12.3444V12.3236V12.3029V12.2821V12.2615V12.2408V12.2202V12.1997V12.1792V12.1587V12.1383V12.1179V12.0975V12.0772V12.057V12.0368V12.0166V11.9965V11.9764V11.9564V11.9364V11.9164V11.8965V11.8767V11.8569V11.8371V11.8174V11.7977V11.7781V11.7585V11.739V11.7196V11.7001V11.6808V11.6615V11.6422V11.623V11.6038V11.5847V11.5656V11.5466V11.5277V11.5088V11.4899V11.4711V11.4524V11.4337V11.4151V11.3965V11.378V11.3595V11.3411V11.3228V11.3045V11.2863V11.2681V11.25V11.1906L15.8061 11.1356C15.4241 10.2096 14.8701 9.74575 14.202 9.6878C13.573 9.63324 12.9413 9.95229 12.4143 10.3359C11.877 10.7269 11.3931 11.2258 11.0472 11.6208C10.8733 11.8195 10.7321 11.9943 10.634 12.1199C10.585 12.1827 10.5467 12.2333 10.5204 12.2685L10.4901 12.3095L10.482 12.3206L10.4798 12.3236L10.4792 12.3246L10.4789 12.3248C10.4789 12.3249 10.4788 12.325 10.7225 12.5L10.4788 12.325L10.4225 12.4035V12.5V19.7H6.55V6.55H10.4225V8.87875V9.78453L10.9632 9.05783C11.4959 8.3418 13.0716 6.55 15.5288 6.55C15.8105 6.55 16.0505 6.58105 16.2724 6.62542L16.2724 6.62561L16.2829 6.62733C16.3373 6.63621 16.3888 6.64585 16.439 6.65719C16.4627 6.66386 16.4812 6.67001 16.5048 6.67783C16.5211 6.68328 16.54 6.68953 16.5647 6.69733Z" stroke="#828282" stroke-width="0.6"/>
<path d="M4.075 2.1875C4.075 3.22994 3.22994 4.075 2.1875 4.075C1.14506 4.075 0.3 3.22994 0.3 2.1875C0.3 1.14506 1.14506 0.3 2.1875 0.3C3.22994 0.3 4.075 1.14506 4.075 2.1875Z" stroke="#828282" stroke-width="0.6"/>
</svg>
