<svg width="48" height="48" viewBox="0 0 48 48" fill="none" xmlns="http://www.w3.org/2000/svg">
<path d="M17.1651 32.3402C16.8386 32.8844 16.4032 33.5375 15.859 34.1906C14.444 35.6055 12.7025 36.2586 12.0494 35.6055C11.3964 34.9525 12.0494 33.3198 13.4644 31.796C14.0086 31.2518 14.6617 30.7076 15.3148 30.4899L14.444 29.6191C7.91339 32.4491 9.00183 36.5851 9.32836 38.4355C11.0699 38.762 15.3148 39.8504 18.1447 33.3198L17.1651 32.3402Z" fill="white"/>
<path d="M17.1652 20.9115C9.87266 18.9523 5.41007 26.6802 6.06313 27.3333C6.7162 27.9864 9.87266 24.2857 14.2264 27.4421C15.0971 24.8299 16.0767 22.7619 17.1652 20.9115Z" fill="#2780EB"/>
<path d="M26.7435 30.4897C24.8932 31.5782 22.8251 32.5578 20.2129 33.5374C23.4782 37.8911 19.7775 41.0476 20.3217 41.7006C20.9748 42.2449 28.7027 37.7823 26.7435 30.4897Z" fill="#2780EB"/>
<path d="M33.8183 13.8367C29.5734 13.1836 21.4102 11.551 15.3149 28.4217L17.2741 30.3809L19.2333 32.3401C36.1041 26.2449 34.4714 18.0816 33.8183 13.8367ZM24.8932 22.7619C24.0224 21.8911 24.0224 20.585 24.8932 19.7142C25.7639 18.8435 27.07 18.8435 27.9408 19.7142C28.8115 20.585 28.8115 21.8911 27.9408 22.7619C27.07 23.5238 25.7639 23.5238 24.8932 22.7619Z" fill="#2780EB"/>
<path d="M22.8249 12.3129L22.3895 11.551C21.9542 10.6803 21.1923 10.0272 20.4304 9.59184L19.6685 9.15646L20.4304 8.72109C21.3011 8.28571 21.9542 7.52381 22.3895 6.7619L22.8249 6L23.2603 6.7619C23.6957 7.63265 24.4576 8.28571 25.2195 8.72109L25.9814 9.15646L25.2195 9.59184C24.3487 10.0272 23.6957 10.7891 23.2603 11.551L22.8249 12.3129Z" fill="white"/>
<path d="M36.8656 34.0816L36.3214 33.102C35.7772 32.1224 34.9065 31.2517 33.9269 30.7075L32.9473 30.1632L33.9269 29.619C34.9065 29.0748 35.7772 28.2041 36.3214 27.2245L36.8656 26.2449L37.4099 27.2245C37.9541 28.2041 38.8248 29.0748 39.8044 29.619L40.784 30.1632L39.8044 30.7075C38.8248 31.2517 37.9541 32.1224 37.4099 33.102L36.8656 34.0816Z" fill="white"/>
<path d="M14.8796 13.4013L14.6619 12.8571C14.3354 12.3128 14.0088 11.8775 13.4646 11.6598L12.9204 11.4421L13.4646 11.2244C14.0088 10.8979 14.4442 10.5713 14.6619 10.0271L14.8796 9.48291L15.0973 10.0271C15.4238 10.5713 15.7503 11.0067 16.2946 11.2244L16.8388 11.4421L16.2946 11.6598C15.7503 11.9863 15.315 12.3128 15.0973 12.8571L14.8796 13.4013Z" fill="white"/>
<path d="M39.5871 24.3944L39.3694 23.8502C39.0429 23.306 38.7164 22.8706 38.1721 22.6529L37.6279 22.4353L38.1721 22.2176C38.7164 21.891 39.1517 21.5645 39.3694 21.0203L39.5871 20.4761L39.9136 20.9114C40.2402 21.4557 40.5667 21.891 41.1109 22.1087L41.6551 22.3264L41.1109 22.5441C40.5667 22.8706 40.1313 23.1972 39.9136 23.7414L39.5871 24.3944Z" fill="white"/>
<path d="M34.1449 11.1156L33.9272 10.6803C33.7095 10.2449 33.383 9.91837 32.9476 9.70068L32.5122 9.483L32.9476 9.26531C33.383 9.04762 33.7095 8.72109 33.9272 8.28572L34.1449 7.85034L34.3625 8.28572C34.5802 8.72109 34.9068 9.04762 35.3421 9.26531L35.7775 9.483L35.3421 9.70068C34.9068 9.91837 34.5802 10.2449 34.3625 10.6803L34.1449 11.1156Z" fill="white"/>
</svg>
