<svg width="70" height="70" viewBox="0 0 70 70" fill="none" xmlns="http://www.w3.org/2000/svg">
<path d="M69.9829 35C69.9829 34.4904 69.6993 34.0231 69.2471 33.7878L56.0654 26.929L69.2471 20.0702C69.6993 19.8349 69.9829 19.3675 69.9829 18.858C69.9829 18.3484 69.6993 17.881 69.2471 17.6457L57.8934 11.738C57.2234 11.3897 56.3987 11.65 56.0504 12.3195C55.702 12.9889 55.9622 13.8142 56.6318 14.1625L65.6558 18.8578L35.0002 34.8087L4.34463 18.8578L35.0002 2.90697L45.7228 8.48616C46.3928 8.83448 47.2175 8.57402 47.5658 7.90471C47.9142 7.23525 47.6538 6.41002 46.9844 6.06169L35.631 0.154275C35.2354 -0.0513844 34.7649 -0.0513844 34.3694 0.154275L0.753307 17.6456C0.301129 17.8808 0.0175781 18.3481 0.0175781 18.8578C0.0175781 19.3675 0.301129 19.8347 0.753307 20.0701L13.9351 26.9288L0.753307 33.7878C0.301129 34.0231 0.0175781 34.4904 0.0175781 35C0.0175781 35.5096 0.301129 35.9769 0.753307 36.2122L13.9351 43.071L0.753307 49.9299C0.301129 50.1652 0.0175781 50.6326 0.0175781 51.1422C0.0175781 51.6517 0.301129 52.1191 0.753307 52.3544L34.3694 69.8457C34.5672 69.9485 34.7836 70 35.0002 70C35.2168 70 35.4333 69.9486 35.631 69.8457L69.2471 52.3544C69.6993 52.1191 69.9829 51.6517 69.9829 51.1422C69.9829 50.6326 69.6993 50.1652 69.2471 49.9299L56.0654 43.071L69.2471 36.2122C69.6993 35.9769 69.9829 35.5096 69.9829 35ZM35.631 37.5614L53.1047 28.4693L57.1788 30.5892L26.572 46.5654L21.1194 43.7283L33.6703 37.1977L34.3693 37.5614C34.567 37.6641 34.7835 37.7157 35.0001 37.7157C35.2167 37.7157 35.4333 37.6641 35.631 37.5614ZM30.7098 35.6571L18.1587 42.1877L12.732 39.3641L25.2831 32.8335L30.7098 35.6571ZM16.8957 28.4693L22.3224 31.2931L9.77131 37.8236L4.34449 34.9999L16.8957 28.4693ZM65.6558 51.1422L35.0002 67.093L4.34463 51.1422L16.8957 44.6116L34.3694 53.7037C34.5672 53.8064 34.7836 53.8579 35.0002 53.8579C35.2168 53.8579 35.4333 53.8066 35.631 53.7037L53.1047 44.6116L65.6558 51.1422ZM35.0002 50.9508L29.5297 48.1044L60.1366 32.1283L65.6558 35L35.0002 50.9508Z" fill="#00D2A0"/>
<path d="M51.8079 11.4787C52.1673 11.4787 52.5199 11.3325 52.7739 11.0783C53.0281 10.8241 53.1744 10.4716 53.1744 10.1122C53.1744 9.75278 53.0282 9.40022 52.7739 9.14605C52.5199 8.89188 52.1673 8.74566 51.8079 8.74566C51.4485 8.74566 51.096 8.89188 50.8418 9.14605C50.5876 9.40022 50.4414 9.75278 50.4414 10.1122C50.4414 10.4716 50.5875 10.8241 50.8418 11.0783C51.0961 11.3325 51.4485 11.4787 51.8079 11.4787Z" fill="#00D2A0"/>
</svg>
