<svg width="24" height="24" viewBox="0 0 24 24" fill="#2780eb" xmlns="http://www.w3.org/2000/svg">
<path d="M18.435 18.4353C18.0445 18.8258 17.4113 18.8258 17.0208 18.4353L5.70712 7.12161C5.31659 6.73109 5.31659 6.09792 5.70712 5.7074C6.09764 5.31687 6.73081 5.31687 7.12133 5.7074L18.435 17.0211C18.8256 17.4116 18.8256 18.0448 18.435 18.4353Z"/>
<path d="M5.70711 18.4351C5.31658 18.0446 5.31658 17.4114 5.70711 17.0209L17.0208 5.7072C17.4113 5.31668 18.0445 5.31668 18.435 5.7072C18.8256 6.09772 18.8256 6.73089 18.435 7.12141L7.12132 18.4351C6.7308 18.8256 6.09763 18.8256 5.70711 18.4351Z"/>
</svg>
