<svg width="228" height="252" viewBox="0 0 228 252" fill="none" xmlns="http://www.w3.org/2000/svg">
<path d="M44.1702 25.922C94.3637 25.922 128.832 0 153.018 0C177.204 0 228 13.8617 228 124.792C228 235.722 159.665 252 133.063 252C8.48985 252.007 -44.7223 25.922 44.1702 25.922Z" fill="#F4F8FF"/>
<path d="M165.933 36.2629L170.058 32.1381L178.307 40.3877L174.183 44.5125L165.933 36.2629Z" fill="#D2DFF4"/>
<path d="M189.647 59.9812L193.772 55.8564L202.022 64.106L197.897 68.2308L189.647 59.9812Z" fill="#D2DFF4"/>
<path d="M188.622 40.3898L196.872 32.1403L200.996 36.2651L192.747 44.5146L188.622 40.3898Z" fill="#D2DFF4"/>
<path d="M167.958 179.958H60.0417C53.5958 179.958 48.375 174.737 48.375 168.292V80.7916H179.625V168.292C179.625 174.737 174.404 179.958 167.958 179.958Z" fill="#D0DFF9"/>
<path d="M179.625 80.7917H48.375V72.0417C48.375 65.5958 53.5958 60.375 60.0417 60.375H167.958C174.404 60.375 179.625 65.5958 179.625 72.0417V80.7917Z" fill="#2FDF84"/>
<path d="M115.744 109.159L119.571 107.421C121.793 106.412 124.401 107.491 125.258 109.778L126.734 113.715C127.16 114.853 128.058 115.751 129.202 116.183L133.139 117.658C135.426 118.516 136.505 121.129 135.496 123.346L133.758 127.173C133.256 128.281 133.256 129.553 133.758 130.661L135.496 134.488C136.505 136.71 135.426 139.318 133.139 140.175L129.202 141.651C128.064 142.077 127.166 142.975 126.734 144.118L125.258 148.056C124.401 150.343 121.788 151.422 119.571 150.413L115.744 148.674C114.636 148.173 113.364 148.173 112.256 148.674L108.429 150.413C106.207 151.422 103.599 150.343 102.742 148.056L101.266 144.118C100.84 142.981 99.9417 142.083 98.7984 141.651L94.8609 140.175C92.5742 139.318 91.4951 136.704 92.5042 134.488L94.2426 130.661C94.7442 129.553 94.7442 128.281 94.2426 127.173L92.5042 123.346C91.4951 121.123 92.5742 118.516 94.8609 117.658L98.7984 116.183C99.9359 115.757 100.834 114.858 101.266 113.715L102.742 109.778C103.599 107.491 106.213 106.412 108.429 107.421L112.256 109.159C113.364 109.661 114.636 109.661 115.744 109.159Z" fill="#2FDF84"/>
<path d="M127.125 143.558V191.625L114 179.958L100.875 191.625V143.558H127.125Z" fill="#2FDF84"/>
<path d="M73.1667 60.375H60.0417C53.5958 60.375 48.375 65.5958 48.375 72.0417V80.7917H61.5V72.0417C61.5 65.5958 66.7208 60.375 73.1667 60.375Z" fill="#00D2A0"/>
<path d="M115.867 148.056L114.391 144.118C113.965 142.981 113.067 142.083 111.923 141.651L107.986 140.175C105.699 139.318 104.62 136.704 105.629 134.488L107.368 130.661C107.869 129.553 107.869 128.281 107.368 127.173L105.629 123.346C104.62 121.123 105.699 118.516 107.986 117.658L111.923 116.183C113.061 115.757 113.959 114.858 114.391 113.715L115.867 109.778C116.007 109.41 116.252 109.13 116.468 108.833L115.744 109.159C114.636 109.661 113.364 109.661 112.256 109.159L108.429 107.421C106.207 106.412 103.599 107.491 102.742 109.778L101.266 113.715C100.84 114.853 99.9417 115.751 98.7984 116.183L94.8609 117.658C92.5742 118.516 91.4951 121.129 92.5042 123.346L94.2426 127.173C94.7442 128.281 94.7442 129.553 94.2426 130.661L92.5042 134.488C91.4951 136.71 92.5742 139.318 94.8609 140.175L98.7984 141.651C99.9359 142.077 100.834 142.975 101.266 144.118L102.742 148.056C103.599 150.343 106.213 151.422 108.429 150.413L112.256 148.674C113.364 148.173 114.636 148.173 115.744 148.674L116.468 149.001C116.246 148.703 116.001 148.423 115.867 148.056Z" fill="#00D2A0"/>
<path d="M114 143.558H100.875V191.625L114 179.958V143.558Z" fill="#00D2A0"/>
<path d="M61.5 168.292V80.7916H48.375V168.292C48.375 174.737 53.5958 179.958 60.0417 179.958H73.1667C66.7208 179.958 61.5 174.737 61.5 168.292Z" fill="#BCCFEE"/>
<path d="M106.685 155.161C105.571 155.161 104.451 154.945 103.401 154.513C101.213 153.609 99.4751 151.812 98.6467 149.59L97.1709 145.658L93.3267 144.276C91.1042 143.436 89.3134 141.709 88.4092 139.522C87.5051 137.334 87.5459 134.837 88.5259 132.685L90.2701 128.852L88.5317 125.16C87.5517 122.996 87.5109 120.499 88.4151 118.312C89.3251 116.124 91.1159 114.397 93.3326 113.563L97.2642 112.087L98.6526 108.243C99.4809 106.032 101.208 104.236 103.395 103.332C105.594 102.427 108.085 102.468 110.243 103.442L114 105.146L117.763 103.437C119.921 102.457 122.418 102.416 124.611 103.32C126.798 104.23 128.525 106.021 129.359 108.237L130.835 112.169L134.679 113.557C136.89 114.386 138.687 116.112 139.591 118.3C140.501 120.487 140.46 122.984 139.48 125.148L137.736 128.981L139.474 132.673C140.454 134.832 140.495 137.328 139.591 139.516C138.687 141.703 136.896 143.436 134.679 144.27L130.736 145.746L129.353 149.59C128.525 151.807 126.793 153.603 124.599 154.507C122.412 155.412 119.915 155.371 117.751 154.385L113.93 152.647L110.232 154.385C109.118 154.904 107.898 155.161 106.685 155.161ZM106.615 111.405L105.355 115.255C104.486 117.577 102.654 119.408 100.327 120.277L96.3951 121.753L98.2209 125.364C99.2417 127.627 99.2417 130.212 98.2209 132.469L96.4767 136.302L100.321 137.562C102.643 138.431 104.474 140.262 105.349 142.584L106.825 146.522L110.436 144.696C112.699 143.669 115.283 143.675 117.535 144.69L121.368 146.434L122.628 142.59C123.497 140.268 125.328 138.437 127.656 137.567L131.593 136.092L129.762 132.481C128.741 130.217 128.741 127.633 129.762 125.382L131.506 121.543L127.656 120.283C125.334 119.414 123.503 117.582 122.633 115.255L121.158 111.323L117.547 113.149H117.541C115.289 114.17 112.699 114.17 110.448 113.149L106.615 111.405Z" fill="#1E5DC5"/>
<path d="M127.125 196C126.075 196 125.037 195.621 124.22 194.897L114 185.815L103.78 194.897C102.491 196.035 100.659 196.321 99.0842 195.621C97.5092 194.909 96.5 193.346 96.5 191.625V143.558H105.25V181.883L111.095 176.686C112.752 175.216 115.248 175.216 116.905 176.686L122.75 181.883V143.558H131.5V191.625C131.5 193.346 130.491 194.909 128.916 195.621C128.338 195.877 127.732 196 127.125 196Z" fill="#1E5DC5"/>
<path d="M167.958 184.333H143.167V175.583H167.958C171.978 175.583 175.25 172.311 175.25 168.292V72.0417C175.25 68.0225 171.978 64.75 167.958 64.75H60.0417C56.0225 64.75 52.75 68.0225 52.75 72.0417V168.292C52.75 172.311 56.0225 175.583 60.0417 175.583H84.8333V184.333H60.0417C51.1925 184.333 44 177.141 44 168.292V72.0417C44 63.1925 51.1925 56 60.0417 56H167.958C176.808 56 184 63.1925 184 72.0417V168.292C184 177.141 176.808 184.333 167.958 184.333Z" fill="#1E5DC5"/>
<path d="M48.375 76.4167H179.625V85.1667H48.375V76.4167Z" fill="#1E5DC5"/>
</svg>
