<svg width="40" height="40" viewBox="0 0 40 40" fill="none" xmlns="http://www.w3.org/2000/svg">
<g clip-path="url(#clip0)">
<path d="M34.1422 5.85785C30.3647 2.08038 25.3421 0 20 0C14.6579 0 9.63531 2.08038 5.85785 5.85785C2.08038 9.63531 0 14.6579 0 20C0 25.3421 2.08038 30.3647 5.85785 34.1422C9.63531 37.9196 14.6579 40 20 40C25.3421 40 30.3647 37.9196 34.1422 34.1422C37.9196 30.3647 40 25.3421 40 20C40 14.6579 37.9196 9.63531 34.1422 5.85785ZM31.1078 23.9374C31.1078 24.5071 30.6442 24.9704 30.0745 24.9704C29.505 24.9704 29.0414 24.5071 29.0414 23.9374C29.0414 23.3676 29.505 22.9044 30.0745 22.9044C30.6442 22.9044 31.1078 23.3676 31.1078 23.9374ZM8.89221 16.0626C8.89221 15.4929 9.35577 15.0296 9.92554 15.0296C10.495 15.0296 10.9586 15.4929 10.9586 16.0626C10.9586 16.6324 10.495 17.0956 9.92554 17.0956C9.35577 17.0956 8.89221 16.6321 8.89221 16.0626ZM33.5144 31.3489V28.9694C33.5144 28.3221 32.9895 27.7975 32.3425 27.7975C31.6953 27.7975 31.1707 28.3221 31.1707 28.9694V33.6627C30.715 34.0359 30.2405 34.3863 29.7488 34.7131V30.5319C29.7488 29.8849 29.2242 29.36 28.577 29.36C27.93 29.36 27.4051 29.8849 27.4051 30.5319V36.026C26.6031 36.398 25.769 36.712 24.9075 36.9617V16.6763H27.93C28.334 18.089 29.6359 19.1263 31.1765 19.1263C33.0386 19.1263 34.5532 17.6117 34.5532 15.7495C34.5532 13.8876 33.0386 12.3727 31.1765 12.3727C29.8206 12.3727 28.6493 13.1766 28.1125 14.3326H23.7357C23.0884 14.3326 22.5638 14.8572 22.5638 15.5045V37.4695C21.7264 37.5919 20.8707 37.6562 20 37.6562C10.2643 37.6562 2.34375 29.7357 2.34375 20C2.34375 19.0594 2.41852 18.1357 2.56073 17.2345H6.75842C7.23602 18.5205 8.47534 19.4394 9.92523 19.4394C11.7874 19.4394 13.302 17.9245 13.302 16.0626C13.302 14.2007 11.7874 12.6859 9.92523 12.6859C8.47534 12.6859 7.23602 13.6047 6.75842 14.8907H3.09845C3.80005 12.5751 4.96521 10.4593 6.4856 8.65112V10.1514C6.4856 10.7983 7.01019 11.3232 7.65747 11.3232C8.30475 11.3232 8.82935 10.7983 8.82935 10.1514V6.33698C9.28497 5.96405 9.75952 5.61371 10.2509 5.28687V8.58856C10.2509 9.23584 10.7758 9.76044 11.4227 9.76044C12.07 9.76044 12.5946 9.23584 12.5946 8.58856V3.974C13.3124 3.64105 14.0555 3.35449 14.8209 3.1192V23.6792H11.9901C11.5128 22.3932 10.2734 21.4743 8.82324 21.4743C6.96136 21.4743 5.44647 22.9892 5.44647 24.8511C5.44647 26.7133 6.96136 28.2278 8.82324 28.2278C10.2734 28.2278 11.5128 27.309 11.9901 26.0229H15.9927C16.64 26.0229 17.1646 25.4984 17.1646 24.8511V2.57263C18.0881 2.42279 19.035 2.34375 20 2.34375C29.7357 2.34375 37.6562 10.2643 37.6562 20C37.6562 20.9406 37.5815 21.8643 37.4393 22.7655H33.2416C32.764 21.4795 31.5247 20.5606 30.0748 20.5606C28.2126 20.5606 26.698 22.0755 26.698 23.9374C26.698 25.7993 28.2126 27.3141 30.0748 27.3141C31.5247 27.3141 32.764 26.3953 33.2416 25.1093H36.9016C36.2 27.4249 35.0348 29.541 33.5144 31.3489ZM31.1765 14.7165C31.7462 14.7165 32.2098 15.1801 32.2098 15.7495C32.2098 16.3193 31.7462 16.7825 31.1765 16.7825C30.607 16.7825 30.1434 16.3193 30.1434 15.7495C30.1434 15.1801 30.607 14.7165 31.1765 14.7165ZM9.85657 24.8511C9.85657 25.4208 9.39301 25.8841 8.82355 25.8841C8.25378 25.8841 7.79022 25.4208 7.79022 24.8511C7.79022 24.2816 8.25378 23.8181 8.82355 23.8181C9.39301 23.8181 9.85657 24.2816 9.85657 24.8511Z" fill="#00D2A0"/>
<path d="M26.046 4.06299C24.1838 4.06299 22.6689 5.57758 22.6689 7.43976C22.6689 7.83618 22.7382 8.21643 22.8643 8.57013L19.1127 11.7034C18.8463 11.9258 18.6922 12.2554 18.6922 12.6027V27.4746L17.0839 28.3434C16.4888 27.82 15.7097 27.5017 14.8568 27.5017C12.9949 27.5017 11.48 29.0163 11.48 30.8785C11.48 32.7404 12.9949 34.2553 14.8568 34.2553C16.7189 34.2553 18.2335 32.7404 18.2335 30.8785C18.2335 30.7173 18.2216 30.5593 18.1996 30.4045L20.421 29.2043C20.8 28.9998 21.0359 28.6037 21.0359 28.1734V13.1508L24.3679 10.3682C24.8625 10.6526 25.4354 10.8165 26.046 10.8165C27.9079 10.8165 29.4228 9.30164 29.4228 7.43976C29.4225 5.57758 27.9079 4.06299 26.046 4.06299ZM13.8237 30.8785C13.8237 30.3087 14.2873 29.8455 14.8568 29.8455C15.4265 29.8455 15.8898 30.3087 15.8898 30.8785C15.8898 31.4479 15.4265 31.9115 14.8568 31.9115C14.2873 31.9115 13.8237 31.4479 13.8237 30.8785ZM25.0127 7.43976C25.0127 6.87 25.4763 6.40674 26.046 6.40674C26.6155 6.40674 27.079 6.87 27.079 7.43976C27.079 8.00922 26.6155 8.47278 26.046 8.47278C25.4763 8.47278 25.0127 8.00922 25.0127 7.43976Z" fill="#00D2A0"/>
</g>
<defs>
<clipPath id="clip0">
<rect width="40" height="40" fill="white"/>
</clipPath>
</defs>
</svg>
