<svg width="40" height="40" viewBox="0 0 40 40" fill="none" xmlns="http://www.w3.org/2000/svg">
<g clip-path="url(#clip0)">
<path d="M39.1076 0.8959C38.6925 0.480862 37.9467 -0.0116903 36.7379 0.000211571C33.2918 0.0328653 28.1484 4.23085 26.2197 6.01552H6.01561C2.69866 6.01552 0 8.71418 0 12.0311C0 12.6836 0.405272 13.2671 1.01654 13.495L14.0731 18.3635L7.9495 24.5332L3.22448 25.0786C2.13897 25.2037 1.13708 25.7191 0.403746 26.5297C0.0787351 26.8892 -0.0613401 27.3793 0.0250243 27.8563C0.111389 28.3333 0.414428 28.7431 0.845029 28.9659L5.89903 31.5782L4.364 33.1135C3.75365 33.7239 3.75365 34.7129 4.364 35.3233C4.66887 35.6282 5.06896 35.7808 5.46873 35.7808C5.86882 35.7808 6.2686 35.6282 6.57377 35.3233L8.17228 33.7245L11.2988 39.2106C11.5469 39.6458 11.9888 39.9357 12.4868 39.9903C12.5436 39.9964 12.6001 39.9995 12.6565 39.9995C13.0951 39.9995 13.5171 39.8146 13.815 39.4853L13.9282 39.3602C14.5584 38.6631 14.9499 37.8016 15.0601 36.8684L15.6289 32.0451L21.5405 26.1131L26.3393 38.9827C26.567 39.5939 27.1508 39.9992 27.8033 39.9992C31.1202 39.9992 33.8189 37.3008 33.8189 33.9836C33.8189 33.1208 33.1191 32.4214 32.2564 32.4214C31.3933 32.4214 30.6939 33.1208 30.6939 33.9836C30.6939 35.2201 29.9136 36.2779 28.8195 36.6899L23.9675 23.6775L26.5334 21.1025C27.1426 20.4912 27.1407 19.5018 26.5295 18.8927C25.9182 18.2835 24.9291 18.2854 24.32 18.8966L19.4155 23.8182C19.4155 23.8182 19.4155 23.8185 19.4152 23.8185L13.034 30.2223C12.7868 30.4704 12.63 30.7942 12.5891 31.1421L12.196 34.4734L9.87332 30.3975C9.72379 30.1353 9.50162 29.9217 9.23307 29.7832L5.67015 27.9414L8.8519 27.5743C9.20408 27.5337 9.53214 27.3744 9.78177 27.1226L16.3803 20.475L21.2652 15.5535C21.8731 14.941 21.8694 13.9519 21.2573 13.344C20.6448 12.7361 19.6554 12.7394 19.0475 13.3519L16.4898 15.9288L3.30932 11.0149C3.72161 9.92084 4.77934 9.14051 6.01561 9.14051H26.8462C27.2607 9.14051 27.658 8.97571 27.951 8.68274C28.843 7.79072 30.5508 6.35243 32.355 5.14973C35.1552 3.28328 36.4403 3.12795 36.7675 3.1249C36.8102 3.12429 36.8444 3.12642 36.8715 3.12887C36.8731 3.14809 36.8746 3.17098 36.8749 3.19783C36.9036 5.07893 33.5598 9.80518 31.2917 12.0732C31.2899 12.0751 31.2878 12.0772 31.2856 12.0793L31.1584 12.2078C30.8611 12.5014 30.6939 12.9018 30.6939 13.3196V26.1717C30.6939 27.0344 31.3933 27.7342 32.2564 27.7342C33.1191 27.7342 33.8189 27.0344 33.8189 26.1717V13.9568C34.7716 12.9537 36.1843 11.27 37.4605 9.3526C39.1689 6.78608 40.0231 4.6993 39.9996 3.15023C39.9822 2.00674 39.5049 1.29293 39.1076 0.8959Z" fill="#1E5DC5"/>
</g>
<defs>
<clipPath id="clip0">
<rect width="40" height="40" fill="white"/>
</clipPath>
</defs>
</svg>
