<svg width="40" height="40" viewBox="0 0 40 40" fill="none" xmlns="http://www.w3.org/2000/svg">
<g clip-path="url(#clip0)">
<path d="M10.5469 28.2031C8.60836 28.2031 7.03125 29.7802 7.03125 31.7187C7.03125 33.6573 8.60836 35.2344 10.5469 35.2344C12.4854 35.2344 14.0625 33.6573 14.0625 31.7187C14.0625 29.7802 12.4854 28.2031 10.5469 28.2031ZM10.5469 32.8906C9.9007 32.8906 9.375 32.3649 9.375 31.7187C9.375 31.0726 9.9007 30.5469 10.5469 30.5469C11.193 30.5469 11.7187 31.0726 11.7187 31.7187C11.7187 32.3649 11.193 32.8906 10.5469 32.8906Z" fill="#1E5DC5"/>
<path d="M39.5411 23.7585L35.3124 20.5164V18.5493C36.6764 18.0656 37.6562 16.763 37.6562 15.2353C37.6562 14.1542 37.1684 13.1487 36.3179 12.4765C36.3167 12.4756 36.3154 12.4746 36.3142 12.4737C36.3138 12.4734 36.3135 12.4731 36.3131 12.4728C36.1886 12.3754 21.6745 1.02246 21.5984 0.969257C20.8082 0.362695 19.8208 0.000976562 18.75 0.000976562C16.834 0.000976562 15.1892 1.16129 14.469 2.77738C14.4533 2.8123 3.05531 28.3734 3.05531 28.3734C2.58312 29.4293 2.34375 30.5552 2.34375 31.7197V37.6572H1.17187C0.524686 37.6572 0 38.1819 0 38.8291C0 39.4762 0.524686 40.0009 1.17187 40.0009C1.34945 40.0009 19.7543 40.0009 19.9218 40.0009C20.569 40.0009 21.0937 39.4762 21.0937 38.8291C21.0937 38.1819 20.569 37.6572 19.9218 37.6572H18.75V31.8217L22.1883 12.2209C33.2384 18.7879 32.4643 18.3709 32.9687 18.5495V20.5164L28.74 23.7584C28.7387 23.7594 28.7376 23.7606 28.7363 23.7616C28.2964 24.1011 28.1545 24.707 28.4031 25.2084C28.4039 25.2097 28.4042 25.2111 28.4049 25.2124L30.7487 29.8999C31.0381 30.4788 31.7419 30.7134 32.3209 30.424C32.8998 30.1345 33.1344 29.4306 32.8449 28.8517L30.9339 25.0297L34.1406 22.5713L37.3472 25.0298L35.4362 28.8519C35.1467 29.4308 35.3813 30.1347 35.9602 30.4241C36.5394 30.7137 37.2431 30.4787 37.5324 29.9001L39.8762 25.2126C40.1274 24.7102 39.9868 24.1002 39.5411 23.7585ZM16.4062 37.6572H4.68749V31.7197C4.68749 28.4705 7.32194 25.8603 10.5469 25.8603C13.7777 25.8603 16.4062 28.4888 16.4062 31.7197V37.6572ZM17.2234 26.959C15.7343 24.8766 13.2965 23.5166 10.5469 23.5166C9.49756 23.5166 8.47741 23.716 7.53194 24.0892L14.9569 7.43792C15.8097 8.61104 17.1918 9.37597 18.75 9.37597C19.3145 9.37597 19.856 9.27558 20.3576 9.0919C20.3067 9.38214 17.3317 26.3416 17.2234 26.959ZM18.75 7.03222C17.4576 7.03222 16.4062 5.98081 16.4062 4.68847C16.4062 3.39613 17.4576 2.34472 18.75 2.34472C20.0423 2.34472 21.0937 3.39613 21.0937 4.68847C21.0937 5.98081 20.0423 7.03222 18.75 7.03222ZM30.6928 14.5486L22.6214 9.75182C23.3473 5.61386 23.3693 5.4966 23.3909 5.3423L32.2521 12.2722C31.4594 12.7792 30.8824 13.5947 30.6928 14.5486ZM34.1406 16.4072C33.509 16.4072 32.9687 15.8967 32.9687 15.2353C32.9687 14.5892 33.4944 14.0635 34.1406 14.0635C34.7842 14.0635 35.3124 14.5886 35.3124 15.2353C35.3124 15.8815 34.7867 16.4072 34.1406 16.4072Z" fill="#1E5DC5"/>
</g>
<defs>
<clipPath id="clip0">
<rect width="40" height="40" fill="white"/>
</clipPath>
</defs>
</svg>
