<svg width="40" height="40" viewBox="0 0 40 40" fill="none" xmlns="http://www.w3.org/2000/svg">
<g clip-path="url(#clip0)">
<path d="M20.1255 20.1737L23.5804 20.2228H23.5972C24.0717 20.2228 24.5002 19.935 24.6787 19.4941L25.8161 16.6889C25.9968 16.2427 25.8854 15.7315 25.535 15.401L23.021 13.0307L25.4987 10.6223C25.8439 10.2866 25.9476 9.77359 25.7599 9.33047L24.5807 6.54269C24.3931 6.09926 23.9512 5.81667 23.4714 5.83071L20.0174 5.93233L20.0666 2.47743C20.0733 1.99586 19.784 1.55977 19.3378 1.3788L16.5329 0.241711C16.0868 0.0610463 15.5753 0.172436 15.2448 0.522778L12.8745 3.03682L10.466 0.559094C10.1303 0.21394 9.61733 0.11018 9.17422 0.297558L6.38643 1.47706C5.94332 1.66475 5.66042 2.10512 5.67446 2.58638L5.77608 6.04037L2.32118 5.99123C1.83656 5.98452 1.40352 6.27383 1.22285 6.71999L0.0854607 9.52487C-0.0952036 9.97104 0.0161856 10.4825 0.366528 10.813L2.88057 13.1833L0.402844 15.5918C0.0576896 15.9275 -0.0460703 16.4405 0.141308 16.8836L1.32081 19.6714C1.5085 20.1145 1.94978 20.3986 2.43013 20.3833L5.88411 20.2817L5.83498 23.7366C5.82827 24.2179 6.11757 24.6543 6.56374 24.835L9.36892 25.9723C9.51113 26.0297 9.65975 26.0578 9.80715 26.0578C10.1224 26.0578 10.4319 25.9299 10.6568 25.6913L13.0274 23.1772L15.4355 25.655C15.7712 26.0001 16.2842 26.1039 16.7276 25.9162L19.5151 24.737C19.9585 24.5493 20.2411 24.1086 20.2271 23.6274L20.1255 20.1737ZM19.6152 17.8315C19.2743 17.8266 18.9478 17.9715 18.7223 18.2276C18.5465 18.4275 18.3551 18.6225 18.1537 18.8074C17.9038 19.0366 17.7662 19.3631 17.7759 19.7019L17.8699 22.898L16.5531 23.4552L14.3247 21.1625C14.0885 20.9192 13.7583 20.7908 13.4198 20.8106C13.147 20.8265 12.8736 20.828 12.6075 20.8152C12.2669 20.7984 11.9355 20.9321 11.7014 21.1802L9.50595 23.5087L8.18087 22.9715L8.22695 19.7345C8.23183 19.3979 8.09115 19.0757 7.8409 18.8504C7.65292 18.6814 7.47134 18.5004 7.30074 18.3127C7.07155 18.0603 6.74319 17.9212 6.40261 17.9309L3.15981 18.0262L2.60286 16.7093L4.96553 14.4126C5.2054 14.1797 5.33358 13.855 5.31801 13.5208C5.30733 13.2929 5.30703 13.06 5.3171 12.8284C5.33205 12.489 5.19899 12.1604 4.9518 11.9275L2.54915 9.6622L3.08626 8.33712L6.42519 8.38442C6.76058 8.38961 7.0804 8.25015 7.30562 8.00234C7.45089 7.84243 7.60317 7.68832 7.75759 7.54488C8.00417 7.3157 8.13967 6.9916 8.12991 6.6553L8.03164 3.31606L9.34847 2.7588L11.677 5.15444C11.9116 5.39583 12.2382 5.52431 12.5748 5.50661C12.7851 5.49563 13.0011 5.49379 13.2178 5.50081C13.5526 5.51241 13.8755 5.37844 14.105 5.13491L16.3956 2.7054L17.7207 3.24251L17.674 6.54452C17.6691 6.88387 17.8122 7.20858 18.0661 7.4338C18.2389 7.5873 18.4061 7.74966 18.5627 7.91689C18.7915 8.16073 19.1123 8.29379 19.4483 8.28494L22.7417 8.18789L23.299 9.50473L20.9726 11.7658C20.7282 12.0035 20.6 12.3362 20.6214 12.6764C20.6372 12.9288 20.6406 13.1852 20.6315 13.4388C20.6189 13.7748 20.7523 14.1001 20.9971 14.3311L23.3524 16.5522L22.8153 17.8769L19.6152 17.8315Z" fill="#1E5DC5"/>
<path d="M14.7273 8.8328C13.5713 8.36436 12.3021 8.37382 11.1537 8.85996C10.005 9.3458 9.11454 10.25 8.64579 11.406C8.17735 12.5617 8.18681 13.831 8.67295 14.9797C9.42552 16.7588 11.1589 17.8297 12.9793 17.8294C13.5851 17.8294 14.2006 17.711 14.7923 17.4604C15.941 16.9743 16.8318 16.0704 17.3003 14.9144C17.7687 13.7587 17.7593 12.4894 17.2734 11.3407C16.7873 10.1921 15.883 9.30155 14.7273 8.8328ZM15.1366 14.0373C14.9025 14.615 14.457 15.0672 13.8826 15.3102C12.6973 15.8119 11.3246 15.2552 10.8229 14.0699C10.58 13.4956 10.5751 12.8608 10.8095 12.2831C11.0439 11.7051 11.4891 11.2532 12.0635 11.0099C12.6375 10.767 13.2723 10.7621 13.8503 10.9965C14.428 11.2309 14.8802 11.6761 15.1232 12.2505C15.3661 12.8248 15.371 13.4593 15.1366 14.0373Z" fill="#1E5DC5"/>
<path d="M39.2555 27.8383L37.2258 27.0491L38.1029 25.0557C38.2967 24.615 38.2002 24.1008 37.8596 23.7602L36.3045 22.205C35.9642 21.8647 35.4497 21.768 35.009 21.9621L33.0159 22.8392L32.2264 20.8094C32.0518 20.3608 31.6197 20.0654 31.1384 20.0654H28.9387C28.4572 20.0654 28.0253 20.3608 27.8508 20.8098L27.0616 22.8392L25.0682 21.9624C24.6278 21.7683 24.1133 21.8651 23.773 22.2053L22.2175 23.7605C21.8773 24.1011 21.7805 24.6156 21.9746 25.0563L22.8517 27.0494L20.822 27.8389C20.3734 28.0134 20.0776 28.4453 20.0776 28.9268V31.1262C20.0776 31.6078 20.3734 32.0399 20.822 32.2142L22.8517 33.0037L21.9746 34.9968C21.7808 35.4375 21.8773 35.952 22.2178 36.2923L23.773 37.8478C24.1133 38.188 24.6278 38.2845 25.0685 38.0907L27.0619 37.2136L27.8514 39.243C28.0256 39.6919 28.4578 39.9873 28.939 39.9873H31.1387C31.6203 39.9873 32.0521 39.6919 32.2267 39.243L33.0159 37.2133L35.0093 38.0904C35.4503 38.2845 35.9645 38.1877 36.3048 37.8471L37.8599 36.292C38.2005 35.9517 38.297 35.4372 38.1032 34.9965L37.2258 33.0031L39.2555 32.2136C39.7041 32.0393 39.9998 31.6072 39.9998 31.1259V28.9262C39.9998 28.445 39.7044 28.0128 39.2555 27.8383ZM37.6652 30.3273L35.6718 31.1027C35.3538 31.2263 35.106 31.4827 34.9931 31.8043C34.9357 31.9685 34.8695 32.1312 34.7963 32.2877C34.6535 32.5926 34.6495 32.9442 34.785 33.2524L35.6447 35.2058L35.2186 35.6319L33.2896 34.7832C32.9771 34.6458 32.6201 34.6519 32.3128 34.8003C32.1489 34.8793 31.9765 34.951 31.7998 35.0142C31.4802 35.1277 31.226 35.3746 31.1033 35.6908L30.3401 37.6527H29.7377L28.9744 35.6908C28.8518 35.3749 28.5975 35.128 28.2783 35.0142C28.1016 34.9513 27.9289 34.8793 27.7647 34.8003C27.4571 34.6522 27.1004 34.6461 26.7882 34.7835L24.8591 35.6322L24.4331 35.2061L25.2925 33.2527C25.428 32.9445 25.424 32.5926 25.2815 32.2877C25.2083 32.1315 25.1417 31.9688 25.0844 31.8046C24.9714 31.483 24.7236 31.2266 24.4056 31.103L22.4122 30.3276V29.7252L24.4404 28.9363C24.752 28.8151 24.9968 28.5661 25.1124 28.2524C25.1664 28.1059 25.2284 27.9588 25.2968 27.8154C25.4426 27.5087 25.4481 27.1541 25.3114 26.8434L24.4328 24.8466L24.8588 24.4206L26.8803 25.3099C27.1867 25.4448 27.5361 25.4414 27.8401 25.301C27.9744 25.2388 28.1114 25.1823 28.2469 25.1332C28.5634 25.0184 28.8145 24.7728 28.9366 24.4591L29.7371 22.4H30.3398L31.1406 24.4591C31.2626 24.7725 31.5138 25.0181 31.83 25.1332C31.9658 25.1823 32.1028 25.2388 32.2374 25.301C32.5413 25.4414 32.8908 25.4445 33.1969 25.3099L35.2183 24.4203L35.6444 24.8466L34.7658 26.8431C34.6294 27.1538 34.6345 27.5087 34.7804 27.8151C34.8485 27.9579 34.9104 28.105 34.965 28.2527C35.0807 28.5661 35.3255 28.8148 35.637 28.936L37.6652 29.7249V30.3273Z" fill="#1E5DC5"/>
<path d="M30.039 26.3667C27.9977 26.3667 26.3369 28.0272 26.3369 30.0685C26.3369 32.1098 27.9977 33.7706 30.039 33.7706C32.08 33.7706 33.7408 32.1098 33.7408 30.0685C33.7408 28.0275 32.08 26.3667 30.039 26.3667ZM30.039 31.436C29.2849 31.436 28.6715 30.8226 28.6715 30.0685C28.6715 29.3147 29.2849 28.7013 30.039 28.7013C30.7928 28.7013 31.4062 29.3147 31.4062 30.0685C31.4062 30.8226 30.7928 31.436 30.039 31.436Z" fill="#1E5DC5"/>
</g>
<defs>
<clipPath id="clip0">
<rect width="40" height="40" fill="white"/>
</clipPath>
</defs>
</svg>
