<svg width="40" height="40" viewBox="0 0 40 40" fill="none" xmlns="http://www.w3.org/2000/svg">
<g clip-path="url(#clip0)">
<path d="M37.6563 26.0602V9.96889L39.2383 9.37807C39.6954 9.20747 39.9991 8.77077 40 8.28249C40.0009 7.7942 39.6988 7.35658 39.2423 7.18416L20.4141 0.0747833C20.1471 -0.0262299 19.8529 -0.0262299 19.5862 0.0747833L0.758059 7.18416C0.300905 7.35658 -0.000913454 7.7942 2.07708e-06 8.28249C0.000917608 8.77077 0.304568 9.20747 0.762026 9.37807L7.10938 11.7487V20.2921C7.10938 20.7712 7.40112 21.2021 7.84607 21.38C11.7288 22.9334 15.8182 23.7207 20 23.7207C24.1818 23.7207 28.2712 22.9334 32.1539 21.38C32.5989 21.2021 32.8906 20.7712 32.8906 20.2921V11.7487L35.3125 10.8441V26.0602C33.9487 26.5439 32.9688 27.8464 32.9688 29.3741C32.9688 30.2738 33.309 31.0953 33.8669 31.7178C33.309 32.3404 32.9688 33.1619 32.9688 34.0616V38.8272C32.9688 39.4745 33.4934 39.9991 34.1406 39.9991H38.8281C39.4754 39.9991 40 39.4745 40 38.8272V34.0616C40 33.1619 39.6597 32.3404 39.1019 31.7178C39.66 31.0953 40 30.2738 40 29.3741C40 27.8464 39.0204 26.5439 37.6563 26.0602ZM20 2.42372L35.4947 8.27425C34.8087 8.53059 20.6833 13.8056 20 14.0607C19.4839 13.8681 5.61737 8.68959 4.50531 8.27425L20 2.42372ZM30.5469 19.4879C23.7152 22.02 16.2848 22.02 9.45313 19.4879V12.6239L19.5902 16.4096C19.8544 16.5082 20.1456 16.5082 20.4102 16.4096L30.5469 12.6239V19.4879ZM36.4844 28.2022C37.1304 28.2022 37.6563 28.728 37.6563 29.3741C37.6563 30.0205 37.1304 30.546 36.4844 30.546C35.8383 30.546 35.3125 30.0205 35.3125 29.3741C35.3125 28.728 35.8383 28.2022 36.4844 28.2022ZM37.6563 37.6553H35.3125V34.0616C35.3125 33.4155 35.8383 32.8897 36.4844 32.8897C37.1304 32.8897 37.6563 33.4155 37.6563 34.0616V37.6553Z" fill="#00D2A0"/>
<path d="M21.1719 8.28125C21.1719 8.92853 20.6473 9.45312 20 9.45312C19.3527 9.45312 18.8281 8.92853 18.8281 8.28125C18.8281 7.63397 19.3527 7.10938 20 7.10938C20.6473 7.10938 21.1719 7.63397 21.1719 8.28125Z" fill="#00D2A0"/>
</g>
<defs>
<clipPath id="clip0">
<rect width="40" height="40" fill="white"/>
</clipPath>
</defs>
</svg>
