<svg width="86" height="86" viewBox="0 0 86 86" fill="none" xmlns="http://www.w3.org/2000/svg">
<g clip-path="url(#clip0)">
<path d="M25.4728 37.3115L25.4697 37.3662C25.2578 41.0775 27.3366 44.5542 30.7672 46.221L30.8024 46.2382C32.0119 46.8168 33.0032 47.7706 33.6287 48.9566L33.6427 48.9824C35.3713 52.2738 38.9466 54.269 42.7579 54.0689L42.8158 54.0658C44.198 53.9884 45.5701 54.3449 46.7397 55.086C49.967 57.1047 54.0637 57.1047 57.291 55.086C58.4606 54.3449 59.8327 53.9884 61.215 54.0658L61.2728 54.0689C65.0779 54.2706 68.6578 52.2738 70.3903 48.9769L70.3989 48.959C71.0267 47.7698 72.0204 46.8144 73.2338 46.2351L73.2619 46.221C76.6925 44.5534 78.7721 41.0775 78.5595 37.3654L78.5564 37.3138C78.486 36.0067 78.8488 34.7128 79.5899 33.6331C81.7235 30.5215 81.7235 26.4185 79.5907 23.3061C78.8503 22.2272 78.486 20.9341 78.5564 19.6269L78.5595 19.5722C78.7721 15.8601 76.6925 12.3842 73.2588 10.7158L73.2275 10.7001C72.0204 10.1232 71.0314 9.17404 70.4052 7.99116L70.3872 7.95598C68.6578 4.66454 65.0779 2.67014 61.2728 2.8695L61.2142 2.87263C59.8327 2.95003 58.4606 2.59352 57.2918 1.85236H57.2903C54.0629 -0.166282 49.9662 -0.166282 46.7389 1.85236C45.5693 2.59274 44.1972 2.94924 42.815 2.87184L42.7571 2.86872C38.9513 2.66701 35.3721 4.66376 33.6435 7.95441L33.6302 7.97865C33.004 9.16701 32.0119 10.1216 30.8009 10.7009L30.768 10.7166C27.3374 12.3834 25.2578 15.8601 25.4704 19.5722L25.4736 19.6238C25.5439 20.931 25.1812 22.2249 24.44 23.3038C22.3065 26.4162 22.3065 30.5199 24.44 33.6315C25.1804 34.7104 25.5439 36.0043 25.4728 37.3115ZM27.0755 25.1223C28.2193 23.457 28.7799 21.4602 28.6704 19.4432L28.6673 19.3884C28.5547 16.9288 29.9354 14.6444 32.1643 13.5991L32.1917 13.5858C34.0204 12.7102 35.5175 11.2685 36.462 9.47504L36.4776 9.44533C37.6261 7.25782 40.0317 5.93186 42.5867 6.0679L42.643 6.07024C44.6874 6.18517 46.7162 5.65823 48.4456 4.56213C50.6292 3.1963 53.3999 3.1963 55.5836 4.56213C57.3129 5.65666 59.3417 6.18439 61.3854 6.07102L61.4417 6.0679C64.0092 5.93343 66.4031 7.25782 67.5484 9.43908L67.5695 9.47895C68.514 11.2701 70.0096 12.7094 71.8359 13.5843L71.8625 13.5975C74.1266 14.6983 75.501 16.9711 75.3626 19.3892L75.3595 19.4463C75.2501 21.4634 75.8114 23.4593 76.9552 25.1246C78.3374 27.1409 78.3367 29.7991 76.9536 31.8146C75.8106 33.4806 75.2501 35.4774 75.3595 37.4944L75.3626 37.5484C75.501 39.9665 74.1266 42.2401 71.8617 43.3416L71.8382 43.3526C70.008 44.2298 68.5093 45.673 67.5641 47.4696L67.5523 47.4931C66.4031 49.6806 64.0013 51.0073 61.4425 50.8705L61.387 50.8674C59.3425 50.7532 57.3129 51.2809 55.5828 52.3763C53.3999 53.7413 50.6292 53.7413 48.4464 52.3763C46.8734 51.3795 45.0486 50.8509 43.1863 50.8525C43.0057 50.8525 42.8244 50.8572 42.643 50.8674L42.5867 50.8697C40.0653 51.03 37.68 49.7103 36.4753 47.4891L36.4588 47.4587C35.516 45.6683 34.0211 44.2298 32.1956 43.3549L32.1659 43.3401C29.901 42.2393 28.5266 39.9658 28.6657 37.5484L28.6688 37.4913C28.7775 35.4742 28.2162 33.4775 27.0732 31.813C25.6917 29.7967 25.6925 27.1385 27.0755 25.1238V25.1223Z" fill="#00D2A0"/>
<path d="M41.6834 45.0218C42.4332 45.4901 43.4206 45.261 43.8889 44.5113L62.8565 14.1253C63.1661 13.6398 63.1919 13.0253 62.9229 12.5163C62.654 12.0066 62.1317 11.6814 61.5563 11.6634C60.9809 11.6454 60.4399 11.9378 60.1397 12.4296L41.1729 42.8155C40.7046 43.5661 40.9329 44.5535 41.6834 45.0218Z" fill="#00D2A0"/>
<path d="M43.3832 28.5482C47.2821 28.5482 50.4547 24.9308 50.4547 20.4846C50.4547 16.0384 47.2821 12.4218 43.3832 12.4218C39.4843 12.4218 36.3125 16.0384 36.3125 20.4846C36.3125 24.9308 39.4843 28.5482 43.3832 28.5482ZM43.3832 15.6241C45.5168 15.6241 47.2524 17.8045 47.2524 20.4846C47.2524 23.1646 45.5168 25.3459 43.3832 25.3459C41.2504 25.3459 39.5148 23.1639 39.5148 20.4846C39.5148 17.8053 41.2504 15.6241 43.3832 15.6241Z" fill="#00D2A0"/>
<path d="M53.5742 36.4554C53.5742 40.9016 56.746 44.5182 60.6449 44.5182C64.5438 44.5182 67.7164 40.9008 67.7164 36.4554C67.7164 32.0108 64.5446 28.3926 60.6457 28.3926C56.746 28.3926 53.5742 32.0085 53.5742 36.4554ZM64.5141 36.4554C64.5141 39.1355 62.7785 41.3159 60.6449 41.3159C58.5121 41.3159 56.7765 39.1355 56.7765 36.4554C56.7765 33.7754 58.5121 31.5949 60.6449 31.5949C62.7785 31.5949 64.5141 33.7738 64.5141 36.4554Z" fill="#00D2A0"/>
<path d="M85.7921 63.0434C83.6718 59.2805 78.97 57.8474 75.1117 59.7879L62.5691 65.714C60.8374 62.4937 57.5155 60.4438 53.8597 60.3406L42.2811 60.0216C40.4477 59.9693 38.6488 59.5041 37.0187 58.6629L35.8405 58.0523C29.808 54.9078 22.6177 54.9156 16.5915 58.0726L16.665 55.4035C16.6892 54.5192 15.9926 53.7828 15.1084 53.7585L2.41173 53.4091C1.52749 53.3848 0.791809 54.0814 0.767573 54.9657L0.000613725 82.8287C-0.0236226 83.7129 0.672973 84.4494 1.5572 84.4737L14.2538 84.8231H14.2984C15.1654 84.8223 15.8745 84.132 15.8988 83.2658L15.9347 81.9328L19.2332 80.1666C20.5279 79.47 22.0423 79.3043 23.4566 79.7046L43.1528 85.2328C43.1872 85.243 43.2216 85.2508 43.2568 85.2586C44.6805 85.5565 46.1315 85.7058 47.5865 85.705C50.6668 85.7066 53.7112 85.0428 56.5108 83.7575C56.5796 83.7262 56.6461 83.6903 56.7094 83.6496L85.2675 65.1761C85.9797 64.7164 86.2096 63.7806 85.7921 63.0434ZM3.24592 81.3159L3.92453 56.6552L13.4204 56.9163L12.741 81.5778L3.24592 81.3159ZM55.0676 80.8961C51.5893 82.466 47.7045 82.8991 43.9659 82.1345L24.322 76.6219C22.1119 75.9964 19.7445 76.256 17.722 77.3435L16.0364 78.2457L16.4883 61.8487C21.8288 58.2962 28.6791 57.9311 34.3676 60.8949L35.5457 61.5055C37.605 62.5688 39.877 63.1559 42.1935 63.2224L53.7722 63.5414C57.0245 63.6344 59.7866 65.9501 60.4465 69.1368L43.1997 68.6622C42.3155 68.638 41.5798 69.3346 41.5555 70.2188C41.5313 71.1031 42.2279 71.8395 43.1121 71.8638L62.1454 72.3876H62.1907C63.057 72.3868 63.7661 71.6965 63.7903 70.8302C63.8099 70.1344 63.7575 69.4378 63.6355 68.7529L76.4979 62.6743L76.5354 62.6564C78.3602 61.7323 80.5672 62.0411 82.0675 63.4304L55.0676 80.8961Z" fill="#00D2A0"/>
</g>
<defs>
<clipPath id="clip0">
<rect width="86" height="86" fill="white"/>
</clipPath>
</defs>
</svg>
