<svg width="86" height="86" viewBox="0 0 86 86" fill="none" xmlns="http://www.w3.org/2000/svg">
<path d="M33.3076 39.3579C43.4466 39.3579 51.666 31.139 51.666 20.9995C51.666 10.8606 43.4466 2.64111 33.3076 2.64111C23.1687 2.64111 14.9492 10.8606 14.9492 20.9995C14.959 31.1352 23.1725 39.3481 33.3076 39.3579ZM33.3076 6.1147C41.5287 6.1147 48.1924 12.7795 48.1924 20.9995C48.1924 29.2206 41.5287 35.8843 33.3076 35.8843C25.0871 35.8843 18.4234 29.2206 18.4234 20.9995C18.4326 12.7828 25.0909 6.12448 33.3076 6.1147Z" fill="#1E5DC5"/>
<path d="M81.0167 49.623L66.045 41.6512C65.5292 41.3699 64.9047 41.3764 64.3948 41.668L50.6911 49.1713C45.6715 45.437 39.6616 43.492 33.271 43.492C25.316 43.5094 17.9344 46.6012 12.4631 52.2284C6.92228 57.9076 3.88255 65.6715 3.90047 74.0951C3.90318 75.0535 4.67914 75.8295 5.63699 75.8322L53.9561 75.7453C56.2275 78.5657 59.1478 80.7942 62.4666 82.2413L64.4817 83.1269C64.7005 83.2247 64.9378 83.2719 65.1768 83.2659C65.4146 83.2616 65.6503 83.2149 65.8713 83.1269L68.1464 82.137C76.506 78.6298 81.9431 70.4472 81.9371 61.3812V51.1684C81.9376 50.5233 81.5841 49.9298 81.0167 49.623ZM7.42619 72.3412C7.79054 65.5151 10.448 59.2804 14.9642 54.6426C19.7746 49.6925 26.2879 46.9656 33.2878 46.9656H33.3399C39.0892 46.9656 44.4737 48.7722 48.9372 52.1936V61.5898C48.9399 65.3202 49.8706 68.9909 51.6462 72.2712L7.42619 72.3412ZM78.4635 61.3812C78.4668 69.0571 73.8567 75.9826 66.7743 78.9414H66.7569L65.1768 79.6186L63.8562 79.0452C56.9101 76.0103 52.4184 69.1533 52.4107 61.5729V52.1762L65.2457 45.1422L78.4635 52.1936V61.3812Z" fill="#1E5DC5"/>
<path d="M60.4882 60.4607C59.8648 59.732 58.7685 59.6468 58.0392 60.2702C57.3105 60.8935 57.2253 61.9899 57.8486 62.7186L61.7909 67.3211C62.1221 67.7061 62.6037 67.9276 63.1109 67.9292C63.5089 67.9325 63.8955 67.7978 64.2051 67.547L73.3759 60.0964C74.1192 59.4871 74.2278 58.3908 73.6186 57.6469C73.0099 56.9035 71.9136 56.7949 71.1702 57.4042L63.3194 63.7959L60.4882 60.4607Z" fill="#1E5DC5"/>
</svg>
