<svg width="86" height="86" viewBox="0 0 86 86" fill="none" xmlns="http://www.w3.org/2000/svg">
<g clip-path="url(#clip0)">
<path d="M84.7756 22.5829C84.7755 22.5829 84.7755 22.5829 84.7753 22.5829L84.7724 22.58L79.2214 21.7881C78.4412 21.6769 77.8988 20.9543 78.0099 20.1741C78.0632 19.7992 78.2635 19.461 78.5664 19.2337L83.0529 15.8689C83.6835 15.396 83.8112 14.5016 83.3383 13.8711L78.2011 7.02145C77.7282 6.3909 76.8338 6.26318 76.2033 6.73605L71.7182 10.1009C71.0903 10.5774 70.1953 10.4546 69.7188 9.82676C69.4875 9.52191 69.3883 9.1368 69.4436 8.75811L70.237 3.20708C70.3488 2.42687 69.8071 1.70391 69.0271 1.59189C69.0265 1.59189 69.026 1.59171 69.0255 1.59171L60.5548 0.381616C59.7748 0.269596 59.0515 0.811143 58.9394 1.59136C58.9394 1.59153 58.9394 1.59153 58.9394 1.59171L58.146 7.14275C58.0349 7.92296 57.3123 8.4654 56.5321 8.35427C56.1571 8.30094 55.8189 8.10062 55.5917 7.79774L52.2282 3.31125C51.7554 2.68069 50.861 2.55298 50.2304 3.02585L45.9423 6.24374C44.0023 6.03753 42.0459 6.03753 40.1059 6.24374C27.4009 7.69589 17.4378 17.828 16.1993 30.5556C16.1608 30.9594 16.1465 31.3604 16.1265 31.7614H15.6984C15.0213 31.7626 14.4382 32.2396 14.3028 32.903L13.3168 37.5921L9.36684 34.868C8.79996 34.4768 8.03438 34.5465 7.54741 35.0335L3.26641 39.3145C2.78016 39.8013 2.71059 40.5658 3.10088 41.1325L5.81218 45.0753L1.12163 46.0613C0.465562 46.2051 -0.00142374 46.7868 3.26146e-06 47.4584V53.1664C-0.000353489 53.8414 0.472519 54.4243 1.13304 54.5634L5.82359 55.5495L3.11229 59.4923C2.72201 60.059 2.79157 60.8235 3.27782 61.3103L7.55883 65.5913C8.04579 66.0783 8.81138 66.148 9.37825 65.7568L13.3211 63.0384L14.3071 67.7289C14.4425 68.3923 15.0256 68.8693 15.7027 68.8705H21.4107C22.0857 68.8709 22.6686 68.398 22.8078 67.7375L23.7938 63.0469L27.7366 65.7582C28.3033 66.1485 29.0678 66.079 29.5546 65.5927L31.7708 63.3694V67.4364C31.7772 69.4665 32.8647 71.3392 34.6248 72.351V80.2794C34.6248 83.4318 37.1803 85.9874 40.3328 85.9874H46.0408C49.1932 85.9874 51.7488 83.4318 51.7488 80.2794V72.351C53.5088 71.3392 54.5964 69.4665 54.6028 67.4364V61.7883C54.6415 59.4118 55.8848 57.2178 57.9034 55.9633C59.0877 55.1951 60.2107 54.3362 61.2626 53.3947L59.359 51.2685C58.418 52.1118 57.4127 52.8805 56.3523 53.5674C53.5188 55.3458 51.7843 58.4431 51.7488 61.7883V67.4364C51.7488 69.0127 50.4711 70.2904 48.8948 70.2904H37.4788C35.9025 70.2904 34.6248 69.0127 34.6248 67.4364V61.6699C34.5918 58.388 32.8845 55.3504 30.0983 53.6159C18.7881 46.5091 15.3804 31.5792 22.4872 20.269C26.8967 13.2516 34.5921 8.98037 42.88 8.95076C42.8587 9.00159 42.84 9.0535 42.8243 9.1063C42.7713 9.48089 42.8694 9.86136 43.0969 10.1637L46.4603 14.6488C46.8149 15.1077 46.849 15.7381 46.5459 16.2327C46.2541 16.7304 45.6899 17.0019 45.1189 16.9191L39.5679 16.1257C38.7877 16.0139 38.0647 16.5556 37.9527 17.3356C37.9527 17.3362 37.9525 17.3367 37.9525 17.3372L36.741 25.8122C36.6292 26.5922 37.1709 27.3154 37.9509 27.4274C37.9515 27.4274 37.952 27.4276 37.9525 27.4276L43.5036 28.221C44.2838 28.3321 44.8262 29.0547 44.7151 29.8349C44.6617 30.2099 44.4614 30.5481 44.1586 30.7753L39.6735 34.1388C39.0429 34.6116 38.9152 35.506 39.3881 36.1366L44.5253 42.9862C44.9982 43.6167 45.8925 43.7444 46.5231 43.2716L51.0096 39.9081C51.6407 39.4361 52.535 39.5651 53.007 40.1964C53.2329 40.4984 53.3301 40.8776 53.2771 41.2509L52.4851 46.802C52.3731 47.582 52.9146 48.3053 53.6948 48.4173C53.695 48.4173 53.695 48.4173 53.6952 48.4173L62.1716 49.6289C62.2383 49.6374 62.3055 49.6417 62.3728 49.6417C63.0833 49.6426 63.686 49.1207 63.787 48.4173L64.5789 42.8663C64.6901 42.0861 65.4127 41.5436 66.1929 41.6548C66.5678 41.7081 66.906 41.9084 67.1333 42.2113L70.4981 46.6964C70.971 47.3269 71.8654 47.4546 72.4959 46.9818L79.3456 41.8446C79.9761 41.3717 80.1038 40.4773 79.631 39.8468L76.2675 35.3617C75.9145 34.902 75.8804 34.2727 76.1819 33.7777C76.4675 33.2735 77.0368 33.0002 77.6089 33.0928L83.1599 33.8847C83.94 33.9968 84.6633 33.455 84.7753 32.675C84.7753 32.6748 84.7753 32.6748 84.7753 32.6747L85.9854 24.1983C86.0974 23.4181 85.5559 22.6949 84.7756 22.5829ZM37.4788 73.1444H48.8948V75.9984H37.4788V73.1444ZM37.4788 78.8524H48.8948V80.2794C48.8948 81.8557 47.6171 83.1334 46.0408 83.1334H40.3328C38.7565 83.1334 37.4788 81.8557 37.4788 80.2794V78.8524ZM26.1184 54.2438C26.8975 54.8809 27.7116 55.4742 28.5571 56.0204C29.9055 56.8725 30.9204 58.1616 31.4326 59.6721L28.3716 62.7273L25.4078 60.6838C24.1099 59.7895 22.3327 60.1166 21.4382 61.4145C21.2238 61.7257 21.0732 62.0764 20.9955 62.4462L20.2477 66.0094H16.8557L16.108 62.4519C15.7833 60.9095 14.2698 59.9222 12.7274 60.2468C12.3577 60.3246 12.007 60.4751 11.6957 60.6895L8.7304 62.7273L6.1304 60.133L8.17244 57.1706C9.0677 55.8732 8.74163 54.0959 7.44431 53.2006C7.13287 52.9857 6.78183 52.8348 6.41152 52.7568L2.85401 52.0077V48.6171L6.41152 47.8679C7.95339 47.541 8.93838 46.026 8.61142 44.484C8.53383 44.1181 8.38524 43.7712 8.17387 43.4628L6.1304 40.4918L8.7304 37.8975L11.6971 39.9409C12.9955 40.8344 14.7727 40.5062 15.6662 39.2078C15.8802 38.8969 16.0304 38.5466 16.108 38.1772L16.3577 36.9899C16.5864 38.6342 16.9651 40.2538 17.4893 41.8289C12.794 42.3886 9.4414 46.6489 10.0011 51.3443C10.5609 56.0397 14.8212 59.3922 19.5166 58.8325C22.3431 58.4953 24.8173 56.7756 26.1184 54.2438ZM23.9023 52.2331C22.8367 55.195 19.5719 56.7323 16.6099 55.6669C13.648 54.6012 12.1108 51.3364 13.1762 48.3745C13.9914 46.1086 16.1428 44.5994 18.5508 44.6044C18.5694 44.6044 18.5865 44.6044 18.6051 44.6044C19.9174 47.4339 21.7095 50.0149 23.9023 52.2331ZM82.1439 30.8538L78.0056 30.263C75.665 29.9287 73.4966 31.5553 73.1624 33.8958C73.0018 35.0197 73.2943 36.1615 73.9757 37.0698L76.483 40.4133L71.9166 43.8381L69.4079 40.496C67.9895 38.6044 65.3062 38.2207 63.4147 39.6391C62.5064 40.3202 61.9058 41.3342 61.7449 42.4582L61.167 46.6022L55.5175 45.7945L56.1083 41.6562C56.4434 39.3157 54.8177 37.1467 52.4773 36.8117C51.3526 36.6506 50.2103 36.9432 49.3015 37.6249L45.958 40.1322L42.5332 35.5658L45.8752 33.0571C47.7669 31.6386 48.1506 28.9554 46.7322 27.0639C46.0511 26.1556 45.0371 25.555 43.9131 25.3941L39.7748 24.8033L40.5825 19.1538L44.7208 19.7446C47.0613 20.0798 49.2303 18.454 49.5653 16.1136C49.7264 14.9889 49.4338 13.8466 48.7521 12.9378L46.2363 9.59148L50.8027 6.16668L53.3113 9.51014C54.7298 11.4018 57.4131 11.7855 59.3046 10.3671C60.2129 9.68602 60.8134 8.67196 60.9743 7.54802L61.5651 3.40971L67.2146 4.21597L66.6238 8.35427C66.2896 10.6949 67.916 12.8632 70.2566 13.1975C71.3806 13.358 72.5223 13.0655 73.4306 12.3841L76.7741 9.87688L80.1989 14.4433L76.8554 16.952C74.9638 18.3704 74.5801 21.0537 75.9985 22.9452C76.6796 23.8535 77.6936 24.4541 78.8176 24.6149L82.9559 25.2057L82.1439 30.8538Z" fill="#1E5DC5"/>
<path d="M61.3633 13.5869C55.0584 13.5869 49.9473 18.6981 49.9473 25.0029C49.9473 31.3078 55.0584 36.4189 61.3633 36.4189C67.6681 36.4189 72.7793 31.3078 72.7793 25.0029C72.7721 18.7009 67.6653 13.5939 61.3633 13.5869ZM61.3633 33.5649C56.6345 33.5649 52.8013 29.7316 52.8013 25.0029C52.8013 20.2742 56.6345 16.4409 61.3633 16.4409C66.092 16.4409 69.9253 20.2742 69.9253 25.0029C69.9197 29.7293 66.0897 33.5594 61.3633 33.5649Z" fill="#1E5DC5"/>
<path d="M44.6177 63.1553H41.7637V67.4363H44.6177V63.1553Z" fill="#1E5DC5"/>
<path d="M36.9437 49.1406C28.1346 45.6994 23.7832 35.7685 27.2246 26.9595C28.5581 23.5461 30.9514 20.6506 34.0526 18.6984L32.5271 16.2839C23.1917 22.1651 20.3914 34.5007 26.2726 43.8361C28.5503 47.4516 31.9273 50.2415 35.9077 51.7962C39.431 53.1462 41.7575 56.5282 41.7584 60.3011H44.6124C44.6169 55.3509 41.5663 50.9113 36.9437 49.1406Z" fill="#1E5DC5"/>
<path d="M80.2917 53.1664H70.3027V56.0204H80.2917V53.1664Z" fill="#1E5DC5"/>
<path d="M69.7858 60.6309L67.959 62.8236L76.5217 69.9574L78.3485 67.7647L69.7858 60.6309Z" fill="#1E5DC5"/>
<path d="M64.5962 64.5825H61.7422V74.5715H64.5962V64.5825Z" fill="#1E5DC5"/>
<path d="M12.8664 21.8142L1.45117 24.6677L2.14292 27.435L13.5581 24.5815L12.8664 21.8142Z" fill="#1E5DC5"/>
<path d="M5.48213 7.76993L3.82422 10.0911L13.8124 17.2253L15.4703 14.9042L5.48213 7.76993Z" fill="#1E5DC5"/>
<path d="M18.8138 0.0116923L16.0488 0.718628L18.9674 12.1337L21.7324 11.4268L18.8138 0.0116923Z" fill="#1E5DC5"/>
</g>
<defs>
<clipPath id="clip0">
<rect width="86" height="86" fill="white"/>
</clipPath>
</defs>
</svg>
