<svg width="30" height="30" viewBox="0 0 30 30" fill="none" xmlns="http://www.w3.org/2000/svg">
<path d="M6.75452 14.3956L6.75582 14.3951L21.2183 8.81883L21.2243 8.81653L21.2243 8.8166C21.6314 8.66953 22.0787 8.69936 22.3889 9.00172C22.6955 9.30052 22.7796 9.78009 22.6596 10.3402L22.6597 10.3398L22.3662 10.2775L22.6596 10.3404L6.75452 14.3956ZM6.75452 14.3956C6.48704 14.5002 6.2681 14.6228 6.10804 14.7633C5.94961 14.9024 5.82546 15.0809 5.80677 15.2941C5.78724 15.517 5.8886 15.7065 6.03621 15.8455C6.17955 15.9804 6.37718 16.0806 6.60303 16.1522L6.60441 16.1526L10.3069 17.3076L10.439 17.3488L10.5561 17.2751L18.3045 12.3967L12.3001 17.8211L12.2104 17.9022L12.202 18.0229L11.9357 21.8391L11.9133 22.16M6.75452 14.3956L11.9133 22.16M11.9133 22.16H12.235M11.9133 22.16H12.235M12.235 22.16C12.4772 22.16 12.669 22.106 12.8342 22.01C12.984 21.9229 13.1002 21.8067 13.1937 21.7131L13.2014 21.7053L12.235 22.16ZM14.8258 20.1404L15.0081 19.9648L14.8 19.7487L14.622 19.9902L14.8258 20.1404ZM22.0729 10.2146L22.0728 10.2152L19.6121 21.8125C19.612 21.8129 19.6119 21.8134 19.6118 21.8138C19.5289 22.1865 19.3955 22.3285 19.2917 22.3755C19.1908 22.4212 19.0107 22.4252 18.713 22.26L14.978 19.5072L14.7742 19.357L14.5919 19.5327L12.7831 21.2752L12.7831 21.2752L12.7791 21.2791C12.6882 21.37 12.627 21.4294 12.5628 21.4725L12.7921 18.1853L19.6495 11.9902C19.65 11.9897 19.6505 11.9893 19.651 11.9888C19.7461 11.9048 19.856 11.7741 19.8619 11.602C19.8694 11.3841 19.7148 11.2555 19.5828 11.2079C19.4595 11.1635 19.3235 11.1687 19.2038 11.1952C19.0796 11.2227 18.9489 11.2781 18.8222 11.3617L10.3535 16.6937L6.78447 15.5803C6.78427 15.5802 6.78407 15.5802 6.78386 15.5801C6.6082 15.5243 6.50242 15.4603 6.44746 15.4086C6.42118 15.3838 6.41085 15.366 6.40712 15.3576C6.40403 15.3507 6.40434 15.3481 6.40448 15.3465C6.40485 15.3422 6.41196 15.2949 6.50391 15.2142C6.59416 15.135 6.74454 15.0438 6.9723 14.9547C6.97253 14.9546 6.97275 14.9545 6.97298 14.9544L21.431 9.37988C21.6937 9.28584 21.8742 9.33785 21.9701 9.4314C22.0701 9.52881 22.1704 9.75979 22.0729 10.2146ZM29.7 15C29.7 23.1206 23.1206 29.7 15 29.7C6.87944 29.7 0.3 23.1206 0.3 15C0.3 6.87944 6.87944 0.3 15 0.3C23.1206 0.3 29.7 6.87944 29.7 15Z" stroke="#828282" stroke-width="0.6"/>
</svg>
