<svg width="16" height="16" viewBox="0 0 16 16" fill="none" xmlns="http://www.w3.org/2000/svg">
<g clip-path="url(#clip0)">
<path d="M15.9598 13.7101C15.8894 13.3722 15.5585 13.1552 15.2205 13.2256C14.8826 13.2959 14.6657 13.6269 14.736 13.9648C14.7766 14.1595 14.7283 14.359 14.6037 14.5123C14.5315 14.6011 14.3705 14.75 14.1037 14.75H1.89701C1.6302 14.75 1.46923 14.6011 1.39704 14.5123C1.27239 14.359 1.22414 14.1595 1.26467 13.9648C1.91329 10.8494 4.66126 8.57356 7.83467 8.49681C7.88964 8.49894 7.94485 8.5 8.00035 8.5C8.05604 8.5 8.11148 8.49891 8.16667 8.49678C10.402 8.55041 12.4682 9.68262 13.7194 11.5487C13.9116 11.8354 14.2998 11.9119 14.5866 11.7197C14.8733 11.5275 14.9499 11.1393 14.7576 10.8526C13.7321 9.32306 12.2429 8.21088 10.545 7.65203C11.5797 6.87613 12.2504 5.63991 12.2504 4.25C12.2504 1.90656 10.3438 0 8.00035 0C5.65689 0 3.75035 1.90656 3.75035 4.25C3.75035 5.64075 4.42185 6.87762 5.45764 7.65347C4.50864 7.96591 3.61817 8.45206 2.83879 9.09313C1.40967 10.2687 0.41601 11.9083 0.0409167 13.7101C-0.0766458 14.2747 0.0641979 14.8545 0.42726 15.301C0.788542 15.7452 1.32426 16 1.89701 16H14.1037C14.6764 16 15.2122 15.7452 15.5734 15.301C15.9365 14.8545 16.0774 14.2747 15.9598 13.7101ZM5.00035 4.25C5.00035 2.59578 6.34614 1.25 8.00035 1.25C9.65457 1.25 11.0004 2.59578 11.0004 4.25C11.0004 5.85328 9.73614 7.16684 8.1522 7.24619C8.10167 7.24525 8.05104 7.24478 8.00035 7.24478C7.94992 7.24478 7.89948 7.24528 7.8491 7.24622C6.26489 7.16719 5.00035 5.8535 5.00035 4.25Z" fill="#2A7DFF"/>
</g>
<defs>
<clipPath id="clip0">
<rect width="16" height="16" fill="white"/>
</clipPath>
</defs>
</svg>
