<svg width="200" height="200" viewBox="0 0 200 200" fill="none" xmlns="http://www.w3.org/2000/svg">
<path d="M92.2145 139.418C91.4883 138.688 90.4805 138.273 89.4531 138.273C88.4258 138.273 87.418 138.688 86.6914 139.418C85.9648 140.145 85.5469 141.148 85.5469 142.18C85.5469 143.207 85.9645 144.215 86.6914 144.941C87.418 145.668 88.4258 146.086 89.4531 146.086C90.4805 146.086 91.4883 145.668 92.2145 144.941C92.941 144.215 93.3594 143.207 93.3594 142.18C93.3594 141.152 92.9414 140.145 92.2145 139.418Z" fill="#00D2A0"/>
<path d="M175 104.691C172.843 104.691 171.094 106.44 171.094 108.598V125.777H103.906V116.135C103.906 101.281 92.7367 88.9953 78.3574 87.2133C81.1992 83.7062 82.9066 79.2441 82.9066 74.3887V46.9082C82.9066 44.7508 81.1574 43.002 79.0004 43.002H58.5621C49.4816 43.002 42.0941 50.3895 42.0941 59.4699V74.3887C42.0941 79.2437 43.8012 83.7059 46.6434 87.2133C32.2633 88.9957 21.0938 101.282 21.0938 116.136V125.777H7.8125V31.9313C7.8125 30.2609 9.18008 28.9023 10.8613 28.9023H92.0574C94.2145 28.9023 95.9637 27.1535 95.9637 24.9961C95.9637 22.8387 94.2145 21.0898 92.0574 21.0898H10.8613C4.87266 21.0898 0 25.9531 0 31.9313V147.748C0 153.727 4.87266 158.59 10.8613 158.59H70.3047V176.634C60.4504 177.632 52.7344 185.977 52.7344 196.09C52.7344 198.247 54.4836 199.996 56.6406 199.996H122.266C124.423 199.996 126.172 198.247 126.172 196.09C126.172 185.977 118.456 177.633 108.602 176.634V158.59H168.045C174.034 158.59 178.907 153.727 178.907 147.748V108.598C178.906 106.441 177.157 104.691 175 104.691ZM49.9062 59.4707C49.9062 54.698 53.7891 50.8152 58.5617 50.8152H75.0938V57.0519C75.0938 60.1504 72.5731 62.6711 69.4742 62.6711H49.9062V59.4707ZM49.9062 70.4836H69.4746C71.4805 70.4836 73.3832 70.0387 75.0941 69.2469V74.3895H75.0938C75.0938 81.3336 69.4441 86.9832 62.5 86.9832C55.5559 86.9832 49.9062 81.3336 49.9062 74.3895V70.4836ZM67.0582 94.7957L62.5 99.3539L57.9418 94.7957H67.0582ZM28.9062 116.136C28.9062 105.43 36.832 96.5422 47.1234 95.0262L59.7375 107.64C60.5004 108.403 61.5 108.784 62.4996 108.784C63.4992 108.784 64.4988 108.403 65.2617 107.64L77.8758 95.0262C88.168 96.5422 96.0938 105.43 96.0938 116.136V125.777H28.9062V116.136ZM117.691 192.184H61.2145C62.8277 187.623 67.1828 184.346 72.2898 184.346H74.2109H104.696H106.616C111.723 184.346 116.078 187.622 117.691 192.184ZM78.1172 176.534V158.59H100.789V176.534H78.1172ZM171.094 147.748C171.094 149.418 169.726 150.777 168.045 150.777H10.8613C9.18008 150.777 7.8125 149.418 7.8125 147.748V133.59H171.094V147.748Z" fill="#00D2A0"/>
<path d="M177.761 91.1211C177.035 90.3945 176.027 89.9766 175 89.9766C173.973 89.9766 172.965 90.3945 172.238 91.1211C171.512 91.8516 171.094 92.8555 171.094 93.8828C171.094 94.9141 171.511 95.918 172.238 96.6445C172.965 97.375 173.973 97.7891 175 97.7891C176.027 97.7891 177.035 97.375 177.761 96.6445C178.488 95.918 178.906 94.9141 178.906 93.8828C178.906 92.8555 178.488 91.8477 177.761 91.1211Z" fill="#00D2A0"/>
<path d="M175 18.3633H145.703C143.546 18.3633 141.797 20.1121 141.797 22.2695C141.797 24.427 143.546 26.1758 145.703 26.1758H175C177.157 26.1758 178.906 24.427 178.906 22.2695C178.906 20.1121 177.157 18.3633 175 18.3633Z" fill="#00D2A0"/>
<path d="M132.449 19.5078C131.723 18.7813 130.715 18.3633 129.688 18.3633C128.66 18.3633 127.652 18.7813 126.926 19.5078C126.199 20.2344 125.781 21.2422 125.781 22.2695C125.781 23.2969 126.199 24.3047 126.926 25.0313C127.653 25.7578 128.66 26.1758 129.688 26.1758C130.715 26.1758 131.723 25.7578 132.449 25.0313C133.175 24.3047 133.594 23.2969 133.594 22.2695C133.594 21.2422 133.176 20.2344 132.449 19.5078Z" fill="#00D2A0"/>
<path d="M175 35.5508H129.688C127.53 35.5508 125.781 37.2996 125.781 39.457C125.781 41.6145 127.53 43.3633 129.688 43.3633H175C177.157 43.3633 178.906 41.6145 178.906 39.457C178.906 37.2996 177.157 35.5508 175 35.5508Z" fill="#00D2A0"/>
<path d="M175 52.7383H129.688C127.53 52.7383 125.781 54.4871 125.781 56.6445C125.781 58.8019 127.53 60.5508 129.688 60.5508H175C177.157 60.5508 178.906 58.8019 178.906 56.6445C178.906 54.4871 177.157 52.7383 175 52.7383Z" fill="#00D2A0"/>
<path d="M180.469 0.00390625H124.219C113.449 0.00390625 104.688 8.76562 104.688 19.5352V61.332C104.688 71.3535 112.273 79.6363 122.005 80.7387V90.8891C122.005 92.4688 122.957 93.8934 124.416 94.498C124.9 94.6984 125.407 94.7957 125.911 94.7957C126.927 94.7957 127.926 94.3984 128.673 93.6516L141.461 80.8633H180.469C191.238 80.8633 200 72.1016 200 61.332V19.5352C200 8.76562 191.238 0.00390625 180.469 0.00390625ZM192.188 61.332C192.188 67.7937 186.93 73.0508 180.469 73.0508H139.844C138.808 73.0508 137.814 73.4625 137.082 74.1949L129.818 81.459V76.957C129.818 74.7996 128.068 73.0508 125.911 73.0508H124.219C117.757 73.0508 112.5 67.7937 112.5 61.332V19.5352C112.5 13.0734 117.757 7.81641 124.219 7.81641H180.469C186.93 7.81641 192.188 13.0734 192.188 19.5352V61.332Z" fill="#00D2A0"/>
</svg>
