<svg width="200" height="200" viewBox="0 0 200 200" fill="none" xmlns="http://www.w3.org/2000/svg">
<path d="M65.6284 154.687H62.2987L77.5089 139.476C78.6261 138.359 78.9601 136.679 78.3554 135.219C77.7507 133.76 76.3265 132.808 74.7464 132.808H49.0959C46.9384 132.808 45.1896 134.557 45.1896 136.714C45.1896 138.872 46.9384 140.621 49.0959 140.621H65.3159L50.1056 155.831C48.9885 156.948 48.6545 158.628 49.2592 160.088C49.8638 161.548 51.2881 162.499 52.8682 162.499H65.6284C73.8132 162.499 80.4718 169.158 80.4718 177.343C80.4718 185.527 73.8128 192.186 65.6284 192.186C57.444 192.186 50.7849 185.527 50.7849 177.343C50.7849 175.185 49.0361 173.436 46.8787 173.436C44.7212 173.436 42.9724 175.185 42.9724 177.343C42.9724 189.835 53.1357 199.998 65.6284 199.998C78.1206 199.998 88.2843 189.835 88.2843 177.343C88.2843 164.85 78.121 154.687 65.6284 154.687Z" fill="#00D2A0"/>
<path d="M113.288 132.812H112.698C110.54 132.812 108.792 134.561 108.792 136.718C108.792 138.876 110.54 140.624 112.698 140.624H113.288C124.49 140.624 133.603 149.738 133.603 160.941V171.87C133.603 183.072 124.49 192.186 113.288 192.186H103.917V176.171C103.917 174.013 102.168 172.264 100.01 172.264C97.8528 172.264 96.104 174.013 96.104 176.171V196.092C96.104 198.25 97.8528 199.998 100.01 199.998H113.288C128.798 199.998 141.416 187.38 141.416 171.87V160.941C141.416 145.43 128.798 132.812 113.288 132.812Z" fill="#00D2A0"/>
<path d="M102.772 159.346C102.046 158.62 101.038 158.202 100.011 158.202C98.9832 158.202 97.9753 158.62 97.2488 159.346C96.5222 160.073 96.1042 161.081 96.1042 162.108C96.1042 163.135 96.5222 164.143 97.2488 164.87C97.9753 165.596 98.9832 166.014 100.011 166.014C101.038 166.014 102.046 165.596 102.772 164.87C103.499 164.143 103.917 163.135 103.917 162.108C103.917 161.081 103.499 160.073 102.772 159.346Z" fill="#00D2A0"/>
<path d="M196.095 15.6269H147.656V3.90846C147.656 1.75103 145.907 0.00219727 143.749 0.00219727H56.2514C54.094 0.00219727 52.3451 1.75103 52.3451 3.90846V15.6269H3.90627C1.74884 15.6269 0 17.3757 0 19.5331V35.1578C0 37.3152 1.74884 39.0641 3.90627 39.0641H52.3451V41.4078C52.3451 42.4988 52.7936 43.4844 53.5151 44.1934L80.9277 71.606C81.498 72.1763 82.2273 72.549 83.0109 72.6872V87.4943C83.0109 88.8689 83.7335 90.1424 84.9136 90.8475L96.1359 97.553C96.1168 97.71 96.1039 97.869 96.1039 98.0311V148.828C96.1039 150.985 97.8527 152.734 100.01 152.734C102.168 152.734 103.916 150.985 103.916 148.828V98.0311C103.916 97.8662 103.903 97.7045 103.883 97.5448L115.091 90.8475C116.272 90.1424 116.994 88.8689 116.994 87.4943V72.6872C117.778 72.549 118.508 72.1763 119.077 71.606L146.513 44.1703C146.513 44.1696 146.513 44.1692 146.512 44.1684C147.218 43.4617 147.655 42.486 147.655 41.4078V39.0641H196.094C198.251 39.0641 200 37.3152 200 35.1578V19.5335C200.001 17.3757 198.252 15.6269 196.095 15.6269ZM52.3451 31.2515H7.81253V23.439H52.3451V31.2515ZM109.182 85.2779L100.003 90.7631L90.8234 85.2779V72.7501H109.182V85.2779H109.182ZM114.698 64.9372H85.3078L65.6842 45.3137H134.322L114.698 64.9372ZM139.844 37.5016H60.1573V26.564H105.536C107.694 26.564 109.443 24.8152 109.443 22.6578C109.443 20.5003 107.694 18.7515 105.536 18.7515H60.1573V7.81473H139.843V37.5016H139.844ZM192.188 31.2515H147.656V23.439H192.188V31.2515Z" fill="#00D2A0"/>
<path d="M122.145 18.7516H122.087C119.93 18.7516 118.181 20.5005 118.181 22.6579C118.181 24.8153 119.93 26.5642 122.087 26.5642H122.145C124.302 26.5642 126.051 24.8153 126.051 22.6579C126.051 20.5005 124.302 18.7516 122.145 18.7516Z" fill="#00D2A0"/>
</svg>
