<svg width="200" height="200" viewBox="0 0 200 200" fill="none" xmlns="http://www.w3.org/2000/svg">
<g clip-path="url(#clip0)">
<path d="M70.9844 143.287C70.702 143.206 70.4129 143.161 70.1219 143.145C74.4008 138.648 77.0359 132.573 77.0359 125.89V105.339C77.0359 105.151 77.018 104.968 76.9926 104.787C77.0184 104.416 77.0359 104.043 77.0359 103.665V90.6629C77.0359 88.5055 75.2871 86.7566 73.1297 86.7566H46.9293C35.8961 86.7566 26.9203 95.7328 26.9203 106.766V125.89C26.9203 132.573 29.5551 138.648 33.8344 143.145C33.5438 143.161 33.2547 143.206 32.9727 143.287C14.5129 144.958 0 160.517 0 179.405V196.094C0 198.251 1.74883 200 3.90625 200H100.05C102.207 200 103.956 198.251 103.956 196.094V179.405C103.956 160.518 89.4437 144.959 70.9844 143.287ZM34.7328 111.719V106.765C34.7328 100.04 40.2043 94.5687 46.9293 94.5687H69.2234V103.665C69.2234 108.244 65.498 111.97 60.9187 111.97H34.7328V111.719ZM34.7328 119.782H60.9187C63.9547 119.782 66.7965 118.937 69.2234 117.472V125.889C69.2234 135.398 61.4871 143.135 51.9781 143.135C42.4691 143.135 34.7328 135.398 34.7328 125.889V119.782ZM60.4801 150.948L51.9781 159.45L43.4762 150.948H60.4801ZM96.1438 192.188H7.8125V184.375H24.0234C26.1809 184.375 27.9297 182.626 27.9297 180.469C27.9297 178.311 26.1809 176.562 24.0234 176.562H7.95508C9.26719 163.392 19.598 152.845 32.6641 151.184L49.216 167.736C49.9484 168.468 50.9422 168.88 51.9781 168.88C53.0141 168.88 54.0078 168.468 54.7402 167.736L71.2922 151.184C85.2859 152.962 96.1438 164.936 96.1438 179.405V192.188Z" fill="#1E5DC5"/>
<path d="M167.029 56.5305C166.747 56.45 166.457 56.4047 166.166 56.3891C170.445 51.8918 173.08 45.8164 173.08 39.1336V18.582C173.08 18.3941 173.062 18.2109 173.036 18.0305C173.062 17.6594 173.08 17.2859 173.08 16.9086V3.90625C173.08 1.74883 171.331 0 169.173 0H142.973C131.94 0 122.964 8.97617 122.964 20.009V39.1332C122.964 45.816 125.599 51.8914 129.878 56.3887C129.587 56.4043 129.297 56.4496 129.014 56.5301C110.555 58.2023 96.0437 73.7613 96.0437 92.648V109.337C96.0437 111.494 97.7925 113.243 99.95 113.243H131.38C133.537 113.243 135.286 111.494 135.286 109.337C135.286 107.179 133.537 105.43 131.38 105.43H103.856V92.6484C103.856 78.1793 114.714 66.2062 128.707 64.4277L145.259 80.9797C146.022 81.7426 147.022 82.1238 148.021 82.1238C149.021 82.1238 150.021 81.7426 150.784 80.9797L167.336 64.4277C181.33 66.2066 192.187 78.1793 192.187 92.6484V105.431H163.411C161.254 105.431 159.505 107.18 159.505 109.337C159.505 111.495 161.254 113.243 163.411 113.243H196.094C198.251 113.243 200 111.495 200 109.337V92.6484C200 73.7617 185.488 58.2027 167.029 56.5305ZM148.022 72.6934L139.52 64.1914H156.524L148.022 72.6934ZM165.268 39.1332C165.268 48.6422 157.531 56.3785 148.022 56.3785C138.513 56.3785 130.777 48.6426 130.777 39.1336V33.0258H156.963C159.999 33.0258 162.841 32.1809 165.268 30.7156V39.1332ZM165.268 16.9086C165.268 21.4879 161.542 25.2133 156.963 25.2133H130.777V24.9629V20.009C130.777 13.284 136.248 7.8125 142.973 7.8125H165.268V16.9086Z" fill="#1E5DC5"/>
<path d="M150.785 106.574C150.059 105.848 149.051 105.43 148.023 105.43C146.992 105.43 145.988 105.848 145.262 106.574C144.531 107.301 144.117 108.309 144.117 109.336C144.117 110.367 144.531 111.371 145.262 112.098C145.988 112.828 146.992 113.242 148.023 113.242C149.051 113.242 150.059 112.828 150.785 112.098C151.512 111.371 151.93 110.367 151.93 109.336C151.93 108.309 151.512 107.301 150.785 106.574Z" fill="#1E5DC5"/>
<path d="M104.455 54.6598L88.1188 38.3234V19.5312C88.1188 8.76172 79.357 0 68.5875 0H19.5312C8.76172 0 0 8.76172 0 19.5312V53.9062C0 64.6758 8.76172 73.4375 19.5312 73.4375H68.5871C76.6629 73.4375 83.7051 68.591 86.6598 61.3281H101.693C103.272 61.3281 104.697 60.3762 105.302 58.9168C105.906 57.4574 105.572 55.777 104.455 54.6598ZM83.8102 53.5156C81.9902 53.5156 80.4113 54.7723 80.0031 56.5461C78.7734 61.8914 74.0793 65.625 68.5871 65.625H19.5312C13.0695 65.625 7.8125 60.368 7.8125 53.9062V19.5312C7.8125 13.0695 13.0695 7.8125 19.5312 7.8125H68.5871C75.0488 7.8125 80.3059 13.0695 80.3059 19.5312V39.9414C80.3059 40.9773 80.7176 41.9711 81.45 42.7035L92.2621 53.5156H83.8102Z" fill="#1E5DC5"/>
<path d="M180.469 126.562H131.413C123.337 126.562 116.295 131.409 113.34 138.672H98.3073C96.7277 138.672 95.303 139.624 94.6984 141.083C94.0937 142.543 94.428 144.223 95.5448 145.34L111.881 161.677V180.469C111.881 191.238 120.643 200 131.412 200H180.469C191.238 200 200 191.238 200 180.469V146.094C200 135.324 191.238 126.562 180.469 126.562ZM192.187 180.469C192.187 186.93 186.93 192.188 180.469 192.188H131.413C124.951 192.188 119.694 186.93 119.694 180.469V160.059C119.694 159.023 119.282 158.029 118.55 157.296L107.738 146.484H116.19C118.01 146.484 119.589 145.228 119.997 143.454C121.226 138.109 125.921 134.375 131.413 134.375H180.469C186.93 134.375 192.187 139.632 192.187 146.094V180.469Z" fill="#1E5DC5"/>
<path d="M173.498 152.888C171.973 151.362 169.5 151.362 167.975 152.888L157.591 163.272L152.762 158.443C151.237 156.918 148.763 156.918 147.238 158.443C145.712 159.968 145.712 162.442 147.238 163.968L154.828 171.558C155.591 172.321 156.591 172.702 157.59 172.702C158.59 172.702 159.59 172.321 160.352 171.558L173.498 158.412C175.024 156.887 175.024 154.413 173.498 152.888Z" fill="#1E5DC5"/>
<path d="M61.8175 25.8859C61.3558 19.1879 55.9565 13.7887 49.2585 13.327C45.4604 13.0656 41.8401 14.3469 39.0667 16.9359C36.3319 19.4887 34.7632 23.0981 34.7632 26.8379C34.7636 28.9957 36.5124 30.7445 38.6698 30.7445C40.8272 30.7445 42.5761 28.9957 42.5761 26.8383C42.5761 25.2324 43.2229 23.7441 44.3979 22.6473C45.571 21.552 47.1081 21.0082 48.7218 21.1215C51.5495 21.3164 53.8288 23.5957 54.0237 26.4234C54.221 29.2824 52.3468 31.809 49.5675 32.4309C46.5253 33.1113 44.4007 35.7563 44.4007 38.8625V40.9465C44.4007 43.1039 46.1495 44.8527 48.3069 44.8527C50.4644 44.8527 52.2132 43.1039 52.2132 40.9465V39.8098C58.2655 38.0043 62.2597 32.2984 61.8175 25.8859Z" fill="#1E5DC5"/>
<path d="M51.0703 53.1328C50.3438 52.4063 49.3359 51.9883 48.3086 51.9883C47.2773 51.9883 46.2734 52.4063 45.5469 53.1328C44.8164 53.8594 44.4023 54.8672 44.4023 55.8945C44.4023 56.9219 44.8164 57.9297 45.5469 58.6563C46.2734 59.3828 47.2773 59.8008 48.3086 59.8008C49.3359 59.8008 50.3438 59.3828 51.0703 58.6563C51.7969 57.9297 52.2148 56.9219 52.2148 55.8945C52.2148 54.8672 51.7969 53.8594 51.0703 53.1328Z" fill="#1E5DC5"/>
<path d="M42.4102 177.707C41.6836 176.98 40.6758 176.562 39.6484 176.562C38.6211 176.562 37.6133 176.98 36.8867 177.707C36.1602 178.434 35.7422 179.441 35.7422 180.469C35.7422 181.496 36.1602 182.504 36.8867 183.23C37.6133 183.957 38.6211 184.375 39.6484 184.375C40.6758 184.375 41.6836 183.957 42.4102 183.23C43.1367 182.504 43.5547 181.496 43.5547 180.469C43.5547 179.441 43.1367 178.434 42.4102 177.707Z" fill="#1E5DC5"/>
</g>
<defs>
<clipPath id="clip0">
<rect width="200" height="200" fill="white"/>
</clipPath>
</defs>
</svg>
