<svg width="200" height="200" viewBox="0 0 200 200" fill="none" xmlns="http://www.w3.org/2000/svg">
<g clip-path="url(#clip0)">
<path d="M100 192.188C98.9727 192.188 97.9648 192.605 97.2383 193.332C96.5117 194.059 96.0938 195.066 96.0938 196.094C96.0938 197.121 96.5113 198.129 97.2383 198.855C97.9648 199.582 98.9727 200 100 200C101.027 200 102.035 199.582 102.761 198.855C103.488 198.129 103.906 197.121 103.906 196.094C103.906 195.066 103.488 194.059 102.761 193.332C102.035 192.605 101.027 192.188 100 192.188Z" fill="#1E5DC5"/>
<path d="M118.123 143.574C122.408 139.077 125.047 132.999 125.047 126.311V112.243C125.047 98.4325 113.811 87.1962 100 87.1962C86.1891 87.1962 74.9531 98.4325 74.9531 112.243V126.311C74.9531 132.998 77.5922 139.077 81.8773 143.574C63.1043 144.273 48.0469 159.761 48.0469 178.702V196.094C48.0469 198.251 49.7961 200 51.9531 200H84.375C86.532 200 88.2812 198.251 88.2812 196.094C88.2812 193.937 86.532 192.188 84.375 192.188H55.8594V178.702C55.8594 163.625 68.1258 151.359 83.2031 151.359H116.797C131.874 151.359 144.141 163.625 144.141 178.702V192.188H115.625C113.468 192.188 111.719 193.937 111.719 196.094C111.719 198.251 113.468 200 115.625 200H148.047C150.204 200 151.953 198.251 151.953 196.094V178.702C151.953 159.761 136.896 144.273 118.123 143.574ZM82.7656 112.243C82.7656 102.74 90.4969 95.0091 100 95.0091C109.503 95.0091 117.234 102.74 117.234 112.243V126.312C117.234 135.815 109.503 143.546 100 143.546C90.4969 143.546 82.7656 135.815 82.7656 126.312V112.243Z" fill="#1E5DC5"/>
<path d="M198.856 59.6208L177.54 38.3044C176.423 37.1872 174.743 36.854 173.283 37.4575C171.823 38.0622 170.871 39.4864 170.871 41.0665V49.2419H137.475C135.318 49.2419 133.568 50.9911 133.568 53.1481V97.0052C133.568 99.1622 135.318 100.911 137.475 100.911H156.126C158.283 100.911 160.032 99.1622 160.032 97.0052V75.7059H170.871V83.6993C170.871 85.2794 171.823 86.7036 173.283 87.3083C174.743 87.9122 176.423 87.5786 177.54 86.4614L198.856 65.1454C199.589 64.4126 200 63.4192 200 62.3833C200 61.3473 199.589 60.3536 198.856 59.6208ZM178.684 74.2688V71.7997C178.684 69.6427 176.934 67.8934 174.777 67.8934H156.126C153.969 67.8934 152.22 69.6427 152.22 71.7997V93.0989H141.38V57.0544H174.777C176.934 57.0544 178.684 55.3052 178.684 53.1481V50.4973L190.57 62.3833L178.684 74.2688Z" fill="#1E5DC5"/>
<path d="M66.4324 97.0051V53.1476C66.4324 50.9906 64.6832 49.2414 62.5262 49.2414H29.1289V41.0664C29.1289 39.4863 28.177 38.0621 26.7176 37.4574C25.2578 36.8539 23.5773 37.1871 22.4605 38.3043L1.14453 59.6207C-0.380859 61.1461 -0.380859 63.6195 1.14453 65.1453L22.4605 86.4613C23.5773 87.5785 25.2578 87.9121 26.7176 87.3082C28.177 86.7035 29.1289 85.2793 29.1289 83.6992V75.7059H39.9684V97.0051C39.9684 99.1621 41.7176 100.911 43.8746 100.911H62.5262C64.6832 100.911 66.4324 99.1621 66.4324 97.0051ZM58.6199 93.0988H47.7809V71.7996C47.7809 69.6426 46.0316 67.8934 43.8746 67.8934H25.2227C23.0656 67.8934 21.3164 69.6426 21.3164 71.7996V74.2684L9.43047 62.3828L21.3164 50.4969V53.1476C21.3164 55.3047 23.0656 57.0539 25.2227 57.0539H58.6199V93.0988Z" fill="#1E5DC5"/>
<path d="M109.324 46.0938C108.297 46.0938 107.289 46.5114 106.562 47.2384C105.836 47.9653 105.422 48.9727 105.422 50.0001C105.422 51.0274 105.836 52.0352 106.562 52.7614C107.289 53.488 108.297 53.9063 109.324 53.9063C110.355 53.9063 111.359 53.4884 112.086 52.7614C112.816 52.0352 113.23 51.0274 113.23 50.0001C113.23 48.9727 112.816 47.9649 112.086 47.2384C111.359 46.5114 110.355 46.0938 109.324 46.0938Z" fill="#1E5DC5"/>
<path d="M78.6371 29.1755H86.768V71.4845C86.768 73.6415 88.5172 75.3907 90.6743 75.3907H109.326C111.483 75.3907 113.232 73.6415 113.232 71.4845V65.6251C113.232 63.4681 111.483 61.7188 109.326 61.7188C107.169 61.7188 105.42 63.4681 105.42 65.6251V67.5782H94.5805V25.2692C94.5805 23.1122 92.8313 21.363 90.6743 21.363H88.0676L100 9.43056L111.932 21.363H109.326C107.169 21.363 105.42 23.1122 105.42 25.2692V34.3751C105.42 36.5321 107.169 38.2813 109.326 38.2813C111.483 38.2813 113.232 36.5321 113.232 34.3751V29.1755H121.363C122.943 29.1755 124.367 28.2235 124.972 26.7642C125.576 25.3044 125.242 23.6243 124.125 22.5071L102.763 1.14423C101.237 -0.380769 98.7641 -0.380769 97.2379 1.14423L75.875 22.5071C74.7582 23.6243 74.4239 25.3044 75.0282 26.7642C75.6325 28.2239 77.0571 29.1755 78.6371 29.1755Z" fill="#1E5DC5"/>
</g>
<defs>
<clipPath id="clip0">
<rect width="200" height="200" fill="white"/>
</clipPath>
</defs>
</svg>
