<svg width="30" height="21" viewBox="0 0 30 21" fill="none" xmlns="http://www.w3.org/2000/svg">
<path d="M25.884 1.87693L25.8855 1.87734C26.9526 2.16472 27.795 3.00701 28.082 4.07414L28.4683 3.97024L28.0825 4.07587C28.3709 5.12904 28.5148 6.78572 28.5844 8.20895C28.6189 8.91436 28.6347 9.55194 28.6419 10.0132C28.6455 10.2437 28.647 10.43 28.6475 10.5583C28.6478 10.6225 28.6478 10.6722 28.6478 10.7058L28.6477 10.7437L28.6477 10.7531L28.6477 10.7554L28.6477 10.7559L28.6477 10.7561V10.7581V10.7582V10.7587L28.6477 10.761L28.6477 10.7704L28.6475 10.8082C28.6474 10.8416 28.6471 10.8911 28.6466 10.955C28.6454 11.0828 28.6432 11.2682 28.6387 11.4977C28.6297 11.957 28.6117 12.5919 28.5758 13.2947C28.5034 14.7114 28.3597 16.3639 28.0821 17.4197C27.7946 18.486 26.9529 19.3277 25.8865 19.615C25.3769 19.7489 24.4499 19.8559 23.313 19.9375C22.1862 20.0184 20.8858 20.0725 19.6504 20.1086C18.4157 20.1447 17.2491 20.1628 16.391 20.1719C15.9621 20.1764 15.6104 20.1786 15.3661 20.1798C15.2439 20.1803 15.1486 20.1806 15.0839 20.1807L15.0102 20.1809L14.9915 20.1809L14.9868 20.1809L14.9857 20.1809H14.9854L14.9853 20.5809L14.9853 20.1809H14.985L14.9839 20.1809L14.9792 20.1809L14.9605 20.1809L14.8871 20.1807C14.8226 20.1806 14.7275 20.1803 14.6056 20.1797C14.3619 20.1785 14.0111 20.1762 13.583 20.1715C12.7268 20.1621 11.5625 20.1433 10.3293 20.1058C9.09547 20.0682 7.79596 20.012 6.66837 19.9279C5.52971 19.843 4.59988 19.7317 4.08557 19.5924L4.085 19.5923C3.018 19.305 2.17599 18.463 1.88845 17.3962C1.61101 16.3527 1.4672 14.7005 1.39473 13.2802C1.3588 12.576 1.34082 11.9389 1.33183 11.4778C1.32733 11.2474 1.32509 11.0612 1.32397 10.9328C1.32341 10.8686 1.32313 10.8188 1.32299 10.7853L1.32287 10.7473L1.32285 10.7378L1.32285 10.7355L1.32285 10.735L1.32285 10.7349L0.922852 10.7349L1.32285 10.7349L1.32285 10.7348L1.32285 10.7343L1.32285 10.732L1.32287 10.7226L1.32299 10.6848C1.32313 10.6514 1.32341 10.6019 1.32397 10.538C1.32509 10.4102 1.32733 10.2248 1.33182 9.99522C1.34082 9.53598 1.3588 8.90106 1.39473 8.19825C1.46716 6.78144 1.61092 5.12889 1.88858 4.07313C2.17604 3.00607 3.04172 2.14144 4.08465 1.85457C4.5944 1.72074 5.52104 1.61389 6.65737 1.53231C7.78414 1.45141 9.08458 1.3973 10.3199 1.36116C11.5547 1.32505 12.7212 1.30698 13.5793 1.29795C14.0083 1.29343 14.36 1.29117 14.6043 1.29004C14.7264 1.28948 14.8218 1.2892 14.8865 1.28906L14.9601 1.28893L14.9788 1.28892L14.9835 1.28892L14.9847 1.28892L14.9849 1.28892L14.985 0.888916L14.9851 1.28892L14.9854 1.28892L14.9865 1.28892L14.9912 1.28892L15.0099 1.28893L15.0835 1.28906C15.1482 1.28921 15.2435 1.2895 15.3657 1.29009C15.61 1.29126 15.9616 1.29361 16.3906 1.2983C17.2486 1.30769 18.4151 1.32647 19.6498 1.364C20.8851 1.40156 22.1853 1.45779 23.3118 1.54186C24.4497 1.62677 25.376 1.73794 25.884 1.87693ZM11.7821 14.9512V15.6432L12.3818 15.2979L19.7024 11.0815L20.3042 10.7349L19.7024 10.3883L12.3818 6.17193L11.7821 5.82657V6.51855V14.9512Z" stroke="#217BFF" stroke-width="0.8"/>
</svg>
