<svg width="30" height="30" viewBox="0 0 30 30" fill="none" xmlns="http://www.w3.org/2000/svg">
<path d="M28.4683 7.97036C28.1442 6.76547 27.1943 5.81567 25.9895 5.49123C23.7887 4.88904 14.985 4.88904 14.985 4.88904C14.985 4.88904 6.1817 4.88904 3.98083 5.4684C2.79928 5.79249 1.82613 6.76564 1.50204 7.97036C0.922852 10.1711 0.922852 14.735 0.922852 14.735C0.922852 14.735 0.922852 19.322 1.50204 21.4997C1.82648 22.7044 2.77611 23.6542 3.981 23.9786C6.20487 24.581 14.9854 24.581 14.9854 24.581C14.9854 24.581 23.7887 24.581 25.9895 24.0016C27.1944 23.6774 28.1442 22.7276 28.4687 21.5229C29.0477 19.322 29.0477 14.7582 29.0477 14.7582C29.0477 14.7582 29.0709 10.1711 28.4683 7.97036ZM12.1821 18.9514V10.5187L19.5028 14.735L12.1821 18.9514Z" fill="#333333"/>
</svg>
